<svg width="26" height="20" viewBox="0 0 26 20" fill="none" xmlns="http://www.w3.org/2000/svg">
<path d="M1.47949 18.9999V17.9411C1.47949 13.8476 4.76399 10.5293 8.81563 10.5293C12.8673 10.5293 16.1518 13.8476 16.1518 17.9411V18.9999" stroke="#002E23" stroke-width="1.58824" stroke-linecap="round"/>
<path d="M14.0557 12.6471C14.0557 9.72331 16.4018 7.35303 19.2958 7.35303C22.1898 7.35303 24.5359 9.72331 24.5359 12.6471V13.1766" stroke="#002E23" stroke-width="1.58824" stroke-linecap="round"/>
<path d="M8.81586 10.5297C11.131 10.5297 13.0079 8.63342 13.0079 6.29438C13.0079 3.95529 11.131 2.05908 8.81586 2.05908C6.50063 2.05908 4.62378 3.95529 4.62378 6.29438C4.62378 8.63342 6.50063 10.5297 8.81586 10.5297Z" stroke="#002E23" stroke-width="1.58824" stroke-linecap="round" stroke-linejoin="round"/>
<path d="M19.2959 7.35294C21.0324 7.35294 22.44 5.93078 22.44 4.17647C22.44 2.42216 21.0324 1 19.2959 1C17.5594 1 16.1519 2.42216 16.1519 4.17647C16.1519 5.93078 17.5594 7.35294 19.2959 7.35294Z" stroke="#002E23" stroke-width="1.58824" stroke-linecap="round" stroke-linejoin="round"/>
</svg>
