<svg width="21" height="29" viewBox="0 0 21 29" fill="none" xmlns="http://www.w3.org/2000/svg">
<path d="M7.37402 9.99429L7.38847 9.97705" stroke="#002E23" stroke-width="2" stroke-linecap="round" stroke-linejoin="round"/>
<path d="M13.2986 9.99429L13.313 9.97705" stroke="#002E23" stroke-width="2" stroke-linecap="round" stroke-linejoin="round"/>
<path d="M7.37402 15.9801L7.38847 15.9629" stroke="#002E23" stroke-width="2" stroke-linecap="round" stroke-linejoin="round"/>
<path d="M13.2986 15.9801L13.313 15.9629" stroke="#002E23" stroke-width="2" stroke-linecap="round" stroke-linejoin="round"/>
<path d="M7.37402 21.966L7.38847 21.9487" stroke="#002E23" stroke-width="2" stroke-linecap="round" stroke-linejoin="round"/>
<path d="M13.2986 21.966L13.313 21.9487" stroke="#002E23" stroke-width="2" stroke-linecap="round" stroke-linejoin="round"/>
<path d="M1.44897 27.0381V4.89075C1.44897 4.39487 1.84686 3.99288 2.33768 3.99288H10.336V1.89786C10.336 1.40199 10.7338 1 11.2247 1H18.3343C18.8252 1 19.223 1.40199 19.223 1.89786V27.0381C19.223 27.534 18.8252 27.9359 18.3343 27.9359H2.33768C1.84686 27.9359 1.44897 27.534 1.44897 27.0381Z" stroke="#002E23" stroke-width="2" stroke-linecap="round" stroke-linejoin="round"/>
</svg>
