<svg width="20" height="19" viewBox="0 0 20 19" fill="none" xmlns="http://www.w3.org/2000/svg">
<path d="M8.69716 0C8.52883 0 8.41661 0.0910845 8.33245 0.20494L0.0841661 15.7121C0.0280554 15.8259 0 16.0081 0 16.1447V17.9892C0 18.103 0.112221 18.1941 0.252498 18.1941H19.3582C19.4985 18.1941 19.6107 18.103 19.6107 17.9892V16.1447C19.6107 16.0309 19.5826 15.8259 19.5265 15.7121L11.2783 0.20494C11.2221 0.0910845 11.0819 0 10.9135 0H8.64105L8.69716 0ZM8.44467 6.83134H11.2502V11.3856H8.44467V6.83134ZM8.44467 13.6627H11.2502V15.9398H8.44467V13.6627Z" fill="#FF0000" fill-opacity="0.6"/>
</svg>
