<svg width="28" height="26" viewBox="0 0 28 26" fill="none" xmlns="http://www.w3.org/2000/svg">
<path d="M23.9741 11.1053C23.9741 5.52429 19.496 1 13.9719 1C8.44785 1 3.96973 5.52429 3.96973 11.1053" stroke="#002E23" stroke-width="2" stroke-linecap="round" stroke-linejoin="round"/>
<path d="M1.46924 16.7114V14.3407C1.46924 13.1813 2.25015 12.1709 3.36331 11.8897L5.53822 11.3404C6.01169 11.2208 6.47032 11.5825 6.47032 12.0757V18.9763C6.47032 19.4695 6.01169 19.8312 5.53822 19.7116L3.36331 19.1623C2.25015 18.8811 1.46924 17.8707 1.46924 16.7114Z" stroke="#002E23" stroke-width="2"/>
<path d="M26.4745 16.7114V14.3407C26.4745 13.1813 25.6936 12.1709 24.5804 11.8897L22.4055 11.3404C21.932 11.2208 21.4734 11.5825 21.4734 12.0757V18.9763C21.4734 19.4695 21.932 19.8312 22.4055 19.7116L24.5804 19.1623C25.6936 18.8811 26.4745 17.8707 26.4745 16.7114Z" stroke="#002E23" stroke-width="2"/>
<path d="M23.9741 19.9473V20.5788C23.9741 21.9741 22.8547 23.1052 21.4736 23.1052H17.0977" stroke="#002E23" stroke-width="2"/>
<path d="M15.8472 24.9999H12.0964C11.0606 24.9999 10.2209 24.1516 10.2209 23.1052C10.2209 22.0588 11.0606 21.2104 12.0964 21.2104H15.8472C16.8829 21.2104 17.7226 22.0588 17.7226 23.1052C17.7226 24.1516 16.8829 24.9999 15.8472 24.9999Z" stroke="#002E23" stroke-width="2"/>
</svg>
