<svg width="22" height="23" viewBox="0 0 22 23" fill="none" xmlns="http://www.w3.org/2000/svg">
<path d="M16.4908 10.2124C17.0865 15.7148 19.4249 17.3777 19.4249 17.3777H1C1 17.3777 4.07082 15.194 4.07082 7.55107C4.07082 5.81362 4.71788 4.14733 5.86966 2.91877C7.02144 1.6902 8.58359 1 10.2124 1C10.5577 1 10.9 1.03102 11.2361 1.0916" stroke="black" stroke-opacity="0.6" stroke-width="1.53541" stroke-linecap="round" stroke-linejoin="round"/>
<path d="M17.3777 7.14163C19.0737 7.14163 20.4485 5.76678 20.4485 4.07082C20.4485 2.37486 19.0737 1 17.3777 1C15.6817 1 14.3069 2.37486 14.3069 4.07082C14.3069 5.76678 15.6817 7.14163 17.3777 7.14163Z" stroke="black" stroke-opacity="0.6" stroke-width="1.53541" stroke-linecap="round" stroke-linejoin="round"/>
<path d="M11.9833 20.4487C11.8034 20.759 11.5451 21.0165 11.2343 21.1955C10.9235 21.3745 10.5712 21.4688 10.2125 21.4688C9.85382 21.4688 9.50149 21.3745 9.19072 21.1955C8.87996 21.0165 8.6216 20.759 8.44165 20.4487" stroke="black" stroke-opacity="0.6" stroke-width="1.53541" stroke-linecap="round" stroke-linejoin="round"/>
</svg>
