<svg width="27" height="27" viewBox="0 0 27 27" fill="none" xmlns="http://www.w3.org/2000/svg">
<path d="M16.4502 23.5338V16.8103C16.4502 16.4261 16.7584 16.1147 17.1386 16.1147H23.7935C24.1738 16.1147 24.482 16.4261 24.482 16.8103V23.5338C24.482 23.918 24.1738 24.2293 23.7935 24.2293H17.1386C16.7584 24.2293 16.4502 23.918 16.4502 23.5338Z" stroke="#002E23" stroke-width="3.82456"/>
<path d="M2.47974 23.5338V16.8103C2.47974 16.4261 2.78796 16.1147 3.16817 16.1147H9.82307C10.2033 16.1147 10.5115 16.4261 10.5115 16.8103V23.5338C10.5115 23.918 10.2033 24.2293 9.82307 24.2293H3.16817C2.78796 24.2293 2.47974 23.918 2.47974 23.5338Z" stroke="#002E23" stroke-width="3.82456"/>
<path d="M16.4502 9.41904V2.69554C16.4502 2.3114 16.7584 2 17.1386 2H23.7935C24.1738 2 24.482 2.3114 24.482 2.69554V9.41904C24.482 9.80318 24.1738 10.1146 23.7935 10.1146H17.1386C16.7584 10.1146 16.4502 9.80318 16.4502 9.41904Z" stroke="#002E23" stroke-width="3.82456"/>
<path d="M2.47974 9.41904V2.69554C2.47974 2.3114 2.78796 2 3.16817 2H9.82307C10.2033 2 10.5115 2.3114 10.5115 2.69554V9.41904C10.5115 9.80318 10.2033 10.1146 9.82307 10.1146H3.16817C2.78796 10.1146 2.47974 9.80318 2.47974 9.41904Z" stroke="#002E23" stroke-width="3.82456"/>
</svg>
