<svg width="26" height="21" viewBox="0 0 26 21" fill="none" xmlns="http://www.w3.org/2000/svg">
<path d="M20.2854 19.9999L24.7804 15.4586C24.9126 15.325 24.9869 15.1438 24.9869 14.9549V8.71874C24.9869 7.73499 24.1975 6.9375 23.2238 6.9375C22.2502 6.9375 21.4608 7.73499 21.4608 8.71874V14.0625" stroke="#002E23" stroke-width="2" stroke-linecap="round" stroke-linejoin="round"/>
<path d="M20.2857 15.2504L21.2943 14.2314C21.4011 14.1234 21.4611 13.9771 21.4611 13.8247C21.4611 13.6067 21.3392 13.4076 21.1463 13.3101L20.6257 13.0472C19.7208 12.59 18.6277 12.7692 17.9123 13.492L16.8604 14.5547C16.4195 15.0002 16.1719 15.6042 16.1719 16.2341V20.0003" stroke="#002E23" stroke-width="2" stroke-linecap="round" stroke-linejoin="round"/>
<path d="M6.181 19.9999L1.68605 15.4586C1.55379 15.325 1.47949 15.1438 1.47949 14.9549V8.71874C1.47949 7.73499 2.26884 6.9375 3.24256 6.9375C4.21627 6.9375 5.00562 7.73499 5.00562 8.71874V14.0625" stroke="#002E23" stroke-width="2" stroke-linecap="round" stroke-linejoin="round"/>
<path d="M6.18099 15.2504L5.17237 14.2314C5.06559 14.1234 5.00562 13.9771 5.00562 13.8247C5.00562 13.6067 5.12745 13.4076 5.32033 13.3101L5.84092 13.0472C6.74592 12.59 7.83897 12.7692 8.55444 13.492L9.60629 14.5547C10.0471 15.0002 10.2948 15.6042 10.2948 16.2341V20.0003" stroke="#002E23" stroke-width="2" stroke-linecap="round" stroke-linejoin="round"/>
<path d="M15.1925 10.5H11.2745V7.72914H8.53198V3.77082H11.2745V1H15.1925V3.77082H17.935V7.72914H15.1925V10.5Z" stroke="#002E23" stroke-width="2" stroke-linecap="round" stroke-linejoin="round"/>
</svg>
