<svg width="27" height="26" viewBox="0 0 27 26" fill="none" xmlns="http://www.w3.org/2000/svg">
<path d="M13.3264 16.5999C15.2944 16.5999 16.8897 14.9882 16.8897 12.9999C16.8897 11.0116 15.2944 9.3999 13.3264 9.3999C11.3585 9.3999 9.76318 11.0116 9.76318 12.9999C9.76318 14.9882 11.3585 16.5999 13.3264 16.5999Z" stroke="#002E23" stroke-width="2" stroke-linecap="round" stroke-linejoin="round"/>
<path d="M22.3801 11.0745L21.0763 7.89376L22.8286 5.8L20.4531 3.4L18.3919 5.17954L15.1768 3.84369L14.4374 1H12.1162L11.3657 3.88136L8.22442 5.21915L6.19999 3.4L3.82448 5.8L5.55073 7.94662L4.26692 11.1356L1.44897 11.8V14.2L4.30091 14.9866L5.62482 18.1596L3.82448 20.2L6.19999 22.6L8.32745 20.8484L11.4226 22.1348L12.1388 25H14.5143L15.2323 22.1358L18.3805 20.8186C18.9053 21.1976 20.4531 22.6 20.4531 22.6L22.8286 20.2L21.0658 18.0993L22.37 14.9176L25.204 14.1726L25.2041 11.8L22.3801 11.0745Z" stroke="#002E23" stroke-width="2" stroke-linecap="round" stroke-linejoin="round"/>
</svg>
