<svg width="25" height="25" viewBox="0 0 25 25" fill="none" xmlns="http://www.w3.org/2000/svg">
<path d="M15.4502 22.5338V15.8103C15.4502 15.4261 15.7584 15.1147 16.1386 15.1147H22.7935C23.1738 15.1147 23.482 15.4261 23.482 15.8103V22.5338C23.482 22.918 23.1738 23.2293 22.7935 23.2293H16.1386C15.7584 23.2293 15.4502 22.918 15.4502 22.5338Z" stroke="#002E23" stroke-width="2"/>
<path d="M1.47974 22.5338V15.8103C1.47974 15.4261 1.78796 15.1147 2.16817 15.1147H8.82307C9.20328 15.1147 9.51151 15.4261 9.51151 15.8103V22.5338C9.51151 22.918 9.20328 23.2293 8.82307 23.2293H2.16817C1.78796 23.2293 1.47974 22.918 1.47974 22.5338Z" stroke="#002E23" stroke-width="2"/>
<path d="M15.4502 8.41904V1.69554C15.4502 1.3114 15.7584 1 16.1386 1H22.7935C23.1738 1 23.482 1.3114 23.482 1.69554V8.41904C23.482 8.80318 23.1738 9.11458 22.7935 9.11458H16.1386C15.7584 9.11458 15.4502 8.80318 15.4502 8.41904Z" stroke="#002E23" stroke-width="2"/>
<path d="M1.47974 8.41904V1.69554C1.47974 1.3114 1.78796 1 2.16817 1H8.82307C9.20328 1 9.51151 1.3114 9.51151 1.69554V8.41904C9.51151 8.80318 9.20328 9.11458 8.82307 9.11458H2.16817C1.78796 9.11458 1.47974 8.80318 1.47974 8.41904Z" stroke="#002E23" stroke-width="2"/>
</svg>
