<svg width="166" height="110" viewBox="0 0 166 110" fill="none" xmlns="http://www.w3.org/2000/svg">
<g filter="url(#filter0_d_264_574)">
<path d="M22.3745 32.5581C22.3745 27.1037 26.7961 22.6821 32.2505 22.6821H128.047C133.502 22.6821 137.923 27.1038 137.923 32.5581V72.062C137.923 77.5163 133.502 81.938 128.047 81.938H32.2505C26.7961 81.938 22.3745 77.5163 22.3745 72.062V32.5581Z" fill="white" shape-rendering="crispEdges"/>
<path d="M79.8711 43.9231C81.2578 43.9231 82.9961 43.0076 84.0312 41.787C84.9687 40.6809 85.6523 39.136 85.6523 37.5912C85.6523 37.3814 85.6328 37.1716 85.5938 37C84.0508 37.0572 82.1953 38.0108 81.082 39.2886C80.2031 40.2613 79.4023 41.787 79.4023 43.3509C79.4023 43.5798 79.4414 43.8086 79.4609 43.8849C79.5586 43.904 79.7148 43.9231 79.8711 43.9231ZM74.9883 67C76.8828 67 77.7227 65.7603 80.0859 65.7603C82.4883 65.7603 83.0156 66.9619 85.125 66.9619C87.1953 66.9619 88.582 65.0928 89.8906 63.2619C91.3555 61.164 91.9609 59.1043 92 59.0089C91.8633 58.9708 87.8984 57.3878 87.8984 52.9441C87.8984 49.0915 91.0234 47.356 91.1992 47.2225C89.1289 44.3236 85.9844 44.2473 85.125 44.2473C82.8008 44.2473 80.9062 45.6205 79.7148 45.6205C78.4258 45.6205 76.7266 44.3236 74.7148 44.3236C70.8867 44.3236 67 47.4132 67 53.2492C67 56.8729 68.4453 60.7063 70.2227 63.1856C71.7461 65.2835 73.0742 67 74.9883 67Z" fill="#000100"/>
</g>
<defs>
<filter id="filter0_d_264_574" x="0.374512" y="0.682129" width="165.549" height="109.256" filterUnits="userSpaceOnUse" color-interpolation-filters="sRGB">
<feFlood flood-opacity="0" result="BackgroundImageFix"/>
<feColorMatrix in="SourceAlpha" type="matrix" values="0 0 0 0 0 0 0 0 0 0 0 0 0 0 0 0 0 0 127 0" result="hardAlpha"/>
<feOffset dx="3" dy="3"/>
<feGaussianBlur stdDeviation="12.5"/>
<feComposite in2="hardAlpha" operator="out"/>
<feColorMatrix type="matrix" values="0 0 0 0 0 0 0 0 0 0 0 0 0 0 0 0 0 0 0.2 0"/>
<feBlend mode="normal" in2="BackgroundImageFix" result="effect1_dropShadow_264_574"/>
<feBlend mode="normal" in="SourceGraphic" in2="effect1_dropShadow_264_574" result="shape"/>
</filter>
</defs>
</svg>
