<svg width="61" height="61" viewBox="0 0 61 61" fill="none" xmlns="http://www.w3.org/2000/svg">
<g clip-path="url(#clip0_248_332)">
<path d="M30.5122 60.0957C19.1854 60.0957 9.96973 51.0057 9.96973 39.8344C9.96973 26.7863 28.2304 2.05132 29.0066 1.00319C29.3591 0.53069 29.9104 0.24944 30.4991 0.24569C31.1535 0.240065 31.6447 0.51569 32.0029 0.982565C32.7885 2.01007 51.2422 26.3082 51.2422 39.8344C51.2422 51.0076 41.9422 60.0957 30.5122 60.0957ZM30.5329 5.31007C26.1735 11.5013 13.7197 30.0394 13.7197 39.8344C13.7197 48.9376 21.2535 56.3457 30.5122 56.3457C39.8741 56.3457 47.4922 48.9394 47.4922 39.8344C47.4922 29.6757 34.9447 11.4151 30.5329 5.31007Z" fill="white"/>
</g>
<defs>
<clipPath id="clip0_248_332">
<rect width="60" height="60" fill="white" transform="translate(0.605957 0.172363)"/>
</clipPath>
</defs>
</svg>
