<svg width="60" height="60" viewBox="0 0 60 60" fill="none" xmlns="http://www.w3.org/2000/svg">
<path d="M46.875 26.25C47.6562 26.25 48.3887 26.3965 49.0723 26.6895C49.7559 26.9824 50.3516 27.3828 50.8594 27.8906C51.3672 28.3984 51.7676 28.9941 52.0605 29.6777C52.3535 30.3613 52.5 31.0938 52.5 31.875V43.125C52.5 45.4492 52.0605 47.6367 51.1816 49.6875C50.3027 51.7383 49.0918 53.5254 47.5488 55.0488C46.0059 56.5723 44.2188 57.7734 42.1875 58.6523C40.1562 59.5312 37.9688 59.9805 35.625 60C32.8125 60 30.1953 59.4629 27.7734 58.3887C25.3516 57.3145 23.1445 55.791 21.1523 53.8184L7.32422 39.9902C6.77734 39.4434 6.35742 38.8086 6.06445 38.0859C5.77148 37.3633 5.625 36.6211 5.625 35.8594C5.625 35.0391 5.78125 34.2773 6.09375 33.5742C6.40625 32.8711 6.82617 32.2461 7.35352 31.6992C7.88086 31.1523 8.49609 30.7422 9.19922 30.4688C9.90234 30.1953 10.6641 30.0391 11.4844 30C13.0859 30 14.4629 30.5762 15.6152 31.7285L18.75 34.834V24.9902C17.5977 24.4434 16.5625 23.7598 15.6445 22.9395C14.7266 22.1191 13.9453 21.1914 13.3008 20.1562C12.6562 19.1211 12.1484 18.0078 11.7773 16.8164C11.4062 15.625 11.2305 14.3945 11.25 13.125C11.25 11.3086 11.5918 9.60938 12.2754 8.02734C12.959 6.44531 13.8965 5.04883 15.0879 3.83789C16.2793 2.62695 17.666 1.68945 19.248 1.02539C20.8301 0.361328 22.5391 0.0195312 24.375 0C26.1914 0 27.8906 0.341797 29.4727 1.02539C31.0547 1.70898 32.4512 2.64648 33.6621 3.83789C34.873 5.0293 35.8105 6.41602 36.4746 7.99805C37.1387 9.58008 37.4805 11.2891 37.5 13.125C37.5 14.9414 37.1387 16.6797 36.416 18.3398C35.6934 20 34.668 21.4551 33.3398 22.7051C34.0234 22.8809 34.6387 23.1738 35.1855 23.584C35.7324 23.9941 36.2109 24.502 36.6211 25.1074C37.5 24.6191 38.418 24.375 39.375 24.375C40.3516 24.375 41.2598 24.5996 42.0996 25.0488C42.9395 25.498 43.6133 26.1426 44.1211 26.9824C45 26.4941 45.918 26.25 46.875 26.25ZM15 13.125C15 14.5898 15.332 15.9863 15.9961 17.3145C16.6602 18.6426 17.5781 19.7461 18.75 20.625V13.125C18.75 12.3438 18.8965 11.6113 19.1895 10.9277C19.4824 10.2441 19.8828 9.64844 20.3906 9.14062C20.8984 8.63281 21.4941 8.23242 22.1777 7.93945C22.8613 7.64648 23.5938 7.5 24.375 7.5C25.1562 7.5 25.8887 7.64648 26.5723 7.93945C27.2559 8.23242 27.8516 8.63281 28.3594 9.14062C28.8672 9.64844 29.2676 10.2441 29.5605 10.9277C29.8535 11.6113 30 12.3438 30 13.125V20.625C31.1719 19.7461 32.0898 18.6426 32.7539 17.3145C33.418 15.9863 33.75 14.5898 33.75 13.125C33.75 11.8359 33.5059 10.625 33.0176 9.49219C32.5293 8.35938 31.8555 7.37305 30.9961 6.5332C30.1367 5.69336 29.1406 5.01953 28.0078 4.51172C26.875 4.00391 25.6641 3.75 24.375 3.75C23.0859 3.75 21.875 3.99414 20.7422 4.48242C19.6094 4.9707 18.6133 5.64453 17.7539 6.50391C16.8945 7.36328 16.2207 8.35938 15.7324 9.49219C15.2441 10.625 15 11.8359 15 13.125ZM48.75 31.875C48.75 31.3672 48.5645 30.9277 48.1934 30.5566C47.8223 30.1855 47.3828 30 46.875 30C46.2109 30 45.752 30.1855 45.498 30.5566C45.2441 30.9277 45.0879 31.3867 45.0293 31.9336C44.9707 32.4805 44.9609 33.0859 45 33.75C45.0391 34.4141 45.0391 35.0098 45 35.5371C44.9609 36.0645 44.8047 36.5332 44.5312 36.9434C44.2578 37.3535 43.7891 37.5391 43.125 37.5C42.4023 37.5 41.9141 37.2754 41.6602 36.8262C41.4062 36.377 41.25 35.791 41.1914 35.0684C41.1328 34.3457 41.1523 33.5938 41.25 32.8125C41.3477 32.0312 41.3672 31.2793 41.3086 30.5566C41.25 29.834 41.1035 29.2578 40.8691 28.8281C40.6348 28.3984 40.1367 28.1641 39.375 28.125C38.7109 28.125 38.252 28.3105 37.998 28.6816C37.7441 29.0527 37.5879 29.5117 37.5293 30.0586C37.4707 30.6055 37.4609 31.2109 37.5 31.875C37.5391 32.5391 37.5391 33.1348 37.5 33.6621C37.4609 34.1895 37.3047 34.6582 37.0312 35.0684C36.7578 35.4785 36.2891 35.6641 35.625 35.625C34.9023 35.625 34.4141 35.4004 34.1602 34.9512C33.9062 34.502 33.75 33.916 33.6914 33.1934C33.6328 32.4707 33.6523 31.7188 33.75 30.9375C33.8477 30.1562 33.8672 29.4043 33.8086 28.6816C33.75 27.959 33.6035 27.3828 33.3691 26.9531C33.1348 26.5234 32.6367 26.2891 31.875 26.25C31.2109 26.25 30.752 26.4355 30.498 26.8066C30.2441 27.1777 30.0879 27.6367 30.0293 28.1836C29.9707 28.7305 29.9609 29.3359 30 30C30.0391 30.6641 30.0391 31.2598 30 31.7871C29.9609 32.3145 29.8047 32.7832 29.5312 33.1934C29.2578 33.6035 28.7891 33.7891 28.125 33.75C27.6172 33.75 27.1777 33.5645 26.8066 33.1934C26.4355 32.8223 26.25 32.3828 26.25 31.875V13.125C26.25 12.6172 26.0645 12.1777 25.6934 11.8066C25.3223 11.4355 24.8828 11.25 24.375 11.25C23.8672 11.25 23.4277 11.4355 23.0566 11.8066C22.6855 12.1777 22.5 12.6172 22.5 13.125V36.1816C22.5 36.6309 22.4219 37.041 22.2656 37.4121C22.1094 37.7832 21.8848 38.125 21.5918 38.4375C21.2988 38.75 20.957 38.9746 20.5664 39.1113C20.1758 39.248 19.7656 39.3359 19.3359 39.375C18.9062 39.375 18.4961 39.2969 18.1055 39.1406C17.7148 38.9844 17.3535 38.75 17.0215 38.4375L12.9492 34.3652C12.5391 33.9551 12.0508 33.75 11.4844 33.75C10.918 33.75 10.4297 33.9551 10.0195 34.3652C9.60938 34.7754 9.39453 35.2734 9.375 35.8594C9.375 36.4258 9.58008 36.9141 9.99023 37.3242L23.8184 51.1816C25.459 52.8223 27.2559 54.0723 29.209 54.9316C31.1621 55.791 33.3008 56.2305 35.625 56.25C37.4414 56.25 39.1406 55.9082 40.7227 55.2246C42.3047 54.541 43.6914 53.6035 44.8828 52.4121C46.0742 51.2207 47.0117 49.834 47.6953 48.252C48.3789 46.6699 48.7305 44.9609 48.75 43.125V31.875Z" fill="white"/>
</svg>
