<svg width="74" height="101" viewBox="0 0 74 101" fill="none" xmlns="http://www.w3.org/2000/svg">
<g clip-path="url(#clip0_196_1021)">
<path d="M73.809 4.83101V96.1827C73.809 98.7035 71.7639 100.74 69.2327 100.74H4.67801C2.14678 100.724 0.101685 98.6869 0.101685 96.1827V4.83101C0.101685 2.31015 2.14678 0.273438 4.67801 0.273438H69.2494C71.7639 0.273438 73.809 2.31015 73.809 4.83101Z" fill="url(#paint0_linear_196_1021)"/>
<path d="M69.1135 8.67601V92.321C69.1135 94.6292 67.3165 96.4941 65.0924 96.4941H8.36963C6.14549 96.4788 4.34851 94.6139 4.34851 92.321V8.67601C4.34851 6.36782 6.14549 4.50293 8.36963 4.50293H65.1071C67.3165 4.50293 69.1135 6.36782 69.1135 8.67601Z" fill="url(#paint1_linear_196_1021)"/>
<path d="M28.6324 19.5724V23.7293C28.6324 24.0298 28.3977 24.2635 28.096 24.2635H22.9832C22.6815 24.2635 22.4468 24.4972 22.4468 24.7977V29.8895C22.4468 30.19 22.2121 30.4237 21.9104 30.4237H17.7364C17.4346 30.4237 17.1999 30.19 17.1999 29.8895V24.7977C17.1999 24.4972 16.9653 24.2635 16.6635 24.2635H11.5675C11.2658 24.2635 11.0311 24.0298 11.0311 23.7293V19.5724C11.0311 19.2719 11.2658 19.0382 11.5675 19.0382H16.6803C16.982 19.0382 17.2167 18.8044 17.2167 18.5039V13.4121C17.2167 13.1117 17.4514 12.8779 17.7531 12.8779H21.9271C22.2289 12.8779 22.4636 13.1117 22.4636 13.4121V18.5039C22.4636 18.8044 22.6982 19.0382 23 19.0382H28.096C28.3977 19.0382 28.6324 19.2719 28.6324 19.5724Z" fill="url(#paint2_linear_196_1021)"/>
<path opacity="0.5" d="M62.2927 42.2268H11.6179C11.2826 42.2268 11.0144 41.9597 11.0144 41.6258V39.706C11.0144 39.3721 11.2826 39.105 11.6179 39.105H62.2927C62.628 39.105 62.8962 39.3721 62.8962 39.706V41.6258C62.8794 41.9597 62.628 42.2268 62.2927 42.2268Z" fill="url(#paint3_linear_196_1021)"/>
<path d="M62.2927 18.3034H37.148C36.8128 18.3034 36.5446 18.0363 36.5446 17.7024V15.7992C36.5446 15.4654 36.8128 15.1982 37.148 15.1982H62.2927C62.6279 15.1982 62.8961 15.4654 62.8961 15.7992V17.7191C62.8794 18.0363 62.6279 18.3034 62.2927 18.3034Z" fill="url(#paint4_linear_196_1021)"/>
<path opacity="0.5" d="M54.8498 26.4172H37.148C36.8128 26.4172 36.5446 26.1501 36.5446 25.8163V23.8964C36.5446 23.5625 36.8128 23.2954 37.148 23.2954H54.8498C55.1851 23.2954 55.4533 23.5625 55.4533 23.8964V25.8163C55.4366 26.1501 55.1851 26.4172 54.8498 26.4172Z" fill="url(#paint5_linear_196_1021)"/>
<path opacity="0.5" d="M62.2927 51.3416H11.6179C11.2826 51.3416 11.0144 51.0745 11.0144 50.7406V48.8207C11.0144 48.4868 11.2826 48.2197 11.6179 48.2197H62.2927C62.628 48.2197 62.8962 48.4868 62.8962 48.8207V50.7406C62.8794 51.0745 62.628 51.3416 62.2927 51.3416Z" fill="url(#paint6_linear_196_1021)"/>
<path opacity="0.5" d="M62.2927 60.4568H11.6179C11.2826 60.4568 11.0144 60.1897 11.0144 59.8558V57.936C11.0144 57.6021 11.2826 57.335 11.6179 57.335H62.2927C62.628 57.335 62.8962 57.6021 62.8962 57.936V59.8725C62.8794 60.1897 62.628 60.4568 62.2927 60.4568Z" fill="url(#paint7_linear_196_1021)"/>
<path opacity="0.5" d="M62.2927 69.5886H11.6179C11.2826 69.5886 11.0144 69.3215 11.0144 68.9876V67.0678C11.0144 66.7339 11.2826 66.4668 11.6179 66.4668H62.2927C62.628 66.4668 62.8962 66.7339 62.8962 67.0678V68.9876C62.8794 69.3215 62.628 69.5886 62.2927 69.5886Z" fill="url(#paint8_linear_196_1021)"/>
<path opacity="0.5" d="M62.2927 78.7039H11.6179C11.2826 78.7039 11.0144 78.4368 11.0144 78.1029V76.183C11.0144 75.8491 11.2826 75.582 11.6179 75.582H62.2927C62.628 75.582 62.8962 75.8491 62.8962 76.183V78.1029C62.8794 78.4368 62.628 78.7039 62.2927 78.7039Z" fill="url(#paint9_linear_196_1021)"/>
<path opacity="0.5" d="M62.2927 87.8191H11.6179C11.2826 87.8191 11.0144 87.552 11.0144 87.2181V85.2983C11.0144 84.9644 11.2826 84.6973 11.6179 84.6973H62.2927C62.628 84.6973 62.8962 84.9644 62.8962 85.2983V87.2181C62.8794 87.552 62.628 87.8191 62.2927 87.8191Z" fill="url(#paint10_linear_196_1021)"/>
<path opacity="0.1" d="M73.809 4.83101V96.1827C73.809 98.7035 71.7639 100.74 69.2327 100.74H4.67801C2.14678 100.724 0.101685 98.6869 0.101685 96.1827V94.5967C39.4782 78.4032 57.817 16.3 61.9575 0.273438H69.2327C71.7639 0.273438 73.809 2.31015 73.809 4.83101Z" fill="#2BA600"/>
</g>
<defs>
<linearGradient id="paint0_linear_196_1021" x1="100.965" y1="133.502" x2="-5.71525" y2="-5.96539" gradientUnits="userSpaceOnUse">
<stop offset="0.3061" stop-color="#14FB70"/>
<stop offset="1" stop-color="#2BA600"/>
</linearGradient>
<linearGradient id="paint1_linear_196_1021" x1="9.25801" y1="7.72329" x2="61.3265" y2="82.9818" gradientUnits="userSpaceOnUse">
<stop offset="0.3061" stop-color="#F8EBEB"/>
<stop offset="1" stop-color="white"/>
</linearGradient>
<linearGradient id="paint2_linear_196_1021" x1="10.7188" y1="10.3187" x2="26.5497" y2="36.2822" gradientUnits="userSpaceOnUse">
<stop stop-color="#3CDF03"/>
<stop offset="0.368525" stop-color="#3CDF03"/>
<stop offset="1" stop-color="#3CDF03"/>
</linearGradient>
<linearGradient id="paint3_linear_196_1021" x1="11.0273" y1="40.673" x2="62.8871" y2="40.673" gradientUnits="userSpaceOnUse">
<stop stop-color="#3CDF03"/>
<stop offset="1" stop-color="#2BA600"/>
</linearGradient>
<linearGradient id="paint4_linear_196_1021" x1="36.545" y1="16.752" x2="62.887" y2="16.752" gradientUnits="userSpaceOnUse">
<stop stop-color="#3CDF03"/>
<stop offset="1" stop-color="#2BA600"/>
</linearGradient>
<linearGradient id="paint5_linear_196_1021" x1="36.545" y1="24.8699" x2="55.4445" y2="24.8699" gradientUnits="userSpaceOnUse">
<stop stop-color="#3CDF03"/>
<stop offset="1" stop-color="#2BA600"/>
</linearGradient>
<linearGradient id="paint6_linear_196_1021" x1="11.0273" y1="49.7919" x2="62.8871" y2="49.7919" gradientUnits="userSpaceOnUse">
<stop stop-color="#3CDF03"/>
<stop offset="1" stop-color="#2BA600"/>
</linearGradient>
<linearGradient id="paint7_linear_196_1021" x1="11.0273" y1="58.9112" x2="62.8871" y2="58.9112" gradientUnits="userSpaceOnUse">
<stop stop-color="#3CDF03"/>
<stop offset="1" stop-color="#2BA600"/>
</linearGradient>
<linearGradient id="paint8_linear_196_1021" x1="11.0273" y1="68.0305" x2="62.8871" y2="68.0305" gradientUnits="userSpaceOnUse">
<stop stop-color="#3CDF03"/>
<stop offset="1" stop-color="#2BA600"/>
</linearGradient>
<linearGradient id="paint9_linear_196_1021" x1="11.0273" y1="77.1499" x2="62.8871" y2="77.1499" gradientUnits="userSpaceOnUse">
<stop stop-color="#3CDF03"/>
<stop offset="1" stop-color="#2BA600"/>
</linearGradient>
<linearGradient id="paint10_linear_196_1021" x1="11.0273" y1="86.2692" x2="62.8871" y2="86.2692" gradientUnits="userSpaceOnUse">
<stop stop-color="#3CDF03"/>
<stop offset="1" stop-color="#2BA600"/>
</linearGradient>
<clipPath id="clip0_196_1021">
<rect width="73.7073" height="100.45" fill="white" transform="translate(0.101685 0.273438)"/>
</clipPath>
</defs>
</svg>
