<svg width="66" height="91" viewBox="0 0 66 91" fill="none" xmlns="http://www.w3.org/2000/svg">
<g clip-path="url(#clip0_196_987)">
<path d="M65.8909 28.4158L65.6874 70.5L65.6535 78.6399C65.6196 85.1079 59.4472 90.3262 51.8503 90.2924L13.9001 90.1236C6.32025 90.0729 0.181741 84.8039 0.215655 78.319L0.453056 28.095C0.470013 22.8598 4.53974 18.4352 10.1017 16.966L10.1187 14.2639V12.8792L56.361 13.0987L56.344 17.1855C61.889 18.7223 65.9079 23.1638 65.8909 28.4158Z" fill="url(#paint0_linear_196_987)"/>
<path d="M59.8033 2.29055V2.66208L59.7694 7.05289L59.7355 11.3593V11.8828C59.7355 12.6934 59.0572 13.352 58.2433 13.352H57.8872L55.6488 13.3351L53.19 13.3182L50.9517 13.3013L48.4929 13.2845L46.2206 13.2507L43.7618 13.2338L41.5234 13.2169L39.0477 13.2L36.7924 13.1831L34.3336 13.1662L32.0952 13.1325L29.6364 13.1156L27.3981 13.0987L24.9223 13.0818L22.667 13.0649L20.2252 13.048L17.9868 13.0311L15.528 13.0143L13.2727 12.9974L10.8139 12.9805L8.55861 12.9636H8.20251C7.38856 12.9636 6.72723 12.2881 6.72723 11.4775V11.4606V11.0891L6.79506 2.40877V1.88525C6.79506 1.07464 7.47335 0.416016 8.30425 0.416016H8.66036L13.3745 0.449791L18.0886 0.483566L20.3439 0.500454L22.8027 0.517342L25.041 0.53423L29.7382 0.584893L32.197 0.601781L34.4353 0.618668L36.8941 0.635556L39.1325 0.652444L41.5913 0.669331L43.8296 0.686219L46.2884 0.703107L48.5268 0.719995L51.0195 0.75377L53.2578 0.770658L55.7166 0.787545L57.9719 0.804433H58.328C59.1589 0.821321 59.8033 1.47994 59.8033 2.29055Z" fill="url(#paint1_linear_196_987)"/>
<path d="M59.8033 2.67889L59.7694 7.05282L59.7355 11.3592L57.7176 11.3423L55.0383 11.3254L52.5795 11.3085H49.8834L47.4246 11.2916L44.7453 11.2747L42.2865 11.2579H39.5903L37.1315 11.241L34.4353 11.2241L31.9935 11.2072H29.2973L26.8385 11.1903L24.1423 11.1734L21.6835 11.1565H19.0043L16.5455 11.1396L13.8493 11.1228L11.3905 11.1059H8.71123L6.72723 11.089L6.79506 2.40869L11.5092 2.42558L16.6472 2.45935L19.106 2.47624L21.8022 2.49313H24.261L29.399 2.52691L32.0952 2.54379H34.554L37.2502 2.56068L39.6921 2.57757L42.3883 2.59446H44.8471L47.5433 2.61134L49.9851 2.62823L52.6813 2.64512H55.1401L57.8363 2.66201L59.8033 2.67889Z" fill="url(#paint2_linear_196_987)"/>
<path d="M65.8412 37.3014L0.40332 36.9932L0.266109 65.888L65.704 66.1962L65.8412 37.3014Z" fill="#F7F9FC"/>
<path d="M65.8528 37.3013L0.414917 36.9932L0.390226 42.1946L65.8281 42.5027L65.8528 37.3013Z" fill="#FBFCF7"/>
<path d="M25.9228 48.6114L21.7005 48.5945L21.7174 44.3726L15.9011 44.3557L15.8841 48.5608L11.6618 48.5439L11.6279 54.3195L15.8502 54.3363L15.8333 58.5583L21.6496 58.5752L21.6665 54.3701L25.8889 54.387L25.9228 48.6114Z" fill="url(#paint3_linear_196_987)"/>
<path d="M54.6144 50.0131L33.6892 49.9117C33.1296 49.9117 32.6718 49.4558 32.6718 48.8985V48.4256C32.6718 47.8683 33.1296 47.4124 33.6892 47.4124L54.6144 47.5137C55.174 47.5137 55.6318 47.9696 55.6318 48.5269V48.9998C55.6318 49.5571 55.174 50.0131 54.6144 50.0131Z" fill="url(#paint4_linear_196_987)"/>
<path opacity="0.5" d="M54.5974 56.2108L33.6722 56.1095C33.1126 56.1095 32.6548 55.6535 32.6548 55.0962V54.6234C32.6548 54.0661 33.1126 53.6101 33.6722 53.6101L54.5974 53.7114C55.157 53.7114 55.6149 54.1674 55.6149 54.7247V55.1976C55.6149 55.7548 55.157 56.2108 54.5974 56.2108Z" fill="url(#paint5_linear_196_987)"/>
<path opacity="0.08" d="M6.72723 2.29056V2.66209L6.76115 7.0529L6.79506 11.3424V11.8659C6.79506 12.6765 7.47335 13.3351 8.2873 13.3351H8.6434L10.8987 13.3182L13.3575 13.3014L15.5959 13.2845L18.0547 13.2676L20.293 13.2507L22.7518 13.2338L24.9902 13.2169L27.449 13.2L29.7043 13.1831L32.1631 13.1663L34.4014 13.1494L36.8602 13.1325L39.0986 13.1156L41.5574 13.0987L43.8127 13.0818L46.2715 13.0649L48.5098 13.048L50.9686 13.0312L53.207 13.0143L55.6658 12.9974L57.9211 12.9805H58.2772C59.0911 12.9805 59.7525 12.305 59.7525 11.4944V11.4775V11.106C33.5196 12.2374 8.20251 0.804443 8.20251 0.804443C7.38856 0.821331 6.72723 1.47995 6.72723 2.29056Z" fill="#3CDF03"/>
</g>
<defs>
<linearGradient id="paint0_linear_196_987" x1="0.215655" y1="12.3995" x2="60.5549" y2="96.0204" gradientUnits="userSpaceOnUse">
<stop stop-color="#3CDF03"/>
<stop offset="1" stop-color="#2BA600"/>
</linearGradient>
<linearGradient id="paint1_linear_196_987" x1="-668.594" y1="-41.8058" x2="-29.1176" y2="2.91816" gradientUnits="userSpaceOnUse">
<stop stop-color="#3CDF03"/>
<stop offset="0.0525488" stop-color="#3CDF03"/>
<stop offset="0.135417" stop-color="#3CDF03"/>
<stop offset="0.2879" stop-color="#3CDF03"/>
<stop offset="0.5247" stop-color="#3CDF03"/>
<stop offset="0.7618" stop-color="#3CDF03"/>
<stop offset="1" stop-color="#3CDF03"/>
</linearGradient>
<linearGradient id="paint2_linear_196_987" x1="6.73456" y1="6.87977" x2="59.8056" y2="6.87977" gradientUnits="userSpaceOnUse">
<stop stop-color="#3CDF03"/>
<stop offset="0.0525488" stop-color="#3CDF03"/>
<stop offset="0.2879" stop-color="#3CDF03"/>
<stop offset="0.3125" stop-color="#3CDF03"/>
<stop offset="0.5247" stop-color="#3CDF03"/>
<stop offset="0.7618" stop-color="#3CDF03"/>
<stop offset="1" stop-color="#3CDF03"/>
</linearGradient>
<linearGradient id="paint3_linear_196_987" x1="23.5501" y1="45.9838" x2="13.6373" y2="57.4618" gradientUnits="userSpaceOnUse">
<stop stop-color="#3CDF03"/>
<stop offset="1" stop-color="#3CDF03"/>
</linearGradient>
<linearGradient id="paint4_linear_196_987" x1="55.8336" y1="48.7072" x2="30.8852" y2="48.7072" gradientUnits="userSpaceOnUse">
<stop stop-color="#3CDF03"/>
<stop offset="1" stop-color="#2BA600"/>
</linearGradient>
<linearGradient id="paint5_linear_196_987" x1="32.6532" y1="54.9046" x2="55.6152" y2="54.9046" gradientUnits="userSpaceOnUse">
<stop stop-color="#3CDF03"/>
<stop offset="1" stop-color="#2BA600"/>
</linearGradient>
<clipPath id="clip0_196_987">
<rect width="65.6753" height="89.8764" fill="white" transform="translate(0.215637 0.416016)"/>
</clipPath>
</defs>
</svg>
