<svg width="72" height="101" viewBox="0 0 72 101" fill="none" xmlns="http://www.w3.org/2000/svg">
<g clip-path="url(#clip0_196_966)">
<path d="M69.0814 0.554932H2.57519C1.20739 0.554932 0.101685 1.64214 0.101685 2.98706V98.581C0.101685 99.9259 1.20739 101.013 2.57519 101.013H69.0814C70.4492 101.013 71.5549 99.9259 71.5549 98.581V2.98706C71.5467 1.64214 70.441 0.554932 69.0814 0.554932Z" fill="url(#paint0_linear_196_966)"/>
<path d="M64.7159 4.8877H6.93252C5.60567 4.8877 4.52454 5.95074 4.52454 7.26345V86.2995C4.52454 87.6123 5.60567 88.6672 6.93252 88.6672H64.7159C66.0509 88.6672 67.1239 87.6042 67.1239 86.2995V7.26345C67.1239 5.95074 66.0509 4.8877 64.7159 4.8877Z" fill="white"/>
<path d="M47.6388 42.4649H24.0177C22.9366 42.4649 22.0602 41.6032 22.0602 40.5402V17.3061C22.0602 16.2431 22.9366 15.3813 24.0177 15.3813H47.6388C48.72 15.3813 49.5964 16.2431 49.5964 17.3061V40.5321C49.5964 41.5952 48.72 42.4649 47.6388 42.4649Z" fill="url(#paint1_linear_196_966)"/>
<path d="M35.8283 98.4119C37.8367 98.4119 39.4649 96.811 39.4649 94.8362C39.4649 92.8614 37.8367 91.2605 35.8283 91.2605C33.8199 91.2605 32.1918 92.8614 32.1918 94.8362C32.1918 96.811 33.8199 98.4119 35.8283 98.4119Z" fill="white"/>
<path d="M56.4108 54.4966H15.2376C14.1974 54.4966 13.3456 53.659 13.3456 52.6362C13.3456 51.6134 14.1974 50.7759 15.2376 50.7759H56.4026C57.4428 50.7759 58.2946 51.6134 58.2946 52.6362C58.2946 53.659 57.451 54.4966 56.4108 54.4966Z" fill="url(#paint2_linear_196_966)"/>
<path opacity="0.6" d="M49.4407 64.8049H14.5496C13.8861 64.8049 13.3538 64.2734 13.3538 63.6291V63.5003C13.3538 62.8479 13.8943 62.3245 14.5496 62.3245H49.4407C50.1042 62.3245 50.6365 62.856 50.6365 63.5003V63.6291C50.6447 64.2734 50.1042 64.8049 49.4407 64.8049Z" fill="url(#paint3_linear_196_966)"/>
<path opacity="0.3" d="M42.7983 71.3525H14.4349C13.837 71.3525 13.3456 70.8693 13.3456 70.2814V69.9271C13.3456 69.3392 13.837 68.856 14.4349 68.856H42.7901C43.388 68.856 43.8794 69.3392 43.8794 69.9271V70.2814C43.8794 70.8693 43.388 71.3525 42.7983 71.3525Z" fill="url(#paint4_linear_196_966)"/>
<path opacity="0.6" d="M46.3693 77.4167H14.5004C13.8698 77.4167 13.3538 76.9094 13.3538 76.2892V76.0637C13.3538 75.4436 13.8698 74.9363 14.5004 74.9363H46.3693C47 74.9363 47.516 75.4436 47.516 76.0637V76.2892C47.516 76.9013 47 77.4167 46.3693 77.4167Z" fill="url(#paint5_linear_196_966)"/>
<path d="M35.8993 28.1742C38.2644 28.1742 40.1815 26.2639 40.1815 23.9073C40.1815 21.5507 38.2644 19.6404 35.8993 19.6404C33.5342 19.6404 31.6171 21.5507 31.6171 23.9073C31.6171 26.2639 33.5252 28.1742 35.8993 28.1742ZM35.8993 30.3076C33.0415 30.3076 27.3348 31.7359 27.3348 34.5745V35.6457C27.3348 36.2349 27.8186 36.7169 28.4099 36.7169H43.4066C43.9979 36.7169 44.4816 36.2349 44.4816 35.6457V34.5745C44.4637 31.7448 38.7571 30.3076 35.8993 30.3076Z" fill="white"/>
</g>
<defs>
<linearGradient id="paint0_linear_196_966" x1="4.4303" y1="48.1684" x2="71.5987" y2="53.9503" gradientUnits="userSpaceOnUse">
<stop stop-color="#3CDF03"/>
<stop offset="1" stop-color="#2BA600"/>
</linearGradient>
<linearGradient id="paint1_linear_196_966" x1="19.9248" y1="20.9542" x2="51.5037" y2="37.3182" gradientUnits="userSpaceOnUse">
<stop stop-color="#3CDF03"/>
<stop offset="0.0856277" stop-color="#3CDF03"/>
<stop offset="0.2972" stop-color="#3CDF03"/>
<stop offset="0.5161" stop-color="#3CDF03"/>
<stop offset="0.7451" stop-color="#3CDF03"/>
<stop offset="1" stop-color="#69DCFC"/>
<stop offset="1" stop-color="#3CDF03"/>
</linearGradient>
<linearGradient id="paint2_linear_196_966" x1="58.2986" y1="52.6377" x2="13.3533" y2="52.6377" gradientUnits="userSpaceOnUse">
<stop stop-color="#3CDF03"/>
<stop offset="1" stop-color="#2BA600"/>
</linearGradient>
<linearGradient id="paint3_linear_196_966" x1="50.6424" y1="63.5611" x2="13.3533" y2="63.5611" gradientUnits="userSpaceOnUse">
<stop stop-color="#3CDF03"/>
<stop offset="1" stop-color="#2BA600"/>
</linearGradient>
<linearGradient id="paint4_linear_196_966" x1="43.8803" y1="70.1087" x2="13.3533" y2="70.1087" gradientUnits="userSpaceOnUse">
<stop stop-color="#3CDF03"/>
<stop offset="1" stop-color="#2BA600"/>
</linearGradient>
<linearGradient id="paint5_linear_196_966" x1="47.5153" y1="76.17" x2="13.3533" y2="76.17" gradientUnits="userSpaceOnUse">
<stop stop-color="#3CDF03"/>
<stop offset="1" stop-color="#2BA600"/>
</linearGradient>
<clipPath id="clip0_196_966">
<rect width="71.445" height="100.45" fill="white" transform="translate(0.101685 0.554932)"/>
</clipPath>
</defs>
</svg>
