<svg width="86" height="76" viewBox="0 0 86 76" fill="none" xmlns="http://www.w3.org/2000/svg">
<g clip-path="url(#clip0_196_1045)">
<path d="M70.9792 15.4893H14.4775V75.8827H70.9792V15.4893Z" fill="url(#paint0_linear_196_1045)"/>
<path d="M14.2437 15.4892C14.3119 15.4892 14.38 15.5183 14.4775 15.5474C14.4775 35.6397 14.4775 55.732 14.4775 75.8535C10.1034 76.193 6.41135 75.0967 3.4791 72.2832C1.40413 70.2846 0.400733 67.9368 0.400733 65.2786C0.400733 55.8679 0.400733 46.4669 0.400733 37.0562C0.400733 33.4665 0.390991 29.8769 0.390991 26.2872C0.390991 21.9505 2.73874 18.7975 7.0543 16.6631C9.2754 15.5765 11.74 15.4115 14.2437 15.4892Z" fill="url(#paint1_linear_196_1045)"/>
<path d="M61.1109 15.4796C63.634 15.4796 63.8873 15.4796 66.4007 15.4796C66.4007 35.6399 66.4007 55.7322 66.4007 75.8633C49.2456 75.8633 36.2696 75.8633 19.0561 75.8633C19.0561 55.7419 19.0561 35.6496 19.0561 15.499C21.5694 15.499 22.115 15.499 24.677 15.499C24.677 15.2468 24.677 15.0527 24.677 14.8684C24.677 12.7049 24.6868 10.5317 24.6673 8.36824C24.6478 6.85477 25.057 5.53533 26.2454 4.50694C27.0832 3.78901 28.0477 3.42035 29.1387 3.42035C32.5191 3.41064 35.8897 3.41064 39.2701 3.41064C44.9495 3.41064 50.6386 3.42035 56.318 3.41064C57.8085 3.41064 59.0457 3.89573 60.0199 5.02113C60.7992 5.9234 61.0914 6.98089 61.0914 8.1645C61.0817 10.4444 61.0914 12.7243 61.0914 15.0042C61.0817 15.1304 61.0914 15.2759 61.1109 15.4796ZM30.7753 15.4796C31.0091 15.4796 31.1845 15.4796 31.3598 15.4796C34.0485 15.4796 36.747 15.4796 39.4357 15.4796C44.4624 15.4796 49.4988 15.4796 54.5255 15.4893C54.9249 15.4893 55.0126 15.3632 55.0126 14.9848C54.9931 13.287 55.0126 11.5892 55.0126 9.89141C55.0126 9.75559 54.9931 9.61976 54.9737 9.47424C46.8881 9.47424 38.8512 9.47424 30.7753 9.47424C30.7753 11.4728 30.7753 13.4326 30.7753 15.4796Z" fill="#EBF4EB"/>
<mask id="mask0_196_1045" style="mask-type:alpha" maskUnits="userSpaceOnUse" x="19" y="3" width="48" height="73">
<path d="M61.1109 15.4796C63.634 15.4796 63.8872 15.4796 66.4006 15.4796C66.4006 35.6399 66.4006 55.7322 66.4006 75.8633C49.2455 75.8633 36.2696 75.8633 19.056 75.8633C19.056 55.7419 19.056 35.6496 19.056 15.499C21.5694 15.499 22.1149 15.499 24.677 15.499C24.677 15.2468 24.677 15.0527 24.677 14.8684C24.677 12.7049 24.6867 10.5317 24.6672 8.36824C24.6478 6.85477 25.0569 5.53533 26.2454 4.50694C27.0832 3.78901 28.0476 3.42035 29.1387 3.42035C32.519 3.41064 35.8897 3.41064 39.27 3.41064C44.9494 3.41064 50.6386 3.42035 56.318 3.41064C57.8084 3.41064 59.0456 3.89573 60.0198 5.02113C60.7991 5.9234 61.0914 6.98089 61.0914 8.1645C61.0816 10.4444 61.0914 12.7243 61.0914 15.0042C61.0816 15.1304 61.0914 15.2759 61.1109 15.4796ZM30.7753 15.4796C31.0091 15.4796 31.1844 15.4796 31.3598 15.4796C34.0485 15.4796 36.7469 15.4796 39.4356 15.4796C44.4623 15.4796 49.4988 15.4796 54.5255 15.4893C54.9249 15.4893 55.0126 15.3632 55.0126 14.9848C54.9931 13.287 55.0126 11.5892 55.0126 9.89141C55.0126 9.75559 54.9931 9.61976 54.9736 9.47424C46.888 9.47424 38.8511 9.47424 30.7753 9.47424C30.7753 11.4728 30.7753 13.4326 30.7753 15.4796Z" fill="#F7F9FC"/>
</mask>
<g mask="url(#mask0_196_1045)">
<path d="M62.0825 0.674805H22.6969V15.4991H62.0825V0.674805Z" fill="url(#paint2_linear_196_1045)"/>
</g>
<path d="M85.3385 26.1323C85.3385 22.1352 83.1466 19.1567 79.2499 16.9932C76.8535 15.6641 74.1355 15.4118 71.3494 15.47C70.9208 15.4797 70.9792 15.7029 70.9792 15.9357C70.9792 22.921 70.9792 29.8966 70.9792 36.8818C70.9792 49.1545 70.9792 61.4176 70.9695 73.6903C70.9695 74.3985 70.9695 75.1067 70.9695 75.8732C72.723 75.9314 74.3888 75.9411 76.0254 75.553C81.5587 74.253 85.3287 70.1491 85.3287 65.308C85.3482 52.2591 85.3385 39.1908 85.3385 26.1323Z" fill="url(#paint3_linear_196_1045)"/>
<path d="M47.3459 50.144C47.3459 51.3955 47.3459 52.5791 47.3459 53.7724C47.3459 55.121 47.3459 56.4695 47.3459 57.8083C47.3459 58.6136 46.9368 59.0405 46.1379 59.0405C43.9363 59.0502 41.7347 59.0502 39.5331 59.0405C38.8025 59.0405 38.3933 58.5845 38.3933 57.818C38.3933 55.412 38.3933 53.006 38.3933 50.5999C38.3933 50.4641 38.3933 50.3186 38.3933 50.144C38.2082 50.144 38.0718 50.144 37.9257 50.144C35.5487 50.144 33.162 50.144 30.785 50.144C29.8401 50.144 29.4504 49.7656 29.4504 48.8245C29.4504 46.7386 29.4504 44.6528 29.4504 42.5669C29.4504 41.6161 29.8304 41.2378 30.7753 41.2378C33.1425 41.2378 35.5098 41.2378 37.877 41.2378C38.0329 41.2378 38.179 41.2378 38.3836 41.2378C38.3836 41.0825 38.3836 40.9564 38.3836 40.8303C38.3836 38.4242 38.3836 36.0182 38.3836 33.6122C38.3836 32.7196 38.783 32.3315 39.6792 32.3315C41.7737 32.3315 43.8681 32.3315 45.9626 32.3315C46.9465 32.3315 47.3264 32.7002 47.3264 33.6995C47.3362 36.0861 47.3264 38.4631 47.3264 40.8497C47.3264 40.9661 47.3264 41.0825 47.3264 41.2475C47.4823 41.2475 47.6187 41.2475 47.7453 41.2475C50.1612 41.2475 52.5772 41.2475 54.9931 41.2572C55.8796 41.2572 56.2595 41.6452 56.2595 42.5281C56.2595 44.6237 56.2595 46.7192 56.2595 48.8148C56.2595 49.7753 55.8894 50.144 54.9444 50.144C52.5382 50.144 50.132 50.144 47.7356 50.1537C47.6382 50.144 47.5212 50.144 47.3459 50.144Z" fill="url(#paint4_linear_196_1045)"/>
</g>
<defs>
<linearGradient id="paint0_linear_196_1045" x1="14.4789" y1="45.6823" x2="70.9765" y2="45.6823" gradientUnits="userSpaceOnUse">
<stop stop-color="#2AED3D"/>
<stop offset="1" stop-color="#2BA600"/>
</linearGradient>
<linearGradient id="paint1_linear_196_1045" x1="0.400733" y1="45.6918" x2="14.4789" y2="45.6918" gradientUnits="userSpaceOnUse">
<stop offset="0.9999" stop-color="#17EB1F"/>
<stop offset="1" stop-color="#458DFC"/>
</linearGradient>
<linearGradient id="paint2_linear_196_1045" x1="22.6928" y1="8.08537" x2="62.0808" y2="8.08537" gradientUnits="userSpaceOnUse">
<stop offset="0.9999" stop-color="#3AE71E"/>
<stop offset="1" stop-color="#458DFC"/>
</linearGradient>
<linearGradient id="paint3_linear_196_1045" x1="70.9719" y1="45.6861" x2="85.3392" y2="45.6861" gradientUnits="userSpaceOnUse">
<stop offset="0.9999" stop-color="#1FEB64"/>
<stop offset="1" stop-color="#458DFC"/>
</linearGradient>
<linearGradient id="paint4_linear_196_1045" x1="29.4564" y1="45.6957" x2="56.279" y2="45.6957" gradientUnits="userSpaceOnUse">
<stop offset="0.9999" stop-color="#0EEF25"/>
<stop offset="1" stop-color="#458DFC"/>
</linearGradient>
<clipPath id="clip0_196_1045">
<rect width="84.9377" height="75.2371" fill="white" transform="translate(0.400757 0.674805)"/>
</clipPath>
</defs>
</svg>
