<svg width="72" height="102" viewBox="0 0 72 102" fill="none" xmlns="http://www.w3.org/2000/svg">
<g clip-path="url(#clip0_196_1002)">
<path d="M71.5278 96.5662C71.5278 99.1875 69.3975 101.318 66.7654 101.318L5.18041 101.388C3.08532 101.388 1.30714 100.047 0.664524 98.1793C0.497269 97.6972 0.40924 97.1887 0.40924 96.6539L0.312408 8.20554C0.312408 5.58426 2.44271 3.45392 5.07477 3.45392L61.6245 3.39256L66.6598 3.38379C69.2919 3.38379 71.431 5.50536 71.431 8.12663L71.5278 96.5662Z" fill="url(#paint0_linear_196_1002)"/>
<path d="M65.1457 96.0579L6.79133 96.1193C5.37407 96.1193 4.22969 94.9796 4.22969 93.5681L4.14166 11.2566C4.14166 9.8451 5.28604 8.70541 6.7033 8.70541L65.0489 8.64404C66.4661 8.64404 67.6105 9.78373 67.6105 11.1952L67.6985 93.5068C67.7073 94.9095 66.563 96.0579 65.1457 96.0579Z" fill="white"/>
<path d="M56.9502 15.4296L14.3882 15.4822C12.9798 15.4822 11.8266 14.3425 11.8266 12.9398L11.8178 5.87379C11.8178 4.4711 12.9622 3.32264 14.3706 3.32264L56.9414 3.27881C58.3499 3.27881 59.503 4.41849 59.503 5.82118L59.5118 12.8872C59.503 14.2899 58.3587 15.4296 56.9502 15.4296ZM14.3706 4.62013C13.684 4.62013 13.1206 5.18121 13.1206 5.86502L13.1294 12.9311C13.1294 13.6149 13.6928 14.176 14.3794 14.176L56.9502 14.1321C57.6368 14.1321 58.2002 13.571 58.2002 12.8872L58.1914 5.82118C58.1914 5.13737 57.628 4.5763 56.9414 4.5763L14.3706 4.62013Z" fill="url(#paint1_linear_196_1002)"/>
<path d="M55.7442 6.33832L15.9991 6.38216C15.559 6.38216 15.2069 6.03148 15.2069 5.59314V1.76205C15.2069 1.32371 15.559 0.973033 15.9991 0.973033L55.7354 0.929199C56.1756 0.929199 56.5277 1.27987 56.5277 1.71821V5.54931C56.5365 5.98765 56.1844 6.33832 55.7442 6.33832Z" fill="url(#paint2_linear_196_1002)"/>
<path d="M16.0344 6.38219L55.709 6.33836C56.1667 6.33836 56.5365 5.97015 56.5365 5.51428V3.63818L15.1981 3.68202V5.55811C15.1981 6.01399 15.5766 6.38219 16.0344 6.38219Z" fill="#3CDF03"/>
<path d="M29.9782 86.7999L26.545 66.1102L23.7633 75.1137L15.8055 75.1225C15.3213 75.1225 14.934 74.7368 14.934 74.2546C14.934 73.7724 15.3213 73.3867 15.8055 73.3867L22.4869 73.3779L27.0732 58.5532L30.5063 79.2955L34.9606 65.0494L37.3286 71.7999L42.6631 58.9214L47.848 79.3481L49.8023 72.8519L55.5241 72.8431C56.0083 72.8431 56.3956 73.2289 56.3956 73.711C56.3956 74.1932 56.0083 74.579 55.5241 74.579L51.0963 74.5877L47.7072 85.8531L42.267 64.427L37.1877 76.6742L35.0486 70.5813L29.9782 86.7999Z" fill="#3CDF03"/>
<path d="M24.0802 46.9112L12.8917 46.9199C11.0871 46.9199 9.60824 45.4559 9.60824 43.6587L9.59064 28.0801C9.59064 26.2829 11.0607 24.81 12.8653 24.81L24.0538 24.8013C25.8584 24.8013 27.3373 26.2653 27.3373 28.0625L27.3549 43.6412C27.3549 45.4383 25.8848 46.9024 24.0802 46.9112ZM12.8565 25.7569C11.5713 25.7569 10.5325 26.8001 10.5325 28.0801L10.5502 43.6587C10.5502 44.9386 11.5977 45.9731 12.8829 45.9731L24.0714 45.9644C25.3566 45.9644 26.3954 44.9211 26.3954 43.6412L26.3778 28.0625C26.3778 26.7826 25.3302 25.7481 24.045 25.7481L12.8565 25.7569Z" fill="url(#paint3_linear_196_1002)"/>
<path d="M18.4728 43.9219C23.7633 43.9131 25.4095 40.871 25.4095 40.871C25.1718 40.5729 24.8725 40.3099 24.4675 40.0469C23.0767 39.144 21.9587 38.7582 21.4922 38.3725C21.0168 37.9955 20.7527 37.4432 20.7527 37.4432L20.4622 37.6185C20.4622 37.6185 20.2862 37.0136 20.383 36.0931C20.383 36.0931 20.7967 35.9879 21.1048 34.594C21.5978 34.6904 22.1788 33.4455 21.9059 32.9897C21.7298 32.6916 21.5186 32.7179 21.3689 32.788C21.5186 32.1656 22.1964 28.7202 18.464 28.7202C14.7315 28.7202 15.4094 32.1656 15.5678 32.788C15.4182 32.7179 15.2069 32.6916 15.0308 32.9897C14.758 33.4455 15.3477 34.6904 15.8407 34.594C16.1488 35.9879 16.5713 36.0843 16.5713 36.0843C16.677 36.9961 16.4921 37.6098 16.4921 37.6098L16.2016 37.4344C16.2016 37.4344 15.9375 37.978 15.4622 38.3637C14.9868 38.7494 13.8777 39.144 12.4868 40.0469C12.0819 40.3099 11.7738 40.5729 11.5449 40.871C11.5361 40.8885 13.191 43.9306 18.4728 43.9219Z" fill="url(#paint4_linear_196_1002)"/>
<path d="M53.3146 29.7719L31.7739 29.7982C31.369 29.7982 31.0433 29.4738 31.0433 29.0705V28.9478C31.0433 28.5445 31.369 28.2201 31.7739 28.2201L53.3146 28.1938C53.7195 28.1938 54.0453 28.5182 54.0453 28.9215V29.0442C54.0453 29.4475 53.7107 29.7719 53.3146 29.7719Z" fill="url(#paint5_linear_196_1002)"/>
<path d="M45.392 33.8574L31.7739 33.8749C31.369 33.8749 31.0433 33.5505 31.0433 33.1472V33.0245C31.0433 32.6212 31.369 32.2968 31.7739 32.2968L45.392 32.2793C45.7969 32.2793 46.1227 32.6037 46.1227 33.007V33.1297C46.1227 33.533 45.7969 33.8574 45.392 33.8574Z" fill="url(#paint6_linear_196_1002)"/>
<path opacity="0.6" d="M60.7442 38.7143L31.7827 38.7493C31.3778 38.7493 31.0521 38.425 31.0521 38.0217V37.8989C31.0521 37.4957 31.3778 37.1713 31.7827 37.1713L60.7442 37.1362C61.1492 37.1362 61.4749 37.4606 61.4749 37.8639V37.9866C61.4661 38.3899 61.1404 38.7143 60.7442 38.7143Z" fill="url(#paint7_linear_196_1002)"/>
<path opacity="0.6" d="M60.1193 52.3642L11.809 52.4168C11.3953 52.4168 11.0519 52.0836 11.0519 51.6628V51.5927C11.0519 51.1806 11.3865 50.8387 11.809 50.8387L60.1193 50.7861C60.533 50.7861 60.8763 51.1193 60.8763 51.5401V51.6102C60.8763 52.031 60.533 52.3642 60.1193 52.3642Z" fill="url(#paint8_linear_196_1002)"/>
<path opacity="0.6" d="M60.7442 43.4833L31.7827 43.5184C31.3778 43.5184 31.0521 43.194 31.0521 42.7907V42.668C31.0521 42.2647 31.3778 41.9403 31.7827 41.9403L60.7442 41.9053C61.1492 41.9053 61.4749 42.2296 61.4749 42.6329V42.7557C61.4749 43.1589 61.1492 43.4833 60.7442 43.4833Z" fill="url(#paint9_linear_196_1002)"/>
</g>
<defs>
<linearGradient id="paint0_linear_196_1002" x1="-9.54958" y1="37.6705" x2="81.3182" y2="67.3168" gradientUnits="userSpaceOnUse">
<stop stop-color="#3CDF03"/>
<stop offset="0.1713" stop-color="#3CDF03"/>
<stop offset="0.4084" stop-color="#3CDF03"/>
<stop offset="0.6698" stop-color="#3CDF03"/>
<stop offset="1" stop-color="#3CDF03"/>
</linearGradient>
<linearGradient id="paint1_linear_196_1002" x1="-5.23508" y1="-21.672" x2="59.4045" y2="9.58494" gradientUnits="userSpaceOnUse">
<stop stop-color="#3CDF03"/>
<stop offset="1" stop-color="#3CDF03"/>
</linearGradient>
<linearGradient id="paint2_linear_196_1002" x1="15.1968" y1="3.6567" x2="56.5358" y2="3.6567" gradientUnits="userSpaceOnUse">
<stop stop-color="#3CDF03"/>
<stop offset="1" stop-color="#2BA600"/>
</linearGradient>
<linearGradient id="paint3_linear_196_1002" x1="15.3198" y1="31.8124" x2="25.6508" y2="45.2037" gradientUnits="userSpaceOnUse">
<stop stop-color="#3CDF03"/>
<stop offset="0.932292" stop-color="#2BA600"/>
<stop offset="1" stop-color="#2BA600"/>
</linearGradient>
<linearGradient id="paint4_linear_196_1002" x1="14.1935" y1="32.6815" x2="24.5246" y2="46.0729" gradientUnits="userSpaceOnUse">
<stop stop-color="#3CDF03"/>
</linearGradient>
<linearGradient id="paint5_linear_196_1002" x1="31.0445" y1="29.0032" x2="54.0406" y2="29.0171" gradientUnits="userSpaceOnUse">
<stop stop-color="#3CDF03"/>
<stop offset="1" stop-color="#2BA600"/>
</linearGradient>
<linearGradient id="paint6_linear_196_1002" x1="31.0488" y1="33.0771" x2="46.1217" y2="33.0771" gradientUnits="userSpaceOnUse">
<stop stop-color="#3CDF03"/>
<stop offset="1" stop-color="#2BA600"/>
</linearGradient>
<linearGradient id="paint7_linear_196_1002" x1="31.0537" y1="37.9476" x2="61.47" y2="37.9476" gradientUnits="userSpaceOnUse">
<stop stop-color="#3CDF03"/>
<stop offset="1" stop-color="#2BA600"/>
</linearGradient>
<linearGradient id="paint8_linear_196_1002" x1="11.0515" y1="51.606" x2="60.8738" y2="51.606" gradientUnits="userSpaceOnUse">
<stop stop-color="#3CDF03"/>
<stop offset="1" stop-color="#2BA600"/>
</linearGradient>
<linearGradient id="paint9_linear_196_1002" x1="31.0586" y1="42.7155" x2="61.4748" y2="42.7155" gradientUnits="userSpaceOnUse">
<stop stop-color="#3CDF03"/>
<stop offset="1" stop-color="#2BA600"/>
</linearGradient>
<clipPath id="clip0_196_1002">
<rect width="71.2154" height="100.45" fill="white" transform="translate(0.312408 0.929199)"/>
</clipPath>
</defs>
</svg>
