<svg width="99" height="97" viewBox="0 0 99 97" fill="none" xmlns="http://www.w3.org/2000/svg">
<g clip-path="url(#clip0_196_954)">
<path d="M60.1999 46.757L50.5618 55.9191L9.86137 94.604C8.79286 95.622 7.42215 96.131 6.05144 96.131C4.55121 96.131 3.05099 95.5245 1.9609 94.3224C-0.18691 91.9614 0.0937078 88.2684 2.5653 86.254L50.5618 47.2985L55.8503 43.0098L60.1999 46.757Z" fill="url(#paint0_linear_196_954)"/>
<path d="M50.1408 56.3848L40.6538 65.3954L39.7796 56.1357L44.971 51.9229L50.1408 56.3848Z" fill="#3CDF03"/>
<path d="M98.1697 32.5804C98.1697 50.0492 84.0524 64.2149 66.6541 64.2149C55.6884 64.2149 46.0287 58.5941 40.384 50.06C37.0705 45.0566 35.1386 39.0459 35.1386 32.5804C35.1386 15.1116 49.2558 0.956787 66.6541 0.956787C74.5114 0.956787 81.6888 3.83757 87.204 8.60277C93.9172 14.4077 98.1697 22.9959 98.1697 32.5804Z" fill="url(#paint1_linear_196_954)"/>
<path d="M66.6541 57.2187C80.215 57.2187 91.2082 46.1878 91.2082 32.5804C91.2082 18.9731 80.215 7.94214 66.6541 7.94214C53.0933 7.94214 42.1001 18.9731 42.1001 32.5804C42.1001 46.1878 53.0933 57.2187 66.6541 57.2187Z" fill="white"/>
<path opacity="0.06" d="M98.1697 32.5804C98.1697 50.0492 84.0524 64.2149 66.6541 64.2149C55.6884 64.2149 46.0287 58.5941 40.384 50.0601C75.9253 47.1576 85.2936 16.9419 87.2148 8.60278C93.9172 14.4077 98.1697 22.9959 98.1697 32.5804Z" fill="url(#paint2_linear_196_954)"/>
<path d="M66.6541 32.6345C69.5035 32.6345 71.8131 30.3169 71.8131 27.4578C71.8131 24.5986 69.5035 22.281 66.6541 22.281C63.8047 22.281 61.495 24.5986 61.495 27.4578C61.495 30.3169 63.794 32.6345 66.6541 32.6345ZM66.6541 35.2229C63.2111 35.2229 56.336 36.9557 56.336 40.3996V41.6992C56.336 42.414 56.9188 42.9988 57.6312 42.9988H75.6986C76.411 42.9988 76.9938 42.414 76.9938 41.6992V40.3996C76.9722 36.9665 70.0971 35.2229 66.6541 35.2229Z" fill="url(#paint3_linear_196_954)"/>
</g>
<defs>
<linearGradient id="paint0_linear_196_954" x1="6.5396" y1="90.1212" x2="57.5784" y2="43.8808" gradientUnits="userSpaceOnUse">
<stop stop-color="#3CDF03"/>
<stop offset="1" stop-color="#2BA600"/>
</linearGradient>
<linearGradient id="paint1_linear_196_954" x1="53.6191" y1="3.19139" x2="77.6237" y2="56.9709" gradientUnits="userSpaceOnUse">
<stop stop-color="#3CDF03"/>
<stop offset="1" stop-color="#2BA600"/>
</linearGradient>
<linearGradient id="paint2_linear_196_954" x1="69.2768" y1="8.60278" x2="69.2768" y2="64.2149" gradientUnits="userSpaceOnUse">
<stop stop-color="#3CDF03"/>
<stop offset="1" stop-color="#3CDF03" stop-opacity="0"/>
</linearGradient>
<linearGradient id="paint3_linear_196_954" x1="59.1945" y1="30.9804" x2="77.9056" y2="40.0752" gradientUnits="userSpaceOnUse">
<stop stop-color="#3CDF03"/>
<stop offset="0.071077" stop-color="#3CDF03"/>
<stop offset="0.2937" stop-color="#3CDF03"/>
<stop offset="0.5209" stop-color="#3CDF03"/>
<stop offset="0.7536" stop-color="#3CDF03"/>
<stop offset="1" stop-color="#3CDF03"/>
</linearGradient>
<clipPath id="clip0_196_954">
<rect width="97.655" height="95.1633" fill="white" transform="translate(0.514618 0.956787)"/>
</clipPath>
</defs>
</svg>
