<svg width="32" height="36" viewBox="0 0 32 36" fill="none" xmlns="http://www.w3.org/2000/svg">
<path d="M15.5262 0.111927C13.728 0.625204 12.4712 2.7399 12.4712 5.26523C12.4905 7.56471 13.2059 8.59126 16.2416 10.6444C18.0978 11.8968 19.8573 13.5598 20.3407 14.5247L20.6307 15.0996L20.9207 14.6274C21.6361 13.4777 23.3376 11.8352 25.1358 10.5417C28.3068 8.26276 29.0802 7.0309 28.8288 4.52611C28.3455 -0.483474 23.1056 -1.59215 20.8434 2.82203C20.65 3.19159 20.6113 3.19159 20.3407 2.61672C19.9539 1.83654 18.6972 0.563611 18.0784 0.317238C17.2277 -0.0112591 16.2609 -0.0933838 15.5262 0.111927Z" fill="#1FE018"/>
<path d="M26.7796 19.2677L23.5506 22.6553L21.443 22.6348C18.1947 22.6143 17.4406 22.45 17.2279 21.793C17.0926 21.3824 17.1313 21.1155 17.3633 20.7254C17.692 20.2121 17.692 20.1916 20.921 20.1505L24.1693 20.089L24.4207 19.5141C24.7494 18.7955 24.498 17.9332 23.8599 17.5636C23.2412 17.2146 12.1041 17.3378 11.2147 17.7074C10.6733 17.9332 5.7041 23.107 5.7041 23.4561C5.7041 23.5382 7.05757 25.0369 8.73974 26.7821L11.756 29.9233L13.3609 28.1166L14.9464 26.2893L18.9294 26.4331C21.1143 26.5152 23.4732 26.5152 24.1693 26.4536L25.4454 26.3099L27.0889 24.1746C29.7959 20.6638 32.0001 17.461 32.0001 16.9888C32.0001 16.3728 31.4007 15.8801 30.6466 15.8801C30.0859 15.8801 29.6605 16.2496 26.7796 19.2677Z" fill="#1FE018"/>
<path d="M1.93353 25.119L0 27.1721L4.15709 31.5863L8.31417 36.0005L10.2477 33.9474L12.1812 31.8943L8.02414 27.4801L3.86706 23.0659L1.93353 25.119Z" fill="#1FE018"/>
</svg>
