<svg width="71" height="72" viewBox="0 0 71 72" fill="none" xmlns="http://www.w3.org/2000/svg">
<path d="M34.8419 1.17677C30.8951 2.18969 28.1366 6.3629 28.1366 11.3464C28.179 15.8843 29.7493 17.9101 36.4122 21.9618C40.4863 24.4333 44.3483 27.7152 45.4093 29.6194L46.0458 30.7539L46.6824 29.822C48.2527 27.5531 51.9873 24.3118 55.9341 21.7592C62.8941 17.2619 64.5917 14.8309 64.04 9.88785C62.979 0.00178909 51.478 -2.18611 46.5127 6.52497C46.0883 7.25426 46.0034 7.25426 45.4093 6.1198C44.5605 4.58017 41.8019 2.06814 40.4439 1.58194C38.5766 0.933672 36.4546 0.771606 34.8419 1.17677Z" fill="#1FE018"/>
<path d="M59.5415 38.9787L52.4542 45.6639L47.8283 45.6234C40.6985 45.5829 39.0434 45.2588 38.5766 43.9623C38.2795 43.1519 38.3644 42.6252 38.8737 41.8554C39.5951 40.8425 39.5951 40.802 46.6824 40.7209L53.8122 40.5994L54.3639 39.4649C55.0854 38.0468 54.5337 36.3451 53.1332 35.6158C51.7751 34.927 27.3303 35.1701 25.3781 35.8994C24.1898 36.3451 13.2829 46.5553 13.2829 47.2441C13.2829 47.4062 16.2537 50.3639 19.9459 53.8078L26.5664 60.0068L30.0888 56.4414L33.5688 52.8354L42.3112 53.119C47.1068 53.2811 52.2844 53.2811 53.8122 53.1595L56.6132 52.8759L60.2205 48.6622C66.162 41.7338 71 35.4132 71 34.4814C71 33.2659 69.6844 32.2935 68.0293 32.2935C66.7985 32.2935 65.8649 33.0228 59.5415 38.9787Z" fill="#1FE018"/>
<path d="M5.00733 50.5262L0.763428 54.5779L9.88782 63.2889L19.0122 72L23.2561 67.9483L27.5 63.8967L18.3756 55.1856L9.25123 46.4745L5.00733 50.5262Z" fill="#1FE018"/>
</svg>
