<svg width="67" height="68" viewBox="0 0 67 68" fill="none" xmlns="http://www.w3.org/2000/svg">
<path d="M50.25 33.586H48.0128C45.6965 33.586 44.5385 33.586 43.5785 34.1296C42.6187 34.6731 42.0227 35.6661 40.8312 37.6521L40.7449 37.7959C39.635 39.6459 39.0797 40.5711 38.2724 40.5557C37.4647 40.5406 36.9446 39.5954 35.905 37.7049L31.1946 29.1406C30.2251 27.3778 29.7405 26.4964 28.9661 26.4546C28.1919 26.4128 27.6152 27.2369 26.4615 28.8849L25.6714 30.0138C24.4461 31.7642 23.8334 32.6394 22.9244 33.1126C22.0154 33.586 20.947 33.586 18.8103 33.586H16.75" stroke="white" stroke-width="2" stroke-linecap="round"/>
<path d="M33.4999 15.4423L31.9913 16.8943C32.386 17.3044 32.9307 17.5361 33.4999 17.5361C34.0691 17.5361 34.6138 17.3044 35.0085 16.8943L33.4999 15.4423ZM7.41643 37.4848C8.02758 38.4663 9.31881 38.7667 10.3004 38.1556C11.2821 37.5445 11.5824 36.2531 10.9713 35.2715L7.41643 37.4848ZM18.2286 44.1161C17.41 43.2995 16.0843 43.3009 15.2676 44.1197C14.451 44.9382 14.4525 46.264 15.2712 47.0806L18.2286 44.1161ZM7.677 25.5941C7.677 17.7694 11.1867 12.9144 15.5752 11.2451C19.9756 9.57126 26.1056 10.7791 31.9913 16.8943L35.0085 13.9904C28.3323 7.05401 20.5039 4.89008 14.0864 7.33119C7.65707 9.77681 3.4895 16.5234 3.4895 25.5941H7.677ZM43.278 54.5237C47.444 51.2393 52.4377 46.836 56.4086 41.9163C60.3351 37.0515 63.5103 31.378 63.5103 25.594H59.3228C59.3228 29.9238 56.8877 34.6554 53.1502 39.2862C49.4571 43.8618 44.7333 48.044 40.6857 51.2351L43.278 54.5237ZM63.5103 25.594C63.5103 16.5234 59.3427 9.77678 52.9134 7.33117C46.496 4.89011 38.6676 7.05401 31.9913 13.9904L35.0085 16.8943C40.8942 10.7791 47.0241 9.57126 51.4247 11.2451C55.8132 12.9144 59.3228 17.7694 59.3228 25.594H63.5103ZM23.7219 54.5234C27.2793 57.3279 29.7314 59.37 33.4999 59.37V55.1825C31.46 55.1825 30.1937 54.2934 26.3143 51.2351L23.7219 54.5234ZM40.6857 51.2351C36.8061 54.2934 35.5398 55.1825 33.4999 55.1825V59.37C37.2684 59.37 39.7206 57.3279 43.278 54.5237L40.6857 51.2351ZM10.9713 35.2715C8.88867 31.9266 7.677 28.6486 7.677 25.5941H3.4895C3.4895 29.7256 5.11018 33.7805 7.41643 37.4848L10.9713 35.2715ZM26.3143 51.2351C23.7544 49.217 20.9121 46.793 18.2286 44.1161L15.2712 47.0806C18.0996 49.9024 21.0719 52.4344 23.7219 54.5234L26.3143 51.2351Z" fill="white"/>
</svg>
