<svg width="71" height="70" viewBox="0 0 71 70" fill="none" xmlns="http://www.w3.org/2000/svg">
<path d="M34.6302 4.50566C31.3287 5.38066 29.0212 8.98566 29.0212 13.2907C29.0567 17.2107 30.3702 18.9607 35.9437 22.4607C39.3517 24.5957 42.5822 27.4307 43.4697 29.0757L44.0022 30.0557L44.5347 29.2507C45.8482 27.2907 48.9722 24.4907 52.2737 22.2857C58.0957 18.4007 59.5157 16.3007 59.0542 12.0307C58.1667 3.49066 48.5462 1.60066 44.3927 9.12566C44.0377 9.75566 43.9667 9.75566 43.4697 8.77566C42.7597 7.44566 40.4522 5.27566 39.3162 4.85566C37.7542 4.29566 35.9792 4.15566 34.6302 4.50566Z" fill="#1FE018"/>
<path d="M55.2912 37.1604L49.3628 42.9354L45.4932 42.9004C39.5293 42.8654 38.1448 42.5854 37.7543 41.4654C37.5058 40.7654 37.5768 40.3104 38.0028 39.6454C38.6063 38.7704 38.6063 38.7354 44.5347 38.6654L50.4987 38.5604L50.9603 37.5804C51.5638 36.3554 51.1022 34.8854 49.9308 34.2554C48.7948 33.6604 28.3468 33.8704 26.7138 34.5004C25.7198 34.8854 16.5963 43.7054 16.5963 44.3004C16.5963 44.4404 19.0813 46.9954 22.1698 49.9704L27.7078 55.3254L30.6543 52.2454L33.5653 49.1304L40.8783 49.3754C44.8897 49.5154 49.2207 49.5154 50.4987 49.4104L52.8418 49.1654L55.8592 45.5254C60.8293 39.5404 64.8762 34.0804 64.8762 33.2754C64.8762 32.2254 63.7757 31.3854 62.3913 31.3854C61.3617 31.3854 60.5807 32.0154 55.2912 37.1604Z" fill="#1FE018"/>
<path d="M9.67375 47.1355L6.12375 50.6355L13.7562 58.1605L21.3887 65.6855L24.9387 62.1855L28.4887 58.6855L20.8562 51.1605L13.2237 43.6355L9.67375 47.1355Z" fill="#1FE018"/>
</svg>
