<svg width="25" height="25" viewBox="0 0 25 25" fill="none" xmlns="http://www.w3.org/2000/svg">
<path d="M17.0688 10.0815H7.07186C5.69158 10.0815 4.57263 11.2005 4.57263 12.5808V20.0785C4.57263 21.4587 5.69158 22.5777 7.07186 22.5777H17.0688C18.4491 22.5777 19.568 21.4587 19.568 20.0785V12.5808C19.568 11.2005 18.4491 10.0815 17.0688 10.0815Z" stroke="#211F54" stroke-width="1.67948" stroke-linecap="round" stroke-linejoin="round"/>
<path d="M12.0704 2.58398C10.7447 2.58398 9.47331 3.11061 8.53591 4.048C7.59852 4.98539 7.0719 6.25677 7.0719 7.58244V10.0817H17.0688V7.58244C17.0688 6.25677 16.5422 4.98539 15.6048 4.048C14.6674 3.11061 13.396 2.58398 12.0704 2.58398V2.58398Z" stroke="#211F54" stroke-width="1.67948" stroke-linecap="round" stroke-linejoin="round"/>
</svg>
