<svg width="73" height="68" viewBox="0 0 73 68" fill="none" xmlns="http://www.w3.org/2000/svg">
<g filter="url(#filter0_d_357_231)">
<path d="M43.1818 25.8735V35.8705C43.1818 36.5333 42.9185 37.169 42.4498 37.6377C41.9811 38.1064 41.3454 38.3697 40.6826 38.3697H25.6872C25.0244 38.3697 24.3887 38.1064 23.92 37.6377C23.4513 37.169 23.188 36.5333 23.188 35.8705V25.8735" stroke="#3CDF03" stroke-width="1.67948" stroke-linecap="round" stroke-linejoin="round"/>
<path d="M43.1818 25.8733C43.1818 25.2104 42.9185 24.5747 42.4498 24.106C41.9811 23.6373 41.3454 23.374 40.6826 23.374H25.6872C25.0244 23.374 24.3887 23.6373 23.92 24.106C23.4513 24.5747 23.188 25.2104 23.188 25.8733L31.8603 31.2883C32.2575 31.5365 32.7165 31.6681 33.1849 31.6681C33.6533 31.6681 34.1123 31.5365 34.5095 31.2883L43.1818 25.8733Z" stroke="#3CDF03" stroke-width="1.67948" stroke-linecap="round" stroke-linejoin="round"/>
</g>
<defs>
<filter id="filter0_d_357_231" x="-0.811279" y="-3.26416" width="73.9926" height="73.9927" filterUnits="userSpaceOnUse" color-interpolation-filters="sRGB">
<feFlood flood-opacity="0" result="BackgroundImageFix"/>
<feColorMatrix in="SourceAlpha" type="matrix" values="0 0 0 0 0 0 0 0 0 0 0 0 0 0 0 0 0 0 127 0" result="hardAlpha"/>
<feOffset dx="3" dy="3"/>
<feGaussianBlur stdDeviation="12.5"/>
<feComposite in2="hardAlpha" operator="out"/>
<feColorMatrix type="matrix" values="0 0 0 0 0 0 0 0 0 0 0 0 0 0 0 0 0 0 0.25 0"/>
<feBlend mode="normal" in2="BackgroundImageFix" result="effect1_dropShadow_357_231"/>
<feBlend mode="normal" in="SourceGraphic" in2="effect1_dropShadow_357_231" result="shape"/>
</filter>
</defs>
</svg>
