<svg width="23" height="22" viewBox="0 0 23 22" fill="none" xmlns="http://www.w3.org/2000/svg">
<path d="M0.740021 3.27217C0.740021 2.57973 0.983196 2.00848 1.46953 1.55842C1.95586 1.10833 2.58811 0.883301 3.36624 0.883301C4.13049 0.883301 4.74882 1.10486 5.22127 1.54803C5.7076 2.00503 5.95077 2.60051 5.95077 3.33449C5.95077 3.99922 5.71456 4.55315 5.24211 4.99632C4.75578 5.45332 4.11659 5.68182 3.32455 5.68182H3.30371C2.53946 5.68182 1.92113 5.45332 1.44868 4.99632C0.976234 4.53932 0.740021 3.96459 0.740021 3.27217ZM1.01098 21.4484V7.57215H5.63813V21.4484H1.01098ZM8.20182 21.4484H12.829V13.7001C12.829 13.2154 12.8845 12.8415 12.9957 12.5784C13.1902 12.1075 13.4855 11.7094 13.8815 11.384C14.2775 11.0585 14.7743 10.8958 15.3718 10.8958C16.9281 10.8958 17.7062 11.9414 17.7062 14.0325V21.4484H22.3334V13.4924C22.3334 11.4428 21.847 9.88832 20.8744 8.8289C19.9017 7.76949 18.6164 7.23978 17.0184 7.23978C15.2259 7.23978 13.8294 8.00838 12.829 9.54556V9.58711H12.8081L12.829 9.54556V7.57215H8.20182C8.2296 8.01529 8.2435 9.39322 8.2435 11.7059C8.2435 14.0186 8.2296 17.2661 8.20182 21.4484Z" fill="#3CDF03"/>
</svg>
