<svg width="26" height="30" viewBox="0 0 26 30" fill="none" xmlns="http://www.w3.org/2000/svg">
<path d="M13.3859 6.92308C14.8281 6.92308 16.6359 6.00763 17.7125 4.78703C18.6875 3.68086 19.3984 2.13605 19.3984 0.591227C19.3984 0.381437 19.3781 0.171647 19.3375 0C17.7328 0.0572155 15.8031 1.01081 14.6453 2.28862C13.7313 3.26128 12.8984 4.78703 12.8984 6.35092C12.8984 6.57978 12.9391 6.80865 12.9594 6.88493C13.0609 6.904 13.2234 6.92308 13.3859 6.92308ZM8.30781 30C10.2781 30 11.1516 28.7603 13.6094 28.7603C16.1078 28.7603 16.6562 29.9619 18.85 29.9619C21.0031 29.9619 22.4453 28.0928 23.8062 26.2619C25.3297 24.164 25.9594 22.1043 26 22.0089C25.8578 21.9708 21.7344 20.3878 21.7344 15.9441C21.7344 12.0915 24.9844 10.356 25.1672 10.2225C23.0141 7.32359 19.7437 7.2473 18.85 7.2473C16.4328 7.2473 14.4625 8.62047 13.2234 8.62047C11.8828 8.62047 10.1156 7.32358 8.02344 7.32358C4.04219 7.32358 0 10.4132 0 16.2492C0 19.8729 1.50312 23.7063 3.35156 26.1856C4.93594 28.2835 6.31719 30 8.30781 30Z" fill="#000100"/>
</svg>
