<svg width="72" height="73" viewBox="0 0 72 73" fill="none" xmlns="http://www.w3.org/2000/svg">
<path d="M62.8784 33.9831C62.7081 32.212 62.3963 30.4837 61.7605 28.8144C61.1205 27.1329 60.2446 25.5246 59.3051 23.9876C58.3923 22.4995 57.4118 21.044 56.3185 19.6759C55.2333 18.3242 54.0969 17.0173 52.858 15.7978C52.2857 15.2441 51.6908 14.7128 51.0836 14.1978C50.337 13.5707 49.5883 12.9336 48.7903 12.3717C47.4611 11.4353 46.0334 10.5965 44.5668 9.88606C43.775 9.50334 42.973 9.1369 42.1545 8.82136C41.2663 8.47529 40.3638 8.2025 39.4427 7.9521C39.2992 7.91139 39.1515 7.89307 39.0058 7.89307C38.2653 7.89307 37.572 8.38572 37.3669 9.12265C37.213 9.67638 37.3935 10.2423 37.7546 10.6556C38.2058 11.7671 38.6715 12.8745 39.1289 13.9901C39.6192 15.1871 39.8509 16.4473 40.054 17.7196C40.214 19.0184 40.3125 20.3152 40.3535 21.6241C40.4007 23.0899 40.3904 24.5454 40.2489 26.003C40.1094 26.8479 39.9186 27.6723 39.6499 28.4907C39.3792 29.3233 39.0551 30.1376 38.7166 30.9478C38.3412 31.7743 37.9412 32.5764 37.494 33.3744C37.0633 34.1399 36.5259 34.8381 35.9905 35.5364C35.2438 36.483 34.4623 37.395 33.6931 38.3193C32.8767 39.2964 31.9782 40.1616 30.9977 40.9739C30.0193 41.7271 29.0326 42.4803 28.0008 43.1623C26.8829 43.8992 25.6829 44.516 24.4644 45.0738C22.9445 45.6601 21.3486 45.9696 19.7896 46.4317C18.9753 46.6638 18.165 46.8734 17.3343 47.0465C16.5733 47.2053 15.8102 47.3803 15.041 47.5004C14.3005 47.5717 13.5558 47.6185 12.8112 47.645C11.9354 47.6694 11.0759 47.6409 10.2123 47.7936C9.49846 47.9218 9 48.6954 9 49.3754C9 49.5708 9.04513 49.7622 9.11487 49.9454C9.10667 49.9698 9.0882 49.9881 9.08205 50.0126C9.0041 50.3016 9.0041 50.5968 9.08205 50.8859C9.16205 51.1627 9.30564 51.405 9.50666 51.6086C10.0133 52.2234 10.5569 52.8117 11.0759 53.4143C11.5907 54.0169 12.1179 54.6011 12.6923 55.1487C13.9128 56.3233 15.164 57.502 16.5302 58.5077C17.1866 58.9902 17.8799 59.4217 18.5773 59.8472C19.2542 60.2564 19.9065 60.7124 20.5835 61.1297C21.2809 61.5593 21.9824 61.9949 22.6983 62.3939C23.4757 62.8275 24.3352 63.1614 25.1742 63.4586C25.9126 63.7192 26.6654 63.9492 27.4203 64.1711C28.3454 64.448 29.2849 64.6617 30.2449 64.7656C31.8941 64.9467 33.5761 64.9101 35.2254 64.8083C36.9915 64.7045 38.7556 64.503 40.4786 64.0775C41.2766 63.88 42.0786 63.6785 42.8663 63.4383C43.734 63.1695 44.5729 62.8153 45.4078 62.4611C46.8704 61.8382 48.2816 61.0524 49.656 60.2605C51.1636 59.3871 52.4723 58.1698 53.7852 57.0379C54.4005 56.5025 55.0262 55.9651 55.5882 55.3727C56.2364 54.6968 56.8374 53.97 57.3954 53.2168C57.9061 52.5247 58.3964 51.8162 58.8456 51.0854C59.262 50.4075 59.6025 49.6929 59.9328 48.9702C60.6589 47.36 61.3071 45.707 61.8569 44.0356C62.4086 42.35 62.6958 40.5972 62.8784 38.8384C63.0486 37.222 63.0322 35.6036 62.8784 33.9831ZM59.4282 39.6119C59.2415 40.8232 58.9953 42.0304 58.622 43.1949C58.2097 44.4835 57.7236 45.7497 57.2087 47.0037C56.8477 47.8343 56.4702 48.6588 56.0026 49.4385C55.4713 50.324 54.8928 51.177 54.2734 52.0055C53.5472 52.8891 52.7616 53.6911 51.9021 54.4464C51.0262 55.2139 50.1524 55.9854 49.2437 56.7162C48.3473 57.3494 47.3955 57.8868 46.4211 58.4018C45.5822 58.8517 44.7247 59.2853 43.8468 59.662C42.7514 60.1058 41.6355 60.4478 40.4868 60.7389C39.3833 61.0239 38.2879 61.2763 37.1638 61.4412C36.0602 61.5674 34.9546 61.6407 33.8449 61.6753C32.69 61.714 31.5351 61.7181 30.3885 61.6061C29.4818 61.4412 28.6121 61.2091 27.7301 60.9343C26.9239 60.6819 26.1301 60.4193 25.3485 60.1037C24.1075 59.5357 22.9486 58.8253 21.7978 58.0904C20.6204 57.3412 19.406 56.6328 18.282 55.8042C17.1373 54.882 16.0584 53.8723 14.9999 52.8606C14.3558 52.2478 13.761 51.5862 13.1825 50.9103C13.9415 50.8635 14.7046 50.8024 15.4533 50.6925C16.2471 50.5765 17.0307 50.3708 17.8163 50.2019C18.5896 50.037 19.3609 49.868 20.126 49.6441C20.9732 49.3978 21.8204 49.1535 22.684 48.9519C23.4573 48.7707 24.2244 48.5326 24.965 48.2516C25.7998 47.9381 26.606 47.535 27.3895 47.1177C28.1793 46.6984 28.9464 46.2607 29.6911 45.7619C30.3803 45.2998 31.0449 44.797 31.7136 44.3023C32.4192 43.775 33.129 43.2417 33.7895 42.6493C34.4582 42.0548 35.0859 41.4299 35.6746 40.7499C36.1894 40.1575 36.692 39.5549 37.1946 38.9564C37.8058 38.2297 38.3822 37.4683 38.9504 36.7049C39.4284 36.0698 39.8756 35.4102 40.2715 34.7221C41.172 33.1566 41.8796 31.5036 42.5176 29.8241C42.8007 29.079 43.053 28.3075 43.2027 27.5278C43.3894 26.5975 43.4858 25.6569 43.5555 24.7124C43.6171 23.8675 43.6089 23.0186 43.6006 22.1697C43.5924 21.3452 43.5719 20.5167 43.5186 19.6922C43.4058 17.9578 43.1371 16.2152 42.776 14.5153C42.614 13.754 42.3022 13.0394 42.0212 12.3167C43.8427 13.1351 45.5781 14.1123 47.2006 15.2726C48.4252 16.2335 49.6211 17.231 50.7267 18.3283C51.8488 19.45 52.8682 20.6694 53.8549 21.9132C55.5882 24.2116 57.0938 26.6504 58.3041 29.2582C58.542 29.8485 58.7513 30.445 58.9461 31.0517C59.1697 31.754 59.2907 32.493 59.4056 33.2238C59.5307 34.2763 59.6312 35.3226 59.6312 36.3833C59.6353 37.4663 59.5594 38.5391 59.4282 39.6119ZM56.8354 37.4785C56.8682 38.3803 56.8846 39.2638 56.8067 40.1616C56.7369 41.0309 56.579 41.9286 56.382 42.7796C56.1913 43.5877 55.9328 44.3735 55.6292 45.1451C55.3092 45.9696 54.9564 46.8144 54.5359 47.59C54.1667 48.27 53.7544 48.9214 53.3277 49.5688C52.8211 50.3444 52.2898 51.0976 51.6949 51.8101C50.616 53.0967 49.2642 54.1716 47.9062 55.1528C46.577 56.1137 45.0899 56.7732 43.5617 57.3534C43.1965 57.4939 42.7186 57.3901 42.3945 57.2048C42.0581 57.0074 41.8037 56.6816 41.7012 56.3091C41.5925 55.9223 41.6478 55.5009 41.8509 55.1508C42.0663 54.7925 42.374 54.6072 42.7555 54.4627C42.9627 54.3833 43.1658 54.31 43.3709 54.2306C44.4294 53.7665 45.4406 53.2168 46.3822 52.547C47.5124 51.6432 48.577 50.6823 49.496 49.5667C50.5175 48.156 51.3893 46.6149 52.0949 45.0229C52.3964 44.3003 52.6775 43.5715 52.9052 42.8203C53.1082 42.1444 53.2293 41.4584 53.3298 40.7642C53.3831 40.2491 53.4364 39.7361 53.4323 39.2211C53.4282 38.6389 53.3995 38.0587 53.3749 37.4805C53.338 36.5441 54.1934 35.7583 55.1062 35.7583C56.0723 35.7563 56.8026 36.54 56.8354 37.4785Z" fill="white"/>
</svg>
