<svg width="73" height="73" viewBox="0 0 73 73" fill="none" xmlns="http://www.w3.org/2000/svg">
<g filter="url(#filter0_d_1_966)">
<path fill-rule="evenodd" clip-rule="evenodd" d="M21.5553 32.5667C21.5553 28.2539 21.5553 26.0974 22.583 24.5442C23.0419 23.8506 23.6359 23.2567 24.3295 22.7977C25.8827 21.77 28.0391 21.77 32.3519 21.77C36.6648 21.77 38.8212 21.77 40.3744 22.7977C41.068 23.2567 41.662 23.8506 42.1209 24.5442C43.1486 26.0974 43.1486 28.2539 43.1486 32.5667C43.1486 36.8795 43.1486 39.036 42.1209 40.5892C41.662 41.2827 41.068 41.8767 40.3744 42.3357C38.8212 43.3634 36.6648 43.3634 32.3519 43.3634C28.0391 43.3634 25.8827 43.3634 24.3295 42.3357C23.6359 41.8767 23.0419 41.2827 22.583 40.5892C21.5553 39.036 21.5553 36.8795 21.5553 32.5667ZM37.9413 32.5669C37.9413 35.6539 35.4387 38.1564 32.3517 38.1564C29.2647 38.1564 26.7621 35.6539 26.7621 32.5669C26.7621 29.4798 29.2647 26.9773 32.3517 26.9773C35.4387 26.9773 37.9413 29.4798 37.9413 32.5669ZM32.3517 36.2653C34.3943 36.2653 36.0502 34.6095 36.0502 32.5669C36.0502 30.5243 34.3943 28.8684 32.3517 28.8684C30.3091 28.8684 28.6532 30.5243 28.6532 32.5669C28.6532 34.6095 30.3091 36.2653 32.3517 36.2653ZM38.1621 28.0098C38.8874 28.0098 39.4754 27.4218 39.4754 26.6965C39.4754 25.9711 38.8874 25.3831 38.1621 25.3831C37.4367 25.3831 36.8487 25.9711 36.8487 26.6965C36.8487 27.4218 37.4367 28.0098 38.1621 28.0098Z" fill="#3CDF03"/>
</g>
<defs>
<filter id="filter0_d_1_966" x="-0.463898" y="0.295898" width="72.793" height="72.793" filterUnits="userSpaceOnUse" color-interpolation-filters="sRGB">
<feFlood flood-opacity="0" result="BackgroundImageFix"/>
<feColorMatrix in="SourceAlpha" type="matrix" values="0 0 0 0 0 0 0 0 0 0 0 0 0 0 0 0 0 0 127 0" result="hardAlpha"/>
<feOffset dx="4" dy="4"/>
<feGaussianBlur stdDeviation="12.5"/>
<feComposite in2="hardAlpha" operator="out"/>
<feColorMatrix type="matrix" values="0 0 0 0 0 0 0 0 0 0 0 0 0 0 0 0 0 0 0.3 0"/>
<feBlend mode="normal" in2="BackgroundImageFix" result="effect1_dropShadow_1_966"/>
<feBlend mode="normal" in="SourceGraphic" in2="effect1_dropShadow_1_966" result="shape"/>
</filter>
</defs>
</svg>
