<svg width="49" height="50" viewBox="0 0 49 50" fill="none" xmlns="http://www.w3.org/2000/svg">
<g clip-path="url(#clip0_248_336)">
<path d="M45.3641 9.28916L26.2107 1.09419C25.6689 0.860869 25.0934 0.742676 24.4999 0.742676C23.9074 0.742676 23.3328 0.860869 22.7891 1.09419L3.63576 9.28916C2.03369 9.97449 0.997803 11.5437 0.997803 13.2873V37.1991C0.997803 38.9418 2.03369 40.511 3.63576 41.1972L22.7901 49.3921C23.3338 49.6246 23.9084 49.7427 24.4999 49.7427C25.0914 49.7427 25.6661 49.6246 26.2107 49.3921L45.3641 41.1972C46.9661 40.511 48.002 38.9418 48.002 37.1991V13.2873C48.002 11.5437 46.9661 9.97439 45.3641 9.28916ZM3.92632 37.1991V13.2873C3.92632 13.1616 3.94316 13.0369 3.9779 12.9141L23.6722 21.3406V46.5854L4.7887 38.5059C4.26472 38.2818 3.92632 37.7681 3.92632 37.1991ZM44.2111 38.5059L25.3286 46.5854V21.3407L45.022 12.9142C45.0567 13.037 45.0735 13.1617 45.0735 13.2873V37.1991C45.0735 37.7681 44.7351 38.2818 44.2111 38.5059ZM24.4999 3.67119C24.693 3.67119 24.8815 3.70957 25.0577 3.78556L43.6026 11.7199L24.4999 19.8933L5.39708 11.7199L23.9412 3.78556C24.1184 3.70957 24.3068 3.67119 24.4999 3.67119Z" fill="white"/>
</g>
<defs>
<clipPath id="clip0_248_336">
<rect width="49" height="49" fill="white" transform="translate(0 0.742676)"/>
</clipPath>
</defs>
</svg>
