<svg width="28" height="29" viewBox="0 0 28 29" fill="none" xmlns="http://www.w3.org/2000/svg">
<g clip-path="url(#clip0_357_70)">
<path d="M8.1687 13.3329L12.8353 2.83301C13.7635 2.83301 14.6538 3.20175 15.3101 3.85812C15.9665 4.51449 16.3353 5.40471 16.3353 6.33296V10.9996H22.9385C23.2767 10.9957 23.6117 11.0655 23.9203 11.204C24.2289 11.3425 24.5037 11.5464 24.7256 11.8016C24.9476 12.0569 25.1114 12.3573 25.2057 12.6822C25.3 13.007 25.3226 13.3484 25.2718 13.6829L23.6618 24.1827C23.5774 24.7391 23.2948 25.2462 22.8661 25.6107C22.4373 25.9752 21.8912 26.1724 21.3285 26.166H8.1687M8.1687 13.3329V26.166M8.1687 13.3329H4.66875C4.04992 13.3329 3.45644 13.5787 3.01886 14.0163C2.58128 14.4538 2.33545 15.0473 2.33545 15.6662V23.8327C2.33545 24.4515 2.58128 25.045 3.01886 25.4826C3.45644 25.9202 4.04992 26.166 4.66875 26.166H8.1687" stroke="#ACACBE" stroke-width="2.3333" stroke-linecap="round" stroke-linejoin="round"/>
</g>
<defs>
<clipPath id="clip0_357_70">
<rect width="27.9996" height="27.9996" fill="white" transform="translate(0.00195312 0.499023)"/>
</clipPath>
</defs>
</svg>
