<svg width="28" height="29" viewBox="0 0 28 29" fill="none" xmlns="http://www.w3.org/2000/svg">
<g clip-path="url(#clip0_357_73)">
<path d="M19.8341 15.6656L15.1675 26.1655C14.2393 26.1655 13.349 25.7967 12.6927 25.1403C12.0363 24.484 11.6676 23.5938 11.6676 22.6655V17.9989H5.06431C4.72609 18.0027 4.39108 17.933 4.08249 17.7945C3.7739 17.656 3.49912 17.4521 3.27717 17.1968C3.05522 16.9416 2.89142 16.6411 2.79711 16.3163C2.70281 15.9915 2.68025 15.65 2.73101 15.3156L4.34099 4.81576C4.42536 4.25938 4.70798 3.75223 5.13675 3.38777C5.56553 3.02331 6.11158 2.82609 6.67429 2.83245H19.8341M19.8341 15.6656V2.83245M19.8341 15.6656H22.9491C23.6093 15.6773 24.2509 15.4461 24.752 15.016C25.2531 14.5859 25.5788 13.9867 25.6674 13.3323V5.16575C25.5788 4.51133 25.2531 3.91219 24.752 3.48207C24.2509 3.05194 23.6093 2.82078 22.9491 2.83245H19.8341" stroke="#ACACBE" stroke-width="2.3333" stroke-linecap="round" stroke-linejoin="round"/>
</g>
<defs>
<clipPath id="clip0_357_73">
<rect width="27.9996" height="27.9996" fill="white" transform="translate(0.000976562 0.499023)"/>
</clipPath>
</defs>
</svg>
