<svg width="22" height="19" viewBox="0 0 22 19" fill="none" xmlns="http://www.w3.org/2000/svg">
<path d="M14.7984 0.810529V0.806641H15.8109L16.1809 0.880528C16.4275 0.928497 16.6514 0.99136 16.8526 1.06914C17.0538 1.14691 17.2485 1.23766 17.4367 1.34135C17.625 1.44505 17.7957 1.55071 17.9488 1.65829C18.1007 1.76459 18.237 1.87737 18.3577 1.99662C18.4771 2.11717 18.6634 2.14828 18.9165 2.08995C19.1697 2.03162 19.4422 1.9506 19.7343 1.8469C20.0264 1.7432 20.3152 1.62654 20.6008 1.49691C20.8864 1.36727 21.0603 1.28497 21.1226 1.24997C21.1836 1.21368 21.2161 1.19424 21.22 1.19163L21.2238 1.1858L21.2433 1.17608L21.2628 1.16636L21.2823 1.15663L21.3017 1.14691L21.3056 1.14108L21.3115 1.13719L21.3173 1.1333L21.3212 1.12747L21.3407 1.12164L21.3601 1.11775L21.3563 1.14691L21.3504 1.17608L21.3407 1.20524L21.3309 1.23441L21.3212 1.25385L21.3115 1.2733L21.3017 1.30247C21.2952 1.32191 21.2888 1.34783 21.2823 1.38024C21.2758 1.41265 21.2141 1.54227 21.0973 1.76912C20.9805 1.99598 20.8344 2.22606 20.6592 2.45939C20.4839 2.69272 20.3269 2.869 20.188 2.98827C20.0478 3.10882 19.955 3.19307 19.9095 3.24104C19.8641 3.29029 19.809 3.33566 19.744 3.37715L19.6467 3.44132L19.6272 3.45104L19.6077 3.46076L19.6039 3.46659L19.598 3.47048L19.5922 3.47437L19.5883 3.4802L19.5688 3.48993L19.5493 3.49965L19.5455 3.50548L19.5396 3.50937L19.5338 3.51326L19.5299 3.51909L19.526 3.52493L19.5201 3.52881L19.5143 3.5327L19.5104 3.53854H19.6077L20.1529 3.42187C20.5164 3.3441 20.8636 3.25012 21.1946 3.13993L21.7204 2.96494L21.7788 2.94549L21.808 2.93577L21.8274 2.92605L21.8469 2.91633L21.8664 2.9066L21.8859 2.89688L21.9248 2.89105L21.9637 2.88716V2.92605L21.954 2.92994L21.9443 2.93577L21.9404 2.9416L21.9345 2.94549L21.9287 2.94938L21.9248 2.95521L21.9209 2.96105L21.9151 2.96494L21.9092 2.96882L21.9053 2.97466L21.9015 2.98049L21.8956 2.98438L21.8859 3.00382L21.8761 3.02327L21.8703 3.02716C21.8677 3.03105 21.7853 3.14122 21.623 3.35771C21.4607 3.57548 21.3731 3.68565 21.3601 3.68826C21.3472 3.69214 21.329 3.71159 21.3056 3.74659C21.2836 3.78287 21.146 3.92742 20.8928 4.18019C20.6397 4.43297 20.3918 4.65786 20.1491 4.8549C19.905 5.05323 19.7817 5.29692 19.7791 5.586C19.7752 5.87377 19.7603 6.19915 19.7343 6.56209C19.7084 6.92506 19.6597 7.31717 19.5883 7.73846C19.5169 8.15976 19.4066 8.63614 19.2573 9.1676C19.108 9.69907 18.9263 10.2176 18.7121 10.7231C18.4979 11.2287 18.274 11.6824 18.0403 12.0842C17.8067 12.4861 17.5925 12.8263 17.3978 13.105C17.2031 13.3837 17.0051 13.6462 16.8039 13.8925C16.6027 14.1388 16.3483 14.4162 16.0407 14.7247C15.7317 15.0319 15.563 15.2005 15.5344 15.2303C15.5046 15.2588 15.3774 15.3651 15.1528 15.5492C14.9295 15.7345 14.6894 15.9199 14.4324 16.1053C14.1766 16.2893 13.9417 16.4429 13.7275 16.5661C13.5133 16.6892 13.255 16.8299 12.9526 16.988C12.6514 17.1475 12.3256 17.2952 11.9751 17.4313C11.6246 17.5675 11.2547 17.6938 10.8653 17.8105C10.4758 17.9272 10.0994 18.0179 9.73595 18.0827C9.3725 18.1475 8.96036 18.2026 8.49954 18.248L7.80832 18.3161V18.3258H6.5427V18.3161L6.3772 18.3063C6.26688 18.2999 6.176 18.2934 6.1046 18.2869C6.03322 18.2804 5.76386 18.2447 5.29656 18.1799C4.82925 18.1151 4.46256 18.0503 4.19644 17.9855C3.93035 17.9207 3.53443 17.7975 3.00871 17.6161C2.483 17.4346 2.03322 17.2512 1.65937 17.0658C1.28683 16.8817 1.05318 16.7651 0.958416 16.7158C0.864955 16.6678 0.759812 16.6082 0.642986 16.5369L0.467747 16.43L0.463872 16.4241L0.458011 16.4203L0.45217 16.4164L0.448276 16.4105L0.428805 16.4008L0.409334 16.3911L0.405459 16.3853L0.399598 16.3814L0.393757 16.3775L0.389863 16.3716L0.385988 16.3658L0.380127 16.3619H0.370392V16.323L0.389863 16.3269L0.409334 16.3328L0.496953 16.3425C0.555366 16.349 0.714386 16.3587 0.973993 16.3716C1.23362 16.3846 1.50945 16.3846 1.80151 16.3716C2.09358 16.3587 2.39214 16.3295 2.69718 16.2841C3.00223 16.2388 3.36244 16.161 3.77782 16.0508C4.19321 15.9406 4.57484 15.8097 4.92273 15.658C5.26932 15.5051 5.51594 15.391 5.66263 15.3158C5.808 15.2419 6.02997 15.1045 6.32852 14.9036L6.77635 14.6022L6.78025 14.5964L6.78609 14.5925L6.79195 14.5886L6.79582 14.5828L6.79972 14.577L6.80556 14.5731L6.81142 14.5692L6.8153 14.5633L6.83477 14.5575L6.85424 14.5536L6.85813 14.5342L6.86397 14.5147L6.86983 14.5108L6.87371 14.505L6.71794 14.4953C6.6141 14.4888 6.51349 14.4823 6.41614 14.4758C6.31878 14.4694 6.16627 14.4402 5.95857 14.3883C5.75089 14.3365 5.52698 14.2587 5.28682 14.155C5.04669 14.0513 4.81303 13.9282 4.58587 13.7856C4.35872 13.643 4.1945 13.5244 4.09325 13.4297C3.9933 13.3364 3.86349 13.2042 3.70383 13.0331C3.54547 12.8607 3.40787 12.6837 3.29104 12.5023C3.17422 12.3208 3.06259 12.1114 2.95616 11.8742L2.79453 11.5203L2.7848 11.4912L2.77506 11.462L2.76922 11.4426L2.76533 11.4231L2.79453 11.427L2.82374 11.4328L3.03792 11.462C3.18072 11.4815 3.40464 11.4879 3.70967 11.4815C4.01472 11.475 4.22565 11.462 4.34248 11.4426C4.4593 11.4231 4.5307 11.4101 4.55666 11.4037L4.5956 11.394L4.64428 11.3842L4.69296 11.3745L4.69685 11.3687L4.70269 11.3648L4.70855 11.3609L4.71243 11.3551L4.67348 11.3453L4.63454 11.3356L4.5956 11.3259L4.55666 11.3162L4.51772 11.3065C4.49176 11.3 4.44634 11.287 4.38142 11.2676C4.31652 11.2481 4.14128 11.1768 3.8557 11.0537C3.57014 10.9305 3.34297 10.8106 3.17422 10.694C3.00504 10.577 2.84374 10.449 2.69134 10.3109C2.53946 10.1709 2.37267 9.99073 2.19093 9.77037C2.00921 9.55001 1.84696 9.29399 1.70416 9.00233C1.56138 8.71067 1.45428 8.43197 1.38288 8.16623C1.31177 7.90205 1.26485 7.63196 1.24271 7.3593L1.20765 6.95098L1.22712 6.95486L1.24659 6.9607L1.26606 6.97042L1.28553 6.98014L1.305 6.98986L1.32447 6.99959L1.62627 7.13569C1.82749 7.22644 2.07736 7.30422 2.37591 7.36902C2.67447 7.43383 2.85295 7.46949 2.91136 7.47597L2.99898 7.48569H3.17422L3.17034 7.47986L3.16448 7.47597L3.15864 7.47208L3.15475 7.46624L3.15087 7.46041L3.14501 7.45652L3.13917 7.45263L3.13528 7.4468L3.1158 7.43708L3.09633 7.42736L3.09246 7.42152L3.0866 7.41763L3.08076 7.41374L3.07686 7.40791L3.05739 7.39819L3.03792 7.38847L3.03405 7.38264C3.03015 7.38003 2.97433 7.33855 2.86658 7.25819C2.76013 7.17653 2.6485 7.07089 2.53167 6.94125C2.41485 6.81162 2.29802 6.67551 2.1812 6.53293C2.06415 6.39002 1.95991 6.23712 1.86966 6.07599C1.77881 5.91396 1.68274 5.70784 1.58149 5.45767C1.48154 5.20878 1.40561 4.95796 1.35368 4.70518C1.30177 4.45241 1.27256 4.20288 1.26606 3.95658C1.25957 3.71029 1.26606 3.49965 1.28553 3.32465C1.305 3.14965 1.34394 2.95197 1.40236 2.73161C1.46077 2.51125 1.54516 2.27792 1.65548 2.03162L1.82098 1.66218L1.83072 1.63301L1.84045 1.60385L1.84631 1.59996L1.85019 1.59413L1.85408 1.58829L1.85992 1.5844L1.86578 1.58829L1.86966 1.59413L1.87355 1.59996L1.8794 1.60385L1.88526 1.60774L1.88913 1.61357L1.89302 1.6194L1.89887 1.62329L1.9086 1.64274L1.91834 1.66218L1.9242 1.66607L1.92807 1.6719L2.19093 1.96356C2.36617 2.15801 2.57387 2.37514 2.814 2.61494C3.05416 2.85475 3.1872 2.97919 3.21316 2.98827C3.23913 2.99863 3.27157 3.02844 3.31051 3.07771C3.34946 3.12568 3.47927 3.2404 3.69993 3.42187C3.92062 3.60334 4.20943 3.814 4.56639 4.05381C4.92338 4.29361 5.31928 4.53019 5.75413 4.76351C6.18899 4.99684 6.6563 5.20748 7.15604 5.39545C7.6558 5.58341 8.00628 5.70655 8.20747 5.76489C8.40869 5.82322 8.75266 5.89775 9.23944 5.98849C9.72621 6.07924 10.0929 6.13757 10.3395 6.16349C10.5862 6.18941 10.7549 6.20432 10.8458 6.20821L10.9821 6.2121L10.9782 6.18293L10.9724 6.15377L10.9334 5.91072C10.9075 5.74869 10.8945 5.52183 10.8945 5.23017C10.8945 4.93851 10.9172 4.66954 10.9626 4.42324C11.0081 4.17694 11.0762 3.92742 11.1671 3.67465C11.2579 3.42187 11.3469 3.21899 11.4338 3.06604C11.5221 2.91438 11.6376 2.74133 11.7804 2.54689C11.9232 2.35245 12.1082 2.15153 12.3353 1.94412C12.5625 1.73671 12.8221 1.55199 13.1142 1.38996C13.4062 1.22794 13.6756 1.10478 13.9222 1.02053C14.1689 0.936274 14.3765 0.88117 14.5453 0.855251C14.714 0.829332 14.7984 0.814418 14.7984 0.810529Z" fill="#3CDF03"/>
</svg>
