<svg width="273" height="190" viewBox="0 0 273 190" fill="none" xmlns="http://www.w3.org/2000/svg">
<g clip-path="url(#clip0_204_303)">
<path d="M228.101 29.2154L207.042 29.4205C206.052 24.5479 202.726 11.7631 205.721 8.27594C205.858 6.96346 206.495 5.75419 207.501 4.89987C208.507 4.04555 209.803 3.61201 211.121 3.6895C214.385 -1.41928 219.822 -0.652233 223.497 2.53842C227.195 3.81432 228.589 6.08104 228.101 9.15708C230.84 11.5541 231.346 14.4704 230.116 17.7901L228.101 29.2154Z" fill="#2F2E41"/>
<path d="M226.074 42.1871L210.88 40.0836L207.841 35.6428C212.027 32.8665 213.509 28.9888 211.581 23.723L222.1 23.4893C221.607 28.1785 223.158 31.8093 227.477 34.0068L226.074 42.1871Z" fill="#FFB9B9"/>
<path d="M207.288 179.215L206.707 187.156C206.681 187.515 206.732 187.876 206.856 188.215C206.981 188.553 207.176 188.86 207.43 189.117C207.683 189.373 207.988 189.573 208.325 189.701C208.661 189.83 209.022 189.886 209.382 189.864L213.461 189.617C213.65 189.605 213.834 189.552 214.001 189.462C214.167 189.371 214.311 189.245 214.423 189.092C214.535 188.939 214.612 188.764 214.648 188.578C214.685 188.392 214.68 188.201 214.634 188.017L212.37 178.96L207.288 179.215Z" fill="#E6E6E6"/>
<path d="M220.495 178.96L218.231 188.017C218.185 188.201 218.18 188.392 218.217 188.578C218.253 188.764 218.33 188.939 218.442 189.092C218.554 189.245 218.698 189.371 218.864 189.462C219.031 189.552 219.215 189.605 219.404 189.617L223.483 189.864C223.843 189.886 224.204 189.83 224.54 189.701C224.877 189.573 225.182 189.373 225.435 189.117C225.689 188.86 225.884 188.553 226.009 188.215C226.133 187.876 226.184 187.515 226.158 187.156L225.577 179.215L220.495 178.96Z" fill="#E6E6E6"/>
<path d="M225.84 180.317L220.335 179.765L214.854 121.185L212.783 179.576L207.374 179.382L198.257 98.5142H233.087L225.84 180.317Z" fill="#31BD00"/>
<path d="M217.425 27.4623C223.235 27.4623 227.944 22.7534 227.944 16.9448C227.944 11.1361 223.235 6.42725 217.425 6.42725C211.616 6.42725 206.906 11.1361 206.906 16.9448C206.906 22.7534 211.616 27.4623 217.425 27.4623Z" fill="#FFB9B9"/>
<path d="M238.229 100.384L195.686 100.851C202 76.8191 205.776 54.4954 199.192 39.1484L209.711 34.0065C214.783 39.296 220.432 38.7507 226.542 33.5391L236.593 36.11C234.872 56.2352 235.643 77.7894 238.229 100.384Z" fill="#31BD00"/>
<path d="M183.998 75.6094L210.413 86.127L216.318 87.8637C216.582 87.9413 216.859 87.9648 217.133 87.9327C217.406 87.9006 217.67 87.8136 217.909 87.6768C218.148 87.54 218.357 87.3564 218.523 87.1369C218.69 86.9174 218.81 86.6665 218.876 86.3994C218.994 85.9311 218.941 85.4365 218.728 85.0032C218.515 84.57 218.156 84.2261 217.713 84.0327L211.581 82.1537L193.115 71.4024L196.972 61.2355L188.907 56.9116L183.998 75.6094Z" fill="#FFB9B9"/>
<path d="M184.232 56.4439C189.258 58.4043 193.255 61.7499 196.387 66.2603L206.205 52.0032L199.192 39.1484L184.232 56.4439Z" fill="#31BD00"/>
<path d="M229.281 15.2406C225.011 14.1407 220.814 13.9897 216.733 15.3848C214.134 16.6435 211.013 16.5275 207.542 15.4904V4.99707L226.282 5.49675L229.281 15.2406Z" fill="#2F2E41"/>
<path d="M210.325 63.355C209.499 63.3559 208.707 63.6844 208.123 64.2684C207.539 64.8524 207.21 65.6441 207.209 66.47L208.439 92.2086C208.44 93.0345 208.769 93.8262 209.353 94.4102C209.937 94.9942 210.729 95.3227 211.555 95.3236H225.614C226.44 95.3227 227.232 94.9942 227.816 94.4102C228.4 93.8262 228.729 93.0345 228.73 92.2086L229.959 66.47C229.959 65.6441 229.63 64.8524 229.046 64.2684C228.462 63.6844 227.67 63.3559 226.844 63.355H210.325Z" fill="#3F3D56"/>
<path d="M250.216 73.6648L227.193 82.8312L225.456 83.5228C225.4 83.5443 225.345 83.5627 225.286 83.5812L219.467 85.2934C218.723 85.5116 217.693 84.5095 217.09 83.8179C216.792 83.4846 216.623 83.0554 216.614 82.6082C216.605 82.161 216.756 81.7253 217.041 81.3803C217.122 81.2876 217.21 81.2022 217.305 81.1251C217.53 80.9506 217.794 80.8344 218.074 80.787L223.888 79.6435C224.096 79.6026 224.297 79.5278 224.481 79.4222L227.193 77.8422L241.27 69.6472C241.661 69.4196 241.959 69.0605 242.111 68.6338C242.262 68.2071 242.257 67.7405 242.097 67.3171L239.41 60.2318C239.245 59.7983 239.244 59.3196 239.406 58.8852C239.569 58.4507 239.883 58.0903 240.292 57.871L244.744 55.4857C244.998 55.3491 245.28 55.2721 245.569 55.2604C245.857 55.2486 246.145 55.3025 246.409 55.4179C246.674 55.5333 246.909 55.7073 247.096 55.9267C247.284 56.1461 247.419 56.4052 247.492 56.6845L251.357 71.4024C251.476 71.8537 251.425 72.3329 251.215 72.7496C251.005 73.1663 250.65 73.4918 250.216 73.6648Z" fill="#FFB9B9"/>
<path d="M251.554 53.8733C246.528 55.8336 242.531 59.1793 239.398 63.6896L229.581 49.4326L236.593 36.1104L251.554 53.8733Z" fill="#31BD00"/>
<path d="M224.426 26.3058C219.824 28.2197 214.999 28.142 209.976 26.3058C211.438 23.8117 209.253 21.8582 208.132 19.3404L226.885 18.7832C225.451 20.9705 223.335 23.5547 224.426 26.3058Z" fill="white"/>
<path d="M226.686 19.1996L226.469 18.9823L226.776 18.6749L228.613 16.5317L228.846 16.7315L227.002 18.8833L226.686 19.1996Z" fill="white"/>
<path d="M206.847 17.897L206.65 18.1333L208.494 19.6703L208.691 19.434L206.847 17.897Z" fill="white"/>
<path d="M227.216 21.0067L223.988 26.0781L224.247 26.2432L227.476 21.1718L227.216 21.0067Z" fill="white"/>
<path d="M207.185 21.0063L206.926 21.1714L210.154 26.2433L210.413 26.0783L207.185 21.0063Z" fill="white"/>
<path d="M227.807 77.4077V82.9766L225.869 83.7486C225.807 83.7726 225.745 83.7932 225.68 83.8138L219.184 85.7249C218.353 85.9685 217.204 84.85 216.531 84.078C216.198 83.7059 216.009 83.2269 215.999 82.7277C215.989 82.2285 216.158 81.7422 216.476 81.357C216.566 81.2536 216.665 81.1582 216.771 81.0722C217.022 80.8774 217.316 80.7477 217.629 80.6948L224.118 79.4184C224.351 79.3727 224.575 79.2893 224.781 79.1713L227.807 77.4077Z" fill="white"/>
<path d="M230.617 57.5439H229.506C229.506 41.833 226.271 30.8843 223.118 30.8843L222.841 29.7734C225.668 29.7734 227.471 34.3302 228.485 38.153C229.86 43.3354 230.617 50.2219 230.617 57.5439Z" fill="#3F3D56"/>
<path d="M205.065 53.6563H203.954C203.954 39.2676 207.212 30.3291 212.009 30.3291L211.731 31.4399C208.413 31.4399 205.065 38.3094 205.065 53.6563Z" fill="#3F3D56"/>
<path d="M230.062 60.599C231.596 60.599 232.839 59.3557 232.839 57.822C232.839 56.2882 231.596 55.0449 230.062 55.0449C228.528 55.0449 227.284 56.2882 227.284 57.822C227.284 59.3557 228.528 60.599 230.062 60.599Z" fill="#3F3D56"/>
<path d="M200.621 60.3214H199.51C199.51 56.3401 201.753 53.1011 204.51 53.1011V54.2119C202.366 54.2119 200.621 56.9526 200.621 60.3214Z" fill="#3F3D56"/>
<path d="M209.509 60.3214H208.398C208.398 56.9526 206.654 54.2119 204.51 54.2119V53.1011C207.266 53.1011 209.509 56.3401 209.509 60.3214Z" fill="#3F3D56"/>
<path d="M208.954 61.7099C209.567 61.7099 210.064 61.2126 210.064 60.5991C210.064 59.9856 209.567 59.4883 208.954 59.4883C208.34 59.4883 207.843 59.9856 207.843 60.5991C207.843 61.2126 208.34 61.7099 208.954 61.7099Z" fill="#3F3D56"/>
<path d="M200.066 61.7099C200.679 61.7099 201.177 61.2126 201.177 60.5991C201.177 59.9856 200.679 59.4883 200.066 59.4883C199.452 59.4883 198.955 59.9856 198.955 60.5991C198.955 61.2126 199.452 61.7099 200.066 61.7099Z" fill="#3F3D56"/>
<path d="M66.1811 23.2687L46.6695 26.5724C46.1875 26.6547 45.6922 26.5552 45.2793 26.2933C44.8664 26.0314 44.5654 25.6256 44.4345 25.1546C43.0248 20.0674 40.0775 13.431 42.939 10.0996C43.0848 8.69808 43.7656 7.40677 44.8396 6.4945C45.9137 5.58222 47.2982 5.11926 48.705 5.202C52.1906 -0.253363 57.9964 0.565726 61.9203 3.97284C65.8694 5.3353 67.3583 7.7558 66.8376 11.0405C68.5437 12.5336 69.4381 14.2155 69.6267 16.0614C69.7161 17.0886 69.5854 18.1231 69.2432 19.0958C68.9011 20.0686 68.3554 20.9571 67.6426 21.7023L66.1811 23.2687Z" fill="#2F2E41"/>
<path d="M63.1475 38.6272L48.0217 37.7376C49.5041 34.3358 50.0962 31.0599 49.5047 27.9517H60.7749C60.7493 30.3382 61.9371 34.4665 63.1475 38.6272Z" fill="#9F616A"/>
<path d="M44.9403 178.375L44.3199 186.856C44.2919 187.239 44.3462 187.625 44.4793 187.986C44.6124 188.347 44.8212 188.676 45.0916 188.949C45.3621 189.223 45.688 189.436 46.0475 189.574C46.407 189.711 46.7918 189.77 47.176 189.747L51.5324 189.483C51.7342 189.471 51.9309 189.415 52.1084 189.318C52.286 189.221 52.44 189.086 52.5595 188.923C52.6791 188.76 52.7613 188.573 52.8002 188.374C52.8392 188.176 52.8339 187.971 52.7849 187.775L50.3668 178.104L44.9403 178.375Z" fill="#E6E6E6"/>
<path d="M59.044 178.104L56.6258 187.775C56.5768 187.971 56.5716 188.176 56.6105 188.374C56.6495 188.573 56.7316 188.76 56.8512 188.923C56.9708 189.086 57.1248 189.221 57.3023 189.318C57.4798 189.414 57.6765 189.471 57.8783 189.483L62.2347 189.747C62.6189 189.77 63.0037 189.711 63.3632 189.574C63.7227 189.436 64.0486 189.223 64.3191 188.949C64.5896 188.676 64.7984 188.347 64.9315 187.986C65.0645 187.625 65.1189 187.239 65.0908 186.856L64.4704 178.375L59.044 178.104Z" fill="#E6E6E6"/>
<path d="M64.7515 179.553L58.8728 178.963L53.0199 116.409L50.8079 178.761L45.0322 178.555L35.2974 92.2002H72.4896L64.7515 179.553Z" fill="#31BD00"/>
<path d="M55.4372 31.5519C61.6408 31.5519 66.6697 26.5236 66.6697 20.3209C66.6697 14.1182 61.6408 9.08984 55.4372 9.08984C49.2336 9.08984 44.2046 14.1182 44.2046 20.3209C44.2046 26.5236 49.2336 31.5519 55.4372 31.5519Z" fill="#9F616A"/>
<path d="M68.0968 14.9554C63.5378 14.1616 59.0556 14.0526 54.6984 15.0595C51.9229 15.968 48.5897 15.8843 44.8828 15.1358V7.56201L64.8949 7.92267L68.0968 14.9554Z" fill="#2F2E41"/>
<path d="M62.9125 29.3323C57.9986 31.376 52.8461 31.293 47.4829 29.3323C49.0435 26.6689 46.7108 24.583 45.5132 21.8944L65.5388 21.2993C64.0074 23.635 61.7477 26.3945 62.9125 29.3323Z" fill="white"/>
<path d="M44.1344 20.3604L43.9375 20.5967L45.9071 22.2378L46.1041 22.0015L44.1344 20.3604Z" fill="white"/>
<path d="M65.9017 23.6787L62.4539 29.0942L62.7133 29.2593L66.1611 23.8438L65.9017 23.6787Z" fill="white"/>
<path d="M44.4935 23.6787L44.2341 23.8438L47.6812 29.2598L47.9406 29.0948L44.4935 23.6787Z" fill="white"/>
<path d="M34.0824 71.5437L25.4814 66.2059L32.8165 44.7258C33.6346 42.5093 35.2016 40.6483 37.2466 39.4645L39.7175 38.0342L39.9324 59.7036L34.0824 71.5437Z" fill="#31BD00"/>
<path d="M71.2594 81.9761L69.9869 71.0784C69.919 65.3262 70.8977 59.765 73.2315 54.6407L74.4178 38.6273L61.3681 33.2896C61.328 33.5554 61.294 33.8212 61.2559 34.087L55.1398 37.1446L49.1751 35.7892L49.2081 33.8827L37.3447 39.2205C41.2679 57.4573 39.1281 76.3955 32.3816 98.7648L48.0105 103.038L48.1405 95.5342L62.0692 94.5394C62.2127 96.9739 62.328 99.3651 62.3949 101.703C70.2545 104.596 70.5244 104.548 77.6855 100.406C74.8337 94.411 72.5757 88.1726 71.2594 81.9761Z" fill="#31BD00"/>
<path d="M91.3231 68.8747L83.3155 66.2059L70.5066 51.2965L74.4177 38.6274L92.2129 63.5371L91.3231 68.8747Z" fill="#31BD00"/>
<path d="M66.2268 80.4177C66.3578 80.9926 66.7115 81.4921 67.2103 81.8066C67.7091 82.1212 68.3123 82.2251 68.8876 82.0957L75.6852 80.5565L74.7027 76.2183L67.905 77.7572C67.3297 77.8875 66.8296 78.241 66.5149 78.7399C66.2002 79.2389 66.0965 79.8423 66.2268 80.4177Z" fill="#E6E6E6"/>
<path d="M72.3418 75.3989L76.1974 82.5159C82.6825 80.7075 88.3028 75.0061 93.6959 68.2818L92.213 63.5371L83.0188 65.9095L72.3418 75.3989Z" fill="#31BD00"/>
<path d="M22.0706 53.0742L29.4723 54.3957L46.3906 78.4481L37.4028 76.3335L22.0706 53.0742Z" fill="#E6E6E6"/>
<path d="M20.7578 52.7798C20.645 52.7815 20.5347 52.8135 20.4385 52.8723C20.3423 52.9312 20.2637 53.0149 20.2109 53.1146C20.1581 53.2142 20.1331 53.3263 20.1384 53.4389C20.1437 53.5516 20.1792 53.6608 20.2412 53.755L36.0553 77.7457C36.1436 77.8798 36.2799 77.975 36.4362 78.0117L43.7941 79.7426C43.9181 79.7718 44.0481 79.7626 44.1668 79.7162C44.2855 79.6698 44.3873 79.5884 44.4587 79.4829C44.5301 79.3773 44.5677 79.2525 44.5665 79.1251C44.5653 78.9977 44.5254 78.8736 44.4521 78.7694L27.0892 54.0848C27.0421 54.0176 26.9822 53.9603 26.9129 53.9162C26.8437 53.8721 26.7664 53.8421 26.6856 53.8278L20.8764 52.7905C20.8372 52.7835 20.7975 52.7799 20.7578 52.7798Z" fill="#3F3D56"/>
<path d="M30.6226 69.9331L31.0621 74.3596L37.9976 73.6712C38.5847 73.613 39.1246 73.3239 39.4985 72.8676C39.8724 72.4114 40.0497 71.8253 39.9915 71.2383C39.9332 70.6513 39.6441 70.1115 39.1878 69.7377C38.7315 69.3638 38.1453 69.1865 37.5583 69.2448L30.6226 69.9331Z" fill="#E6E6E6"/>
<path d="M24.5918 69.4202C24.6019 70.9296 25.2081 72.3737 26.2785 73.4381C27.3489 74.5024 28.7966 75.1006 30.3061 75.1024H31.4465L32.2768 68.1844L25.4025 65.71L24.5918 69.4202Z" fill="#31BD00"/>
<path d="M64.9908 22.0647L64.7734 21.8474L65.1018 21.5191L67.0635 19.23L67.2968 19.4298L65.3271 21.7275L64.9908 22.0647Z" fill="white"/>
<path d="M273 189.385H0V190H273V189.385Z" fill="#3F3D56"/>
<path d="M104.219 189.078H168.78V110.781C168.78 106.635 164.696 103.262 159.676 103.262H113.324C108.304 103.262 104.219 106.635 104.219 110.781V189.078Z" fill="#E6E6E6"/>
<path d="M109.138 185.84H163.861V119.474C163.861 115.96 160.399 113.101 156.144 113.101H116.855C112.6 113.101 109.138 115.96 109.138 119.474V185.84Z" fill="white"/>
<path d="M103.732 97.168C102.136 97.168 100.838 98.2402 100.838 99.558V106.457C100.838 107.775 102.136 108.847 103.732 108.847H169.268C170.864 108.847 172.162 107.775 172.162 106.457V99.558C172.162 98.2402 170.864 97.168 169.268 97.168H103.732Z" fill="#3F3D56"/>
<path d="M117.187 177.33C116.438 177.332 115.72 177.631 115.19 178.161C114.661 178.69 114.362 179.408 114.36 180.157C114.362 180.906 114.661 181.624 115.19 182.154C115.72 182.683 116.438 182.982 117.187 182.984H122.479V177.33H117.187Z" fill="#3F3D56"/>
<path d="M127.337 177.33H122.189V182.984H127.337C128.086 182.982 128.804 182.683 129.334 182.154C129.863 181.624 130.162 180.906 130.164 180.157C130.162 179.408 129.863 178.69 129.334 178.161C128.804 177.631 128.086 177.332 127.337 177.33Z" fill="#31BD00"/>
<path opacity="0.2" d="M129.182 178.022C129.627 178.534 129.873 179.189 129.874 179.867C129.872 180.616 129.573 181.334 129.044 181.864C128.514 182.393 127.796 182.692 127.047 182.694H122.189V182.984H127.337C128.086 182.982 128.804 182.683 129.334 182.154C129.863 181.624 130.162 180.906 130.164 180.157C130.163 179.752 130.075 179.351 129.906 178.983C129.736 178.614 129.489 178.287 129.182 178.022Z" fill="black"/>
<path d="M141.069 134.749C140.553 134.205 139.844 133.888 139.095 133.865C138.346 133.843 137.619 134.119 137.072 134.631C136.528 135.146 136.211 135.856 136.189 136.604C136.167 137.353 136.442 138.08 136.954 138.627L140.584 142.477L144.699 138.599L141.069 134.749Z" fill="#3F3D56"/>
<path d="M148.031 142.133L144.5 138.388L140.385 142.266L143.916 146.011C144.431 146.555 145.141 146.872 145.89 146.895C146.639 146.917 147.366 146.642 147.913 146.129C148.456 145.614 148.774 144.904 148.796 144.156C148.818 143.407 148.543 142.68 148.031 142.133Z" fill="#31BD00"/>
<path opacity="0.2" d="M148.792 143.95C148.726 144.625 148.418 145.254 147.925 145.719C147.378 146.232 146.651 146.507 145.902 146.485C145.153 146.462 144.444 146.145 143.928 145.601L140.596 142.067L140.385 142.266L143.916 146.011C144.431 146.555 145.141 146.872 145.89 146.894C146.639 146.917 147.366 146.641 147.913 146.129C148.207 145.851 148.438 145.512 148.59 145.136C148.742 144.76 148.811 144.355 148.792 143.95Z" fill="black"/>
<path d="M126.005 143.663C125.489 143.119 124.779 142.802 124.031 142.78C123.282 142.757 122.555 143.033 122.008 143.545C121.464 144.06 121.147 144.77 121.125 145.519C121.102 146.267 121.378 146.994 121.89 147.541L125.52 151.391L129.635 147.513L126.005 143.663Z" fill="#3F3D56"/>
<path d="M132.966 151.047L129.436 147.302L125.321 151.18L128.852 154.925C129.367 155.469 130.077 155.787 130.826 155.809C131.575 155.831 132.302 155.556 132.848 155.043C133.392 154.528 133.71 153.818 133.732 153.07C133.754 152.321 133.479 151.594 132.966 151.047Z" fill="#31BD00"/>
<path opacity="0.2" d="M133.728 152.864C133.662 153.539 133.354 154.168 132.861 154.633C132.314 155.146 131.587 155.421 130.838 155.399C130.089 155.377 129.379 155.059 128.864 154.515L125.532 150.981L125.321 151.18L128.852 154.925C129.367 155.469 130.077 155.786 130.826 155.808C131.575 155.831 132.302 155.555 132.848 155.043C133.143 154.765 133.374 154.426 133.526 154.05C133.678 153.674 133.747 153.269 133.728 152.864Z" fill="black"/>
<path d="M141.069 151.963C140.553 151.419 139.844 151.101 139.095 151.079C138.346 151.057 137.619 151.332 137.072 151.845C136.528 152.36 136.211 153.07 136.189 153.818C136.167 154.567 136.442 155.294 136.954 155.841L140.584 159.691L144.699 155.813L141.069 151.963Z" fill="#3F3D56"/>
<path d="M148.031 159.347L144.5 155.602L140.385 159.48L143.916 163.225C144.431 163.769 145.141 164.086 145.89 164.108C146.639 164.131 147.366 163.855 147.913 163.343C148.456 162.828 148.774 162.118 148.796 161.369C148.818 160.621 148.543 159.894 148.031 159.347Z" fill="#31BD00"/>
<path opacity="0.2" d="M148.792 161.164C148.726 161.839 148.418 162.467 147.925 162.933C147.378 163.445 146.651 163.721 145.902 163.698C145.153 163.676 144.444 163.359 143.928 162.815L140.596 159.281L140.385 159.48L143.916 163.225C144.431 163.769 145.141 164.086 145.89 164.108C146.639 164.13 147.366 163.855 147.913 163.343C148.207 163.064 148.438 162.726 148.59 162.35C148.742 161.973 148.811 161.569 148.792 161.164Z" fill="black"/>
<path d="M150.259 169.627C150.796 169.105 151.105 168.392 151.118 167.643C151.131 166.894 150.847 166.17 150.328 165.63C149.806 165.093 149.093 164.784 148.344 164.771C147.594 164.758 146.871 165.042 146.33 165.561L142.524 169.237L146.452 173.304L150.259 169.627Z" fill="#3F3D56"/>
<path d="M142.959 176.677L146.661 173.102L142.732 169.035L139.03 172.611C138.493 173.133 138.184 173.846 138.171 174.595C138.158 175.344 138.442 176.068 138.961 176.608C139.483 177.145 140.196 177.454 140.945 177.467C141.694 177.48 142.418 177.196 142.959 176.677Z" fill="#31BD00"/>
<path opacity="0.2" d="M141.15 177.461C140.475 177.403 139.842 177.102 139.371 176.615C138.852 176.075 138.568 175.351 138.581 174.602C138.594 173.853 138.903 173.14 139.44 172.618L142.934 169.244L142.732 169.035L139.03 172.611C138.493 173.133 138.184 173.846 138.171 174.595C138.158 175.344 138.442 176.068 138.961 176.608C139.243 176.899 139.585 177.126 139.963 177.273C140.34 177.42 140.746 177.484 141.15 177.461Z" fill="black"/>
<path d="M129.968 160.713C130.506 160.191 130.814 159.478 130.827 158.729C130.84 157.98 130.557 157.256 130.038 156.716C129.516 156.178 128.802 155.869 128.053 155.856C127.304 155.843 126.58 156.127 126.04 156.646L122.233 160.322L126.162 164.389L129.968 160.713Z" fill="#3F3D56"/>
<path d="M122.668 167.763L126.37 164.188L122.442 160.121L118.74 163.696C118.202 164.218 117.893 164.932 117.88 165.681C117.867 166.43 118.151 167.154 118.67 167.694C119.192 168.231 119.906 168.54 120.655 168.553C121.404 168.566 122.128 168.282 122.668 167.763Z" fill="#31BD00"/>
<path opacity="0.2" d="M120.86 168.547C120.184 168.489 119.552 168.188 119.08 167.701C118.561 167.161 118.277 166.437 118.29 165.688C118.303 164.939 118.612 164.226 119.15 163.704L122.643 160.33L122.442 160.121L118.74 163.696C118.202 164.218 117.893 164.932 117.88 165.681C117.867 166.43 118.151 167.154 118.67 167.694C118.952 167.985 119.294 168.212 119.672 168.359C120.05 168.506 120.455 168.57 120.86 168.547Z" fill="black"/>
<path d="M158.867 149.954C159.404 149.432 159.713 148.719 159.726 147.97C159.739 147.221 159.455 146.497 158.936 145.957C158.414 145.419 157.701 145.111 156.952 145.098C156.203 145.085 155.479 145.368 154.938 145.887L151.132 149.563L155.06 153.63L158.867 149.954Z" fill="#3F3D56"/>
<path d="M151.567 157.004L155.269 153.429L151.341 149.362L147.638 152.938C147.101 153.46 146.792 154.173 146.779 154.922C146.766 155.671 147.05 156.395 147.569 156.935C148.091 157.472 148.804 157.781 149.553 157.794C150.303 157.807 151.026 157.523 151.567 157.004Z" fill="#31BD00"/>
<path opacity="0.2" d="M149.759 157.788C149.083 157.73 148.451 157.43 147.979 156.942C147.46 156.402 147.176 155.678 147.189 154.929C147.202 154.18 147.511 153.467 148.048 152.945L151.542 149.571L151.341 149.362L147.638 152.938C147.101 153.46 146.792 154.173 146.779 154.922C146.766 155.671 147.05 156.395 147.569 156.935C147.851 157.226 148.193 157.453 148.571 157.6C148.949 157.748 149.354 157.812 149.759 157.788Z" fill="black"/>
<path d="M152.444 172.25C151.928 171.707 151.219 171.389 150.47 171.367C149.721 171.345 148.994 171.62 148.447 172.132C147.903 172.648 147.586 173.357 147.564 174.106C147.542 174.855 147.817 175.582 148.329 176.128L151.959 179.979L156.074 176.101L152.444 172.25Z" fill="#3F3D56"/>
<path d="M159.406 179.635L155.875 175.89L151.76 179.768L155.291 183.513C155.806 184.056 156.516 184.374 157.265 184.396C158.014 184.418 158.741 184.143 159.288 183.631C159.831 183.115 160.149 182.406 160.171 181.657C160.193 180.908 159.918 180.181 159.406 179.635Z" fill="#31BD00"/>
<path opacity="0.2" d="M160.167 181.452C160.101 182.127 159.793 182.755 159.3 183.221C158.753 183.733 158.026 184.008 157.277 183.986C156.528 183.964 155.819 183.646 155.303 183.103L151.971 179.569L151.76 179.768L155.291 183.513C155.806 184.056 156.516 184.374 157.265 184.396C158.014 184.418 158.741 184.143 159.288 183.631C159.582 183.352 159.813 183.013 159.965 182.637C160.117 182.261 160.186 181.857 160.167 181.452Z" fill="black"/>
<path d="M132.461 171.943C131.945 171.399 131.236 171.082 130.487 171.06C129.738 171.038 129.011 171.313 128.464 171.825C127.92 172.34 127.603 173.05 127.581 173.799C127.559 174.548 127.834 175.275 128.346 175.821L131.976 179.672L136.091 175.793L132.461 171.943Z" fill="#3F3D56"/>
<path d="M139.423 179.327L135.892 175.583L131.777 179.461L135.308 183.206C135.823 183.749 136.533 184.067 137.282 184.089C138.031 184.111 138.758 183.836 139.305 183.324C139.848 182.808 140.166 182.099 140.188 181.35C140.21 180.601 139.935 179.874 139.423 179.327Z" fill="#31BD00"/>
<path opacity="0.2" d="M140.184 181.145C140.118 181.82 139.81 182.448 139.317 182.914C138.77 183.426 138.043 183.701 137.294 183.679C136.545 183.657 135.836 183.339 135.32 182.796L131.988 179.262L131.777 179.461L135.308 183.206C135.823 183.749 136.533 184.067 137.282 184.089C138.031 184.111 138.758 183.836 139.305 183.324C139.599 183.045 139.83 182.706 139.982 182.33C140.134 181.954 140.203 181.55 140.184 181.145Z" fill="black"/>
<path d="M138.086 161.801C138.086 162.741 137.761 163.652 137.167 164.38C136.572 165.108 135.745 165.609 134.824 165.797C134.285 165.905 133.731 165.905 133.193 165.797C132.272 165.608 131.444 165.108 130.85 164.38C130.255 163.652 129.931 162.741 129.931 161.801C129.931 160.861 130.255 159.95 130.85 159.222C131.444 158.494 132.272 157.994 133.193 157.806C133.731 157.697 134.285 157.697 134.824 157.806C135.745 157.994 136.572 158.494 137.167 159.222C137.761 159.95 138.086 160.861 138.086 161.801Z" fill="#31BD00"/>
<path opacity="0.2" d="M134.824 157.806V165.797C134.285 165.905 133.731 165.905 133.193 165.797V157.806C133.731 157.697 134.285 157.697 134.824 157.806Z" fill="black"/>
<path d="M139.93 145.509C139.93 146.449 139.606 147.36 139.011 148.088C138.417 148.816 137.589 149.317 136.668 149.505C136.13 149.613 135.575 149.613 135.037 149.505C134.116 149.316 133.289 148.816 132.694 148.088C132.1 147.36 131.775 146.449 131.775 145.509C131.775 144.569 132.1 143.658 132.694 142.93C133.289 142.202 134.116 141.702 135.037 141.514C135.575 141.405 136.13 141.405 136.668 141.514C137.589 141.702 138.417 142.202 139.011 142.93C139.606 143.658 139.93 144.569 139.93 145.509Z" fill="#31BD00"/>
<path opacity="0.2" d="M136.668 141.514V149.505C136.13 149.613 135.576 149.613 135.037 149.505V141.514C135.576 141.405 136.13 141.405 136.668 141.514Z" fill="black"/>
<path d="M139.93 168.871C139.93 169.811 139.606 170.722 139.011 171.45C138.417 172.178 137.589 172.678 136.668 172.866C136.13 172.975 135.575 172.975 135.037 172.866C134.116 172.678 133.289 172.178 132.694 171.45C132.1 170.722 131.775 169.811 131.775 168.871C131.775 167.931 132.1 167.02 132.694 166.292C133.289 165.564 134.116 165.064 135.037 164.875C135.575 164.767 136.13 164.767 136.668 164.875C137.589 165.063 138.417 165.564 139.011 166.292C139.606 167.02 139.93 167.931 139.93 168.871Z" fill="#31BD00"/>
<path opacity="0.2" d="M136.668 164.875V172.866C136.13 172.975 135.576 172.975 135.037 172.866V164.875C135.576 164.767 136.13 164.767 136.668 164.875Z" fill="black"/>
<path d="M150.075 180.244C150.076 181.184 149.751 182.095 149.157 182.823C148.562 183.552 147.734 184.052 146.813 184.24C146.275 184.349 145.721 184.349 145.182 184.24C144.262 184.052 143.434 183.551 142.839 182.823C142.245 182.095 141.92 181.184 141.92 180.244C141.92 179.305 142.245 178.394 142.839 177.666C143.434 176.938 144.262 176.437 145.182 176.249C145.721 176.14 146.275 176.14 146.813 176.249C147.734 176.437 148.562 176.937 149.157 177.665C149.751 178.394 150.076 179.305 150.075 180.244Z" fill="#31BD00"/>
<path opacity="0.2" d="M146.814 176.249V184.24C146.275 184.349 145.721 184.349 145.183 184.24V176.249C145.721 176.14 146.275 176.14 146.814 176.249Z" fill="black"/>
<path d="M159.038 159.318C159.715 159.971 160.145 160.836 160.257 161.77C160.369 162.703 160.155 163.646 159.651 164.439C159.356 164.902 158.971 165.302 158.519 165.614C157.745 166.146 156.81 166.395 155.873 166.317C154.936 166.24 154.055 165.841 153.378 165.189C152.702 164.537 152.271 163.671 152.159 162.738C152.047 161.805 152.261 160.862 152.765 160.068C153.06 159.605 153.445 159.206 153.897 158.894C154.671 158.361 155.606 158.113 156.543 158.19C157.48 158.267 158.361 158.666 159.038 159.318Z" fill="#31BD00"/>
<path opacity="0.2" d="M153.897 158.894L159.651 164.439C159.356 164.902 158.971 165.302 158.519 165.614L152.765 160.068C153.06 159.605 153.445 159.206 153.897 158.894Z" fill="black"/>
<path d="M160.267 168.233C160.944 168.885 161.375 169.751 161.487 170.684C161.599 171.617 161.385 172.561 160.881 173.354C160.586 173.817 160.201 174.216 159.749 174.528C158.974 175.061 158.04 175.309 157.103 175.232C156.166 175.154 155.285 174.756 154.608 174.104C153.931 173.452 153.501 172.586 153.389 171.653C153.277 170.719 153.491 169.776 153.995 168.983C154.29 168.52 154.675 168.121 155.127 167.809C155.901 167.276 156.836 167.027 157.773 167.105C158.709 167.182 159.591 167.581 160.267 168.233Z" fill="#31BD00"/>
<path opacity="0.2" d="M155.127 167.809L160.881 173.354C160.586 173.817 160.201 174.216 159.749 174.528L153.995 168.983C154.29 168.52 154.675 168.121 155.127 167.809Z" fill="black"/>
<path d="M123.683 170.385C124.36 171.037 124.791 171.903 124.902 172.836C125.014 173.769 124.8 174.712 124.296 175.506C124.001 175.969 123.616 176.368 123.164 176.68C122.39 177.212 121.455 177.461 120.518 177.384C119.582 177.306 118.7 176.908 118.024 176.256C117.347 175.603 116.916 174.738 116.804 173.804C116.693 172.871 116.907 171.928 117.41 171.135C117.705 170.672 118.09 170.272 118.542 169.96C119.317 169.428 120.251 169.179 121.188 169.257C122.125 169.334 123.006 169.732 123.683 170.385Z" fill="#31BD00"/>
<path opacity="0.2" d="M118.542 169.96L124.296 175.505C124.001 175.968 123.616 176.368 123.164 176.68L117.41 171.134C117.705 170.671 118.09 170.272 118.542 169.96Z" fill="black"/>
<path opacity="0.2" d="M110.522 97.168H108.985V108.541H110.522V97.168Z" fill="black"/>
<path opacity="0.2" d="M119.438 97.168H117.9V108.541H119.438V97.168Z" fill="black"/>
<path opacity="0.2" d="M128.353 97.168H126.816V108.541H128.353V97.168Z" fill="black"/>
<path opacity="0.2" d="M137.269 97.168H135.731V108.541H137.269V97.168Z" fill="black"/>
<path opacity="0.2" d="M146.184 97.168H144.647V108.541H146.184V97.168Z" fill="black"/>
<path opacity="0.2" d="M155.1 97.168H153.562V108.541H155.1V97.168Z" fill="black"/>
<path opacity="0.2" d="M164.015 97.168H162.478V108.541H164.015V97.168Z" fill="black"/>
</g>
<defs>
<clipPath id="clip0_204_303">
<rect width="273" height="190" fill="white"/>
</clipPath>
</defs>
</svg>
