<svg width="331" height="250" viewBox="0 0 331 250" fill="none" xmlns="http://www.w3.org/2000/svg">
<g clip-path="url(#clip0_357_514)">
<path d="M155.547 209.869C155.547 209.869 159.76 202.962 165.168 207.046C170.577 211.13 180.594 218.022 180.594 218.022C180.594 218.022 182.645 222.43 177.335 220.774C172.025 219.118 154.691 216.454 154.691 216.454L155.547 209.869Z" fill="#FEB8B8"/>
<path d="M37.8154 166C39.1579 155.21 45.8482 144.58 56.1435 141.069C52.0833 152.174 52.0842 164.357 56.146 175.461C57.728 179.738 59.9331 184.33 58.4451 188.641C57.5192 191.323 55.2542 193.375 52.7224 194.658C50.1904 195.941 47.3805 196.553 44.6057 197.152L44.0596 197.603C39.6546 187.662 36.4729 176.789 37.8154 166Z" fill="#808080"/>
<path d="M56.2455 141.273C50.25 147.987 46.5236 156.418 45.5957 165.37C45.3617 167.293 45.4325 169.241 45.8055 171.143C46.2288 172.983 47.1374 174.677 48.4371 176.048C49.6232 177.35 50.9874 178.545 51.8361 180.113C52.2586 180.922 52.5052 181.811 52.5597 182.722C52.6143 183.633 52.4755 184.546 52.1526 185.399C51.4033 187.547 49.9265 189.298 48.4228 190.96C46.7531 192.805 44.9897 194.695 44.28 197.142C44.194 197.438 43.7388 197.287 43.8247 196.991C45.0595 192.735 49.1933 190.318 51.1648 186.484C52.0847 184.695 52.4708 182.619 51.6084 180.73C50.8543 179.079 49.4486 177.846 48.2362 176.537C46.9487 175.219 46.0039 173.605 45.4843 171.837C45.0156 169.961 44.8698 168.019 45.0531 166.093C45.3967 161.753 46.421 157.493 48.0886 153.47C49.9663 148.868 52.6177 144.621 55.9283 140.913C56.1333 140.684 56.4492 141.045 56.2455 141.273Z" fill="#4F4F4F"/>
<path d="M45.7249 162.47C44.2434 162.11 42.938 161.236 42.0418 160.003C41.1456 158.771 40.7169 157.26 40.8324 155.741C40.8569 155.433 41.3359 155.457 41.3114 155.764C41.2012 157.179 41.6007 158.586 42.4375 159.733C43.2744 160.879 44.4937 161.688 45.8752 162.015C46.1754 162.086 46.0233 162.541 45.7249 162.47Z" fill="#4F4F4F"/>
<path d="M47.7487 175.467C50.4245 173.87 52.3998 171.324 53.2808 168.336C53.3678 168.04 53.823 168.19 53.7361 168.486C52.8135 171.594 50.7525 174.239 47.9644 175.895C47.6985 176.052 47.4843 175.623 47.7487 175.467Z" fill="#4F4F4F"/>
<path d="M50.4111 149.322C50.9553 149.581 51.5552 149.7 52.157 149.67C52.7588 149.639 53.3436 149.46 53.8588 149.147C54.1226 148.986 54.3365 149.415 54.0745 149.575C53.5036 149.918 52.8575 150.115 52.1927 150.15C51.5279 150.185 50.8646 150.057 50.2607 149.777C50.2016 149.756 50.1529 149.712 50.1246 149.656C50.0963 149.6 50.0905 149.535 50.1083 149.475C50.1285 149.414 50.1716 149.365 50.2283 149.336C50.285 149.308 50.3507 149.303 50.4111 149.322Z" fill="#4F4F4F"/>
<path d="M87.5252 160.34C87.3634 160.445 87.2016 160.55 87.0395 160.659C84.8713 162.084 82.8225 163.683 80.9134 165.439C80.7636 165.573 80.6138 165.71 80.4682 165.848C75.9137 170.129 72.1941 175.218 69.4983 180.856C68.4277 183.1 67.5295 185.423 66.8114 187.804C65.82 191.092 65.0067 194.736 63.0442 197.425C62.8426 197.708 62.6236 197.978 62.3886 198.234H44.6529C44.6126 198.214 44.5721 198.198 44.5316 198.177L43.8235 198.21C43.8519 198.084 43.8841 197.955 43.9126 197.83C43.9288 197.757 43.9489 197.684 43.9652 197.611C43.9772 197.563 43.9895 197.514 43.9976 197.47C44.0015 197.453 44.0056 197.437 44.0096 197.425C44.0177 197.381 44.03 197.34 44.0381 197.3C44.2161 196.576 44.3995 195.852 44.5883 195.128C44.5883 195.124 44.5883 195.124 44.5923 195.12C46.0451 189.608 47.9711 184.168 50.662 179.194C50.743 179.044 50.8238 178.89 50.9129 178.741C52.1382 176.505 53.5444 174.374 55.1172 172.367C55.982 171.271 56.9017 170.22 57.8729 169.217C60.3872 166.63 63.2929 164.454 66.4836 162.77C72.8447 159.413 80.2092 158.127 87.0073 160.178C87.1812 160.23 87.3513 160.283 87.5252 160.34Z" fill="#808080"/>
<path d="M87.4852 160.565C78.6535 162.318 70.5991 166.807 64.4659 173.396C63.1203 174.791 62.0032 176.389 61.1556 178.132C60.3849 179.856 60.0901 181.755 60.3021 183.632C60.4645 185.386 60.8339 187.161 60.567 188.923C60.4169 189.823 60.0782 190.682 59.573 191.442C59.0677 192.202 58.4074 192.847 57.6353 193.334C55.7432 194.598 53.5094 195.108 51.3076 195.53C48.8629 195.998 46.3162 196.446 44.2759 197.973C44.0287 198.157 43.7561 197.763 44.0029 197.579C47.5527 194.923 52.3097 195.481 56.1931 193.606C58.0051 192.731 59.5644 191.306 60.0133 189.279C60.4058 187.507 60.0265 185.676 59.8467 183.902C59.6131 182.074 59.8308 180.217 60.4808 178.493C61.2369 176.713 62.2905 175.074 63.5967 173.648C66.4859 170.388 69.8699 167.604 73.6247 165.395C77.896 162.851 82.5713 161.055 87.4484 160.087C87.7502 160.027 87.7851 160.505 87.4852 160.565Z" fill="#4F4F4F"/>
<path d="M66.3157 171.158C65.3494 169.98 64.8336 168.496 64.8606 166.973C64.8876 165.449 65.4556 163.985 66.463 162.842C66.6677 162.611 67.036 162.918 66.8311 163.149C65.8909 164.212 65.362 165.576 65.3398 166.995C65.3176 168.414 65.8035 169.793 66.7099 170.886C66.9066 171.123 66.5113 171.395 66.3157 171.158Z" fill="#4F4F4F"/>
<path d="M60.1026 182.753C63.201 183.088 66.312 182.244 68.8152 180.389C69.063 180.205 69.3357 180.599 69.0882 180.783C66.4797 182.709 63.2404 183.581 60.0169 183.225C59.7097 183.191 59.797 182.719 60.1026 182.753Z" fill="#4F4F4F"/>
<path d="M77.9778 163.481C78.2566 164.014 78.6637 164.471 79.1626 164.809C79.6615 165.146 80.2365 165.355 80.836 165.416C81.1435 165.446 81.0558 165.917 80.7503 165.887C80.0883 165.817 79.4536 165.586 78.9015 165.214C78.3495 164.842 77.8971 164.34 77.5836 163.753C77.5494 163.701 77.5367 163.637 77.5479 163.575C77.5592 163.513 77.5936 163.458 77.6442 163.42C77.6966 163.384 77.761 163.37 77.8234 163.382C77.8859 163.393 77.9413 163.429 77.9778 163.481Z" fill="#4F4F4F"/>
<path d="M180.854 237.507C181.375 233.326 183.968 229.206 187.958 227.845C186.384 232.149 186.384 236.87 187.959 241.174C188.572 242.832 189.426 244.611 188.85 246.282C188.437 247.314 187.643 248.149 186.632 248.614C185.629 249.069 184.572 249.394 183.486 249.58L183.274 249.755C181.567 245.903 180.334 241.689 180.854 237.507Z" fill="#808080"/>
<path d="M187.997 227.925C185.673 230.527 184.229 233.794 183.87 237.263C183.779 238.009 183.806 238.764 183.951 239.501C184.115 240.214 184.467 240.87 184.971 241.402C185.472 241.872 185.915 242.401 186.288 242.977C186.452 243.291 186.547 243.635 186.569 243.989C186.59 244.342 186.536 244.695 186.411 245.026C186.078 245.834 185.587 246.567 184.965 247.181C184.318 247.896 183.635 248.629 183.36 249.577C183.326 249.692 183.15 249.633 183.183 249.518C183.662 247.869 185.264 246.932 186.028 245.446C186.225 245.112 186.343 244.738 186.373 244.351C186.402 243.965 186.343 243.577 186.2 243.217C185.853 242.609 185.412 242.06 184.893 241.591C184.394 241.08 184.028 240.455 183.827 239.77C183.645 239.043 183.588 238.29 183.659 237.544C183.793 235.862 184.19 234.211 184.836 232.652C185.564 230.868 186.591 229.222 187.874 227.785C187.954 227.696 188.076 227.836 187.997 227.925Z" fill="#4F4F4F"/>
<path d="M183.92 236.14C183.346 236 182.84 235.661 182.492 235.184C182.145 234.706 181.979 234.12 182.024 233.532C182.033 233.413 182.219 233.422 182.209 233.541C182.167 234.089 182.321 234.635 182.646 235.079C182.97 235.523 183.443 235.837 183.978 235.963C184.094 235.991 184.036 236.167 183.92 236.14Z" fill="#4F4F4F"/>
<path d="M184.704 241.176C185.741 240.558 186.507 239.571 186.848 238.413C186.882 238.298 187.058 238.356 187.024 238.471C186.667 239.675 185.868 240.701 184.788 241.342C184.685 241.403 184.602 241.237 184.704 241.176Z" fill="#4F4F4F"/>
<path d="M185.736 231.044C185.947 231.144 186.179 231.19 186.413 231.179C186.646 231.167 186.873 231.097 187.072 230.976C187.174 230.914 187.257 231.08 187.156 231.142C186.935 231.275 186.684 231.351 186.427 231.365C186.169 231.378 185.912 231.329 185.678 231.22C185.655 231.212 185.636 231.195 185.625 231.173C185.614 231.152 185.612 231.126 185.619 231.103C185.627 231.08 185.643 231.06 185.665 231.049C185.687 231.038 185.713 231.036 185.736 231.044Z" fill="#4F4F4F"/>
<path d="M200.12 235.314C200.057 235.354 199.994 235.395 199.931 235.438C199.091 235.99 198.297 236.609 197.557 237.29C197.499 237.342 197.441 237.395 197.385 237.448C195.62 239.108 194.178 241.08 193.133 243.265C192.718 244.135 192.37 245.035 192.092 245.958C191.708 247.232 191.393 248.644 190.632 249.686C190.554 249.796 190.469 249.901 190.378 250H183.504C183.489 249.992 183.473 249.986 183.457 249.978L183.183 249.99C183.194 249.942 183.206 249.892 183.217 249.843C183.224 249.815 183.231 249.787 183.238 249.758C183.242 249.74 183.247 249.721 183.25 249.704C183.252 249.697 183.253 249.691 183.255 249.686C183.258 249.669 183.263 249.653 183.266 249.638C183.335 249.357 183.406 249.077 183.479 248.796L183.481 248.793C184.018 246.65 184.808 244.578 185.833 242.621C185.865 242.563 185.896 242.503 185.93 242.445C186.405 241.579 186.95 240.753 187.56 239.975C187.895 239.55 188.251 239.143 188.628 238.754C189.602 237.752 190.728 236.908 191.965 236.256C194.43 234.955 197.284 234.456 199.919 235.251C199.986 235.271 200.052 235.292 200.12 235.314Z" fill="#808080"/>
<path d="M200.104 235.401C196.681 236.08 193.56 237.82 191.183 240.374C190.662 240.915 190.229 241.534 189.9 242.209C189.601 242.878 189.487 243.614 189.569 244.341C189.686 245.018 189.721 245.706 189.672 246.391C189.614 246.74 189.483 247.073 189.287 247.368C189.091 247.662 188.835 247.912 188.536 248.101C187.784 248.546 186.95 248.835 186.083 248.952C185.136 249.133 184.149 249.307 183.358 249.899C183.263 249.97 183.157 249.818 183.252 249.746C184.628 248.717 186.472 248.933 187.977 248.206C188.335 248.058 188.655 247.83 188.912 247.539C189.168 247.249 189.355 246.903 189.457 246.529C189.547 245.836 189.525 245.132 189.393 244.446C189.302 243.737 189.387 243.018 189.639 242.349C189.932 241.659 190.34 241.024 190.846 240.471C191.966 239.208 193.277 238.129 194.732 237.273C196.388 236.287 198.2 235.591 200.09 235.216C200.207 235.193 200.22 235.378 200.104 235.401Z" fill="#4F4F4F"/>
<path d="M191.9 239.507C191.525 239.05 191.325 238.475 191.336 237.885C191.346 237.294 191.566 236.727 191.957 236.284C192.036 236.194 192.179 236.313 192.099 236.403C191.735 236.815 191.53 237.343 191.522 237.893C191.513 238.443 191.701 238.978 192.053 239.401C192.129 239.493 191.976 239.598 191.9 239.507Z" fill="#4F4F4F"/>
<path d="M189.492 244C190.693 244.13 191.898 243.803 192.869 243.084C192.965 243.013 193.07 243.165 192.974 243.237C191.963 243.983 190.708 244.321 189.459 244.183C189.34 244.17 189.374 243.987 189.492 244Z" fill="#4F4F4F"/>
<path d="M196.42 236.532C196.528 236.738 196.685 236.915 196.879 237.046C197.072 237.177 197.295 237.258 197.527 237.281C197.646 237.293 197.612 237.476 197.494 237.464C197.238 237.437 196.992 237.347 196.778 237.203C196.564 237.059 196.388 236.865 196.267 236.637C196.254 236.617 196.249 236.592 196.253 236.568C196.257 236.544 196.271 236.523 196.29 236.508C196.311 236.494 196.336 236.489 196.36 236.493C196.384 236.498 196.405 236.511 196.42 236.532Z" fill="#4F4F4F"/>
<path d="M298.947 148.688C296.884 132.105 286.601 115.765 270.776 110.368C277.017 127.437 277.016 146.162 270.772 163.231C268.341 169.805 264.951 176.863 267.239 183.488C268.662 187.611 272.143 190.765 276.035 192.737C279.926 194.709 284.245 195.649 288.51 196.57L289.35 197.264C296.12 181.984 301.011 165.272 298.947 148.688Z" fill="#808080"/>
<path d="M270.619 110.682C279.834 121.002 285.562 133.961 286.988 147.72C287.276 150.669 287.311 153.686 286.666 156.594C286.015 159.423 284.619 162.026 282.621 164.133C280.798 166.135 278.701 167.971 277.397 170.381C276.022 172.922 275.969 175.808 276.91 178.506C278.062 181.808 280.332 184.499 282.643 187.053C285.209 189.889 287.92 192.795 289.011 196.555C289.143 197.01 289.842 196.779 289.711 196.324C287.813 189.782 281.459 186.066 278.428 180.174C277.015 177.425 276.421 174.233 277.747 171.33C278.906 168.792 281.066 166.896 282.93 164.885C284.887 162.774 286.387 160.457 287.16 157.661C287.95 154.801 288.033 151.776 287.822 148.832C287.294 142.16 285.72 135.613 283.157 129.43C280.271 122.357 276.195 115.829 271.107 110.129C270.792 109.777 270.306 110.332 270.619 110.682Z" fill="#4F4F4F"/>
<path d="M286.79 143.263C289.067 142.71 291.074 141.367 292.451 139.472C293.829 137.577 294.488 135.255 294.31 132.92C294.273 132.447 293.536 132.483 293.574 132.956C293.743 135.131 293.129 137.294 291.843 139.056C290.557 140.817 288.683 142.061 286.559 142.563C286.098 142.673 286.332 143.372 286.79 143.263Z" fill="#4F4F4F"/>
<path d="M283.679 163.239C279.566 160.785 276.53 156.871 275.176 152.279C275.042 151.824 274.343 152.055 274.476 152.51C275.894 157.286 279.062 161.352 283.348 163.897C283.756 164.139 284.086 163.48 283.679 163.239Z" fill="#4F4F4F"/>
<path d="M279.587 123.054C278.751 123.452 277.828 123.635 276.903 123.588C275.979 123.541 275.08 123.265 274.288 122.786C273.882 122.538 273.554 123.198 273.956 123.443C274.834 123.97 275.827 124.273 276.849 124.327C277.87 124.381 278.89 124.184 279.818 123.754C279.909 123.721 279.984 123.654 280.027 123.568C280.071 123.481 280.08 123.381 280.053 123.289C280.021 123.196 279.955 123.12 279.868 123.076C279.781 123.032 279.68 123.024 279.587 123.054Z" fill="#4F4F4F"/>
<path d="M222.541 139.988C222.79 140.15 223.038 140.312 223.288 140.479C226.62 142.67 229.769 145.127 232.704 147.827C232.934 148.032 233.164 148.243 233.388 148.455C240.388 155.035 246.106 162.857 250.249 171.523C251.895 174.973 253.275 178.543 254.379 182.202C255.903 187.256 257.153 192.857 260.17 196.991C260.479 197.425 260.816 197.841 261.177 198.234H288.438C288.5 198.203 288.562 198.178 288.624 198.147L289.713 198.197C289.669 198.004 289.619 197.805 289.576 197.612C289.551 197.5 289.52 197.388 289.495 197.277C289.476 197.202 289.458 197.127 289.445 197.059C289.439 197.034 289.433 197.009 289.427 196.991C289.414 196.922 289.395 196.86 289.383 196.798C289.109 195.685 288.827 194.573 288.537 193.46C288.537 193.454 288.537 193.454 288.531 193.447C286.298 184.975 283.338 176.614 279.202 168.968C279.077 168.738 278.953 168.502 278.816 168.272C276.932 164.836 274.771 161.559 272.354 158.475C271.024 156.791 269.611 155.175 268.118 153.633C264.253 149.657 259.787 146.313 254.883 143.724C245.106 138.565 233.786 136.588 223.337 139.74C223.07 139.821 222.808 139.901 222.541 139.988Z" fill="#808080"/>
<path d="M222.603 140.334C236.177 143.029 248.557 149.93 257.984 160.057C259.991 162.239 261.836 164.627 263.072 167.336C264.257 169.986 264.71 172.905 264.384 175.79C264.135 178.485 263.567 181.213 263.977 183.923C264.41 186.778 266.106 189.115 268.483 190.703C271.392 192.646 274.825 193.428 278.209 194.077C281.967 194.798 285.881 195.486 289.017 197.832C289.397 198.116 289.816 197.51 289.437 197.227C283.981 193.145 276.669 194.002 270.7 191.121C267.915 189.776 265.518 187.585 264.828 184.47C264.225 181.746 264.808 178.932 265.084 176.205C265.374 173.341 265.177 170.589 264.11 167.891C263.018 165.132 261.262 162.667 259.32 160.443C254.879 155.434 249.678 151.154 243.907 147.759C237.342 143.848 230.155 141.089 222.659 139.6C222.195 139.508 222.142 140.243 222.603 140.334Z" fill="#4F4F4F"/>
<path d="M255.141 156.618C256.626 154.806 257.419 152.526 257.377 150.184C257.336 147.843 256.463 145.592 254.914 143.834C254.6 143.48 254.034 143.951 254.349 144.307C255.794 145.941 256.607 148.037 256.641 150.218C256.675 152.399 255.928 154.52 254.535 156.198C254.233 156.563 254.84 156.981 255.141 156.618Z" fill="#4F4F4F"/>
<path d="M264.691 174.439C259.928 174.955 255.147 173.657 251.299 170.805C250.918 170.522 250.499 171.128 250.879 171.41C254.889 174.371 259.868 175.711 264.822 175.164C265.295 175.112 265.16 174.387 264.691 174.439Z" fill="#4F4F4F"/>
<path d="M237.216 144.817C236.787 145.637 236.162 146.338 235.395 146.858C234.628 147.377 233.744 147.697 232.823 147.791C232.35 147.837 232.485 148.562 232.954 148.515C233.972 148.408 234.948 148.052 235.796 147.481C236.645 146.909 237.34 146.138 237.822 145.236C237.874 145.155 237.894 145.057 237.877 144.961C237.859 144.866 237.806 144.781 237.729 144.724C237.648 144.668 237.549 144.647 237.453 144.665C237.357 144.682 237.272 144.737 237.216 144.817Z" fill="#4F4F4F"/>
<path d="M330.728 198.638H0.404645C0.297327 198.638 0.194403 198.596 0.118518 198.52C0.0426319 198.444 0 198.341 0 198.234C0 198.127 0.0426319 198.024 0.118518 197.948C0.194403 197.872 0.297327 197.83 0.404645 197.83H330.595C330.703 197.83 330.806 197.872 330.881 197.948C330.957 198.024 331 198.127 331 198.234C331 198.457 330.951 198.638 330.728 198.638Z" fill="#C5C5C5"/>
<path d="M115.861 234.227H42.8924C42.7851 234.227 42.6822 234.185 42.6063 234.109C42.5304 234.033 42.4878 233.93 42.4878 233.823C42.4878 233.716 42.5304 233.613 42.6063 233.537C42.6822 233.461 42.7851 233.418 42.8924 233.418H115.729C115.836 233.418 115.939 233.461 116.015 233.537C116.091 233.613 116.133 233.716 116.133 233.823C116.133 234.046 116.084 234.227 115.861 234.227Z" fill="#C5C5C5"/>
<path d="M230.376 250H157.407C157.3 250 157.197 249.957 157.121 249.881C157.045 249.805 157.002 249.703 157.002 249.595C157.002 249.488 157.045 249.385 157.121 249.309C157.197 249.234 157.3 249.191 157.407 249.191H230.243C230.351 249.191 230.454 249.234 230.529 249.309C230.605 249.385 230.648 249.488 230.648 249.595C230.648 249.819 230.599 250 230.376 250Z" fill="#C5C5C5"/>
<path d="M299.165 233.823H226.197C226.09 233.823 225.987 233.78 225.911 233.705C225.835 233.629 225.792 233.526 225.792 233.419C225.792 233.311 225.835 233.208 225.911 233.133C225.987 233.057 226.09 233.014 226.197 233.014H299.033C299.14 233.014 299.243 233.057 299.319 233.133C299.395 233.208 299.438 233.311 299.438 233.419C299.438 233.642 299.389 233.823 299.165 233.823Z" fill="#C5C5C5"/>
<path d="M134.852 218.455C130.319 218.455 126.169 218.021 122.872 216.995C118.953 215.775 116.492 213.803 115.557 211.128C115.118 209.993 114.987 208.761 115.177 207.559C115.367 206.356 115.872 205.225 116.641 204.281C122.438 196.73 142.557 194.601 145.256 194.349L150.733 183.985C151.083 181.512 149.425 179.64 152.289 179.593L186.172 179.133C188.985 179.074 188.187 180.815 188.669 183.226L193.831 192.437L171.613 201.808L174.973 209.989L174.753 210.116C168.251 213.886 149.551 218.454 134.852 218.455Z" fill="#2F2E41"/>
<path d="M190.755 192.83C190.755 192.83 221.783 189.281 219.76 203.476C217.736 217.672 194.128 227.727 158.378 203.476L162.425 196.379C162.425 196.379 175.747 195.716 183.841 192.167L190.755 192.83Z" fill="#2F2E41"/>
<path d="M146.827 128.519C146.827 128.519 140.93 127.447 139.321 136.556C137.713 145.665 135.137 167.242 135.137 167.242L127.137 194.959C126.194 195.459 125.412 196.218 124.884 197.146C124.356 198.074 124.103 199.133 124.154 200.199C124.205 201.266 124.559 202.295 125.174 203.168C125.79 204.041 126.641 204.721 127.628 205.128C128.615 205.536 129.698 205.654 130.75 205.47C131.802 205.285 132.78 204.805 133.569 204.086C134.359 203.366 134.927 202.438 135.208 201.408C135.489 200.377 135.471 199.289 135.155 198.269L145.859 168.852L147.899 143.524V130.253C147.899 129.893 147.799 129.54 147.61 129.234C147.42 128.927 147.149 128.68 146.827 128.519Z" fill="#FEB8B8"/>
<path d="M188.337 128.519C188.337 128.519 194.235 127.447 195.843 136.556C197.451 145.665 200.028 167.242 200.028 167.242L208.027 194.959C208.971 195.459 209.752 196.218 210.281 197.146C210.809 198.074 211.062 199.133 211.011 200.199C210.959 201.266 210.605 202.295 209.99 203.168C209.375 204.041 208.524 204.721 207.537 205.128C206.549 205.536 205.466 205.654 204.414 205.47C203.362 205.285 202.384 204.805 201.595 204.086C200.806 203.366 200.237 202.438 199.957 201.408C199.676 200.377 199.694 199.289 200.009 198.269L189.305 168.852L187.265 143.524V130.253C187.265 129.893 187.365 129.54 187.555 129.234C187.744 128.927 188.015 128.68 188.337 128.519Z" fill="#FEB8B8"/>
<path d="M187.888 120.989L176.733 116.819L155.112 116.541L145.805 120.989L148.419 136.004C148.419 136.004 143.141 144.935 148.952 153.868L150.256 185.697C150.256 185.697 171.102 197.778 188.697 183.27L184.72 153.677C184.72 153.677 191.372 139.947 186.216 134.846L187.888 120.989Z" fill="#00AA0A"/>
<path d="M183.344 125.655L187.888 120.989C187.888 120.989 197.803 126.202 197.599 143.637L185.091 139.784L183.344 125.655Z" fill="#00AA0A"/>
<path d="M150.852 125.655L146.025 120.831C146.025 120.831 137.507 127.415 137.712 144.85L149.105 139.784L150.852 125.655Z" fill="#00AA0A"/>
<path d="M182.319 206.42C182.319 206.42 178.844 199.114 173.041 202.616C167.239 206.119 156.562 211.937 156.562 211.937C156.562 211.937 154.065 216.109 159.518 215.011C164.971 213.914 182.488 213.058 182.488 213.058L182.319 206.42Z" fill="#FEB8B8"/>
<path d="M172.666 75.8083C172.715 75.7612 172.766 75.7189 172.814 75.6705C175.919 72.5673 176.549 68.1648 174.22 65.8374C172.019 63.6379 167.966 64.0818 164.906 66.756C162.283 64.2598 158.765 63.5639 156.488 65.2871C153.863 67.2741 153.883 71.7213 156.534 75.22C156.716 75.4596 156.906 75.6861 157.102 75.9041C153.574 77.1946 150.528 79.5372 148.376 82.6147C146.224 85.6922 145.07 89.3562 145.07 93.1108V110.55C145.07 111.061 145.171 111.567 145.367 112.04C145.563 112.512 145.85 112.941 146.211 113.303C146.573 113.665 147.003 113.951 147.475 114.147C147.948 114.343 148.455 114.443 148.966 114.443H181.215C182.214 114.443 183.171 114.047 183.877 113.341C184.584 112.635 184.98 111.678 184.98 110.68V93.1108C184.98 89.3057 183.794 85.5952 181.587 82.4946C179.38 79.3939 176.262 77.057 172.666 75.8083Z" fill="#2F2E41"/>
<path d="M176.355 108.224C182.331 102.252 182.331 92.5677 176.355 86.5949C170.379 80.6221 160.69 80.6221 154.714 86.5949C148.738 92.5677 148.738 102.252 154.714 108.224C160.69 114.197 170.379 114.197 176.355 108.224Z" fill="#FFB6B6"/>
<path d="M149.455 87.7892C152.952 90.1981 157.102 91.4801 161.349 91.4631C159.834 92.513 158.11 93.2221 156.294 93.5417C161.941 94.7523 167.777 94.7851 173.437 93.638C174.695 93.4364 175.909 93.0196 177.025 92.4061C177.582 92.0955 178.067 91.6714 178.448 91.1613C178.83 90.6512 179.1 90.0665 179.241 89.4453C179.617 87.2979 177.942 85.3469 176.203 84.032C173.539 82.0496 170.467 80.6838 167.21 80.0333C163.953 79.3829 160.593 79.4641 157.371 80.2711C155.267 80.8145 153.16 81.7327 151.794 83.4211C150.427 85.1096 150.023 87.7125 151.324 89.4512L149.455 87.7892Z" fill="#2F2E41"/>
<path d="M67.6039 57.269L68.0862 56.6192L80.9333 66.1434C80.2351 64.0167 77.7639 57.2749 73.7128 54.5849C68.8732 51.3713 65.4682 52.3709 63.6131 55.1615C61.7581 57.9521 62.1553 61.4767 66.995 64.6904C71.0973 67.4146 78.4055 67.0358 80.5376 66.8572L67.6039 57.269Z" fill="#C6C6C6"/>
<path d="M260.902 5.12488L261.499 5.67184L250.685 17.4516C252.874 16.9788 259.84 15.2236 262.938 11.4765C266.639 7.00002 265.998 3.5114 263.414 1.37716C260.83 -0.757081 257.282 -0.728816 253.58 3.74769C250.443 7.54223 250.059 14.8461 250.015 16.9841L260.902 5.12488Z" fill="#C6C6C6"/>
<path d="M86.5 130.9L87.0964 131.447L76.2825 143.227C78.4714 142.754 85.4374 140.999 88.5357 137.252C92.237 132.775 91.5963 129.287 89.0123 127.153C86.4282 125.018 82.8796 125.047 79.1781 129.523C76.0405 133.318 75.6573 140.622 75.6133 142.759L86.5 130.9Z" fill="#C6C6C6"/>
<path d="M177.94 18.6237L178.641 19.0289L170.63 32.8661C172.665 31.9317 179.087 28.7132 181.301 24.3855C183.947 19.2153 182.567 15.9475 179.583 14.4219C176.598 12.8962 173.14 13.6904 170.494 18.8606C168.251 23.2432 169.456 30.4572 169.876 32.5542L177.94 18.6237Z" fill="#C6C6C6"/>
<path d="M252.8 105.17L253.5 105.575L245.489 119.413C247.524 118.478 253.946 115.26 256.161 110.932C258.807 105.762 257.427 102.494 254.442 100.968C251.458 99.4426 247.999 100.237 245.353 105.407C243.11 109.79 244.316 117.004 244.735 119.101L252.8 105.17Z" fill="#C6C6C6"/>
</g>
<defs>
<clipPath id="clip0_357_514">
<rect width="331" height="250" fill="white"/>
</clipPath>
</defs>
</svg>
