<svg width="394" height="265" viewBox="0 0 394 265" fill="none" xmlns="http://www.w3.org/2000/svg">
<g clip-path="url(#clip0_204_407)">
<path d="M360.402 92.7204C359.988 93.0581 359.575 93.3811 359.151 93.6992H254.688C253.91 93.3811 253.135 93.0548 252.364 92.7204C241.336 87.9502 231.071 81.5983 221.898 73.8675C215.806 68.7382 210.202 63.4426 206.14 58.4798C200.472 51.5543 195.253 44.0073 192.825 35.408C190.402 26.8087 191.126 16.9516 196.538 9.82057C198.213 7.62698 200.274 5.7518 202.619 4.28511C203.008 4.0404 203.402 3.80547 203.806 3.58523C210.296 -0.0365576 218.485 -0.917538 225.793 0.956982C236.257 3.64396 244.953 11.1469 251.157 19.9469C257.362 28.742 261.39 38.8438 265.359 48.8331C269.387 31.0031 281.584 15.033 298.061 6.91335C314.533 -1.2063 334.998 -1.10842 351.12 7.68666C356.192 10.4707 360.775 14.058 364.686 18.3073C365.075 18.7233 365.454 19.1491 365.828 19.5798C373.692 28.6294 378.612 40.2191 379.015 52.171C379.533 67.5685 372.353 83.0345 360.402 92.7204Z" fill="#EEEEEE"/>
<path d="M258.864 93.6994H257.387C257.367 93.3714 257.342 93.0484 257.313 92.7205C256.796 86.3185 255.715 79.974 254.082 73.7599C250.336 59.5732 243.936 46.2142 235.218 34.3803C226.524 22.5087 215.564 12.4539 202.964 4.78936C202.872 4.73687 202.793 4.66419 202.733 4.57684C202.673 4.48949 202.634 4.38977 202.619 4.28524C202.595 4.14857 202.611 4.0079 202.664 3.87963C202.717 3.75136 202.806 3.64077 202.92 3.56075C203.034 3.48073 203.169 3.43457 203.308 3.42767C203.447 3.42076 203.586 3.45338 203.707 3.52173C203.741 3.54121 203.774 3.56244 203.806 3.58535C210.945 7.91023 217.572 13.0194 223.562 18.8164C234.277 29.2052 242.917 41.5157 249.025 55.0979C254.414 66.9935 257.715 79.718 258.785 92.7205C258.815 93.0484 258.839 93.3763 258.864 93.6994Z" fill="white"/>
<path d="M365.828 19.5797C365.818 19.5852 365.806 19.5885 365.794 19.5895C364.716 19.7852 363.632 19.9908 362.559 20.2111C353.747 22.0098 345.12 24.6132 336.79 27.9881C328.481 31.3583 320.489 35.4529 312.907 40.2239C305.316 44.9924 298.157 50.4097 291.512 56.4143C284.867 62.4102 278.771 68.9813 273.297 76.0502C269.205 81.3466 265.485 86.9164 262.163 92.7202C261.976 93.0433 261.794 93.3712 261.611 93.6991H259.923C260.1 93.3712 260.282 93.0433 260.469 92.7202C264.488 85.6087 269.097 78.8426 274.247 72.492C279.942 65.4638 286.256 58.9532 293.112 53.0372C299.925 47.1545 307.237 41.8686 314.966 37.2384C322.727 32.5894 330.887 28.6324 339.351 25.4137C347.564 22.293 356.043 19.9145 364.686 18.3072C364.927 18.2631 365.163 18.2191 365.405 18.175C366.326 18.0086 366.72 19.3888 365.828 19.5797Z" fill="white"/>
<path d="M97.3424 96.6089C99.9694 91.68 100.403 85.2603 97.1365 80.7248C95.1921 78.025 92.1562 76.2528 88.9706 75.2531C85.7851 74.2535 82.4245 73.9597 79.093 73.7168C75.795 73.4763 72.4384 73.2838 69.2168 74.0252C65.9952 74.7665 62.8747 76.5777 61.3053 79.4707C58.6541 84.3579 61.0692 90.6245 59.1219 95.8286C57.3349 100.604 52.249 103.396 47.2494 104.523C42.2498 105.65 37.0315 105.53 32.0294 106.646C27.0273 107.762 21.9329 110.528 20.1143 115.292C18.7991 118.737 19.4525 122.705 21.1855 125.962C22.9184 129.219 25.6325 131.856 28.5134 134.175C32.8112 137.635 37.8393 140.598 43.3615 140.897C49.1801 141.213 54.8695 138.46 59.0574 134.433C63.2454 130.406 66.0965 125.201 68.3745 119.87C69.8195 116.488 71.1849 112.849 74.0808 110.565C76.2088 108.887 78.9153 108.151 81.5401 107.456L84.5123 106.669C87.2055 105.968 89.7261 104.728 91.919 103.023C94.1118 101.318 95.9305 99.1856 97.2632 96.7563C97.2897 96.7073 97.3161 96.6582 97.3424 96.6089Z" fill="#2F2E41"/>
<path d="M73.9026 258.745H67.866L64.9937 235.601H73.9041L73.9026 258.745Z" fill="#FFB8B8"/>
<path d="M63.5536 257.03H75.1964V264.316H56.2229C56.2229 263.36 56.4125 262.412 56.7809 261.528C57.1493 260.644 57.6893 259.841 58.37 259.164C59.0507 258.488 59.8588 257.951 60.7482 257.585C61.6376 257.219 62.5909 257.03 63.5536 257.03Z" fill="#2F2E41"/>
<path d="M124.13 258.745H118.093L115.221 235.601H124.131L124.13 258.745Z" fill="#FFB8B8"/>
<path d="M113.781 257.03H125.424V264.316H106.45C106.45 263.36 106.64 262.412 107.008 261.528C107.377 260.644 107.917 259.841 108.597 259.164C109.278 258.488 110.086 257.951 110.976 257.585C111.865 257.219 112.818 257.03 113.781 257.03Z" fill="#2F2E41"/>
<path d="M85.5076 240.35C85.4234 240.35 85.3392 240.345 85.2555 240.336L60.6946 237.721C60.3684 237.686 60.0534 237.583 59.7706 237.417C59.4877 237.252 59.2435 237.029 59.0542 236.763C58.8649 236.496 58.7348 236.193 58.6727 235.873C58.6105 235.553 58.6177 235.223 58.6938 234.906L80.4405 152.696C80.5423 152.278 80.7597 151.896 81.0682 151.594C81.3767 151.292 81.7639 151.082 82.1863 150.987L102.36 145.398C102.764 145.309 103.185 145.33 103.579 145.457C103.973 145.585 104.325 145.815 104.6 146.123C117.57 160.664 127.345 192.898 134.749 233.528C134.805 233.835 134.798 234.149 134.727 234.453C134.657 234.757 134.525 235.043 134.34 235.294C134.155 235.545 133.92 235.757 133.65 235.915C133.38 236.073 133.08 236.175 132.769 236.215L112.645 238.769C112.074 238.842 111.496 238.701 111.025 238.372C110.554 238.044 110.223 237.552 110.099 236.993L100.307 193.606C100.217 193.207 99.9919 192.85 99.669 192.597C99.3461 192.343 98.9453 192.207 98.5335 192.211C98.1218 192.216 97.7242 192.361 97.4073 192.623C97.0904 192.884 96.8734 193.245 96.7927 193.647L87.7664 238.503C87.6642 239.024 87.3828 239.493 86.9707 239.83C86.5585 240.167 86.0412 240.351 85.5076 240.35Z" fill="#2F2E41"/>
<path d="M81.7717 107.897C88.4513 107.897 93.8662 102.515 93.8662 95.8764C93.8662 89.2374 88.4513 83.8555 81.7717 83.8555C75.0921 83.8555 69.6772 89.2374 69.6772 95.8764C69.6772 102.515 75.0921 107.897 81.7717 107.897Z" fill="#FFB8B8"/>
<path d="M81.4339 152.927C80.9255 152.927 80.4314 152.759 80.0288 152.451C79.6261 152.142 79.3373 151.71 79.2075 151.222L71.9315 124.053C71.4064 122.101 71.6238 120.025 72.5423 118.222C73.4609 116.42 75.0159 115.017 76.91 114.282C82.7669 112.01 88.3469 111.167 93.495 111.776C98.0706 112.318 103.715 139.242 103.342 139.816L105.147 145.2C105.25 145.505 105.286 145.828 105.255 146.149C105.223 146.469 105.125 146.779 104.965 147.059C104.805 147.339 104.588 147.582 104.327 147.773C104.067 147.964 103.769 148.099 103.452 148.168L81.9358 152.873C81.771 152.909 81.6027 152.927 81.4339 152.927Z" fill="#CCCCCC"/>
<path d="M87.9548 180.71C88.0584 180.176 88.0428 179.625 87.9091 179.097C87.7754 178.569 87.5269 178.076 87.181 177.654C86.835 177.232 86.4002 176.89 85.907 176.653C85.4138 176.416 84.8743 176.289 84.3265 176.281L80.1345 163.718L75.8501 169.119L80.4877 180.222C80.536 181.138 80.9206 182.004 81.5684 182.656C82.2163 183.309 83.0825 183.703 84.0029 183.763C84.9234 183.823 85.834 183.545 86.5624 182.983C87.2907 182.42 87.7861 181.612 87.9548 180.71Z" fill="#FFB8B8"/>
<path d="M141.849 150.516C141.598 150.032 141.244 149.609 140.81 149.276C140.377 148.943 139.875 148.708 139.341 148.589C138.806 148.469 138.252 148.468 137.717 148.584C137.181 148.7 136.678 148.932 136.243 149.263L125.136 141.959L125.126 148.838L135.675 154.719C136.282 155.409 137.123 155.853 138.038 155.969C138.953 156.084 139.879 155.861 140.64 155.343C141.401 154.825 141.945 154.048 142.167 153.158C142.39 152.269 142.277 151.329 141.849 150.516Z" fill="#FFB8B8"/>
<path d="M79.1658 174.906C78.6801 174.906 78.2066 174.754 77.8129 174.471C77.4191 174.188 77.1251 173.789 76.9726 173.331L67.1454 152.669C66.7423 151.458 66.5371 150.191 66.5374 148.915L69.4919 122.06C69.4918 120.556 70.0691 119.109 71.1059 118.014C72.1427 116.919 73.5609 116.259 75.071 116.168C76.581 116.077 78.0691 116.562 79.2313 117.525C80.3935 118.488 81.1423 119.855 81.3248 121.347L76.8045 152.001L84.0179 170.815C84.1321 171.315 84.0738 171.839 83.8525 172.303C83.6312 172.767 83.2597 173.143 82.7975 173.372L80.1985 174.664C79.8779 174.823 79.5243 174.906 79.1658 174.906Z" fill="#CCCCCC"/>
<path d="M131.651 153.229C131.289 153.229 130.932 153.145 130.609 152.983L111.066 143.171C109.92 142.596 108.875 141.843 107.969 140.939L88.894 121.919C87.8261 120.854 87.2073 119.424 87.1641 117.921C87.1208 116.418 87.6563 114.955 88.6613 113.831C89.6662 112.707 91.0648 112.007 92.5716 111.873C94.0784 111.74 95.5797 112.183 96.7691 113.112L117.432 135.921L133.812 146.257C134.248 146.532 134.579 146.944 134.752 147.427C134.925 147.911 134.929 148.438 134.764 148.925L133.841 151.663C133.687 152.12 133.392 152.516 132.999 152.797C132.606 153.078 132.135 153.229 131.651 153.229Z" fill="#CCCCCC"/>
<path d="M68.0146 89.6615C70.0691 92.3328 73.0223 94.1798 76.3342 94.8648C79.6913 95.5543 83.1851 95.0567 86.2123 93.4581C88.6481 92.15 90.5974 90.1867 92.5065 88.2538C93.3032 87.4471 94.1519 86.5168 94.1118 85.4163C94.0497 83.7113 91.9874 82.7792 90.2174 82.4073C84.4074 81.2026 78.362 81.8784 72.9664 84.3356C70.5634 85.445 68.0597 87.4522 68.4205 89.9473" fill="#2F2E41"/>
<path d="M385.629 92.7202H148.28C146.061 92.7233 143.933 93.6009 142.364 95.1606C140.795 96.7203 139.912 98.8348 139.909 101.041V192.075C139.912 194.28 140.795 196.395 142.364 197.955C143.933 199.514 146.061 200.392 148.28 200.395H385.629C387.848 200.392 389.975 199.514 391.545 197.955C393.114 196.395 393.997 194.28 394 192.075V101.041C393.997 98.8348 393.114 96.7203 391.545 95.1606C389.975 93.6009 387.848 92.7233 385.629 92.7202ZM393.015 192.075C393.013 194.021 392.234 195.887 390.849 197.263C389.464 198.64 387.587 199.414 385.629 199.416H148.28C146.322 199.414 144.444 198.64 143.06 197.263C141.675 195.887 140.896 194.021 140.894 192.075V101.041C140.896 99.0942 141.675 97.2282 143.06 95.852C144.444 94.4757 146.322 93.7014 148.28 93.6991H385.629C387.587 93.7014 389.464 94.4757 390.849 95.852C392.234 97.2282 393.013 99.0942 393.015 101.041V192.075Z" fill="#3F3D56"/>
<path d="M191.374 174.945C185.725 174.945 180.203 173.28 175.506 170.161C170.81 167.042 167.149 162.608 164.987 157.421C162.826 152.234 162.26 146.526 163.362 141.02C164.464 135.513 167.184 130.455 171.178 126.485C175.173 122.515 180.262 119.812 185.802 118.716C191.342 117.621 197.085 118.183 202.304 120.332C207.522 122.48 211.983 126.119 215.121 130.787C218.259 135.455 219.935 140.943 219.935 146.558C219.926 154.084 216.914 161.299 211.56 166.621C206.206 171.943 198.946 174.936 191.374 174.945ZM191.374 119.15C185.92 119.15 180.588 120.757 176.054 123.769C171.519 126.781 167.984 131.061 165.897 136.069C163.81 141.077 163.264 146.588 164.328 151.905C165.392 157.222 168.018 162.105 171.875 165.938C175.731 169.771 180.645 172.382 185.994 173.439C191.343 174.497 196.888 173.954 201.927 171.88C206.965 169.805 211.272 166.292 214.302 161.785C217.332 157.278 218.95 151.979 218.95 146.558C218.941 139.291 216.033 132.325 210.864 127.187C205.694 122.048 198.685 119.158 191.374 119.15Z" fill="#3F3D56"/>
<path d="M364.448 128.449H250.697C249.108 128.45 247.58 129.062 246.434 130.158C245.288 131.254 244.614 132.748 244.552 134.327C244.544 134.406 244.541 134.487 244.542 134.567C244.544 136.188 245.194 137.743 246.348 138.89C247.501 140.037 249.066 140.682 250.697 140.684H364.448C366.08 140.684 367.646 140.04 368.8 138.893C369.954 137.745 370.603 136.189 370.603 134.567C370.603 132.944 369.954 131.388 368.8 130.241C367.646 129.093 366.08 128.449 364.448 128.449Z" fill="#3CDF03"/>
<path d="M364.448 152.431H250.697C249.108 152.432 247.58 153.044 246.434 154.14C245.288 155.236 244.614 156.73 244.552 158.309C244.544 158.388 244.541 158.468 244.542 158.549C244.544 160.17 245.194 161.725 246.348 162.872C247.501 164.019 249.066 164.664 250.697 164.666H364.448C366.08 164.666 367.646 164.022 368.8 162.875C369.954 161.727 370.603 160.171 370.603 158.549C370.603 156.926 369.954 155.37 368.8 154.223C367.646 153.075 366.08 152.431 364.448 152.431Z" fill="#3CDF03"/>
<path d="M188.188 158.961C187.391 158.962 186.615 158.706 185.977 158.231L185.938 158.202L177.614 151.867C177.228 151.574 176.905 151.208 176.662 150.79C176.418 150.372 176.261 149.911 176.197 149.432C176.133 148.953 176.165 148.467 176.29 148.001C176.415 147.534 176.632 147.097 176.927 146.714C177.223 146.331 177.591 146.009 178.012 145.768C178.432 145.526 178.896 145.369 179.378 145.306C179.859 145.242 180.348 145.274 180.818 145.399C181.287 145.523 181.727 145.738 182.112 146.032L187.504 150.141L200.245 133.626C200.541 133.243 200.909 132.921 201.33 132.68C201.75 132.438 202.214 132.281 202.696 132.218C203.177 132.155 203.666 132.187 204.136 132.311C204.605 132.436 205.045 132.652 205.43 132.945L205.351 133.052L205.432 132.947C206.209 133.541 206.718 134.417 206.846 135.383C206.975 136.349 206.712 137.326 206.116 138.1L191.13 157.526C190.783 157.974 190.337 158.336 189.827 158.585C189.317 158.834 188.756 158.962 188.188 158.961Z" fill="#3CDF03"/>
<path d="M188.106 265H0.492425C0.361826 265 0.236575 264.948 0.144228 264.856C0.0518799 264.765 0 264.64 0 264.51C0 264.381 0.0518799 264.256 0.144228 264.164C0.236575 264.073 0.361826 264.021 0.492425 264.021H188.106C188.237 264.021 188.362 264.073 188.454 264.164C188.547 264.256 188.599 264.381 188.599 264.51C188.599 264.64 188.547 264.765 188.454 264.856C188.362 264.948 188.237 265 188.106 265Z" fill="#3F3D56"/>
<path d="M336.453 70.671C326.166 69.2647 315.719 69.4988 305.507 71.3645C295.324 73.2148 285.493 76.631 276.368 81.4901C271.241 84.2287 266.374 87.4247 261.828 91.0385C261.085 91.6282 262.136 92.6611 262.872 92.0768C270.849 85.7699 279.791 80.7738 289.358 77.2786C298.85 73.7894 308.826 71.7778 318.935 71.3148C324.656 71.0537 330.388 71.3121 336.06 72.0869C336.249 72.1318 336.448 72.1038 336.616 72.0086C336.785 71.9134 336.911 71.7581 336.969 71.5741C337.02 71.3864 336.994 71.1863 336.898 71.0172C336.801 70.8482 336.641 70.7238 336.453 70.671Z" fill="white"/>
</g>
<defs>
<clipPath id="clip0_204_407">
<rect width="394" height="265" fill="white"/>
</clipPath>
</defs>
</svg>
