<svg width="343" height="331" viewBox="0 0 343 331" fill="none" xmlns="http://www.w3.org/2000/svg">
<g opacity="0.2" clip-path="url(#clip0_357_405)">
<path d="M198.42 322.731L101.846 323.051C76.2253 315.346 55.2342 288.586 55.1014 248.465C55.0756 242.421 55.5319 236.385 56.4657 230.413L134.251 212.924L194.258 199.433C198.68 203.396 202.8 207.683 206.584 212.26L149.204 242.582L122.135 256.887L152.552 246.385L215.685 224.588C219.622 230.612 223.13 236.906 226.182 243.424L207.134 263.126L228.682 249.008C228.774 249.224 228.866 249.441 228.957 249.658C242.614 282.104 225.67 322.64 198.42 322.731Z" fill="#F2F2F2"/>
<path d="M182.549 190.352C167.944 194.55 149.989 199.854 131.529 205.366C104.837 213.339 77.0901 221.752 56.8892 227.902L56.9023 227.83C57.649 223.515 59.4045 219.437 62.0256 215.929C76.9898 196.458 96.0443 182.855 117.251 177.804H117.253C123.216 176.38 129.324 175.651 135.455 175.63C152.327 175.574 168.309 180.87 182.549 190.352Z" fill="#F2F2F2"/>
<path d="M119.963 331C156.262 331 185.689 326.752 185.689 321.513C185.689 316.273 156.262 312.025 119.963 312.025C83.663 312.025 54.2363 316.273 54.2363 321.513C54.2363 326.752 83.663 331 119.963 331Z" fill="#3F3D56"/>
<path d="M96.5793 232.965V247.723L107.112 248.988L113.432 240.976L108.376 230.856L96.5793 232.965Z" fill="#FBBEBE"/>
<path d="M136.605 293.684L142.082 308.442L152.194 305.068L144.61 292.84L136.605 293.684Z" fill="#FBBEBE"/>
<path d="M123.965 168.03C123.965 168.03 69.1934 162.548 70.8787 177.728C72.564 192.908 96.5794 236.338 96.5794 236.338L112.59 233.387C112.59 233.387 101.214 215.677 102.057 209.774C102.899 203.871 99.5286 195.859 99.5286 195.859L107.534 197.124L112.168 204.292L121.859 254.048L136.605 298.743L147.559 295.792C147.559 295.792 141.661 277.239 143.346 271.336C145.032 265.432 135.341 242.663 135.341 242.663L142.082 203.027C142.082 203.027 155.143 199.232 151.351 186.161C147.559 173.09 123.965 168.03 123.965 168.03Z" fill="#2F2E41"/>
<path d="M101.214 243.085C101.214 243.085 94.894 238.025 95.3153 240.133C95.5535 241.67 95.5535 243.235 95.3153 244.772L89.4168 257.843C89.4168 257.843 75.0918 270.914 88.1528 271.336C101.214 271.758 107.955 258.265 107.955 258.265C107.955 258.265 126.072 244.772 123.965 242.663C121.859 240.555 110.802 235.713 110.802 235.713C110.802 235.713 107.112 246.036 101.214 243.085Z" fill="#2F2E41"/>
<path d="M141.661 301.695C141.661 301.695 135.762 296.213 135.341 298.743C134.92 301.273 134.498 304.646 134.498 304.646L125.651 313.08C125.651 313.08 113.011 325.308 123.965 325.729C127.131 325.872 130.289 325.303 133.206 324.062C136.123 322.821 138.724 320.942 140.818 318.561C140.818 318.561 156.829 315.188 155.986 312.658C155.143 310.128 150.918 300.34 149.028 299.964C147.138 299.587 146.717 305.068 141.661 301.695Z" fill="#2F2E41"/>
<path d="M121.437 107.312C128.651 107.312 134.498 101.459 134.498 94.2403C134.498 87.0212 128.651 81.1689 121.437 81.1689C114.224 81.1689 108.376 87.0212 108.376 94.2403C108.376 101.459 114.224 107.312 121.437 107.312Z" fill="#FBBEBE"/>
<path d="M115.539 103.095C115.539 103.095 121.016 117.853 120.595 119.118C120.173 120.383 137.869 108.577 137.869 108.577C137.869 108.577 130.285 106.89 130.285 100.144L115.539 103.095Z" fill="#FBBEBE"/>
<path d="M163.57 124.6C163.57 124.6 171.153 132.189 172.417 134.719C173.681 137.249 202.331 169.295 202.331 169.295C202.331 169.295 221.291 191.643 213.707 192.065C206.123 192.486 196.433 174.355 196.433 174.355C196.433 174.355 169.468 154.537 168.204 149.899L152.615 133.876L163.57 124.6Z" fill="#FBBEBE"/>
<path d="M123.965 115.745H119.331L113.011 125.864C113.011 125.864 106.691 131.346 111.326 142.731C115.96 154.115 119.752 168.452 119.752 168.452C119.752 168.452 133.234 170.138 135.762 174.355C138.29 178.571 152.615 192.064 152.615 192.064C152.615 192.064 155.143 183.21 154.3 170.138C153.458 157.067 154.3 137.249 154.3 137.249L153.458 111.106C153.458 111.106 137.185 107.332 136.052 107.954C134.92 108.577 123.965 115.745 123.965 115.745Z" fill="#585960"/>
<path d="M147.138 112.371L153.458 111.106C153.458 111.106 160.199 115.323 166.519 127.551C166.519 127.551 153.037 136.406 151.773 135.984C150.509 135.562 147.138 112.371 147.138 112.371Z" fill="#585960"/>
<path d="M108.376 141.044C108.376 141.044 98.686 156.645 101.635 162.549C104.584 168.452 108.376 168.03 108.376 168.03C108.376 168.03 115.539 166.765 115.539 160.862C115.539 154.959 118.488 154.537 118.488 154.537C118.488 154.537 137.026 139.357 129.864 139.357C122.701 139.357 113.011 149.899 113.011 149.899L112.59 140.201L108.376 141.044Z" fill="#FBBEBE"/>
<path d="M114.696 125.443C114.696 125.443 108.376 127.129 107.112 133.876C105.848 140.622 106.27 143.996 106.27 143.996L114.696 143.152V125.443Z" fill="#585960"/>
<path opacity="0.1" d="M102.899 159.175C102.899 159.175 109.64 150.32 110.483 151.585L102.899 159.175Z" fill="black"/>
<path d="M128.072 78.4157C128.072 78.4157 121.146 71.4897 114.478 76.14C107.809 80.7904 104.704 85.2195 105.448 88.2274C106.193 91.2353 108.271 95.3919 108.271 95.3919C108.271 95.3919 106.884 89.1563 112.49 88.5455C118.096 87.9347 125.761 84.0107 125.761 84.0107L131.305 95.0948C131.305 95.0948 131.979 92.475 134.057 93.167C136.134 93.859 134.152 79.0892 128.072 78.4157Z" fill="#2F2E41"/>
<path d="M80.6757 310.295C80.6757 316.443 77.0238 318.589 72.5186 318.589C72.4143 318.589 72.3101 318.588 72.206 318.586C71.9973 318.581 71.7905 318.571 71.5863 318.558C67.5204 318.27 64.3616 316.012 64.3616 310.295C64.3616 304.377 71.9173 296.911 72.4848 296.358L72.4858 296.357C72.5077 296.336 72.5186 296.325 72.5186 296.325C72.5186 296.325 80.6757 304.146 80.6757 310.295Z" fill="#00AA0A"/>
<path d="M72.2215 317.649L75.2049 313.477L72.214 318.107L72.2061 318.586C71.9973 318.581 71.7906 318.572 71.5863 318.558L71.9079 312.406L71.9054 312.359L71.9109 312.35L71.9412 311.769L68.9429 307.127L71.9506 311.333L71.9576 311.456L72.2006 306.809L69.6337 302.013L72.2319 305.993L72.4849 296.358L72.4859 296.325V296.357L72.4436 303.955L74.9992 300.943L72.4332 304.61L72.3656 308.771L74.7517 304.777L72.3557 309.383L72.3179 311.696L75.7819 306.138L72.305 312.503L72.2215 317.649Z" fill="#3F3D56"/>
<path d="M265.984 92.6235C265.984 92.6235 263.392 100.69 259.347 112.279C258.039 116.044 256.574 120.177 254.994 124.527C252.794 130.584 250.371 137.063 247.833 143.543C246.271 147.531 244.668 151.513 243.046 155.404C234.329 176.261 225.046 194.33 218.963 194.583C205.297 195.15 176.023 103.64 172.828 93.5285C172.641 92.9372 172.545 92.6235 172.545 92.6235H265.984Z" fill="#3F3D56"/>
<path opacity="0.1" d="M259.347 112.279C258.039 116.044 256.574 120.177 254.994 124.527L218.794 92.6235H237.042L259.347 112.279Z" fill="black"/>
<path opacity="0.1" d="M247.833 143.543C246.271 147.531 244.668 151.513 243.046 155.404L172.828 93.5285C172.641 92.9372 172.545 92.6235 172.545 92.6235H190.051L247.833 143.543Z" fill="black"/>
<path d="M220.885 11.575C216.601 14.9708 209.828 13.6867 205.711 17.2832C202.895 19.7433 202.144 23.95 202.912 27.611C203.681 31.2719 205.722 34.5204 207.777 37.6457C209.194 39.8027 210.665 41.9767 212.657 43.6172C215.442 45.9107 219.016 46.9784 222.52 47.836C230.149 49.7029 237.94 50.8331 245.785 51.2112C249.284 51.3795 253.246 51.2112 255.603 48.6184C256.976 47.1087 257.528 45.0396 257.93 43.0385C258.559 39.9082 258.909 36.5381 257.609 33.6223C256.54 31.2257 254.483 29.4293 252.4 27.8345C245.868 22.8319 238.174 18.6904 234.187 11.4901C232.603 8.62805 231.625 5.31154 229.223 3.09096C226.093 0.196625 219.126 -0.986869 215.44 0.946597C216.009 2.24604 223.452 9.53931 220.885 11.575Z" fill="#00AA0A"/>
<path d="M184.889 45.3256C183.619 49.7332 182.449 54.3966 183.519 58.8572C184.929 64.7383 190.081 69.1428 195.733 71.2837C201.385 73.4246 207.548 73.6745 213.587 73.9002L245.206 75.0821C249.18 75.2306 253.23 75.3936 256.965 76.7607C260.043 77.8874 263.701 79.7427 266.267 77.7023C267.431 76.7769 267.954 75.2784 268.367 73.8494C269.711 69.1992 270.462 64.0929 268.655 59.6027C266.584 54.4574 261.477 51.0764 256.175 49.4603C250.873 47.8442 245.257 47.6868 239.748 47.0765C234.16 46.4571 228.634 45.3625 223.231 43.8044C218.715 42.5016 214.138 40.7826 210.797 37.4733C208.99 35.6833 207.622 33.5002 205.918 31.611C196.16 20.7886 187.289 36.9967 184.889 45.3256Z" fill="#00AA0A"/>
<path d="M177.941 65.5747C174.866 66.9533 172.198 69.1033 170.197 71.8165C168.196 74.5298 166.928 77.7143 166.518 81.0616C166.107 84.4089 166.567 87.8056 167.853 90.9228C169.14 94.0399 171.208 96.7718 173.859 98.8539C178.674 102.635 184.974 103.95 191.078 104.391C197.039 104.82 203.026 104.525 208.994 104.229L261.806 101.611C264.901 101.458 268.405 101.101 270.294 98.6424C271.705 96.8074 271.788 94.2765 271.451 91.9861C270.24 83.7471 264.023 76.4531 256.085 73.9561C253.091 73.0144 249.939 72.7164 246.815 72.4238L224.176 70.3039C221.127 70.0184 218.061 69.7298 215.106 68.9259C206.153 66.4905 198.154 59.3799 188.936 60.4327C182.683 61.147 177.534 65.5282 172.992 69.8881" fill="#00AA0A"/>
<path opacity="0.1" d="M207.509 29.8789C207.509 29.8789 214.898 43.23 252.799 48.6207Z" fill="black"/>
<path opacity="0.1" d="M186.544 64.8477C186.544 64.8477 200.275 78.7473 256.942 78.7473Z" fill="black"/>
<path d="M218.36 23.2424C220.358 23.2424 221.977 22.7021 221.977 22.0357C221.977 21.3693 220.358 20.8291 218.36 20.8291C216.363 20.8291 214.743 21.3693 214.743 22.0357C214.743 22.7021 216.363 23.2424 218.36 23.2424Z" fill="#3F3D56"/>
<path d="M230.417 31.0856C232.414 31.0856 234.034 30.5454 234.034 29.879C234.034 29.2126 232.414 28.6724 230.417 28.6724C228.419 28.6724 226.8 29.2126 226.8 29.879C226.8 30.5454 228.419 31.0856 230.417 31.0856Z" fill="#3F3D56"/>
<path d="M244.282 39.5319C246.28 39.5319 247.899 38.9917 247.899 38.3253C247.899 37.6589 246.28 37.1187 244.282 37.1187C242.284 37.1187 240.665 37.6589 240.665 38.3253C240.665 38.9917 242.284 39.5319 244.282 39.5319Z" fill="#3F3D56"/>
<path d="M196.055 43.1515C198.053 43.1515 199.672 42.6113 199.672 41.9449C199.672 41.2785 198.053 40.7383 196.055 40.7383C194.058 40.7383 192.438 41.2785 192.438 41.9449C192.438 42.6113 194.058 43.1515 196.055 43.1515Z" fill="#3F3D56"/>
<path d="M226.8 54.6149C228.797 54.6149 230.417 54.0747 230.417 53.4083C230.417 52.7419 228.797 52.2017 226.8 52.2017C224.802 52.2017 223.183 52.7419 223.183 53.4083C223.183 54.0747 224.802 54.6149 226.8 54.6149Z" fill="#3F3D56"/>
<path d="M183.396 78.1437C185.393 78.1437 187.013 77.6035 187.013 76.9371C187.013 76.2707 185.393 75.7305 183.396 75.7305C181.398 75.7305 179.779 76.2707 179.779 76.9371C179.779 77.6035 181.398 78.1437 183.396 78.1437Z" fill="#3F3D56"/>
<path d="M206.303 55.8214C208.301 55.8214 209.92 55.2812 209.92 54.6148C209.92 53.9484 208.301 53.4082 206.303 53.4082C204.306 53.4082 202.686 53.9484 202.686 54.6148C202.686 55.2812 204.306 55.8214 206.303 55.8214Z" fill="#3F3D56"/>
<path d="M192.438 87.1935C194.436 87.1935 196.055 86.6533 196.055 85.9869C196.055 85.3205 194.436 84.7803 192.438 84.7803C190.44 84.7803 188.821 85.3205 188.821 85.9869C188.821 86.6533 190.44 87.1935 192.438 87.1935Z" fill="#3F3D56"/>
<path d="M215.949 81.7638C217.946 81.7638 219.566 81.2236 219.566 80.5572C219.566 79.8908 217.946 79.3506 215.949 79.3506C213.951 79.3506 212.332 79.8908 212.332 80.5572C212.332 81.2236 213.951 81.7638 215.949 81.7638Z" fill="#3F3D56"/>
<path d="M230.115 110.723C232.28 110.723 234.034 107.076 234.034 102.578C234.034 98.0796 232.28 94.4331 230.115 94.4331C227.951 94.4331 226.197 98.0796 226.197 102.578C226.197 107.076 227.951 110.723 230.115 110.723Z" fill="#00AA0A"/>
<path d="M234.938 113.739C237.102 113.739 238.856 110.093 238.856 105.594C238.856 101.096 237.102 97.4497 234.938 97.4497C232.774 97.4497 231.02 101.096 231.02 105.594C231.02 110.093 232.774 113.739 234.938 113.739Z" fill="#00AA0A"/>
<path d="M226.898 184.13C226.931 183.969 227.743 180.117 231.994 174.497C235.894 169.342 243.566 161.671 257.965 154.402C285.243 140.631 291.347 114.76 291.406 114.5L292.135 114.665C292.12 114.731 290.593 121.354 285.679 129.597C279.158 140.52 269.661 149.355 258.301 155.069C231.069 168.816 227.662 184.125 227.63 184.278L226.898 184.13Z" fill="#3F3D56"/>
<path d="M292.801 111.732C295.483 111.732 297.657 109.556 297.657 106.873C297.657 104.189 295.483 102.013 292.801 102.013C290.119 102.013 287.945 104.189 287.945 106.873C287.945 109.556 290.119 111.732 292.801 111.732Z" fill="#00AA0A"/>
<path d="M291.84 135.31C294.522 135.31 296.696 133.134 296.696 130.45C296.696 127.766 294.522 125.591 291.84 125.591C289.159 125.591 286.985 127.766 286.985 130.45C286.985 133.134 289.159 135.31 291.84 135.31Z" fill="#3F3D56"/>
<path d="M276.045 136.964C278.726 136.964 280.9 134.788 280.9 132.105C280.9 129.421 278.726 127.245 276.045 127.245C273.363 127.245 271.189 129.421 271.189 132.105C271.189 134.788 273.363 136.964 276.045 136.964Z" fill="#00AA0A"/>
<path d="M278.5 153.006C281.182 153.006 283.355 150.831 283.355 148.147C283.355 145.463 281.182 143.288 278.5 143.288C275.818 143.288 273.644 145.463 273.644 148.147C273.644 150.831 275.818 153.006 278.5 153.006Z" fill="#00AA0A"/>
<path d="M255.783 153.336C258.464 153.336 260.638 151.16 260.638 148.476C260.638 145.792 258.464 143.617 255.783 143.617C253.101 143.617 250.927 145.792 250.927 148.476C250.927 151.16 253.101 153.336 255.783 153.336Z" fill="#3F3D56"/>
<path d="M228.928 186.257C228.928 186.257 233.494 174.182 250.27 177.516L228.928 186.257Z" fill="#3F3D56"/>
<path d="M224.696 182.034C224.696 182.034 231.718 171.203 219.102 159.645L224.696 182.034Z" fill="#3F3D56"/>
<path d="M339.653 187.784L331.615 184.609L323.576 181.435L330.342 176.056L337.108 170.676L338.381 179.23L339.653 187.784Z" fill="#F2F2F2"/>
<path d="M16.0764 132.969L8.03842 129.794L0 126.62L6.76603 121.24L13.5321 115.86L14.8044 124.414L16.0764 132.969Z" fill="#F2F2F2"/>
<path d="M299.627 234.588L291.589 231.413L283.55 228.239L290.316 222.859L297.082 217.479L298.355 226.034L299.627 234.588Z" fill="#F2F2F2"/>
<path d="M343 264.423L335.408 268.553L327.817 272.685L328.037 264.04L328.258 255.394L335.629 259.908L343 264.423Z" fill="#F2F2F2"/>
<path d="M56.9215 99.1335L49.3297 103.264L41.7383 107.396L41.9591 98.7506L42.1798 90.105L49.5509 94.6192L56.9215 99.1335Z" fill="#F2F2F2"/>
</g>
<defs>
<clipPath id="clip0_357_405">
<rect width="343" height="331" fill="white"/>
</clipPath>
</defs>
</svg>
