<svg width="229" height="182" viewBox="0 0 229 182" fill="none" xmlns="http://www.w3.org/2000/svg">
<g clip-path="url(#clip0_248_293)">
<path d="M189.056 162.747C189.074 162.718 189.093 162.69 189.113 162.662C189.164 162.543 189.228 162.43 189.305 162.324L195.63 153.518L200.841 146.265H209.73L209.102 147.138L207.983 148.697L204.517 153.52L197.088 163.861L203.974 177.626C204.255 178.186 203.775 178.992 202.908 179.422L199.587 181.068C199.257 181.236 198.893 181.326 198.523 181.333C198.056 181.333 197.666 181.161 197.503 180.833L188.943 163.72C188.875 163.562 188.85 163.39 188.87 163.219C188.89 163.048 188.954 162.886 189.056 162.747Z" fill="#35CD00"/>
<path d="M201.018 162.22L192.063 158.909C191.657 158.758 191.328 158.453 191.147 158.061C190.967 157.669 190.95 157.222 191.1 156.818L193.727 149.782C193.878 149.378 194.185 149.051 194.579 148.871C194.972 148.692 195.422 148.675 195.828 148.824L204.783 152.135C205.189 152.286 205.518 152.591 205.699 152.983C205.879 153.375 205.896 153.822 205.745 154.226L203.119 161.262C203.044 161.462 202.93 161.646 202.784 161.802C202.638 161.959 202.463 162.085 202.268 162.174C202.073 162.263 201.862 162.313 201.647 162.321C201.433 162.329 201.219 162.294 201.018 162.22Z" fill="#004413"/>
<path d="M193.403 158.309C193.343 158.309 193.283 158.298 193.226 158.277C193.101 158.23 193.001 158.135 192.946 158.014C192.891 157.893 192.886 157.756 192.933 157.632L196.221 148.972C196.268 148.848 196.363 148.748 196.485 148.693C196.606 148.639 196.745 148.634 196.869 148.681C196.994 148.728 197.095 148.822 197.15 148.943C197.205 149.064 197.209 149.202 197.162 149.326L193.874 157.985C193.838 158.081 193.773 158.162 193.689 158.22C193.605 158.278 193.505 158.309 193.403 158.309Z" fill="white"/>
<path d="M207.852 180.045V148.769C207.852 148.74 207.854 148.711 207.858 148.682C207.873 148.32 207.995 147.969 208.207 147.674C208.42 147.379 208.715 147.152 209.056 147.022C209.273 146.936 209.504 146.893 209.738 146.893H213.449C213.948 146.894 214.428 147.091 214.781 147.443C215.135 147.795 215.333 148.272 215.334 148.769V180.045C215.334 180.542 215.135 181.019 214.781 181.371C214.428 181.723 213.948 181.921 213.449 181.921H209.738C209.238 181.921 208.759 181.723 208.405 181.371C208.052 181.019 207.853 180.542 207.852 180.045Z" fill="#35CD00"/>
<path d="M205.839 160.526V153.02C205.839 152.589 206.012 152.176 206.318 151.871C206.624 151.566 207.04 151.395 207.473 151.394H217.026C217.459 151.395 217.875 151.566 218.181 151.871C218.487 152.176 218.66 152.589 218.66 153.02V160.526C218.66 160.957 218.487 161.37 218.181 161.675C217.875 161.98 217.459 162.151 217.026 162.152H207.473C207.04 162.151 206.624 161.98 206.318 161.675C206.012 161.37 205.839 160.957 205.839 160.526Z" fill="#004413"/>
<path d="M213.148 161.36C213.015 161.36 212.887 161.307 212.793 161.213C212.699 161.12 212.646 160.992 212.646 160.86V151.603C212.646 151.47 212.698 151.343 212.793 151.249C212.887 151.155 213.015 151.103 213.148 151.103C213.282 151.103 213.41 151.155 213.504 151.249C213.598 151.343 213.651 151.47 213.651 151.603V160.86C213.651 160.992 213.598 161.12 213.504 161.213C213.409 161.307 213.282 161.36 213.148 161.36Z" fill="white"/>
<path d="M195.969 124.981L168.482 110.878C168.039 110.649 167.704 110.254 167.552 109.781C167.4 109.307 167.443 108.793 167.671 108.35L169.371 105.067C169.601 104.626 169.997 104.293 170.473 104.142C170.949 103.991 171.466 104.034 171.91 104.261L199.398 118.364C199.536 118.434 199.665 118.522 199.78 118.626C200.096 118.901 200.31 119.274 200.387 119.685C200.465 120.095 200.402 120.52 200.209 120.891L198.509 124.174C198.396 124.393 198.24 124.588 198.051 124.747C197.862 124.906 197.643 125.027 197.407 125.102C197.22 125.16 197.025 125.189 196.829 125.19C196.53 125.189 196.235 125.118 195.969 124.981Z" fill="#35CD00"/>
<path d="M196.504 125.792L183.14 120.541C182.694 120.318 182.355 119.928 182.197 119.456C182.039 118.984 182.076 118.47 182.298 118.025L185.346 111.774C185.571 111.331 185.963 110.993 186.437 110.836C186.675 110.758 186.927 110.727 187.177 110.747C187.427 110.767 187.671 110.836 187.894 110.95L199.962 118.231C200.009 118.254 200.052 118.284 200.091 118.32C200.398 118.595 200.551 119.256 200.674 119.787L200.694 119.87C200.727 120.012 200.756 120.135 200.786 120.221L200.796 120.254C200.807 120.289 200.818 120.326 200.825 120.359C200.933 120.792 200.881 121.25 200.68 121.648L199.015 124.948C198.857 125.259 198.615 125.521 198.316 125.704C198.018 125.887 197.675 125.984 197.324 125.986C197.039 125.986 196.758 125.92 196.504 125.792Z" fill="#004413"/>
<path d="M206.361 108.662C213.792 108.662 219.816 102.667 219.816 95.2724C219.816 87.8776 213.792 81.8828 206.361 81.8828C198.931 81.8828 192.907 87.8776 192.907 95.2724C192.907 102.667 198.931 108.662 206.361 108.662Z" fill="#35CD00"/>
<path d="M207.147 102.487L207.161 101.986C206.225 101.96 205.401 101.902 204.781 101.452C204.605 101.317 204.461 101.145 204.358 100.95C204.254 100.755 204.195 100.539 204.182 100.319C204.171 100.184 204.192 100.048 204.242 99.9228C204.292 99.7972 204.371 99.6849 204.472 99.5945C204.884 99.2488 205.545 99.3606 206.028 99.5808L206.444 99.7706L205.646 93.9688L205.148 94.0367L205.826 98.9719C205.171 98.7802 204.564 98.8627 204.148 99.2124C203.988 99.3511 203.863 99.5248 203.781 99.7197C203.7 99.9147 203.666 100.126 203.68 100.336C203.695 100.633 203.774 100.922 203.913 101.185C204.052 101.447 204.247 101.676 204.484 101.856C205.281 102.435 206.315 102.464 207.147 102.487Z" fill="#004413"/>
<path d="M202.684 94.4624H199.977V94.9628H202.684V94.4624Z" fill="#004413"/>
<path d="M211.232 94.4624H208.524V94.9628H211.232V94.4624Z" fill="#004413"/>
<path d="M194.096 153.639C193.208 153.588 192.515 152.134 192.515 150.311V126.876C192.515 125.735 192.659 124.598 192.944 123.492L192.944 123.492C193.047 123.095 193.17 122.699 193.309 122.318C194.153 119.971 195.635 117.903 197.589 116.344C197.81 116.164 198.041 115.991 198.275 115.828C199.413 115.029 200.669 114.41 201.998 113.993C201.961 113.828 201.943 113.66 201.942 113.491C201.943 112.861 202.195 112.257 202.643 111.811C203.09 111.366 203.697 111.115 204.33 111.114H207.85C208.483 111.115 209.09 111.366 209.538 111.811C209.986 112.257 210.238 112.861 210.238 113.491C210.238 113.66 210.219 113.827 210.183 113.992C212.933 114.859 215.335 116.575 217.04 118.891C218.745 121.208 219.665 124.004 219.666 126.876V150.311C219.666 152.181 218.948 153.646 218.032 153.646H194.149C194.131 153.646 194.114 153.644 194.096 153.639Z" fill="#004413"/>
<path d="M209.644 155.779C209.487 155.506 209.402 155.198 209.396 154.884L208.867 124.113C208.863 123.867 208.907 123.622 208.998 123.392C209.089 123.163 209.224 122.954 209.396 122.777L209.397 122.776C209.569 122.599 209.774 122.457 210.001 122.359C210.228 122.26 210.473 122.208 210.72 122.203L214.431 122.141C214.898 122.133 215.352 122.298 215.704 122.604C216.056 122.91 216.281 123.336 216.336 123.798C216.344 123.859 216.348 123.921 216.348 123.983L216.879 154.757C216.886 155.254 216.695 155.734 216.347 156.091C216 156.449 215.524 156.655 215.024 156.664L211.315 156.728C210.977 156.733 210.643 156.647 210.349 156.48C210.055 156.313 209.811 156.071 209.644 155.779Z" fill="#35CD00"/>
<path d="M208.084 134.648C207.944 134.402 207.861 134.128 207.842 133.845L208 119.589C207.962 119.093 208.122 118.602 208.447 118.224C208.772 117.846 209.234 117.611 209.733 117.572L213.431 117.283C213.882 117.249 214.329 117.376 214.694 117.641C214.732 117.669 214.77 117.704 214.807 117.729C214.899 117.806 214.996 117.877 215.096 117.944L215.176 118.001C215.707 118.375 216.31 118.8 216.339 119.214L218.565 133.123C218.598 133.52 218.501 133.917 218.289 134.255C218.239 134.338 218.182 134.417 218.119 134.49C218.063 134.555 218.003 134.616 217.938 134.671C217.631 134.946 217.241 135.112 216.829 135.143L209.868 135.59C209.512 135.617 209.155 135.543 208.839 135.376C208.523 135.209 208.261 134.957 208.084 134.648Z" fill="#004413"/>
<path d="M195.048 150.352C194.914 150.351 194.787 150.299 194.692 150.205C194.598 150.111 194.545 149.984 194.545 149.851V125.583C194.545 125.451 194.598 125.323 194.692 125.23C194.786 125.136 194.914 125.083 195.048 125.083C195.181 125.083 195.309 125.136 195.403 125.23C195.498 125.323 195.551 125.451 195.551 125.583V149.851C195.55 149.984 195.497 150.111 195.403 150.205C195.309 150.299 195.181 150.351 195.048 150.352Z" fill="white"/>
<path d="M218.564 92.0917L195.19 83.5823C195.066 83.5371 194.952 83.4681 194.855 83.3792C194.758 83.2902 194.679 83.1831 194.624 83.0639C194.568 82.9447 194.537 82.8158 194.531 82.6845C194.526 82.5532 194.546 82.4221 194.591 82.2987L194.671 81.9266C196.496 76.9609 202.546 73.8358 207.536 75.6524L214.728 78.2709C219.718 80.0875 221.887 85.9675 220.061 90.9332L219.853 91.4957C219.762 91.7449 219.574 91.9478 219.333 92.0595C219.091 92.1713 218.814 92.1829 218.564 92.0917Z" fill="#004413"/>
<path d="M219.823 92.5639C187.245 93.7601 184.398 89.6865 194.325 83.2809L196.43 79.4248L220.564 88.1812L219.823 92.5639Z" fill="#004413"/>
<path d="M213.435 77.6603C213.615 77.0649 212.844 76.3081 211.714 75.97C210.584 75.6319 209.522 75.8405 209.342 76.436C209.162 77.0314 209.933 77.7882 211.063 78.1263C212.193 78.4644 213.255 78.2558 213.435 77.6603Z" fill="#004413"/>
<path d="M71.2923 0C47.9336 0 28.9329 18.9091 28.9329 42.1552C28.9262 48.1056 30.1923 53.9893 32.647 59.4152C39.2855 74.0785 54.1079 84.3104 71.2923 84.3104C82.5248 84.3042 93.2954 79.8609 101.238 71.9566C109.181 64.0523 113.645 53.3336 113.652 42.1552C113.652 18.9092 94.6476 0 71.2923 0ZM106.339 59.1016C103.14 65.6439 98.1584 71.1599 91.9618 75.0208C85.7652 78.8817 78.6031 80.9321 71.2923 80.938C54.7789 80.938 40.6309 70.6622 34.9683 56.1979C33.2133 51.7224 32.3156 46.9595 32.3216 42.1552C32.3216 20.7707 49.8042 3.37242 71.2923 3.37242C92.7804 3.37242 110.263 20.7707 110.263 42.1552C110.27 48.0279 108.928 53.8244 106.339 59.1016Z" fill="#D7D7D7"/>
<path d="M71.2922 84.4355C63.2686 84.429 55.4104 82.1642 48.625 77.9026C41.8396 73.641 36.4038 67.5563 32.9452 60.3513C32.8071 60.064 32.7472 59.7457 32.7713 59.4281C32.7955 59.1106 32.9029 58.8049 33.0828 58.5416L33.1055 58.5085C33.2852 58.2494 33.5302 58.042 33.8159 57.9069C34.1017 57.7719 34.418 57.714 34.7333 57.7391C35.0486 57.7642 35.3517 57.8714 35.6123 58.0499C35.8728 58.2285 36.0815 58.472 36.2175 58.7562C42.6441 72.1551 56.4117 80.8129 71.2922 80.8129C78.0924 80.7957 84.7699 79.0094 90.6622 75.6312C96.5546 72.2531 101.457 67.4005 104.883 61.5548C105.043 61.2802 105.272 61.0526 105.548 60.8949C105.825 60.7372 106.138 60.6552 106.457 60.6571C106.772 60.6563 107.082 60.7392 107.354 60.8971C107.626 61.0551 107.851 61.2825 108.006 61.5559L108.026 61.5905C108.182 61.8663 108.264 62.1782 108.262 62.4951C108.261 62.812 108.176 63.123 108.016 63.3972C104.268 69.7845 98.907 75.0861 92.4654 78.7764C86.0238 82.4666 78.7249 84.4174 71.2922 84.4355Z" fill="#35CD00"/>
<path d="M61.7446 46.0108C62.896 46.0034 64.0143 46.3939 64.9085 47.1156C65.8028 47.8374 66.4176 48.8457 66.648 49.9683C66.8785 51.091 66.7102 52.2584 66.172 53.2714C65.6337 54.2843 64.7589 55.0799 63.6969 55.5224C62.6348 55.9649 61.4513 56.0268 60.3485 55.6976C59.2456 55.3684 58.2918 54.6685 57.6498 53.7173C57.0078 52.7661 56.7174 51.6227 56.8283 50.4822C56.9391 49.3417 57.4443 48.2748 58.2575 47.4637C58.7134 47.004 59.2563 46.639 59.8548 46.3896C60.4534 46.1402 61.0957 46.0115 61.7446 46.0108ZM61.7446 43.9031C60.3481 43.9023 58.9826 44.3137 57.821 45.0853C56.6594 45.8568 55.7538 46.9538 55.2186 48.2375C54.6835 49.5213 54.5429 50.9341 54.8146 52.2974C55.0864 53.6607 55.7582 54.9132 56.7452 55.8964C57.7322 56.8797 58.99 57.5497 60.3596 57.8216C61.7292 58.0934 63.149 57.955 64.4395 57.4238C65.7301 56.8927 66.8334 55.9926 67.6099 54.8374C68.3864 53.6822 68.8013 52.3238 68.802 50.934C68.803 49.0702 68.06 47.2825 66.7365 45.9639C65.413 44.6454 63.6174 43.9041 61.7446 43.9031ZM76.457 33.8536C77.0957 33.8568 77.7095 33.6074 78.1635 33.1602C78.6174 32.713 78.8743 32.1047 78.8775 31.469C78.8776 31.4609 78.8776 31.4528 78.8775 31.4447C78.8805 31.1333 78.8218 30.8244 78.7048 30.5356C78.5879 30.2467 78.4149 29.9837 78.1957 29.7614C77.9766 29.5391 77.7156 29.3619 77.4276 29.24C77.1397 29.1181 76.8304 29.0539 76.5175 29.0509C76.5024 29.0507 76.4873 29.0507 76.4721 29.0509C75.8322 29.0449 75.216 29.2921 74.7592 29.7382C74.3025 30.1843 74.0425 30.7927 74.0364 31.4295C74.0304 32.0664 74.2788 32.6796 74.7271 33.1341C75.1753 33.5887 75.7867 33.8475 76.4266 33.8535C76.4367 33.8536 76.4469 33.8536 76.457 33.8536ZM81.5174 46.0108C82.6688 46.0034 83.787 46.3939 84.6813 47.1156C85.5756 47.8374 86.1904 48.8456 86.4208 49.9683C86.6512 51.091 86.483 52.2584 85.9447 53.2714C85.4065 54.2843 84.5317 55.0799 83.4696 55.5224C82.4076 55.9649 81.2241 56.0268 80.1213 55.6976C79.0184 55.3684 78.0646 54.6685 77.4226 53.7173C76.7806 52.7661 76.4902 51.6227 76.601 50.4822C76.7119 49.3417 77.217 48.2748 78.0303 47.4637C78.4861 47.004 79.029 46.639 79.6276 46.3896C80.2262 46.1402 80.8685 46.0114 81.5174 46.0108ZM81.5174 43.9031C80.1216 43.9031 78.7571 44.315 77.5965 45.0867C76.436 45.8585 75.5314 46.9554 74.9972 48.2387C74.4631 49.5221 74.3233 50.9342 74.5956 52.2966C74.8679 53.659 75.5401 54.9105 76.5271 55.8927C77.5141 56.8749 78.7716 57.5438 80.1406 57.8148C81.5096 58.0858 82.9286 57.9468 84.2182 57.4152C85.5077 56.8836 86.6099 55.9834 87.3854 54.8284C88.1609 53.6734 88.5748 52.3155 88.5748 50.9264C88.5748 50.0041 88.3922 49.0908 88.0376 48.2387C87.6829 47.3866 87.1631 46.6123 86.5077 45.9602C85.8524 45.308 85.0744 44.7907 84.2182 44.4377C83.3619 44.0847 82.4442 43.9031 81.5174 43.9031Z" fill="#D7D7D7"/>
<path d="M80.1029 38.6864H76.4721L74.2406 34.1623C74.0606 33.845 73.809 33.5737 73.5058 33.3696C73.2025 33.1654 72.8557 33.0341 72.4928 32.986C72.1299 32.9378 71.7607 32.9741 71.4143 33.092C71.0679 33.2099 70.7537 33.4062 70.4964 33.6654L65.0729 38.8671C64.6289 39.318 64.3769 39.922 64.3694 40.5533C64.3694 41.8631 65.3225 42.3298 65.7687 42.5933C69.2104 44.5656 70.4207 44.7839 70.4207 45.77V50.7308C70.4207 51.0502 70.5482 51.3565 70.7752 51.5824C71.0022 51.8083 71.31 51.9352 71.631 51.9352C71.952 51.9352 72.2598 51.8083 72.4868 51.5824C72.7138 51.3565 72.8413 51.0502 72.8413 50.7308V43.9558C72.8413 42.9622 70.5417 42.1492 69.1878 41.0953L72.8866 37.2185C74.3011 39.3639 74.9517 41.0953 75.761 41.0953H80.1029C80.4238 41.0958 80.7319 40.9694 80.9592 40.7439C81.1866 40.5184 81.3146 40.2122 81.3151 39.8928C81.3156 39.5734 81.1886 39.2668 80.962 39.0406C80.7354 38.8143 80.4278 38.6869 80.1068 38.6864L80.1029 38.6864Z" fill="#D7D7D7"/>
<path d="M37.2206 107.042C36.178 107.042 35.3148 110.063 35.1475 114.024H15.0903C14.923 110.063 14.0598 107.042 13.0172 107.042C11.8549 107.042 10.9126 110.793 10.9126 115.42C10.9126 120.047 11.8549 123.798 13.0172 123.798C14.0598 123.798 14.923 120.778 15.0903 116.817H35.1475C35.3148 120.778 36.178 123.798 37.2206 123.798C38.3829 123.798 39.3252 120.047 39.3252 115.42C39.3252 110.793 38.3829 107.042 37.2206 107.042Z" fill="#D7D7D7"/>
<path d="M46.9905 103.051C44.0177 97.7489 39.2047 93.7066 33.4527 91.6813C27.7007 89.6561 21.4042 89.7868 15.7421 92.049C10.0799 94.3112 5.44051 98.5497 2.69249 103.971C-0.0555277 109.392 -0.723698 115.624 0.81309 121.501C2.34988 127.377 5.98624 132.494 11.0413 135.894C16.0963 139.294 22.2234 140.744 28.2753 139.972C34.3272 139.2 39.8889 136.26 43.9189 131.701C47.949 127.142 50.1711 121.278 50.1692 115.206C50.1678 110.951 49.0737 106.767 46.9905 103.051ZM25.0789 138.175C18.9977 138.144 13.1771 135.714 8.89364 131.419C4.61014 127.123 2.21344 121.312 2.22918 115.26C2.24491 109.208 4.6718 103.409 8.97757 99.1356C13.2833 94.8619 19.1165 92.4622 25.1977 92.4625C31.2789 92.4629 37.1118 94.8635 41.417 99.1377C45.7222 103.412 48.1483 109.211 48.1633 115.263C48.1782 121.315 45.7808 127.125 41.4967 131.421C37.2126 135.716 31.3917 138.145 25.3106 138.175C25.2333 138.175 25.1561 138.175 25.0789 138.175Z" fill="#D7D7D7"/>
<path d="M25.0911 140.3C20.3104 140.302 15.628 138.949 11.592 136.399C11.3904 136.271 11.2348 136.083 11.1477 135.861L11.1351 135.829C11.0475 135.609 11.0331 135.367 11.094 135.139C11.1549 134.911 11.288 134.708 11.4735 134.561C11.6528 134.411 11.8759 134.322 12.1097 134.308C12.3436 134.294 12.5758 134.355 12.7722 134.482C17.0621 137.199 22.1376 138.421 27.2013 137.956C32.2651 137.491 37.0301 135.365 40.7478 131.913C44.4656 128.46 46.9254 123.876 47.7408 118.88C48.5562 113.885 47.681 108.762 45.2528 104.315C45.1389 104.111 45.0939 103.877 45.1243 103.645C45.1548 103.414 45.2591 103.199 45.4218 103.031C45.5826 102.857 45.7953 102.739 46.0286 102.694C46.2618 102.65 46.5034 102.681 46.7175 102.783L46.749 102.798C46.9638 102.898 47.1412 103.063 47.2555 103.27C49.334 107.09 50.3801 111.382 50.2912 115.725C50.2023 120.068 48.9816 124.314 46.7485 128.047C44.5155 131.78 41.3466 134.871 37.5523 137.019C33.7579 139.167 29.4681 140.297 25.1029 140.3H25.0911Z" fill="#35CD00"/>
<path d="M117.494 90.2402C114.198 90.2388 110.935 90.8834 107.89 92.1373C104.845 93.3912 102.078 95.2298 99.7467 97.5481C97.4157 99.8664 95.5665 102.619 94.3046 105.649C93.0427 108.678 92.3929 111.926 92.3923 115.205C92.3917 118.485 93.0403 121.732 94.3011 124.762C95.5619 127.792 97.4101 130.546 99.7402 132.865C102.07 135.184 104.837 137.023 107.881 138.278C110.926 139.533 114.189 140.179 117.485 140.179H117.494C117.656 140.179 117.816 140.179 117.978 140.172C124.589 140.046 130.883 137.327 135.491 132.607C140.098 127.887 142.647 121.548 142.583 114.967C142.52 108.387 139.848 102.098 135.15 97.4677C130.451 92.8372 124.106 90.2398 117.494 90.2402ZM122.607 137.609C119.44 138.325 116.157 138.368 112.973 137.734C109.788 137.101 106.773 135.806 104.126 133.934C101.479 132.062 99.258 129.655 97.6092 126.871C95.9603 124.086 94.9205 120.987 94.5576 117.775C94.1946 114.564 94.5168 111.312 95.503 108.232C96.4892 105.153 98.1172 102.315 100.281 99.9051C102.444 97.4947 105.094 95.5658 108.058 94.2444C111.022 92.923 114.233 92.2389 117.48 92.2367H117.494C123.17 92.2363 128.648 94.3177 132.88 98.0831C137.112 101.848 139.801 107.034 140.434 112.648C141.067 118.262 139.599 123.911 136.31 128.516C133.021 133.121 128.143 136.358 122.607 137.609Z" fill="#D7D7D7"/>
<path d="M117.494 140.304C111.271 140.304 105.268 138.014 100.639 133.875C96.0105 129.735 93.0835 124.039 92.421 117.881C91.7584 111.723 93.4073 105.539 97.0503 100.519C100.693 95.4978 106.073 91.9949 112.155 90.6837C112.305 90.6518 112.459 90.6498 112.61 90.6778L112.662 90.6877C112.914 90.7364 113.142 90.8702 113.307 91.0666C113.471 91.263 113.563 91.5099 113.566 91.7657C113.569 92.0215 113.483 92.2704 113.323 92.4706C113.163 92.6707 112.938 92.8098 112.687 92.8644C107.143 94.0472 102.235 97.2298 98.9083 101.799C95.5814 106.368 94.0712 112.001 94.6684 117.612C95.2656 123.224 97.9282 128.416 102.143 132.191C106.358 135.965 111.827 138.054 117.497 138.054C117.719 138.052 117.935 138.051 118.153 138.045C118.398 138.035 118.637 138.111 118.831 138.259C119.025 138.407 119.16 138.619 119.212 138.856C119.27 139.086 119.245 139.328 119.14 139.54C119.035 139.753 118.859 139.921 118.641 140.017C118.493 140.084 118.345 140.15 118.196 140.215C118.071 140.27 117.935 140.3 117.798 140.303C117.697 140.304 117.596 140.304 117.494 140.304Z" fill="#35CD00"/>
<path d="M129.871 114.148C129.203 114.115 128.542 114.3 127.989 114.676C127.436 115.051 127.022 115.597 126.81 116.228H124.339L122.535 110.83C122.468 110.627 122.339 110.451 122.165 110.326C121.992 110.202 121.783 110.134 121.569 110.134H121.55C121.333 110.138 121.123 110.211 120.951 110.343C120.78 110.475 120.655 110.659 120.598 110.868L117.771 120.685L114.449 100.829C114.41 100.599 114.293 100.39 114.118 100.236C113.943 100.081 113.719 99.992 113.485 99.9823C113.251 99.9727 113.021 100.043 112.833 100.183C112.646 100.322 112.512 100.521 112.454 100.747L109.088 116.228H105.315C105.045 116.228 104.787 116.335 104.596 116.524C104.405 116.714 104.298 116.971 104.298 117.24C104.298 117.508 104.405 117.765 104.596 117.955C104.787 118.144 105.045 118.251 105.315 118.251H109.888C110.114 118.251 110.334 118.176 110.513 118.038C110.691 117.899 110.818 117.705 110.873 117.486L113.248 105.969L116.507 125.432C116.544 125.659 116.658 125.866 116.831 126.019C117.003 126.172 117.223 126.262 117.453 126.273H117.51C117.731 126.273 117.946 126.201 118.123 126.069C118.299 125.936 118.427 125.751 118.489 125.54L121.646 114.566L122.643 117.556C122.711 117.757 122.841 117.933 123.014 118.057C123.187 118.182 123.395 118.25 123.608 118.251H126.854C127.048 118.762 127.378 119.212 127.807 119.553C128.237 119.894 128.751 120.112 129.296 120.186C129.84 120.26 130.394 120.186 130.9 119.972C131.406 119.758 131.844 119.413 132.168 118.971C132.493 118.53 132.691 118.01 132.743 117.466C132.795 116.921 132.698 116.373 132.463 115.879C132.228 115.385 131.863 114.964 131.407 114.659C130.95 114.354 130.42 114.178 129.871 114.148Z" fill="#D7D7D7"/>
<path d="M228.749 182H182.743C182.677 182 182.613 181.974 182.566 181.927C182.518 181.88 182.492 181.816 182.492 181.75C182.492 181.683 182.518 181.62 182.566 181.573C182.613 181.526 182.677 181.5 182.743 181.5H228.749C228.815 181.5 228.879 181.526 228.927 181.573C228.974 181.62 229 181.683 229 181.75C229 181.816 228.974 181.88 228.927 181.927C228.879 181.974 228.815 182 228.749 182Z" fill="#3F3D56"/>
</g>
<defs>
<clipPath id="clip0_248_293">
<rect width="229" height="182" fill="white"/>
</clipPath>
</defs>
</svg>
