<svg width="311" height="225" viewBox="0 0 311 225" fill="none" xmlns="http://www.w3.org/2000/svg">
<g clip-path="url(#clip0_204_195)">
<path opacity="0.1" d="M180.633 40.4804C160.702 39.7877 141.705 33.353 123.591 26.3145C105.478 19.2759 87.5256 11.4759 68.0615 7.74628C55.5472 5.34475 41.2354 5.00699 31.1541 11.7164C21.4507 18.171 18.3164 29.3142 16.6304 39.6531C15.3624 47.433 14.6268 55.6194 18.0931 62.9042C20.5061 67.9591 24.7882 72.2097 27.7507 77.0529C38.0553 93.9036 30.7705 114.684 19.6016 131.152C14.3634 138.88 8.28662 146.233 4.24495 154.451C0.203286 162.669 -1.6687 172.084 1.86919 180.465C5.37559 188.765 13.728 195.011 22.7788 199.399C41.1609 208.304 62.8205 210.852 83.9419 212.311C130.696 215.509 177.702 214.123 224.579 212.738C241.928 212.223 259.354 211.704 276.419 209.017C285.896 207.525 295.683 205.161 302.564 199.454C311.297 192.206 313.464 179.938 307.61 170.85C297.793 155.611 270.649 151.824 263.785 135.468C260.009 126.466 263.888 116.436 269.378 108.087C281.151 90.1768 300.89 74.4624 301.929 53.9879C302.644 39.9251 293.155 25.845 278.483 19.19C263.106 12.2087 241.782 13.0903 230.438 24.6285C218.757 36.516 198.228 41.09 180.633 40.4804Z" fill="#3CDF03"/>
<path d="M69.3409 208.505C69.3409 208.505 53.5979 196.603 50.6239 181.464C49.4178 175.105 46.1829 169.309 41.4042 164.945C39.1181 162.892 36.6491 161.052 34.0278 159.449" stroke="#535461" stroke-width="0.572474" stroke-miterlimit="10"/>
<path d="M32.1017 149.911C33.4813 151.778 34.1053 159.686 34.1053 159.686C34.1053 159.686 26.729 156.781 25.3465 154.918C24.6826 154.022 24.4018 152.899 24.5658 151.796C24.7298 150.693 25.3251 149.701 26.2209 149.037C27.1167 148.373 28.2395 148.092 29.3424 148.256C30.4453 148.42 31.4378 149.016 32.1017 149.911Z" fill="#3CDF03"/>
<path d="M45.3317 156.117C45.4748 158.433 41.7051 165.411 41.7051 165.411C41.7051 165.411 37.0881 158.96 36.9421 156.644C36.8866 155.54 37.2683 154.459 38.0045 153.634C38.7407 152.81 39.7722 152.309 40.8754 152.239C41.9786 152.17 43.0646 152.538 43.8982 153.264C44.7318 153.99 45.2458 155.015 45.3288 156.117H45.3317Z" fill="#3CDF03"/>
<path d="M58.155 173.955C57.1131 176.028 50.3321 180.15 50.3321 180.15C50.3321 180.15 49.6079 172.249 50.6498 170.177C51.1627 169.203 52.0377 168.468 53.0865 168.132C54.1353 167.796 55.2741 167.886 56.2578 168.381C57.2414 168.876 57.9914 169.738 58.3462 170.78C58.701 171.823 58.6323 172.963 58.155 173.955Z" fill="#3CDF03"/>
<path d="M64.8213 189.63C64.1429 191.848 58.1577 197.055 58.1577 197.055C58.1577 197.055 56.1054 189.392 56.7837 187.171C57.1098 186.105 57.8459 185.212 58.8301 184.689C59.8143 184.166 60.9661 184.056 62.0319 184.382C63.0977 184.708 63.9904 185.444 64.5135 186.428C65.0366 187.412 65.1473 188.564 64.8213 189.63Z" fill="#3CDF03"/>
<path d="M34.8811 171.022C37.171 171.331 44.41 168.062 44.41 168.062C44.41 168.062 38.3017 163.001 36.0003 162.692C34.8958 162.544 33.7775 162.84 32.8915 163.516C32.0055 164.192 31.4244 165.193 31.276 166.297C31.1276 167.402 31.424 168.52 32.1001 169.406C32.7762 170.292 33.7766 170.873 34.8811 171.022Z" fill="#3CDF03"/>
<path d="M42.9099 189.258C45.1998 188.865 51.1163 183.584 51.1163 183.584C51.1163 183.584 43.7714 180.585 41.4844 180.977C40.9368 181.067 40.4125 181.264 39.9416 181.557C39.4707 181.851 39.0626 182.235 38.7408 182.687C38.419 183.139 38.19 183.65 38.0669 184.191C37.9438 184.732 37.929 185.292 38.0235 185.839C38.118 186.386 38.3199 186.908 38.6175 187.377C38.915 187.845 39.3024 188.25 39.7572 188.568C40.212 188.886 40.7253 189.11 41.2674 189.229C41.8095 189.347 42.3697 189.357 42.9156 189.258H42.9099Z" fill="#3CDF03"/>
<path d="M53.1431 205.914C55.4644 205.914 62.191 201.709 62.191 201.709C62.191 201.709 55.4616 197.51 53.1402 197.51C52.0258 197.51 50.957 197.952 50.169 198.74C49.3809 199.529 48.9382 200.597 48.9382 201.712C48.9382 202.826 49.3809 203.895 50.169 204.683C50.957 205.471 52.0258 205.914 53.1402 205.914H53.1431Z" fill="#3CDF03"/>
<path d="M222.278 105.565C222.278 105.565 231.981 88.3764 246.608 83.4245C252.75 81.3847 258.065 77.4086 261.755 72.0924C263.486 69.5508 264.98 66.8555 266.218 64.0405" stroke="#535461" stroke-width="0.572474" stroke-miterlimit="10"/>
<path d="M275.4 60.8917C273.734 62.506 265.98 64.1777 265.98 64.1777C265.98 64.1777 267.884 56.4779 269.55 54.8606C270.354 54.1078 271.421 53.7008 272.522 53.7273C273.624 53.7538 274.67 54.2116 275.437 55.0022C276.204 55.7929 276.63 56.853 276.623 57.9545C276.616 59.056 276.177 60.1108 275.4 60.8917Z" fill="#3CDF03"/>
<path d="M271.015 74.8118C268.725 75.264 261.32 72.4532 261.32 72.4532C261.32 72.4532 267.102 67.0147 269.378 66.571C269.924 66.4497 270.489 66.4389 271.04 66.539C271.591 66.6391 272.116 66.8483 272.585 67.1541C273.053 67.4599 273.456 67.8563 273.77 68.32C274.083 68.7837 274.301 69.3054 274.41 69.8543C274.519 70.4033 274.517 70.9685 274.405 71.5168C274.292 72.065 274.072 72.5854 273.755 73.0472C273.439 73.5089 273.034 73.9029 272.563 74.2059C272.093 74.509 271.566 74.7149 271.015 74.8118Z" fill="#3CDF03"/>
<path d="M255.055 89.89C252.862 89.1315 247.879 82.9602 247.879 82.9602C247.879 82.9602 255.607 81.1913 257.805 81.9498C258.334 82.125 258.822 82.4034 259.241 82.7688C259.661 83.1341 260.004 83.5792 260.25 84.0782C260.497 84.5772 260.641 85.1202 260.676 85.6756C260.711 86.231 260.635 86.7877 260.453 87.3135C260.271 87.8393 259.986 88.3237 259.615 88.7386C259.244 89.1535 258.795 89.4905 258.292 89.7302C257.79 89.9699 257.245 90.1075 256.69 90.1349C256.134 90.1623 255.578 90.0791 255.055 89.89Z" fill="#3CDF03"/>
<path d="M240.388 98.5803C238.098 98.2024 232.156 92.95 232.156 92.95C232.156 92.95 239.48 89.8987 241.767 90.2765C242.868 90.4576 243.852 91.0685 244.502 91.9749C245.153 92.8813 245.416 94.0089 245.235 95.1097C245.054 96.2104 244.443 97.1942 243.537 97.8445C242.63 98.4948 241.503 98.7585 240.402 98.5774L240.388 98.5803Z" fill="#3CDF03"/>
<path d="M254.854 66.4335C254.851 68.7549 259.062 75.49 259.062 75.49C259.062 75.49 263.267 68.7634 263.267 66.4449C263.281 65.8841 263.183 65.326 262.979 64.8035C262.774 64.2811 262.467 63.8049 262.076 63.4031C261.684 63.0012 261.216 62.6818 260.699 62.4637C260.182 62.2457 259.627 62.1333 259.066 62.1333C258.505 62.1333 257.95 62.2457 257.433 62.4637C256.916 62.6818 256.448 63.0012 256.056 63.4031C255.665 63.8049 255.358 64.2811 255.153 64.8035C254.949 65.326 254.851 65.8841 254.865 66.4449L254.854 66.4335Z" fill="#3CDF03"/>
<path d="M237.843 76.8126C238.536 79.0281 244.558 84.1947 244.558 84.1947C244.558 84.1947 246.562 76.5178 245.863 74.3023C245.501 73.2759 244.755 72.43 243.781 71.9429C242.808 71.4557 241.683 71.3653 240.645 71.6906C239.606 72.016 238.734 72.7317 238.213 73.6871C237.691 74.6425 237.56 75.763 237.849 76.8126H237.843Z" fill="#3CDF03"/>
<path d="M222.71 89.1688C223.019 91.4587 228.079 97.5756 228.079 97.5756C228.079 97.5756 231.345 90.3481 231.036 88.0496C230.975 87.4927 230.803 86.9537 230.53 86.4643C230.257 85.9749 229.889 85.5449 229.448 85.1998C229.007 84.8546 228.501 84.6012 227.96 84.4544C227.42 84.3076 226.855 84.2704 226.3 84.3451C225.744 84.4197 225.21 84.6046 224.727 84.889C224.244 85.1733 223.823 85.5513 223.489 86.0008C223.154 86.4502 222.913 86.962 222.779 87.5061C222.645 88.0502 222.622 88.6155 222.71 89.1688Z" fill="#3CDF03"/>
<path opacity="0.25" d="M275.4 60.8917C273.734 62.506 265.98 64.1777 265.98 64.1777C265.98 64.1777 267.884 56.4779 269.55 54.8606C270.354 54.1078 271.421 53.7008 272.522 53.7273C273.624 53.7538 274.67 54.2116 275.437 55.0022C276.204 55.7929 276.63 56.853 276.623 57.9545C276.616 59.056 276.177 60.1108 275.4 60.8917Z" fill="black"/>
<path opacity="0.25" d="M271.015 74.8118C268.725 75.264 261.32 72.4532 261.32 72.4532C261.32 72.4532 267.102 67.0147 269.378 66.571C269.924 66.4497 270.489 66.4389 271.04 66.539C271.591 66.6391 272.116 66.8483 272.585 67.1541C273.053 67.4599 273.456 67.8563 273.77 68.32C274.083 68.7837 274.301 69.3054 274.41 69.8543C274.519 70.4033 274.517 70.9685 274.405 71.5168C274.292 72.065 274.072 72.5854 273.755 73.0472C273.439 73.5089 273.034 73.9029 272.563 74.2059C272.093 74.509 271.566 74.7149 271.015 74.8118Z" fill="black"/>
<path opacity="0.25" d="M255.055 89.89C252.862 89.1315 247.879 82.9602 247.879 82.9602C247.879 82.9602 255.607 81.1913 257.805 81.9498C258.334 82.125 258.822 82.4034 259.241 82.7688C259.661 83.1341 260.004 83.5792 260.25 84.0782C260.497 84.5772 260.641 85.1202 260.676 85.6756C260.711 86.231 260.635 86.7877 260.453 87.3135C260.271 87.8393 259.986 88.3237 259.615 88.7386C259.244 89.1535 258.795 89.4905 258.292 89.7302C257.79 89.9699 257.245 90.1075 256.69 90.1349C256.134 90.1623 255.578 90.0791 255.055 89.89Z" fill="black"/>
<path opacity="0.25" d="M240.388 98.5803C238.098 98.2024 232.156 92.95 232.156 92.95C232.156 92.95 239.48 89.8987 241.767 90.2765C242.868 90.4576 243.852 91.0685 244.502 91.9749C245.153 92.8813 245.416 94.0089 245.235 95.1097C245.054 96.2104 244.443 97.1942 243.537 97.8445C242.63 98.4948 241.503 98.7585 240.402 98.5774L240.388 98.5803Z" fill="black"/>
<path opacity="0.25" d="M254.854 66.4335C254.851 68.7549 259.062 75.49 259.062 75.49C259.062 75.49 263.267 68.7634 263.267 66.4449C263.281 65.8841 263.183 65.326 262.979 64.8035C262.774 64.2811 262.467 63.8049 262.076 63.4031C261.684 63.0012 261.216 62.6818 260.699 62.4637C260.182 62.2457 259.627 62.1333 259.066 62.1333C258.505 62.1333 257.95 62.2457 257.433 62.4637C256.916 62.6818 256.448 63.0012 256.056 63.4031C255.665 63.8049 255.358 64.2811 255.153 64.8035C254.949 65.326 254.851 65.8841 254.865 66.4449L254.854 66.4335Z" fill="black"/>
<path opacity="0.25" d="M237.843 76.8126C238.536 79.0281 244.558 84.1947 244.558 84.1947C244.558 84.1947 246.562 76.5178 245.863 74.3023C245.501 73.2759 244.755 72.43 243.781 71.9429C242.808 71.4557 241.683 71.3653 240.645 71.6906C239.606 72.016 238.734 72.7317 238.213 73.6871C237.691 74.6425 237.56 75.763 237.849 76.8126H237.843Z" fill="black"/>
<path opacity="0.25" d="M222.71 89.1688C223.019 91.4587 228.079 97.5756 228.079 97.5756C228.079 97.5756 231.345 90.3481 231.036 88.0496C230.975 87.4927 230.803 86.9537 230.53 86.4643C230.257 85.9749 229.889 85.5449 229.448 85.1998C229.007 84.8546 228.501 84.6012 227.96 84.4544C227.42 84.3076 226.855 84.2704 226.3 84.3451C225.744 84.4197 225.21 84.6046 224.727 84.889C224.244 85.1733 223.823 85.5513 223.489 86.0008C223.154 86.4502 222.913 86.962 222.779 87.5061C222.645 88.0502 222.622 88.6155 222.71 89.1688Z" fill="black"/>
<path d="M222.836 105.224C222.836 105.224 224.742 85.5766 236.094 75.129C240.882 70.7748 244.13 64.986 245.351 58.6303C245.907 55.6089 246.184 52.5428 246.178 49.4707" stroke="#535461" stroke-width="0.572474" stroke-miterlimit="10"/>
<path d="M253.294 42.842C252.435 44.9946 246.012 49.6659 246.012 49.6659C246.012 49.6659 244.633 41.8545 245.5 39.702C245.917 38.6684 246.728 37.8431 247.755 37.4075C248.781 36.9718 249.938 36.9617 250.971 37.3792C252.005 37.7967 252.83 38.6078 253.266 39.6339C253.702 40.6599 253.712 41.8171 253.294 42.8506V42.842Z" fill="#3CDF03"/>
<path d="M254.929 57.3593C253.031 58.6932 245.111 59.1311 245.111 59.1311C245.111 59.1311 248.196 51.8206 250.094 50.4868C250.544 50.1499 251.057 49.9068 251.603 49.7718C252.149 49.6369 252.716 49.6128 253.271 49.701C253.826 49.7892 254.358 49.9878 254.835 50.2853C255.312 50.5827 255.725 50.9729 256.048 51.4326C256.372 51.8923 256.6 52.4123 256.719 52.9617C256.838 53.5111 256.845 54.0788 256.741 54.6312C256.636 55.1836 256.422 55.7094 256.111 56.1775C255.8 56.6456 255.398 57.0465 254.929 57.3565V57.3593Z" fill="#3CDF03"/>
<path d="M246.439 77.6194C244.126 77.8141 237.067 74.1846 237.067 74.1846C237.067 74.1846 243.422 69.4331 245.735 69.2384C246.845 69.145 247.948 69.4967 248.799 70.216C249.65 70.9353 250.181 71.9634 250.274 73.074C250.368 74.1846 250.016 75.2869 249.297 76.1382C248.577 76.9896 247.549 77.5203 246.439 77.6137V77.6194Z" fill="#3CDF03"/>
<path d="M236.561 91.4989C234.314 92.0714 226.746 89.7042 226.746 89.7042C226.746 89.7042 232.204 83.948 234.451 83.364C235.53 83.0843 236.676 83.2445 237.636 83.8095C238.597 84.3745 239.294 85.2979 239.573 86.3767C239.853 87.4554 239.693 88.6011 239.128 89.5617C238.563 90.5223 237.639 91.2192 236.561 91.4989Z" fill="#3CDF03"/>
<path d="M236.761 56.2493C237.7 58.3703 244.266 62.8328 244.266 62.8328C244.266 62.8328 245.382 54.9784 244.443 52.8574C243.976 51.8651 243.138 51.095 242.11 50.7119C241.082 50.3287 239.945 50.3628 238.942 50.8068C237.939 51.2509 237.149 52.0697 236.741 53.0882C236.334 54.1068 236.341 55.2444 236.761 56.2579V56.2493Z" fill="#3CDF03"/>
<path d="M225.414 72.6273C226.946 74.3705 234.543 76.6546 234.543 76.6546C234.543 76.6546 233.26 68.826 231.729 67.0829C231.367 66.6594 230.925 66.312 230.428 66.0608C229.932 65.8096 229.39 65.6597 228.834 65.6197C228.279 65.5798 227.721 65.6506 227.194 65.828C226.666 66.0054 226.179 66.286 225.76 66.6533C225.342 67.0207 225.001 67.4675 224.757 67.9679C224.512 68.4682 224.37 69.0121 224.338 69.568C224.306 70.1238 224.384 70.6805 224.569 71.2057C224.754 71.7309 225.041 72.2141 225.414 72.6273Z" fill="#3CDF03"/>
<path d="M216.573 90.0655C217.786 92.0406 224.888 95.5756 224.888 95.5756C224.888 95.5756 224.948 87.644 223.743 85.6661C223.143 84.7528 222.211 84.1091 221.145 83.8716C220.078 83.634 218.961 83.8211 218.03 84.3934C217.099 84.9657 216.428 85.878 216.159 86.9369C215.889 87.9958 216.043 89.118 216.587 90.0655H216.573Z" fill="#3CDF03"/>
<path d="M208.238 28.2806C208.713 26.5374 209.285 24.7856 209.686 23.0195C209.205 24.7856 208.63 26.5431 208.238 28.2806Z" fill="url(#paint0_linear_204_195)"/>
<path d="M206.108 45.0714C206.068 45.0027 206.039 44.934 206.008 44.8711C206.008 44.8424 205.979 44.8195 205.968 44.7909C205.905 44.8203 205.841 44.8461 205.776 44.8682C205.65 44.9169 205.521 44.9627 205.389 44.9999C205.258 45.0371 205.203 45.0571 205.103 45.08C205.02 45.1086 204.935 45.1306 204.848 45.1458L204.871 45.1974C204.977 45.1745 205.08 45.1544 205.186 45.1258L205.215 45.4807C205.335 45.4807 205.447 45.4636 205.555 45.4636C205.607 45.4607 205.659 45.4607 205.71 45.4636C205.933 45.4636 206.128 45.4636 206.282 45.4636C206.222 45.3348 206.159 45.2002 206.108 45.0714ZM264.214 137.563C262.869 135.751 260.184 116.304 260.184 116.304C260.184 116.304 254.903 102.476 256.342 96.9576C257.782 91.439 252.41 77.3189 252.41 77.3189C252.41 77.3189 248.86 75.7761 248.668 73.4862C248.668 73.4862 234.176 68.9064 233.498 65.4715C232.948 62.655 223.96 60.6341 220.732 59.9958C219.747 56.0229 218.757 52.3161 218.027 50.2924C217.829 49.6627 217.643 49.1188 217.471 48.6895C216.238 45.5408 212.425 45.2546 209.66 45.5065C209.54 44.9699 209.318 44.4615 209.005 44.0095C208.959 43.8541 208.868 43.7157 208.744 43.6116C208.685 43.561 208.622 43.5151 208.555 43.4742C208.505 43.3814 208.439 43.2981 208.361 43.2281C208.282 43.1573 208.196 43.0958 208.103 43.0449C208.036 43.0089 207.968 42.9773 207.897 42.9504C207.731 42.8872 207.559 42.8403 207.385 42.8102C207.181 42.7682 206.974 42.7414 206.766 42.73C207.271 42.509 207.722 42.1797 208.086 41.7654C208.333 41.4745 208.518 41.1353 208.627 40.7693C208.717 40.4649 208.758 40.1478 208.747 39.8304C208.673 39.9612 208.587 40.0848 208.489 40.1997C208.61 38.9316 207.94 37.6436 207.556 36.3813C207.092 34.7379 207.005 33.0106 207.304 31.3292C207.688 28.7931 208.638 26.2284 209.282 23.6466C209.284 23.6323 209.284 23.6179 209.282 23.6036C209.62 22.3214 209.829 21.0087 209.906 19.6851C210.018 17.0145 209.334 14.3496 208.235 11.9166C207.259 9.76122 205.819 7.6402 203.615 6.76431C201.977 6.10311 200.143 6.20901 198.379 6.10024C194.424 5.85408 190.651 4.46297 186.89 3.1978C183.129 1.93263 179.259 0.781959 175.3 1.00236C171.342 1.22276 167.268 3.13196 165.462 6.63551C164.89 7.72893 164.561 8.94544 163.876 9.97303C162.594 11.9109 160.299 12.8812 158.384 14.2179C156.469 15.5547 154.783 17.4524 154.09 19.7165C153.712 20.9364 153.658 22.2338 153.935 23.4806C153.998 23.7621 154.078 24.0394 154.176 24.3106C154.448 25.067 154.871 25.7596 155.421 26.3458C155.836 26.779 156.312 27.1485 156.835 27.4421C157.492 27.8061 158.195 28.0795 158.925 28.255C158.899 28.3409 158.873 28.4325 158.844 28.5212C158.799 28.6672 158.759 28.8074 158.716 28.9649C158.621 29.3169 158.532 29.6747 158.458 30.0354C158.455 30.0611 158.455 30.087 158.458 30.1127C158.106 31.7408 157.93 33.4018 157.931 35.0674C157.931 35.8552 157.971 36.6424 158.052 37.426C159.196 49.0415 168.785 58.204 180.633 58.7994C181.039 58.8194 181.449 58.8308 181.864 58.8308C182.053 58.8308 182.239 58.8308 182.436 58.8308C182.622 59.077 182.805 59.3289 182.98 59.5751C183.155 59.8212 183.315 60.0731 183.467 60.3193L183.051 59.8899L182.636 59.5092C182.524 59.6637 182.398 59.8082 182.261 59.9414C181.991 59.8462 181.715 59.7678 181.434 59.7067C180.246 59.4434 178.437 59.3461 176.056 60.0645C173.866 60.72 171.19 62.0682 168.058 64.63L152.799 73.7896L144.544 78.8102L141.57 86.0806C141.57 86.0806 139.335 94.7192 136.847 104.617C136.75 104.646 136.655 104.675 136.561 104.709C136.359 104.686 136.157 104.675 135.954 104.675C134.511 104.671 133.123 105.227 132.081 106.226C131.039 107.224 130.424 108.588 130.367 110.03C125.421 116.041 125.14 122.052 126.302 124.811C126.407 125.07 126.54 125.316 126.697 125.547C127.459 126.646 128.881 129.48 130.324 132.5C130.287 132.749 130.264 132.958 130.252 133.115C130.25 133.167 130.25 133.218 130.252 133.27C130.252 133.27 131.111 146.239 128.249 149.957C127.622 150.767 127.716 151.832 128.249 153.011C130.166 157.253 137.749 162.918 137.749 162.918C137.749 162.918 146.842 162.869 151.909 162.317C151.895 162.826 151.883 163.333 151.872 163.828C151.757 168.832 151.757 173.025 151.757 173.025L151.568 178.272C151.568 178.272 149.851 189.329 148.992 192.378C148.451 194.29 149.075 211.993 149.619 225.009H239.217C240.27 217.309 238.785 193.915 238.785 193.915C238.785 193.915 237.374 187.867 237.322 182.594C237.319 182.588 237.318 182.582 237.318 182.575C237.318 182.569 237.319 182.563 237.322 182.557C237.322 182.096 237.322 181.647 237.339 181.206L237.989 181.183L239.157 181.143H239.263C239.263 181.143 239.291 181.034 239.357 180.857C239.512 180.414 239.722 179.994 239.984 179.606C240.482 178.87 241.261 178.149 242.431 178.1C243.078 178.074 244.08 177.551 245.211 176.778C245.218 176.779 245.226 176.779 245.234 176.778C248.276 174.72 252.298 170.921 253.274 170.297C254.616 169.439 261.045 163.714 261.045 163.714C261.045 163.714 262.004 162.5 263.026 161.038L263.063 160.986C264.334 159.154 265.685 156.964 265.353 156.275C264.781 155.038 265.737 152.081 265.737 152.081C268.722 146.617 265.559 139.375 264.214 137.563ZM208.864 49.5224C208.892 49.6079 208.909 49.6963 208.916 49.7857C208.844 49.6913 208.773 49.5911 208.701 49.4995L208.632 49.4079L208.584 49.3392L208.693 49.1904C208.693 49.1904 208.693 49.1904 208.693 49.2104C208.768 49.3032 208.826 49.4089 208.864 49.5224ZM207.903 46.9863C207.591 47.0493 207.344 47.1066 207.184 47.1495C206.981 46.7888 206.786 46.4282 206.612 46.0618C207.071 46.328 207.503 46.6376 207.903 46.9863ZM207.364 47.4386C207.364 47.4329 207.364 47.4271 207.364 47.4214L207.387 47.4386C207.505 47.5159 207.619 47.5903 207.725 47.6676C207.82 47.7363 207.905 47.8021 207.991 47.8708C207.934 47.971 207.871 48.074 207.808 48.1571C207.708 47.9996 207.613 47.8479 207.522 47.6905C207.465 47.6275 207.413 47.5416 207.364 47.4386ZM205.647 43.9064C206.2 43.8519 206.757 43.8519 207.31 43.9064C207.387 43.9064 207.456 43.9207 207.525 43.9322C207.68 43.9562 207.832 43.9955 207.98 44.0496C208.318 44.5228 208.526 45.0765 208.584 45.6553L208.429 45.6782L208.278 45.7069C207.991 45.7555 207.705 45.8042 207.482 45.85L207.196 45.9101C206.815 45.9931 206.594 46.0561 206.586 46.0589C206.549 45.9817 206.511 45.9101 206.471 45.8357C206.408 45.7126 206.343 45.5867 206.285 45.4636C206.228 45.3405 206.154 45.2002 206.094 45.0714C206.053 45.0027 206.025 44.934 205.993 44.8711C205.993 44.8424 205.965 44.8195 205.953 44.7909C205.937 44.7605 205.922 44.729 205.91 44.6964C205.736 44.3415 205.575 43.9866 205.421 43.6374C205.404 43.603 205.389 43.5658 205.375 43.5315L205.593 43.5172V43.5916L205.647 43.9064ZM137.354 221.471C137.331 217.209 137.022 212.597 136.163 208.269C135.797 206.429 135.419 204.588 135.035 202.779C134.938 202.327 134.843 201.881 134.749 201.434L133.867 201.551H133.787C131.383 190.214 128.87 180.224 128.87 180.224C128.87 180.224 123.878 161.163 124.456 159.644C124.53 159.446 124.436 158.914 124.224 158.132C123.016 153.799 117.973 141.857 116.209 137.775C116.209 137.758 116.195 137.738 116.189 137.723C115.903 137.039 115.697 136.579 115.634 136.444L116.049 130.353L116.072 129.987L116.126 129.208L116.103 129.188L116.126 128.827C116.126 128.827 111.77 125.255 104.391 122.676C104.104 122.573 103.801 122.473 103.5 122.375C103.87 119.911 104.359 117.129 104.997 114.418C105.058 114.146 105.123 113.883 105.192 113.617C105.252 113.35 105.321 113.093 105.39 112.832C105.498 112.409 105.616 111.991 105.736 111.579C106.134 111.453 106.526 111.312 106.912 111.164L107.061 111.106C111.822 109.254 115.75 105.739 118.118 101.214C120.486 96.6877 121.134 91.4569 119.942 86.4899C119.262 83.6729 118.007 81.027 116.255 78.7186C116.124 78.5411 115.983 78.3637 115.843 78.189C115.703 78.0144 115.534 77.8198 115.376 77.6423C116.204 75.7618 117.18 73.9728 117.26 72.1437C117.274 71.9121 117.274 71.6798 117.26 71.4482V71.4195C117.154 70.2431 116.633 69.0524 115.419 67.8015C113.648 65.9667 111.126 65.0365 108.604 64.5899C106.082 64.1434 103.512 64.1319 100.976 63.8314C96.771 63.3276 92.675 62.031 88.4702 61.6331C83.2909 61.1535 78.0765 62.0418 73.3483 64.2092C70.2197 65.6404 67.051 68.1421 66.8621 71.5741C66.7076 74.4107 68.6826 77.13 68.1845 79.9322C67.6894 82.6858 64.8842 84.8526 65.1304 87.6377C65.2249 88.7254 65.783 89.6986 66.4814 90.5659C66.7219 90.8522 66.9766 91.1384 67.24 91.4247C68.259 92.5038 69.381 93.5399 69.9506 94.8996C69.9735 94.9568 69.9964 95.0141 70.0165 95.0713C70.5002 96.4138 70.2827 98.1112 69.0862 98.8811C69.0928 98.8863 69.0978 98.8932 69.1005 98.9012C69.1177 98.9241 69.1349 98.9412 69.1492 98.9641C69.1509 98.9595 69.1509 98.9544 69.1492 98.9498C69.5734 99.4528 70.1453 99.8093 70.7836 99.9688L71.0269 100.043C70.8294 100.258 70.6433 100.481 70.4544 100.716L70.3313 100.879C70.0159 101.303 69.729 101.748 69.4726 102.21C69.3266 102.468 69.1864 102.725 69.069 102.983C68.6767 103.768 68.3926 104.603 68.2246 105.465C67.9183 107.359 68.3506 109.335 67.8869 111.189C67.3144 113.479 65.5025 115.237 64.4806 117.363C62.5457 121.371 63.642 126.074 64.0313 130.499C64.5608 136.51 63.7021 142.547 62.8462 148.518C62.3921 151.693 61.9379 154.871 61.4837 158.052C60.3388 166.036 59.1938 174.02 58.0489 182.004C57.631 184.93 57.1358 188.015 55.1865 190.274H55.2066C55.2066 190.274 55.2066 190.291 55.1865 190.297C55.7717 190.552 56.394 190.713 57.0299 190.772C59.5745 191.027 62.2709 189.796 64.5608 188.45C66.3742 187.403 68.0916 186.197 69.693 184.847C69.4583 185.705 69.2064 186.641 68.9374 187.649C68.9382 187.658 68.9382 187.668 68.9374 187.678C65.7057 199.986 60.5077 222.55 60.5077 222.55C60.5077 222.55 60.0354 223.532 59.4228 224.994H140.142C139.197 223.849 138.318 222.753 137.631 221.869L137.354 221.471ZM77.5874 107.663C77.6075 107.629 77.6218 107.597 77.6418 107.566C77.6418 107.657 77.6418 107.746 77.6418 107.832C77.6418 107.918 77.6418 107.995 77.6418 108.075C77.6418 108.155 77.6418 108.147 77.6418 108.187C77.6418 108.304 77.6161 108.421 77.596 108.539C77.596 108.539 77.596 108.553 77.596 108.565L77.8823 108.67L78.2143 108.808C80.176 109.583 82.1625 110.284 84.1738 110.912C84.3798 110.978 84.5888 111.04 84.7977 111.101L84.8407 111.456C84.8922 111.819 84.9409 112.188 84.9867 112.558C84.9867 112.558 84.9867 112.575 84.9867 112.586C85.1155 113.608 85.2414 114.627 85.353 115.623C85.353 115.623 80.0977 113.619 80.1636 116.662C80.1606 116.717 80.1606 116.771 80.1636 116.825C80.1577 116.898 80.1577 116.97 80.1636 117.043C80.2122 119.413 80.9536 120.818 81.1024 121.54C81.0935 121.57 81.0778 121.597 81.0566 121.62C80.9296 121.896 80.8859 122.203 80.9307 122.504C80.9257 123.016 80.9659 123.528 81.0509 124.033C80.8963 124.127 80.7446 124.222 80.5929 124.319C80.4784 124.391 80.3697 124.471 80.258 124.551C79.5558 122.115 78.6372 119.747 77.513 117.475C76.7259 115.855 75.8414 114.166 75.85 112.389C75.85 112.274 75.85 112.157 75.8643 112.039C75.8962 111.524 75.9943 111.015 76.1562 110.525C76.2221 110.339 76.2936 110.156 76.3738 109.976C76.5609 109.547 76.7701 109.129 77.0007 108.722C77.1495 108.453 77.3069 108.187 77.4586 107.918C77.5073 107.837 77.5531 107.754 77.5989 107.674L77.5874 107.663ZM206.108 45.0714C206.068 45.0027 206.039 44.934 206.008 44.8711C206.008 44.8424 205.979 44.8195 205.968 44.7909C205.905 44.8203 205.841 44.8461 205.776 44.8682C205.65 44.9169 205.521 44.9627 205.389 44.9999C205.258 45.0371 205.203 45.0571 205.103 45.08L204.848 45.1458L204.871 45.1974C204.977 45.1745 205.08 45.1544 205.186 45.1258L205.215 45.4807C205.335 45.4807 205.447 45.4636 205.555 45.4636H205.71C205.933 45.4636 206.128 45.4636 206.282 45.4636C206.222 45.3348 206.159 45.2002 206.108 45.0714Z" fill="url(#paint1_linear_204_195)"/>
<path d="M143.565 87.1136L141.848 87.8721C141.848 87.8721 130.653 131.363 130.653 134.878C130.653 138.393 154.39 157.952 154.39 157.952L158.094 132.952C158.094 132.952 152.776 75.6211 143.565 87.1136Z" fill="#E8F5FF"/>
<path d="M195.635 73.2796L185.717 68.1045C185.161 65.7363 184.175 63.4902 182.808 61.4781C181.357 59.3828 179.428 57.3248 177.023 56.2514C170.947 53.5264 202.728 39.2231 202.728 39.2231C203.228 40.9414 203.818 42.6324 204.494 44.2895C206.131 48.3312 208.847 53.5579 212.348 55.0463C218.299 57.5795 195.635 73.2796 195.635 73.2796Z" fill="#FFC1C7"/>
<path opacity="0.1" d="M204.494 44.2895C203.136 49.0654 200.312 53.294 196.421 56.3782C192.53 59.4624 187.768 61.2463 182.808 61.4781C181.357 59.3828 179.428 57.3248 177.023 56.2514C170.947 53.5264 202.728 39.2231 202.728 39.2231C203.228 40.9414 203.818 42.6324 204.494 44.2895Z" fill="black"/>
<path d="M205.387 37.068C205.388 41.7519 204 46.3309 201.398 50.226C198.797 54.121 195.099 57.1571 190.772 58.9502C186.445 60.7433 181.683 61.2129 177.089 60.2996C172.495 59.3863 168.275 57.1311 164.963 53.8193C161.651 50.5075 159.395 46.2878 158.481 41.6939C157.567 37.1 158.036 32.3383 159.829 28.011C161.621 23.6836 164.657 19.9851 168.552 17.3832C172.446 14.7812 177.025 13.3928 181.709 13.3933C184.822 13.3789 187.907 13.9814 190.786 15.1661C193.665 16.3507 196.281 18.094 198.483 20.2952C200.684 22.4964 202.428 25.112 203.613 27.9909C204.798 30.8697 205.401 33.9548 205.387 37.068Z" fill="#FFC1C7"/>
<path d="M208.804 70.2401L202.347 85.3076L196.65 95.3087H178.417L173.099 81.6352L175.254 67.455H189.18L198.17 66.9483L201.207 65.9351L203.165 67.0457L208.804 70.2401Z" fill="#575A89"/>
<path opacity="0.1" d="M206.58 50.1548C206.58 50.1548 210.607 51.0135 207.001 53.9703C203.394 56.9271 190.951 66.33 190.951 66.33C190.951 66.33 195.322 70.2228 194.418 74.7826L208.898 66.7107L211.475 53.7957C211.475 53.7957 211.764 49.9143 206.58 50.1548Z" fill="black"/>
<path opacity="0.1" d="M193.8 66.3306L184.589 67.8505C184.589 67.8505 186.489 74.8776 185.539 76.8727C185.51 76.9347 185.486 76.9988 185.467 77.0645L181.709 87.223L184.526 95.2004L194.275 81.9047L190.952 76.8727C190.952 76.8727 194.464 72.2185 196.553 70.6041C198.643 68.9897 193.8 66.3306 193.8 66.3306Z" fill="black"/>
<path d="M193.8 65.9385L184.589 67.4555C184.589 67.4555 186.489 74.4827 185.539 76.4777C185.51 76.5397 185.486 76.6038 185.467 76.6695L181.709 86.828L184.526 94.8055L194.275 81.5012L190.952 76.4691C190.952 76.4691 194.464 71.8149 196.553 70.2005C198.643 68.5862 193.8 65.9385 193.8 65.9385Z" fill="#DCE6F2"/>
<path d="M206.966 49.3965C206.966 49.3965 210.994 50.2552 207.384 53.212C203.775 56.1688 190.951 66.3303 190.951 66.3303C190.951 66.3303 195.7 69.4646 194.798 74.0214L209.279 65.9524L211.855 53.0374C211.855 53.0374 212.142 49.156 206.966 49.3965Z" fill="#575A89"/>
<path opacity="0.1" d="M183.441 62.3745C183.441 62.3745 184.32 64.0175 188.198 66.9801C188.198 66.9801 181.741 70.4149 184.211 75.2437L174.333 72.6676L172.813 67.9189L183.441 62.3745Z" fill="black"/>
<path d="M183.06 61.9966C183.06 61.9966 183.939 63.6396 187.817 66.6021C187.817 66.6021 181.36 70.0198 183.83 74.8629L173.955 72.2868L172.435 67.541L183.06 61.9966Z" fill="#575A89"/>
<path opacity="0.1" d="M208.804 70.2403L202.347 85.3078L196.662 95.3089H178.417L173.099 81.6354L175.251 67.4552H179.124C179.061 70.7641 180.269 74.6512 180.192 76.0967C180.06 78.4725 183.735 91.2902 183.735 91.2902C183.735 91.2902 191.427 78.8503 194.464 77.7426C196.373 77.047 200.417 71.2593 203.162 67.0459L208.804 70.2403Z" fill="black"/>
<path d="M234.242 149.531L233.587 150.355C233.587 150.355 238.335 174.19 237.021 179.603C236.798 180.578 236.671 181.573 236.641 182.574V182.617C236.409 188.124 238.072 195.271 238.072 195.271C238.072 195.271 239.4 216.338 238.644 225.003H149.733C149.213 212.191 148.651 195.592 149.161 193.751C150.02 190.714 151.737 179.697 151.737 179.697L151.926 174.476C151.926 174.476 151.926 169.43 152.081 163.808C152.146 161.281 152.244 158.627 152.384 156.274C152.564 153.315 152.816 150.821 153.163 149.596C153.376 148.668 153.499 147.721 153.529 146.768C153.529 146.68 153.529 146.588 153.546 146.496C153.546 146.21 153.575 145.901 153.586 145.583C153.586 145.495 153.586 145.406 153.586 145.297C153.641 143.454 153.621 141.267 153.56 139C153.56 138.877 153.56 138.751 153.56 138.625C153.512 136.925 153.44 135.19 153.36 133.541C153.111 128.389 152.788 124.033 152.788 124.033L141.868 87.8522L144.81 80.6046L152.977 75.6012L168.076 66.4846C175.44 60.4306 180.289 61.1577 182.138 61.8218C182.318 61.883 182.494 61.9547 182.665 62.0364C182.722 62.0651 182.768 62.088 182.811 62.1137C182.87 62.1416 182.926 62.1741 182.98 62.211C182.474 62.4546 182.034 62.817 181.698 63.2672C181.319 63.7797 181.049 64.3641 180.905 64.9847C180.808 65.3693 180.74 65.7606 180.701 66.1554C180.664 66.5704 180.65 66.9998 180.65 67.432C180.67 68.3799 180.752 69.3254 180.893 70.2629C180.893 70.2801 180.893 70.303 180.893 70.3259C180.988 70.9956 181.105 71.6511 181.22 72.2665C181.218 72.277 181.218 72.2876 181.22 72.298C181.351 73.0165 181.483 73.6806 181.572 74.253C181.589 74.3561 181.603 74.4505 181.617 74.5393C181.681 74.9176 181.71 75.3007 181.706 75.6842C181.738 76.6103 181.863 77.5308 182.078 78.4321C182.153 78.8099 182.239 79.2135 182.333 79.6343C182.462 80.2068 182.602 80.8308 182.754 81.4662C182.837 81.8154 182.926 82.1761 183.017 82.5339C183.051 82.677 183.089 82.8201 183.123 82.9661L183.18 83.1922C183.79 85.6166 184.451 88.0296 184.858 89.4894C185.098 90.3481 185.25 90.8777 185.25 90.8777C185.25 90.8777 189.56 83.9078 193.001 79.9406C193.053 79.8833 193.098 79.8289 193.147 79.7774C193.488 79.3853 193.823 79.0275 194.143 78.7126C194.844 78.0142 195.474 77.5161 195.981 77.3329C196.089 77.2933 196.193 77.2445 196.293 77.187C197.701 76.3884 199.974 73.4888 202.101 70.4518C202.309 70.1656 202.513 69.8536 202.719 69.5587C203.191 68.8775 203.649 68.1934 204.081 67.5379C204.413 67.037 204.731 66.5504 205.032 66.0867C206.463 63.8598 207.47 62.1996 207.47 62.1996L209.457 62.1109L209.803 62.0937H210.035L219.054 61.6758C219.054 61.6758 219.444 61.7416 220.085 61.8704C220.119 61.8704 220.154 61.8704 220.191 61.8933C223.391 62.5288 232.281 64.541 232.825 67.3318C233.489 70.7495 247.83 75.3092 247.83 75.3092C248.019 77.5991 251.531 79.1076 251.531 79.1076C251.531 79.1076 256.849 93.1619 255.426 98.6691C254.021 104.108 259.085 117.561 259.219 117.939L258.249 119.164L234.242 149.531Z" fill="#E8F5FF"/>
<path opacity="0.1" d="M206.577 49.156C206.577 49.156 215.356 46.6657 217.351 51.7922C219.346 56.9187 223.809 77.6223 223.809 77.6223C223.809 77.6223 212.222 79.8062 209.185 77.6223C207.404 76.3261 205.199 75.7496 203.011 76.0079L196.459 80.4703L194.524 79.8978C194.524 79.8978 205.006 64.3151 207.284 59.0197C209.563 53.7243 210.333 51.3571 206.577 49.156Z" fill="black"/>
<path d="M206.197 48.0114C206.197 48.0114 214.981 45.5212 216.985 50.6477C218.989 55.7742 223.443 76.4777 223.443 76.4777C223.443 76.4777 211.859 78.6617 208.819 76.4777C207.038 75.1815 204.834 74.6049 202.647 74.8633L196.09 79.3258L194.155 78.7533C194.155 78.7533 204.637 63.1706 206.915 57.8752C209.194 52.5798 209.952 50.2183 206.197 48.0114Z" fill="#E8F5FF"/>
<path opacity="0.1" d="M147.269 130.604C147.269 130.604 153.821 132.219 155.057 135.923C156.294 139.627 150.214 139.721 150.214 139.721C150.214 139.721 146.51 133.169 147.269 130.604Z" fill="black"/>
<path opacity="0.1" d="M171.674 157.952C171.674 157.952 155.627 190.809 159.331 193.944C163.035 197.078 171.674 157.952 171.674 157.952Z" fill="black"/>
<path opacity="0.1" d="M193.8 133.739C193.8 133.739 206.62 165.654 204.056 170.583C201.491 175.512 209.563 170.583 209.563 170.583L193.8 133.739Z" fill="black"/>
<path d="M211.652 165.266C211.652 165.266 168.35 167.355 180.982 180.84C193.614 194.324 219.535 181.412 219.535 181.412L211.652 165.266Z" fill="#FFC1C7"/>
<path opacity="0.1" d="M205.387 37.0685C205.391 40.1743 204.781 43.2501 203.592 46.1194C203.194 46.1652 202.796 46.1938 202.413 46.211C201.84 44.9544 202.147 43.5031 202.158 42.1206C202.169 40.7381 201.66 39.1123 200.329 38.7402C197.676 37.9931 195.844 42.9536 193.227 42.0576C191.224 41.3764 191.748 38.3366 190.594 36.5819C189.681 35.1937 187.852 34.8015 186.429 33.9314C183.404 32.0737 183.495 29.1026 182.09 26.2917C180.619 23.3463 177.51 24.2165 174.811 25.954C172.761 27.2764 170.993 29.0482 168.8 30.1015C166.902 31.0175 164.77 31.3495 162.666 31.3982C161.371 31.4484 160.075 31.3115 158.819 30.9917C160.296 25.437 163.744 20.6093 168.518 17.4088C173.293 14.2084 179.068 12.8538 184.768 13.5976C190.467 14.3414 195.702 17.1328 199.495 21.4514C203.288 25.7699 205.381 31.3207 205.384 37.0685H205.387Z" fill="black"/>
<path d="M174.819 25.1951C172.767 26.5175 171.001 28.2865 168.808 29.3456C166.911 30.2586 164.778 30.5907 162.674 30.6393C160.098 30.6966 157.325 30.2443 155.564 28.3838C153.947 26.6664 153.561 24.0244 154.245 21.7717C154.929 19.519 156.569 17.6499 158.495 16.296C160.422 14.9421 162.657 14.0061 163.934 12.0683C164.609 11.0436 164.936 9.83563 165.497 8.74507C167.291 5.25584 171.327 3.36668 175.229 3.13196C179.13 2.89725 182.997 4.05937 186.713 5.31881C190.428 6.57826 194.172 7.96364 198.093 8.22412C199.839 8.33289 201.654 8.22412 203.274 8.88533C205.453 9.7698 206.881 11.8851 207.854 14.0376C208.945 16.4649 209.623 19.1154 209.508 21.766C209.268 27.4249 205.53 32.9779 207.173 38.3992C207.608 39.8447 208.424 41.3274 207.989 42.7729C207.353 44.8825 204.631 45.3634 202.43 45.4636C201.857 44.207 202.164 42.7529 202.175 41.3732C202.187 39.9936 201.677 38.3649 200.349 37.9928C197.693 37.2514 195.861 42.2033 193.25 41.3103C191.261 40.6262 191.776 37.5892 190.62 35.8345C189.707 34.4434 187.875 34.0541 186.455 33.184C183.429 31.3263 183.521 28.3552 182.116 25.5443C180.633 22.5846 177.522 23.4548 174.819 25.1951Z" fill="#99607E"/>
<path d="M132.831 134.117L130.647 134.878C130.647 134.878 131.506 147.793 128.644 151.497C125.781 155.201 138.044 164.409 138.044 164.409C138.044 164.409 154.852 164.315 155.327 162.978C155.802 161.641 154.468 139.049 154.468 139.049C154.468 139.049 145.446 135.534 146.204 129.932C146.204 129.932 143.451 143.131 139.369 142.561C135.287 141.991 130.653 138.582 132.831 134.117Z" fill="#E8F5FF"/>
<path opacity="0.1" d="M140.116 146.557C143.298 146.557 145.878 144.198 145.878 141.287C145.878 138.377 143.298 136.018 140.116 136.018C136.934 136.018 134.354 138.377 134.354 141.287C134.354 144.198 136.934 146.557 140.116 146.557Z" fill="black"/>
<path d="M146.416 134.498C146.416 134.498 145.271 99.5538 135.304 107.339C125.338 115.125 125.24 124.436 127.138 127.187C129.036 129.938 135.121 143.709 135.121 143.709C136.073 144.26 137.142 144.579 138.241 144.638C139.339 144.696 140.436 144.494 141.442 144.047C142.447 143.601 143.332 142.922 144.025 142.067C144.717 141.212 145.197 140.205 145.426 139.129L146.416 134.498Z" fill="#FFC1C7"/>
<path opacity="0.1" d="M208.59 45.9848C208.543 45.8312 208.454 45.6942 208.332 45.5898C207.84 45.1404 206.781 44.9829 205.183 45.1203L205.249 45.876C207.379 45.6928 207.8 46.1164 207.854 46.188V46.2595L207.92 46.354C208.185 46.7109 208.374 47.1192 208.472 47.553C208.571 47.9868 208.578 48.4363 208.492 48.8729C208.026 51.2057 205.161 53.0634 205.132 53.0834L205.063 53.1235L205.02 53.1893C203.784 55.0241 196.791 60.2022 194.962 61.5417L194.802 61.3586C193.983 62.0684 186.787 68.3685 186.398 70.7815C186.146 72.2957 184.44 72.8825 183.822 73.0456C183.169 72.5504 181.051 70.8645 179.949 68.9753C178.915 67.1978 183.075 63.7286 183.441 62.3747L182.868 61.7879C182.808 62.0054 177.467 66.9974 178.953 69.5478C180.143 71.5944 182.319 73.3462 183.08 73.9244C182.837 76.1341 181.323 89.1092 178.996 92.1834C176.105 96.0047 173.674 115.263 173.944 121.986C174.181 127.96 172.621 139.244 167.412 144.09C166.51 144.965 165.422 145.626 164.229 146.023C163.036 146.419 161.769 146.541 160.522 146.38H160.459H160.396C160.322 146.38 152.765 147.152 146.416 141.8C141.221 137.429 138.278 130.296 137.666 120.592H137.54L137.488 117.767C138.897 117.547 140.166 116.79 141.028 115.655C141.89 114.519 142.278 113.094 142.111 111.678C141.944 110.262 141.235 108.966 140.132 108.062C139.03 107.158 137.62 106.717 136.199 106.831C134.777 106.945 133.456 107.605 132.511 108.673C131.567 109.741 131.073 111.133 131.134 112.557C131.194 113.982 131.805 115.327 132.836 116.311C133.868 117.295 135.241 117.84 136.667 117.833H136.73L136.781 120.641L136.53 120.658C137.159 130.677 140.251 138.087 145.689 142.664C149.823 146.09 155.103 147.818 160.462 147.499C160.842 147.54 161.224 147.561 161.607 147.562C164.063 147.574 166.427 146.624 168.19 144.914C173.677 139.805 175.346 128.106 175.086 121.929C174.799 114.805 177.35 96.2394 179.909 92.8589C182.416 89.5414 183.936 76.615 184.202 74.1104C185.11 73.8557 187.162 73.0513 187.511 70.9618C187.763 69.4505 192.569 64.7934 195.526 62.2144L195.437 62.1114C197.029 60.9492 201.978 57.2854 204.431 54.9325C205.192 54.2026 205.948 53.4727 206.738 52.7772C207.688 51.9356 208.896 50.5989 209.214 49.0189C209.322 48.4973 209.323 47.9591 209.215 47.4373C209.108 46.9156 208.895 46.4212 208.59 45.9848Z" fill="black"/>
<path d="M182.983 73.7436C182.862 73.6605 180.012 71.6197 178.583 69.1638C177.1 66.6134 182.442 61.6243 182.499 61.4067L183.071 61.9935C182.708 63.3446 178.549 66.8166 179.582 68.5913C180.885 70.8325 183.627 72.7933 183.655 72.8133L182.983 73.7436Z" fill="#353146"/>
<path d="M194.59 62.0969L194.143 61.4815C194.235 61.4156 203.226 54.9123 204.642 52.8085L204.688 52.7455L204.754 52.7026C204.783 52.6825 207.648 50.8277 208.115 48.492C208.201 48.0559 208.194 47.6066 208.095 47.1732C207.997 46.7398 207.808 46.3319 207.542 45.976L207.476 45.8787V45.81C207.419 45.7356 206.998 45.3148 204.869 45.498L204.803 44.7395C206.403 44.6021 207.459 44.7595 207.951 45.2089C208.074 45.3143 208.164 45.4523 208.212 45.6068C208.521 46.042 208.738 46.536 208.85 47.0583C208.961 47.5806 208.964 48.1202 208.859 48.6437C208.541 50.2266 207.336 51.5634 206.383 52.402C205.596 53.0976 204.837 53.8332 204.079 54.5574C201.202 57.3139 194.905 61.8707 194.59 62.0969Z" fill="#E8F5FF"/>
<path d="M137.119 116.771L136.361 116.785L136.445 121.395L137.204 121.381L137.119 116.771Z" fill="#E8F5FF"/>
<path d="M136.297 117.469C139.356 117.469 141.836 114.99 141.836 111.931C141.836 108.872 139.356 106.392 136.297 106.392C133.239 106.392 130.759 108.872 130.759 111.931C130.759 114.99 133.239 117.469 136.297 117.469Z" fill="#3CDF03"/>
<path d="M136.298 116.531C138.838 116.531 140.897 114.471 140.897 111.931C140.897 109.39 138.838 107.331 136.298 107.331C133.757 107.331 131.698 109.39 131.698 111.931C131.698 114.471 133.757 116.531 136.298 116.531Z" fill="#E8F5FF"/>
<path d="M161.246 147.192C160.864 147.193 160.482 147.173 160.101 147.132C154.743 147.448 149.464 145.72 145.329 142.298C139.89 137.718 136.804 130.316 136.169 120.289L137.314 120.217C137.926 129.921 140.869 137.057 146.067 141.425C152.416 146.763 159.97 146.004 160.044 146.004H160.107H160.17C161.417 146.165 162.684 146.043 163.878 145.646C165.071 145.25 166.16 144.59 167.063 143.714C172.269 138.868 173.829 127.585 173.592 121.611C173.305 114.882 175.736 95.6237 178.629 91.8053C181.163 88.4592 182.734 73.3774 182.751 73.2257L182.794 72.7963L183.218 72.7219C183.244 72.7219 185.717 72.2525 186.026 70.4034C186.426 67.9933 193.611 61.6932 194.427 60.9805L195.174 61.8392C192.206 64.4153 187.4 69.0753 187.159 70.5894C186.81 72.6847 184.758 73.4862 183.853 73.7381C183.567 76.2455 182.058 89.1691 179.56 92.4866C177.001 95.867 174.45 114.432 174.737 121.557C174.983 127.734 173.331 139.435 167.844 144.542C166.077 146.256 163.708 147.208 161.246 147.192Z" fill="#353146"/>
<g opacity="0.1">
<path d="M207.825 30.3014C208.295 28.5668 208.862 26.8207 209.257 25.0632C208.784 26.8293 208.215 28.5668 207.825 30.3014Z" fill="black"/>
<path d="M203.036 43.9322C202.464 42.6756 202.77 41.2216 202.782 39.8419C202.793 38.4622 202.284 36.8479 200.956 36.4614C198.299 35.7201 196.467 40.6749 193.857 39.7789C191.853 39.0948 192.383 36.0578 191.226 34.3032C190.313 32.9121 188.484 32.5228 187.064 31.6527C184.036 29.795 184.128 26.8238 182.725 24.013C181.251 21.0648 178.145 21.9349 175.443 23.6752C173.391 24.9976 171.625 26.7695 169.432 27.8257C167.535 28.7388 165.402 29.0708 163.298 29.1195C160.736 29.1796 157.948 28.7245 156.188 26.8639C154.831 25.4327 154.342 23.3346 154.622 21.3682C154.574 21.5027 154.531 21.6372 154.488 21.7718C153.801 24.0244 154.202 26.6721 155.807 28.3838C157.568 30.2444 160.356 30.6966 162.917 30.6394C165.024 30.5907 167.154 30.2587 169.054 29.3456C171.253 28.2865 173.019 26.5176 175.065 25.1952C177.767 23.4548 180.876 22.5847 182.347 25.5329C183.75 28.3438 183.661 31.3149 186.687 33.1726C188.118 34.0313 189.935 34.432 190.851 35.8231C191.996 37.5835 191.49 40.6147 193.482 41.2988C196.09 42.1919 197.921 37.24 200.578 37.9814C201.906 38.3535 202.418 39.985 202.404 41.3618C202.39 42.7386 202.092 44.1956 202.659 45.4521C204.86 45.352 207.582 44.8797 208.22 42.7615C208.308 42.4575 208.349 42.1418 208.34 41.8255C207.41 43.4313 205.017 43.8435 203.036 43.9322Z" fill="black"/>
</g>
<path opacity="0.1" d="M254.768 114.461L258.091 117.976C258.091 117.976 260.75 137.346 262.079 139.157C263.407 140.969 266.544 148.177 263.598 153.589C263.598 153.589 262.648 156.535 263.218 157.769C263.787 159.002 258.947 165.176 258.947 165.176C258.947 165.176 252.584 170.872 251.253 171.728C249.922 172.584 242.898 179.42 240.525 179.514C238.152 179.608 237.376 182.554 237.376 182.554L223.986 183.029C223.986 183.029 216.59 182.643 214.981 183.687C214.981 183.687 215.84 172.387 207.576 164.979L218.115 161.18C218.115 161.18 222.106 159.463 223.339 157.668C224.115 156.568 225.216 155.738 226.488 155.295C226.488 155.295 229.43 153.206 229.525 152.067C229.619 150.927 233.123 149.531 233.123 149.531L231.139 132.6L232.184 104.491C232.184 104.491 235.507 80.9397 242.534 82.2707C249.561 83.6017 254.768 114.461 254.768 114.461Z" fill="black"/>
<path d="M255.913 114.461L259.236 117.976C259.236 117.976 261.895 137.346 263.224 139.157C264.552 140.969 267.689 148.177 264.743 153.589C264.743 153.589 263.796 156.535 264.366 157.769C264.935 159.002 260.092 165.176 260.092 165.176C260.092 165.176 253.729 170.872 252.398 171.728C251.067 172.584 244.043 179.42 241.67 179.514C239.297 179.608 238.521 182.554 238.521 182.554L225.131 183.029C225.131 183.029 217.729 182.643 216.126 183.687C216.126 183.687 216.985 172.387 208.721 164.979L219.26 161.18C219.26 161.18 223.251 159.463 224.484 157.668C225.26 156.568 226.361 155.738 227.633 155.295C227.633 155.295 230.575 153.206 230.67 152.067C230.764 150.927 234.268 149.531 234.268 149.531L232.284 132.6L233.329 104.491C233.329 104.491 236.652 80.9397 243.679 82.2707C250.706 83.6017 255.913 114.461 255.913 114.461Z" fill="#E8F5FF"/>
<path opacity="0.1" d="M243.559 142.856C243.559 142.856 253.34 140.28 255.904 143.428C258.469 146.577 243.559 142.856 243.559 142.856Z" fill="black"/>
<path opacity="0.1" d="M241.281 147.175C244.604 149.502 254.86 149.596 254.86 149.596L241.281 147.175Z" fill="black"/>
<path opacity="0.1" d="M246.313 158.808C246.599 158.902 253.363 166.121 256.202 163.937C259.042 161.753 246.313 158.808 246.313 158.808Z" fill="black"/>
<path opacity="0.1" d="M155.221 98.2227C155.221 98.2227 157.207 111.899 156.228 117.469C155.249 123.039 158.822 129.941 158.822 129.941L155.221 98.2227Z" fill="black"/>
<path d="M111.243 103.784C108.953 105.579 107.282 109.826 106.071 114.495C103.959 122.638 103.269 132.081 103.269 132.081C103.269 132.081 85.0355 127.902 86.3636 126.004C87.1995 124.811 86.0774 115.817 85.1414 109.297C84.5833 105.444 84.0852 102.453 84.0852 102.453C84.0852 102.453 117.512 98.8434 111.243 103.784Z" fill="#FFCCD0"/>
<path opacity="0.1" d="M111.243 103.404C108.953 105.201 107.282 109.446 106.071 114.115C102.438 115.218 98.5747 115.317 94.89 114.403C91.2052 113.488 87.8367 111.593 85.1414 108.92C84.5833 105.064 84.0852 102.073 84.0852 102.073C84.0852 102.073 117.512 98.4662 111.243 103.404Z" fill="black"/>
<path d="M121.044 93.1733C121.046 98.1519 119.287 102.971 116.077 106.777C112.868 110.583 108.415 113.131 103.508 113.97C98.6007 114.809 93.5548 113.884 89.2633 111.361C84.9718 108.837 81.7115 104.876 80.0593 100.18C78.4072 95.4834 78.4698 90.3539 80.2361 85.6992C82.0023 81.0445 85.3584 77.1646 89.7102 74.7464C94.062 72.3281 99.129 71.5274 104.014 72.4859C108.9 73.4443 113.289 76.1002 116.404 79.9835C119.407 83.7241 121.043 88.3768 121.044 93.1733Z" fill="#FFCCD0"/>
<path opacity="0.1" d="M137.668 225.003H131.658L131.151 214.386L130.621 203.397C130.621 203.397 131.987 203.194 134.162 202.891L135.041 202.773H135.112C135.588 205.003 136.057 207.293 136.509 209.58C137.262 213.64 137.654 217.759 137.68 221.888C137.68 222.175 137.68 222.461 137.68 222.73C137.697 223.494 137.68 224.258 137.668 225.003Z" fill="black"/>
<path d="M136.515 225.003H61.1316C61.4579 224.261 61.6754 223.812 61.6754 223.812C61.6754 223.812 67.7065 197.427 70.7721 186.263C70.773 186.254 70.773 186.244 70.7721 186.235C71.1551 184.718 71.6175 183.223 72.1574 181.755C72.1923 181.655 72.2374 181.56 72.292 181.469C73.809 179.002 75.7096 176.343 73.0505 172.544C70.3914 168.746 71.3331 152.032 71.3331 152.032C71.3331 152.032 74.5618 137.786 77.9795 130.19C78.4982 129.013 79.2343 127.945 80.1492 127.041C80.4466 126.75 80.7642 126.48 81.0995 126.234C81.3544 126.042 81.6201 125.865 81.8952 125.704L81.9496 125.67C83.3853 124.856 84.9796 124.361 86.6239 124.219C87.7919 124.097 88.9708 124.129 90.1303 124.316C95.6718 125.129 100.108 126.489 103.635 128.037C113.192 132.236 116.086 137.864 116.143 137.981L116.166 138.03C116.55 138.926 122.16 152.024 124.181 158.135C124.705 159.726 124.991 160.846 124.877 161.152C124.304 162.669 129.245 181.661 129.245 181.661C129.245 181.661 131.534 190.82 133.824 201.557C133.925 202.004 134.019 202.45 134.111 202.902C134.52 204.852 134.926 206.838 135.319 208.822C136.078 212.91 136.47 217.058 136.489 221.216C136.531 222.512 136.54 223.774 136.515 225.003Z" fill="#FF748E"/>
<path opacity="0.1" d="M86.1747 117.687C86.1747 117.687 80.9737 115.683 81.0367 118.723C81.0997 121.763 82.3047 123.217 81.924 123.661C81.5433 124.104 82.113 126.764 82.113 126.764C82.113 126.764 89.1401 126.764 92.3688 128.218C95.5976 129.672 107.499 132.586 109.019 133.473C110.539 134.36 116.175 138.339 116.175 138.339L116.682 130.805C116.682 130.805 110.857 125.994 101.299 123.526C91.742 121.059 86.1747 117.687 86.1747 117.687Z" fill="black"/>
<path d="M86.1747 117.307C86.1747 117.307 80.9737 115.303 81.0367 118.343C81.0997 121.383 82.3047 122.837 81.924 123.28C81.5433 123.724 82.113 126.383 82.113 126.383C82.113 126.383 89.1401 126.383 92.3688 127.84C95.5976 129.297 107.499 132.208 109.019 133.093C110.539 133.977 116.175 137.959 116.175 137.959L116.688 130.448C116.688 130.448 110.863 125.636 101.305 123.169C91.7477 120.701 86.1747 117.307 86.1747 117.307Z" fill="#FF748E"/>
<path opacity="0.1" d="M101.875 135.437C101.875 135.437 111.813 146.196 111.307 149.176C110.8 152.156 101.875 135.437 101.875 135.437Z" fill="black"/>
<path opacity="0.1" d="M85.7309 174.305C85.7309 174.305 78.4462 181.017 76.2994 181.398C74.1526 181.778 77.9452 183.044 80.4126 182.033C82.88 181.023 88.141 178.364 88.141 178.364L85.7309 174.305Z" fill="black"/>
<path d="M139.475 225.003H122.486C120.111 222.942 117.864 221.033 116.433 219.885C114.143 218.048 112.491 215.343 111.438 213.167C111.2 212.672 110.994 212.209 110.819 211.788C110.507 211.063 110.232 210.323 109.995 209.569L122.575 202.099C123.27 202.69 123.924 203.329 124.53 204.011L124.682 204.185C125.38 205.01 125.996 205.946 126.05 206.713C126.113 207.606 128.598 211.061 131.137 214.378C133.713 217.753 136.352 220.979 136.526 221.196C136.526 221.196 136.962 221.789 137.671 222.699C138.172 223.357 138.791 224.147 139.475 225.003Z" fill="#FFCCD0"/>
<path opacity="0.1" d="M116.404 79.9837C115.8 81.3462 115.259 82.7602 115.179 84.2773C114.953 88.6567 115.32 98.4489 110.471 100.647C108.069 101.729 105.499 99.3534 102.865 99.2961C100.97 99.2561 99.233 100.458 98.0766 101.961C96.9202 103.464 96.2018 105.247 95.3631 106.947C94.5996 108.491 93.7203 109.974 92.7326 111.384C92.4373 111.816 92.1121 112.226 91.7594 112.612C88.8027 111.364 86.1699 109.458 84.0614 107.039C81.953 104.62 80.4246 101.751 79.5928 98.6517C78.7609 95.5523 78.6475 92.3039 79.2612 89.154C79.875 86.0042 81.1996 83.036 83.1342 80.4756C85.0688 77.9152 87.5623 75.8302 90.4248 74.3795C93.2873 72.9288 96.4431 72.1506 99.6519 72.1042C102.861 72.0579 106.038 72.7446 108.941 74.1121C111.844 75.4796 114.397 77.4917 116.404 79.9952V79.9837Z" fill="black"/>
<path d="M114.798 83.5048C114.569 87.8843 114.938 97.6764 110.087 99.8719C107.685 100.954 105.115 98.5809 102.481 98.5237C100.587 98.4808 98.8519 99.6858 97.6927 101.186C96.5334 102.686 95.8207 104.472 94.9791 106.175C94.2155 107.718 93.3361 109.201 92.3486 110.611C91.759 111.447 91.1063 112.286 90.199 112.755C88.6189 113.58 86.704 113.116 85.0095 112.587C82.8112 111.894 80.6453 111.113 78.5119 110.245C78.5609 109.923 78.5858 109.598 78.5863 109.272C78.5234 109.392 78.4547 109.504 78.386 109.624L78.2514 109.859C78.0081 110.288 77.7706 110.717 77.553 111.158C77.47 111.327 77.3899 111.502 77.3183 111.676C77.0304 112.326 76.8497 113.018 76.783 113.726C76.6371 115.635 77.5788 117.447 78.4146 119.164C81.629 125.808 83.6155 133.576 81.1968 140.546C80.1492 143.577 78.3345 146.271 77.0092 149.199C74.6925 154.385 74.0105 160.154 75.0542 165.738C75.7154 169.207 77.0407 172.642 76.7144 176.16C76.1419 182.214 70.9209 186.719 65.6914 189.816C62.8662 191.482 59.4085 192.965 56.4087 191.648C58.3208 189.415 58.8131 186.327 59.2253 183.413C60.353 175.465 61.4837 167.514 62.6172 159.558C63.0694 156.392 63.5207 153.226 63.9711 150.061C64.8126 144.113 65.6656 138.099 65.1389 132.114C64.7554 127.703 63.6734 123.02 65.5855 119.027C66.5959 116.912 68.3963 115.16 68.9573 112.881C69.4182 111.029 68.9888 109.06 69.2922 107.174C69.4583 106.316 69.7394 105.484 70.128 104.701C70.6229 103.638 71.2688 102.653 72.0458 101.775C71.2787 101.552 70.5631 101.246 70.128 100.605C71.3589 99.8032 71.5449 97.997 70.9867 96.6403C70.4286 95.2835 69.3123 94.2502 68.3076 93.1796C67.3029 92.1091 66.3354 90.8611 66.2094 89.4013C65.9661 86.622 68.7426 84.4695 69.2321 81.7273C69.7273 78.9365 67.7694 76.223 67.9269 73.3978C68.1101 69.983 71.2472 67.5013 74.3443 66.0616C79.018 63.898 84.1807 63.0093 89.3088 63.4854C93.4821 63.8804 97.5209 65.1714 101.683 65.6723C104.193 65.9585 106.738 65.9871 109.231 66.4279C111.724 66.8687 114.223 67.799 115.977 69.6281C120.603 74.4512 115.062 78.4213 114.798 83.5048Z" fill="#FFE0D0"/>
<path opacity="0.1" d="M110.928 213.169C109.469 212.537 106.812 212.915 102.253 211.526C97.6928 210.138 96.814 203.864 96.814 203.864V203.844C96.7596 203.701 96.336 202.767 93.4679 199.499C90.2993 195.889 83.4496 177.659 83.4496 177.659C83.4496 177.659 77.3757 171.135 77.5674 168.731C77.7592 166.327 76.4883 159.929 76.6143 152.773C76.7402 145.617 90.2878 140.871 90.2878 140.871C116.373 136.249 110.23 166.321 109.534 168.599C108.839 170.878 112.448 177.032 112.448 177.032C111.939 179.711 114.538 183.859 114.538 183.859C114.538 183.859 115.168 187.528 115.296 188.922C115.303 188.986 115.318 189.05 115.339 189.111C115.757 190.425 119.163 191.616 120.549 192.34C122.006 193.101 126.691 199.748 126.691 199.748C127.702 204.628 112.382 213.81 110.928 213.169Z" fill="black"/>
<path d="M111.687 212.025C110.23 211.39 107.571 211.77 103.014 210.379C98.4569 208.988 97.5753 202.719 97.5753 202.719V202.699C97.5238 202.553 97.0973 201.623 94.2292 198.354C91.0605 194.745 84.2109 176.512 84.2109 176.512C84.2109 176.512 78.1369 169.991 78.3258 167.587C78.5148 165.182 77.2496 158.785 77.3755 151.635C77.5015 144.485 91.0405 139.742 91.0405 139.742C117.125 135.119 110.983 165.191 110.287 167.469C109.592 169.748 113.201 175.902 113.201 175.902C112.691 178.581 115.29 182.729 115.29 182.729C115.29 182.729 115.92 186.398 116.052 187.792C116.057 187.857 116.07 187.92 116.092 187.981C116.51 189.295 119.916 190.486 121.304 191.21C122.758 191.968 127.447 198.618 127.447 198.618C128.463 203.489 113.144 212.672 111.687 212.025Z" fill="#FF748E"/>
<path opacity="0.1" d="M91.5557 155.441C91.5557 155.441 102.951 167.463 105.925 167.463C108.899 167.463 91.5557 155.441 91.5557 155.441Z" fill="black"/>
<path d="M111.687 212.025C110.23 211.39 107.571 211.77 103.014 210.379C98.457 208.988 97.5754 202.72 97.5754 202.72V202.699C100.595 200.696 108.243 195.037 111.258 192.967C113.379 191.516 115.11 189.384 116.124 187.97C116.542 189.284 119.948 190.474 121.336 191.198C122.79 191.957 127.479 198.606 127.479 198.606C128.463 203.489 113.144 212.672 111.687 212.025Z" fill="#FF748E"/>
<g opacity="0.1">
<path d="M70.1453 100.636C70.1596 100.659 70.1796 100.679 70.1968 100.702C70.2827 100.593 70.3714 100.484 70.463 100.381C70.3654 100.476 70.259 100.562 70.1453 100.636Z" fill="black"/>
<path d="M76.7859 113.757C76.9061 112.168 77.7563 110.769 78.552 109.372C78.031 109.172 77.5101 108.968 76.9949 108.756C77.0439 108.435 77.0688 108.111 77.0693 107.786C76.265 109.217 75.3891 110.626 75.266 112.237C75.12 114.149 76.0617 115.958 76.8975 117.676C80.1148 124.316 82.0985 132.085 79.6798 139.058C78.6293 142.086 76.8174 144.782 75.4921 147.71C73.1763 152.896 72.4953 158.664 73.54 164.246C74.1955 167.718 75.5236 171.15 75.1973 174.668C74.6248 180.722 69.4067 185.228 64.1743 188.322C62.0361 189.587 59.5373 190.746 57.1472 190.663C56.9259 191.019 56.6791 191.359 56.4087 191.679C59.4113 193.005 62.8662 191.513 65.6914 189.842C70.9266 186.75 76.1562 182.256 76.7287 176.191C77.055 172.673 75.7268 169.241 75.0685 165.769C74.0235 160.187 74.7024 154.42 77.0149 149.233C78.3316 146.308 80.1635 143.609 81.2025 140.58C83.6213 133.608 81.6348 125.839 78.4203 119.198C77.5874 117.47 76.6399 115.669 76.7859 113.757Z" fill="black"/>
<path d="M115.972 69.6623C115.69 69.3735 115.388 69.1056 115.068 68.8608C118.537 73.3605 113.528 77.1846 113.279 82.0277C113.055 86.4072 113.422 96.2022 108.57 98.3948C106.171 99.4796 103.598 97.1039 100.967 97.0466C99.0697 97.0065 97.3352 98.2116 96.1759 99.7115C95.0166 101.211 94.3039 102.997 93.4652 104.698C92.7001 106.241 91.8198 107.724 90.8318 109.134C90.2594 109.973 89.5896 110.809 88.6793 111.281C87.105 112.103 85.1901 111.642 83.4927 111.109C81.8421 110.59 80.2067 110.018 78.5866 109.392C78.5833 109.69 78.5584 109.988 78.5122 110.282C80.6475 111.152 82.8143 111.933 85.0126 112.624C86.7072 113.156 88.6221 113.617 90.1993 112.795C91.1066 112.323 91.765 111.484 92.3518 110.646C93.3405 109.237 94.2199 107.755 94.9823 106.212C95.8238 104.512 96.5337 102.723 97.6958 101.223C98.8579 99.7229 100.59 98.5207 102.485 98.5608C105.118 98.618 107.691 100.994 110.09 99.909C114.942 97.7164 114.572 87.9214 114.798 83.5419C115.062 78.4498 120.603 74.4825 115.972 69.6623Z" fill="black"/>
</g>
<path opacity="0.1" d="M78.2543 109.861C78.011 110.29 77.7734 110.72 77.5558 111.16C77.4728 111.329 77.3927 111.504 77.3211 111.679C75.8213 110.167 72.1689 106.575 70.1309 105.461C70.6264 104.399 71.2723 103.414 72.0486 102.536C72.0486 102.536 76.9061 105.104 78.2543 109.861Z" fill="black"/>
<path d="M78.3888 109.626C77.2639 104.534 72.0486 101.778 72.0486 101.778C71.2716 102.655 70.6257 103.641 70.1309 104.703C72.2805 105.88 76.242 109.824 77.5559 111.161L78.3888 109.626Z" fill="#FF748E"/>
</g>
<defs>
<linearGradient id="paint0_linear_204_195" x1="208.962" y1="28.2806" x2="208.962" y2="23.0195" gradientUnits="userSpaceOnUse">
<stop stop-color="#808080" stop-opacity="0.25"/>
<stop offset="0.54" stop-color="#808080" stop-opacity="0.12"/>
<stop offset="1" stop-color="#808080" stop-opacity="0.1"/>
</linearGradient>
<linearGradient id="paint1_linear_204_195" x1="161.103" y1="225.003" x2="161.103" y2="0.970878" gradientUnits="userSpaceOnUse">
<stop stop-color="#808080" stop-opacity="0.25"/>
<stop offset="0.54" stop-color="#808080" stop-opacity="0.12"/>
<stop offset="1" stop-color="#808080" stop-opacity="0.1"/>
</linearGradient>
<clipPath id="clip0_204_195">
<rect width="310.891" height="224.029" fill="white" transform="translate(0 0.970703)"/>
</clipPath>
</defs>
</svg>
