<svg width="169" height="292" viewBox="0 0 169 292" fill="none" xmlns="http://www.w3.org/2000/svg">
<g opacity="0.2" clip-path="url(#clip0_357_243)">
<path d="M23.6436 291.339C23.6436 291.705 23.9385 292 24.3057 292H168.338C168.705 292 169 291.705 169 291.339C169 290.972 168.705 290.677 168.338 290.677H24.3057C23.9385 290.677 23.6436 290.972 23.6436 291.339Z" fill="#484565"/>
<path d="M99.3878 0.183519C99.3878 0.183519 87.1959 -2.76749 79.8174 15.0608C73.6686 29.9215 69.306 37.8575 74.2974 43.2483C76.0836 45.1767 78.6321 46.216 81.2586 46.3049L109.359 47.2274C109.359 47.2274 119.676 20.207 113.405 10.437C107.134 0.661461 99.3878 0.183519 99.3878 0.183519Z" fill="#2F2E41"/>
<path d="M105.208 44.9823L91.6921 49.4227V29.9883H103.956L105.208 44.9823Z" fill="#F6A6A9"/>
<path d="M94.836 280.479H82.1711L74.8315 212.912H94.402L94.836 280.479Z" fill="#F6A6A9"/>
<path d="M69.8402 291.339C68.5103 291.339 67.3251 291.305 66.4292 291.222C63.0627 290.916 59.8575 288.438 58.2438 286.987C57.5204 286.337 57.2867 285.298 57.6651 284.403C57.9377 283.758 58.4775 283.28 59.1452 283.091L68.0318 280.557L82.4216 270.859L82.583 271.148C82.6442 271.254 84.0576 273.799 84.5306 275.517C84.7086 276.172 84.6641 276.717 84.3915 277.134C84.2023 277.428 83.9407 277.595 83.7237 277.689C83.9852 277.962 84.8032 278.512 87.3128 278.912C90.9854 279.496 91.7533 275.694 91.7867 275.533L91.809 275.405L91.9202 275.333C93.6675 274.211 94.7415 273.699 95.1143 273.805C95.348 273.872 95.7319 273.988 96.7725 284.336C96.8782 284.659 97.6072 287.043 97.1119 289.316C96.5722 291.794 85.7381 290.938 83.5679 290.744C83.5067 290.75 75.3936 291.328 69.8347 291.328V291.339H69.8402Z" fill="#2F2E41"/>
<path d="M123.438 280.479H110.779L103.433 212.912H123.004L123.438 280.479Z" fill="#F6A6A9"/>
<path d="M98.4474 291.339C97.1175 291.339 95.9322 291.305 95.0364 291.222C91.6698 290.916 88.4647 288.438 86.851 286.987C86.1276 286.337 85.8939 285.298 86.2722 284.403C86.5449 283.758 87.0847 283.28 87.7524 283.091L96.6389 280.557L111.029 270.859L111.19 271.148C111.251 271.254 112.665 273.799 113.138 275.517C113.316 276.172 113.271 276.717 112.999 277.134C112.809 277.428 112.548 277.595 112.331 277.689C112.592 277.962 113.41 278.512 115.92 278.912C119.593 279.496 120.36 275.694 120.394 275.533L120.416 275.405L120.527 275.333C122.275 274.211 123.349 273.699 123.721 273.805C123.955 273.872 124.339 273.988 125.38 284.336C125.485 284.659 126.214 287.043 125.719 289.316C125.179 291.794 114.345 290.938 112.175 290.744C112.114 290.75 104.001 291.328 98.4419 291.328V291.339H98.4474Z" fill="#2F2E41"/>
<path d="M127.083 114.522H65.5613L87.6747 41.8364H112.203L127.083 114.522Z" fill="#DDDEDF"/>
<path d="M63.8863 155.309C63.1518 159.76 60.1804 162.956 57.2479 162.439C54.3154 161.922 52.5292 157.899 53.2637 153.447C53.5308 151.663 54.2375 149.979 55.3226 148.529L58.6724 129.706L67.7926 131.612L63.5191 149.963C64.0811 151.696 64.2091 153.53 63.8919 155.309H63.8863Z" fill="#F6A6A9"/>
<path d="M91.5474 41.8475C91.5474 41.8475 76.2672 41.4474 74.6591 45.4598C73.0509 49.4779 54.1538 145.055 54.1538 145.055H66.6183L91.5474 41.8475Z" fill="#DDDEDF"/>
<path d="M94.7915 34.5787C102.232 34.5787 108.263 28.5548 108.263 21.124C108.263 13.6933 102.232 7.66943 94.7915 7.66943C87.3513 7.66943 81.3198 13.6933 81.3198 21.124C81.3198 28.5548 87.3513 34.5787 94.7915 34.5787Z" fill="#F6A6A9"/>
<path d="M96.9061 4.62372C96.9061 4.62372 79.6116 30.3159 82.5218 46.3436L72.4612 40.047C72.4612 40.047 79.5448 7.60252 90.1007 5.08499L96.9061 4.61816V4.62372Z" fill="#2F2E41"/>
<path d="M114.295 114.522H73.9247L51.8336 205.07C51.4274 208.894 53.8535 212.462 57.5762 213.456C69.6957 216.696 98.7759 221.292 142.797 208.499C147.031 207.271 149.435 202.808 148.105 198.607L114.295 114.528V114.522Z" fill="#2F2E41"/>
<path d="M59.8463 54.73L59.5681 54.4521L59.2899 54.73C45.7514 41.2198 23.8105 41.2365 10.2831 54.7578C-3.2442 68.2846 -3.51686 90.47 10.0216 103.98L59.6015 153.447L109.148 103.919C122.675 90.3922 122.392 68.2068 108.859 54.6966C95.3201 41.1865 73.3792 41.2031 59.8519 54.7244L59.8463 54.73Z" fill="#00AA0A"/>
<path d="M96.4609 48.6388L107.646 42.909C112.759 41.0195 118.463 41.653 123.037 44.6263C136.948 53.6627 164.37 73.5862 152.585 83.434C137.054 96.4162 116.059 73.3917 116.059 73.3917L96.4609 48.6388Z" fill="#DDDEDF"/>
<path d="M96.2161 58.4312C92.3265 56.1416 90.4178 52.218 91.9592 49.6671C93.5006 47.1218 97.9021 46.9162 101.797 49.2058C103.366 50.1006 104.685 51.3677 105.642 52.9016L122.002 62.8272L116.927 70.6299L101.335 60.0151C99.5103 59.9095 97.7519 59.3649 96.2105 58.4257H96.2161V58.4312Z" fill="#F6A6A9"/>
<path d="M107.334 67.4288L111.986 56.3306L134.717 63.8442L124.551 80.7445L107.334 67.4288Z" fill="#DDDEDF"/>
</g>
<defs>
<clipPath id="clip0_357_243">
<rect width="169" height="292" fill="white"/>
</clipPath>
</defs>
</svg>
