<svg width="199" height="193" viewBox="0 0 199 193" fill="none" xmlns="http://www.w3.org/2000/svg">
<g opacity="0.2" clip-path="url(#clip0_357_346)">
<path d="M105.57 146.488C102.611 146.941 100.446 148.831 100.735 150.711C101.024 152.59 103.657 153.746 106.617 153.293C107.802 153.128 108.931 152.682 109.908 151.993L122.422 149.917L121.587 144.981L109.101 146.744C107.961 146.379 106.751 146.291 105.57 146.488Z" fill="#FFB6B6"/>
<path d="M159.499 131.103L154.646 141.377L130.252 149.571L110.009 150.649L109.502 145.797L131.44 141.22L153.952 130.606L159.499 131.103Z" fill="#E6E6E6"/>
<path d="M104.152 109.608L103.486 109.623L104.758 167.286L105.423 167.271L104.152 109.608Z" fill="#3F3D56"/>
<path d="M104.166 135.14C104.106 134.935 102.727 130.072 105.713 125.292L106.278 125.643C103.454 130.163 104.791 134.906 104.804 134.953L104.166 135.14Z" fill="#3F3D56"/>
<path d="M105.946 125.661C105.946 125.661 105.038 119.47 113.402 117.77C115.145 117.416 116.783 117.174 118.284 117.013C120.057 116.823 120.748 119.244 119.147 120.026C116.828 121.158 114.647 122.585 113.51 124.275C110.374 128.934 105.946 125.661 105.946 125.661Z" fill="#00AA0A"/>
<path d="M105.026 153.045L104.388 152.859C104.402 152.811 105.739 148.069 102.915 143.549L103.479 143.197C106.466 147.977 105.087 152.841 105.026 153.045Z" fill="#3F3D56"/>
<path d="M103.246 143.566C103.246 143.566 104.154 137.374 95.7901 135.675C94.0477 135.321 92.4096 135.079 90.908 134.918C89.1356 134.728 88.4442 137.148 90.0454 137.93C92.3643 139.063 94.5456 140.49 95.6826 142.179C98.8182 146.839 103.246 143.566 103.246 143.566Z" fill="#00AA0A"/>
<path d="M114.887 101.602C116.57 101.159 118.144 100.388 118.092 99.6242C118.03 98.7172 115.693 98.1096 113.677 98.0171C115.197 96.8299 116.595 95.1887 116.168 94.4465C115.775 93.7641 113.947 94.0285 112.261 94.6295C113.259 93.2059 113.96 91.6019 113.426 91.0529C112.76 90.3691 110.398 91.5494 108.786 92.854C109.1 90.8215 108.941 88.256 108.028 88.0239C107.263 87.8297 106.18 89.3221 105.437 90.9478C105.109 89.2418 104.445 87.6221 103.678 87.6221C102.585 87.6221 101.7 90.9087 101.7 93.05C101.7 93.171 101.703 93.285 101.708 93.3938C101.599 93.267 101.473 93.1345 101.33 92.9956C99.7903 91.5038 96.8103 89.848 96.0492 90.63C95.5149 91.1789 96.2165 92.783 97.2144 94.2065C95.5281 93.6055 93.7005 93.3412 93.3076 94.0236C92.7797 94.9404 95.0362 97.2293 96.8703 98.3392C96.7601 98.326 96.6443 98.3148 96.521 98.3064C94.38 98.1607 91.0334 98.8186 90.959 99.9061C90.9068 100.67 92.4811 101.441 94.1646 101.884C92.4885 102.513 90.9226 103.49 91.0647 104.264C91.2372 105.203 93.8683 105.532 95.9371 105.34C94.3916 106.819 92.7157 109.47 93.4151 110.247C93.9276 110.816 95.5793 110.227 97.0705 109.33C96.3548 110.968 95.9661 112.769 96.6217 113.207C97.488 113.785 99.864 111.772 101.117 110.041C100.989 112.159 101.497 115.07 102.505 115.185C103.267 115.271 104.112 113.737 104.632 112.08C105.185 113.779 106.091 115.384 106.873 115.278C107.889 115.139 108.332 112.156 108.142 110.036C109.434 111.696 111.609 113.472 112.43 112.925C113.085 112.487 112.696 110.686 111.981 109.048C113.472 109.945 115.124 110.534 115.636 109.965C116.336 109.188 114.66 106.537 113.114 105.058C115.183 105.25 117.814 104.921 117.987 103.982C118.129 103.208 116.563 102.231 114.887 101.602ZM105.822 107.595C105.389 107.654 104.994 107.738 104.693 107.953C104.373 107.636 103.906 107.54 103.387 107.481C102.806 107.414 102.277 107.408 101.875 107.743C101.727 107.334 101.365 107.043 100.943 106.762C100.58 106.519 100.227 106.32 99.8595 106.282C99.8307 105.834 99.5454 105.452 99.1962 105.065C98.9736 104.817 98.7508 104.596 98.5036 104.448C98.8602 104.015 98.8191 103.467 98.7088 102.866C98.6301 102.438 98.5278 102.047 98.299 101.757C98.6014 101.424 98.6767 100.954 98.7123 100.434C98.7511 99.8661 98.735 99.3511 98.4064 98.9677C99.2555 99.0754 99.6653 98.5476 100.046 97.8862C100.264 97.5083 100.439 97.1443 100.452 96.7753C100.898 96.7162 101.26 96.4062 101.624 96.0322C101.935 95.7127 102.2 95.3963 102.299 95.0322C102.655 95.331 103.141 95.3762 103.678 95.3762C104.2 95.3762 104.675 95.3333 105.029 95.0548C105.303 95.3024 105.687 95.4308 106.11 95.5383C106.514 95.641 106.896 95.7096 107.242 95.6405C107.369 95.929 107.594 96.191 107.851 96.4551C108.215 96.8291 108.577 97.1391 109.023 97.1983C109.037 97.5672 109.211 97.9312 109.429 98.3091C109.685 98.7539 109.954 99.1385 110.361 99.3101C110.313 99.5685 110.318 99.8528 110.339 100.152C110.375 100.672 110.45 101.142 110.752 101.475C110.523 101.765 110.421 102.156 110.342 102.584C110.232 103.185 110.191 103.733 110.548 104.166C110.3 104.314 110.078 104.535 109.855 104.783C109.506 105.17 109.221 105.552 109.192 106C108.824 106.038 108.472 106.237 108.109 106.48C107.613 106.811 107.2 107.154 107.121 107.686C106.748 107.506 106.303 107.529 105.822 107.595Z" fill="#00AA0A"/>
<path d="M104.667 108.629C108.569 108.629 111.732 105.473 111.732 101.58C111.732 97.6863 108.569 94.5303 104.667 94.5303C100.765 94.5303 97.6021 97.6863 97.6021 101.58C97.6021 105.473 100.765 108.629 104.667 108.629Z" fill="#3F3D56"/>
<path d="M19.4622 187.059C19.4622 187.278 19.6385 187.453 19.858 187.453H193.59C193.81 187.453 193.986 187.278 193.986 187.059C193.986 186.839 193.81 186.664 193.59 186.664H19.858C19.6385 186.664 19.4622 186.839 19.4622 187.059Z" fill="#3F3D56"/>
<path d="M114.506 170.115L110.149 181.11L104.511 177.274L107.843 165.768L114.506 170.115Z" fill="#FFB6B6"/>
<path d="M96.3106 166.023L84.7783 177.019L89.3912 181.877L101.18 172.672L96.3106 166.023Z" fill="#FFB6B6"/>
<path d="M161.66 130.225L161.532 129.33L158.585 123.576L148.846 126.133L150.64 134.06L161.66 130.225Z" fill="#FFB6B6"/>
<path d="M157.56 168.581L157.859 172.421C157.859 172.421 159.097 188.526 149.103 189.804C139.108 191.083 134.751 192.361 128.857 182.389L119.631 166.024L114.243 172.421L107.074 166.791C107.074 166.791 112.199 146.845 116.3 146.078C116.812 145.982 117.325 145.935 117.829 145.924C121.224 145.853 124.424 147.51 126.455 150.225L138.083 165.768L142.311 163.85L157.56 168.581Z" fill="#2F2E41"/>
<path d="M102.205 180.599L104.511 176.252L111.174 180.855C111.174 180.855 112.712 186.48 110.406 187.247C108.099 188.014 101.692 186.992 101.692 186.992C101.692 186.992 89.9039 189.549 89.6476 187.247C89.3914 184.946 95.0293 184.435 95.0293 184.435L102.205 180.599Z" fill="#2F2E41"/>
<path d="M127.32 177.53L109.509 166.332L100.411 174.462L94.2605 167.302C94.2605 167.302 105.536 150.681 108.868 149.914C112.2 149.147 117.581 148.635 117.581 148.635L133.983 163.722L127.32 177.53Z" fill="#2F2E41"/>
<path d="M84.5222 175.996L90.4165 182.389L89.6392 183.052C89.6392 183.052 88.11 189.698 84.5222 187.45C80.9344 185.202 80.6781 184.69 80.6781 184.69C80.6781 184.69 70.4273 186.991 69.4022 182.9C68.3771 178.809 71.1961 179.576 71.1961 179.576L73.7558 181.11L84.5222 175.996Z" fill="#2F2E41"/>
<path d="M151.922 128.946C156.451 128.946 160.122 125.282 160.122 120.763C160.122 116.244 156.451 112.581 151.922 112.581C147.393 112.581 143.721 116.244 143.721 120.763C143.721 125.282 147.393 128.946 151.922 128.946Z" fill="#FFB6B6"/>
<path d="M150 132.398L161.788 128.818C161.788 128.818 166.401 139.558 165.632 144.416C164.863 149.274 157.859 172.421 157.859 172.421L142.311 163.85C142.311 163.85 142.055 158.736 141.286 156.434C140.518 154.133 138.083 147.101 143.465 141.22C148.846 135.338 150 132.398 150 132.398Z" fill="#E6E6E6"/>
<path d="M34.8747 51.7691L34.2097 51.7837L37.2034 187.531L37.8684 187.517L34.8747 51.7691Z" fill="#3F3D56"/>
<path d="M35.7911 111.738C35.757 111.622 32.4589 100.003 39.3833 88.9194L39.9479 89.2706C33.1794 100.104 36.3961 111.438 36.4294 111.551L35.7911 111.738Z" fill="#3F3D56"/>
<path d="M39.5507 89.5501C39.5507 89.5501 37.4134 74.9739 57.1028 70.9735C61.2048 70.1401 65.061 69.5705 68.596 69.191C72.7686 68.743 74.3963 74.4423 70.6268 76.2832C65.1678 78.9491 60.0326 82.3081 57.356 86.2857C49.9741 97.2561 39.5507 89.5501 39.5507 89.5501Z" fill="#00AA0A"/>
<path d="M36.9525 153.89L36.3142 153.703C36.3473 153.59 39.5578 142.246 32.7957 131.422L33.3602 131.071C40.2847 142.154 36.9866 153.774 36.9525 153.89Z" fill="#3F3D56"/>
<path d="M33.1929 131.701C33.1929 131.701 35.3302 117.125 15.6408 113.125C11.5388 112.291 7.68252 111.722 4.14758 111.342C-0.0250605 110.894 -1.65269 116.594 2.11676 118.435C7.57578 121.1 12.711 124.459 15.3875 128.437C22.7695 139.407 33.1929 131.701 33.1929 131.701Z" fill="#00AA0A"/>
<path d="M60.597 32.9117C64.5602 31.869 68.2664 30.0523 68.1434 28.255C67.9974 26.1199 62.4952 24.6893 57.7484 24.4717C61.3287 21.6768 64.6184 17.8132 63.6124 16.0659C62.6875 14.4595 58.3849 15.0817 54.4153 16.4966C56.7645 13.1454 58.4161 9.36913 57.1582 8.07681C55.5914 6.46702 50.0305 9.24554 46.2355 12.3168C46.9743 7.53206 46.6008 1.49244 44.45 0.946015C42.6506 0.488881 40.1005 4.00219 38.3521 7.82934C37.5794 3.81304 36.015 0 34.2096 0C31.6377 0 29.5527 7.73733 29.5527 12.7782C29.5527 13.0631 29.5603 13.3314 29.5733 13.5877C29.3152 13.289 29.0193 12.9771 28.6819 12.6501C25.0577 9.13823 18.0423 5.24015 16.2505 7.0811C14.9927 8.37342 16.6443 12.1497 18.9935 15.5009C15.0238 14.086 10.7212 13.4638 9.79632 15.0702C8.55357 17.2287 13.8657 22.617 18.1836 25.23C17.9241 25.1988 17.6514 25.1725 17.3611 25.1528C12.3208 24.8097 4.44247 26.3585 4.26738 28.9188C4.14447 30.7161 7.85058 32.5328 11.8138 33.5755C7.86804 35.0555 4.18158 37.355 4.51619 39.1773C4.92228 41.3889 11.1164 42.1632 15.9866 41.71C12.3482 45.1932 8.40295 51.433 10.0494 53.2617C11.256 54.6018 15.1442 53.2147 18.6549 51.1043C16.97 54.9597 16.0549 59.2005 17.5982 60.2305C19.6377 61.5918 25.2312 56.854 28.1803 52.7772C27.8798 57.7647 29.0758 64.6165 31.449 64.8869C33.2427 65.0913 35.2305 61.4799 36.455 57.577C37.7569 61.5774 39.8911 65.3567 41.7308 65.1062C44.123 64.7805 45.1659 57.7573 44.7197 52.7662C47.7617 56.6752 52.8813 60.8558 54.8126 59.5667C56.3559 58.5367 55.4408 54.2959 53.7559 50.4405C57.2666 52.5509 61.1549 53.938 62.3614 52.5979C64.0079 50.7692 60.0626 44.5294 56.4242 41.0462C61.2944 41.4994 67.4886 40.7251 67.8946 38.5135C68.2292 36.6912 64.5428 34.3917 60.597 32.9117ZM39.2572 47.0193C38.2385 47.158 37.307 47.3561 36.5986 47.8619C35.846 47.1164 34.7468 46.8894 33.5247 46.7502C32.1562 46.5942 30.9127 46.5792 29.9644 47.3671C29.6174 46.4048 28.7642 45.7211 27.7703 45.0577C26.9157 44.4873 26.0869 44.0191 25.2205 43.9288C25.1528 42.8729 24.4811 41.9755 23.6591 41.0624C23.1349 40.4803 22.6105 39.9598 22.0286 39.6116C22.8682 38.5916 22.7714 37.3025 22.5116 35.8877C22.3263 34.8786 22.0856 33.9591 21.5469 33.276C22.2589 32.4919 22.4361 31.386 22.5199 30.1615C22.6113 28.8244 22.5733 27.6121 21.7999 26.7095C23.7987 26.9632 24.7633 25.7207 25.6599 24.1634C26.172 23.2738 26.5838 22.4169 26.6151 21.5483C27.6663 21.409 28.5179 20.6793 29.3748 19.7988C30.1069 19.0467 30.7296 18.3019 30.9635 17.4447C31.8024 18.1481 32.9469 18.2546 34.2096 18.2546C35.4397 18.2546 36.5576 18.1535 37.3901 17.498C38.0364 18.0808 38.9393 18.383 39.9357 18.6362C40.8869 18.8778 41.7847 19.0394 42.601 18.8768C42.899 19.556 43.4288 20.1728 44.0339 20.7945C44.8909 21.675 45.7424 22.4047 46.7936 22.544C46.8249 23.4126 47.2367 24.2696 47.7489 25.1591C48.3517 26.2062 48.9849 27.1116 49.9427 27.5156C49.8308 28.1238 49.8428 28.7933 49.8909 29.4977C49.9747 30.7222 50.1519 31.8282 50.8639 32.6122C50.3252 33.2953 50.0845 34.2148 49.8992 35.2239C49.6394 36.6387 49.5426 37.9278 50.3822 38.9478C49.8003 39.296 49.2759 39.8165 48.7517 40.3986C47.9297 41.3117 47.258 42.2091 47.1903 43.265C46.3239 43.3553 45.4952 43.8235 44.6405 44.3939C43.4733 45.173 42.501 45.9806 42.3143 47.2343C41.4384 46.8103 40.3899 46.8651 39.2572 47.0193Z" fill="#00AA0A"/>
<path d="M36.538 49.4533C45.7235 49.4533 53.1698 42.0235 53.1698 32.8583C53.1698 23.6931 45.7235 16.2632 36.538 16.2632C27.3525 16.2632 19.9062 23.6931 19.9062 32.8583C19.9062 42.0235 27.3525 49.4533 36.538 49.4533Z" fill="#3F3D56"/>
<path d="M190.205 154.75L189.54 154.765L190.255 187.2L190.92 187.185L190.205 154.75Z" fill="#3F3D56"/>
<path d="M189.928 169.155C189.893 169.038 189.1 166.241 190.814 163.498L191.379 163.849C189.827 166.333 190.559 168.943 190.566 168.969L189.928 169.155Z" fill="#3F3D56"/>
<path d="M191.069 163.783C191.069 163.783 190.558 160.3 195.263 159.344C196.243 159.145 197.164 159.009 198.009 158.918C199.006 158.811 199.395 160.173 198.494 160.613C197.19 161.25 195.963 162.052 195.323 163.003C193.56 165.624 191.069 163.783 191.069 163.783Z" fill="#00AA0A"/>
<path d="M190.691 179.227L190.053 179.04C190.06 179.014 190.792 176.405 189.24 173.921L189.805 173.57C191.519 176.313 190.726 179.109 190.691 179.227Z" fill="#3F3D56"/>
<path d="M189.55 173.854C189.55 173.854 190.061 170.372 185.356 169.416C184.376 169.217 183.455 169.081 182.61 168.99C181.613 168.883 181.224 170.245 182.125 170.684C183.429 171.321 184.656 172.124 185.296 173.074C187.059 175.696 189.55 173.854 189.55 173.854Z" fill="#00AA0A"/>
<path d="M196.098 150.25C197.045 150 197.93 149.566 197.901 149.137C197.866 148.627 196.551 148.285 195.417 148.233C196.273 147.565 197.059 146.642 196.818 146.224C196.597 145.841 195.569 145.989 194.621 146.327C195.182 145.527 195.577 144.624 195.276 144.316C194.902 143.931 193.573 144.595 192.666 145.329C192.843 144.185 192.754 142.742 192.24 142.612C191.81 142.503 191.201 143.342 190.783 144.256C190.598 143.297 190.224 142.386 189.793 142.386C189.178 142.386 188.68 144.234 188.68 145.439C188.68 145.507 188.682 145.571 188.685 145.632C188.624 145.561 188.553 145.486 188.472 145.408C187.606 144.569 185.93 143.638 185.502 144.078C185.201 144.386 185.596 145.289 186.157 146.089C185.209 145.751 184.181 145.603 183.96 145.987C183.663 146.502 184.932 147.79 185.964 148.414C185.902 148.407 185.837 148.4 185.767 148.396C184.563 148.314 182.68 148.684 182.639 149.296C182.609 149.725 183.495 150.159 184.442 150.408C183.499 150.762 182.618 151.311 182.698 151.747C182.795 152.275 184.275 152.46 185.439 152.352C184.569 153.184 183.627 154.675 184.02 155.112C184.308 155.432 185.238 155.101 186.076 154.597C185.674 155.518 185.455 156.531 185.824 156.777C186.311 157.102 187.648 155.97 188.352 154.996C188.281 156.188 188.566 157.825 189.133 157.89C189.562 157.939 190.037 157.076 190.329 156.143C190.641 157.099 191.15 158.002 191.59 157.942C192.162 157.864 192.411 156.186 192.304 154.994C193.031 155.928 194.254 156.927 194.716 156.618C195.085 156.372 194.866 155.359 194.463 154.438C195.302 154.942 196.231 155.274 196.52 154.953C196.913 154.516 195.97 153.025 195.101 152.193C196.265 152.302 197.745 152.117 197.842 151.588C197.922 151.153 197.041 150.603 196.098 150.25ZM190.999 153.62C190.756 153.654 190.533 153.701 190.364 153.822C190.184 153.644 189.921 153.589 189.629 153.556C189.302 153.519 189.005 153.515 188.779 153.704C188.696 153.474 188.492 153.31 188.254 153.152C188.05 153.015 187.852 152.904 187.645 152.882C187.629 152.63 187.468 152.415 187.272 152.197C187.147 152.058 187.022 151.934 186.882 151.85C187.083 151.607 187.06 151.299 186.998 150.961C186.954 150.72 186.896 150.5 186.767 150.337C186.938 150.149 186.98 149.885 187 149.592C187.022 149.273 187.013 148.983 186.828 148.768C187.305 148.828 187.536 148.531 187.75 148.159C187.873 147.947 187.971 147.742 187.978 147.534C188.23 147.501 188.433 147.327 188.638 147.116C188.813 146.937 188.961 146.759 189.017 146.554C189.218 146.722 189.491 146.747 189.793 146.747C190.087 146.747 190.354 146.723 190.553 146.567C190.707 146.706 190.923 146.778 191.161 146.839C191.388 146.896 191.603 146.935 191.798 146.896C191.869 147.058 191.996 147.206 192.14 147.354C192.345 147.565 192.549 147.739 192.8 147.772C192.807 147.98 192.906 148.185 193.028 148.397C193.172 148.647 193.323 148.864 193.552 148.96C193.525 149.106 193.528 149.266 193.54 149.434C193.56 149.726 193.602 149.991 193.772 150.178C193.644 150.341 193.586 150.561 193.542 150.802C193.48 151.14 193.457 151.448 193.657 151.692C193.518 151.775 193.393 151.899 193.268 152.039C193.071 152.257 192.911 152.471 192.895 152.723C192.688 152.745 192.49 152.857 192.285 152.993C192.006 153.179 191.774 153.372 191.729 153.672C191.52 153.571 191.27 153.584 190.999 153.62Z" fill="#00AA0A"/>
<path d="M190.349 154.202C192.544 154.202 194.323 152.427 194.323 150.237C194.323 148.047 192.544 146.271 190.349 146.271C188.154 146.271 186.375 148.047 186.375 150.237C186.375 152.427 188.154 154.202 190.349 154.202Z" fill="#3F3D56"/>
<path d="M124.054 186.091C122.135 188.385 121.766 191.232 123.229 192.45C124.692 193.668 127.433 192.796 129.352 190.501C130.131 189.595 130.681 188.516 130.957 187.354L138.963 177.535L135.063 174.386L126.871 183.952C125.774 184.431 124.808 185.164 124.054 186.091Z" fill="#FFB6B6"/>
<path d="M159.042 137.557L161.828 148.569L148.191 170.351L134.269 184.312L129.757 180.577L143.797 163.146L154.44 140.686L159.042 137.557Z" fill="#E6E6E6"/>
<path d="M144.362 119.357C146.465 119.352 146.584 119.366 146.924 119.357C149.533 119.288 150.215 118.264 151.537 118.334C153.897 118.459 150.783 130.264 149.487 135.722C148.217 141.075 152.51 145.871 152.819 146.206C157.177 150.935 164.831 151.8 166.145 149.786C167.208 148.156 163.44 145.677 164.351 142.115C165.241 138.632 169.352 139.003 170.502 135.722C171.705 132.286 167.661 130.553 165.12 122.17C163.661 117.355 163.919 116.458 162.557 113.476C158.917 105.504 141.078 108.898 143.08 116.288C143.468 117.718 142.437 119.361 144.362 119.357Z" fill="#2F2E41"/>
</g>
<defs>
<clipPath id="clip0_357_346">
<rect width="199" height="193" fill="white"/>
</clipPath>
</defs>
</svg>
