<svg width="154" height="200" viewBox="0 0 154 200" fill="none" xmlns="http://www.w3.org/2000/svg">
<g opacity="0.2" clip-path="url(#clip0_357_387)">
<path d="M108.913 55.2213C108.913 56.3612 108.876 57.4916 108.803 58.6124C108.388 65.0766 106.755 71.4041 103.989 77.2613C103.967 77.3114 103.942 77.3578 103.921 77.4043C103.792 77.6758 103.66 77.9474 103.524 78.2154C102.701 79.872 101.789 81.4824 100.79 83.0393C96.2289 90.1868 89.9771 96.1008 82.5871 100.259C75.1972 104.417 66.8967 106.691 58.4191 106.88L58.9302 136.267L65.5953 132.758L66.7854 135.02L58.9803 139.129L59.9345 193.707L59.9451 194.436L54.7917 194.869L54.8024 194.851L56.4249 106.884C49.6012 106.786 42.865 105.334 36.6073 102.611C30.3496 99.889 24.6951 95.9509 19.9722 91.0256C19.6471 90.6897 19.3253 90.3431 19.0108 90.0001C18.9965 89.9858 18.9859 89.9715 18.975 89.9608C15.04 85.6701 11.8575 80.746 9.56172 75.3961C9.6118 75.4533 9.66536 75.5069 9.71546 75.564C4.52694 63.4327 4.17504 49.7767 8.73187 37.3943C13.2887 25.0119 22.4092 14.8408 34.2244 8.9652C34.4031 8.87586 34.5855 8.7901 34.7642 8.70077C46.4516 3.07207 59.8275 2.03928 72.2407 5.80711C84.6538 9.57493 95.1981 17.8683 101.784 29.0435C102.098 29.5723 102.402 30.1119 102.695 30.655C106.786 38.1966 108.923 46.642 108.913 55.2213Z" fill="#757575"/>
<path d="M70.8631 194.989C79.3635 194.989 86.2545 188.099 86.2545 179.6C86.2545 171.1 79.3635 164.21 70.8631 164.21C62.3626 164.21 55.4717 171.1 55.4717 179.6C55.4717 188.099 62.3626 194.989 70.8631 194.989Z" fill="#2F2E41"/>
<path d="M89.0541 190.178H75.2651V194.853H89.0541V190.178Z" fill="#2F2E41"/>
<path d="M89.1516 194.854C89.9586 194.854 90.6129 193.109 90.6129 190.958C90.6129 188.806 89.9586 187.062 89.1516 187.062C88.3446 187.062 87.6904 188.806 87.6904 190.958C87.6904 193.109 88.3446 194.854 89.1516 194.854Z" fill="#2F2E41"/>
<path d="M85.8378 189.821H72.0488V194.496H85.8378V189.821Z" fill="#2F2E41"/>
<path d="M85.9351 194.496C86.7421 194.496 87.3963 192.752 87.3963 190.6C87.3963 188.448 86.7421 186.704 85.9351 186.704C85.1281 186.704 84.4739 188.448 84.4739 190.6C84.4739 192.752 85.1281 194.496 85.9351 194.496Z" fill="#2F2E41"/>
<path d="M55.9329 165.288C54.6901 159.723 58.6628 154.1 64.8061 152.729C70.9495 151.357 76.9371 154.757 78.1799 160.322C79.4227 165.887 75.3512 167.939 69.2079 169.311C63.0646 170.682 57.1757 170.853 55.9329 165.288Z" fill="#00AA0A"/>
<path d="M76.7785 178.723C75.9736 178.74 75.1838 178.503 74.5207 178.046C73.8577 177.589 73.3548 176.936 73.0833 176.178C73.0684 176.134 73.0623 176.087 73.0655 176.04C73.0688 175.993 73.0812 175.947 73.1021 175.905C73.123 175.863 73.1519 175.826 73.1873 175.795C73.2227 175.764 73.2638 175.74 73.3083 175.726C73.3528 175.711 73.3998 175.705 73.4466 175.708C73.4935 175.711 73.5392 175.723 73.5812 175.744C73.6232 175.765 73.6607 175.794 73.6915 175.83C73.7224 175.865 73.7459 175.906 73.7609 175.951C74.302 177.561 76.1547 178.404 77.8903 177.828C78.752 177.547 79.4678 176.937 79.8818 176.131C80.0594 175.784 80.1662 175.405 80.1959 175.016C80.2257 174.628 80.1779 174.237 80.0553 173.867C80.0403 173.822 80.0343 173.775 80.0375 173.728C80.0407 173.682 80.0531 173.636 80.074 173.594C80.0949 173.552 80.1239 173.514 80.1593 173.483C80.1947 173.453 80.2358 173.429 80.2803 173.414C80.3248 173.399 80.3718 173.393 80.4186 173.396C80.4654 173.4 80.5111 173.412 80.5532 173.433C80.5952 173.454 80.6327 173.483 80.6635 173.518C80.6943 173.553 80.7179 173.595 80.7328 173.639C80.8857 174.098 80.9457 174.583 80.9094 175.066C80.8731 175.549 80.7411 176.019 80.5212 176.451C80.0219 177.426 79.157 178.165 78.1152 178.506C77.6842 178.65 77.2329 178.723 76.7785 178.723Z" fill="white"/>
<path d="M83.6345 180.815C84.0477 181.623 84.123 182.561 83.8439 183.425C83.5648 184.288 82.9543 185.005 82.1465 185.418C81.3387 185.831 80.3999 185.906 79.5365 185.627C78.6732 185.348 77.9561 184.738 77.543 183.93L77.5399 183.924C76.6813 182.241 77.8677 181.197 79.5507 180.338C81.2337 179.48 82.7759 179.132 83.6345 180.815Z" fill="white"/>
<path d="M138.568 195.128H2.40621C2.31142 195.128 2.22052 195.09 2.1535 195.023C2.08647 194.956 2.04883 194.865 2.04883 194.77C2.04883 194.676 2.08647 194.585 2.1535 194.518C2.22052 194.451 2.31142 194.413 2.40621 194.413H138.568C138.663 194.413 138.754 194.451 138.821 194.518C138.888 194.585 138.925 194.676 138.925 194.77C138.925 194.865 138.888 194.956 138.821 195.023C138.754 195.09 138.663 195.128 138.568 195.128Z" fill="#3F3D56"/>
<path d="M67.4196 199.972C68.8531 199.603 69.0605 195.602 67.8829 191.036C66.7052 186.471 64.5885 183.069 63.1549 183.439C61.7214 183.808 61.514 187.809 62.6917 192.375C63.8693 196.941 65.9861 200.342 67.4196 199.972Z" fill="#2F2E41"/>
<path d="M93.2639 161.254H87.408C87.3522 161.254 87.2978 161.238 87.2518 161.206C87.2058 161.174 87.1704 161.13 87.1503 161.078C87.1303 161.026 87.1264 160.969 87.1393 160.914C87.1522 160.86 87.1813 160.811 87.2226 160.774L92.5476 155.952H87.6276C87.5544 155.952 87.4841 155.923 87.4324 155.871C87.3806 155.819 87.3515 155.749 87.3515 155.676C87.3515 155.602 87.3806 155.532 87.4324 155.48C87.4841 155.429 87.5544 155.399 87.6276 155.399H93.2639C93.3197 155.399 93.3742 155.416 93.4202 155.448C93.4662 155.479 93.5016 155.524 93.5216 155.576C93.5417 155.628 93.5455 155.685 93.5326 155.739C93.5197 155.794 93.4907 155.843 93.4494 155.88L88.1243 160.702H93.2639C93.3372 160.702 93.4074 160.731 93.4592 160.783C93.511 160.835 93.5401 160.905 93.5401 160.978C93.5401 161.052 93.511 161.122 93.4592 161.174C93.4074 161.225 93.3372 161.254 93.2639 161.254Z" fill="#CBCBCB"/>
<path d="M100.72 152.695H94.8643C94.8085 152.695 94.7541 152.678 94.7081 152.646C94.6621 152.615 94.6267 152.57 94.6066 152.518C94.5866 152.466 94.5827 152.409 94.5956 152.355C94.6085 152.301 94.6376 152.252 94.6789 152.214L100.004 147.392H95.0839C95.0107 147.392 94.9404 147.363 94.8887 147.311C94.8369 147.259 94.8078 147.189 94.8078 147.116C94.8078 147.043 94.8369 146.972 94.8887 146.921C94.9404 146.869 95.0107 146.84 95.0839 146.84H100.72C100.776 146.84 100.83 146.857 100.876 146.888C100.922 146.92 100.958 146.965 100.978 147.017C100.998 147.069 101.002 147.126 100.989 147.18C100.976 147.234 100.947 147.283 100.906 147.321L95.5806 152.143H100.72C100.793 152.143 100.864 152.172 100.916 152.224C100.967 152.275 100.996 152.346 100.996 152.419C100.996 152.492 100.967 152.562 100.916 152.614C100.864 152.666 100.793 152.695 100.72 152.695Z" fill="#CBCBCB"/>
<path d="M97.4065 143.307H91.5506C91.4948 143.307 91.4404 143.29 91.3944 143.258C91.3484 143.227 91.313 143.182 91.2929 143.13C91.2728 143.078 91.269 143.021 91.2819 142.967C91.2948 142.912 91.3239 142.863 91.3652 142.826L96.6902 138.004H91.7702C91.697 138.004 91.6267 137.975 91.5749 137.923C91.5231 137.871 91.494 137.801 91.494 137.728C91.494 137.655 91.5231 137.584 91.5749 137.533C91.6267 137.481 91.697 137.452 91.7702 137.452H97.4065C97.4623 137.452 97.5168 137.469 97.5628 137.5C97.6088 137.532 97.6442 137.576 97.6642 137.628C97.6843 137.68 97.6881 137.737 97.6752 137.792C97.6623 137.846 97.6333 137.895 97.5919 137.932L92.2669 142.754H97.4065C97.4797 142.754 97.55 142.784 97.6018 142.835C97.6536 142.887 97.6827 142.957 97.6827 143.031C97.6827 143.104 97.6536 143.174 97.6018 143.226C97.55 143.278 97.4797 143.307 97.4065 143.307Z" fill="#CBCBCB"/>
<path d="M137.991 63.3817L142.564 59.725C139.012 59.3332 137.552 61.2702 136.955 62.8034C134.18 61.6512 131.158 63.1612 131.158 63.1612L140.307 66.4821C139.846 65.2495 139.042 64.174 137.991 63.3817Z" fill="#3F3D56"/>
<path d="M6.83283 3.70791L11.4054 0.0512102C7.85317 -0.340643 6.39362 1.5964 5.79628 3.12959C3.02111 1.9774 0 3.48741 0 3.48741L9.14896 6.80833C8.68741 5.57571 7.88397 4.50021 6.83283 3.70791Z" fill="#3F3D56"/>
<path d="M149.427 16.2143L154 12.5576C150.448 12.1657 148.988 14.1027 148.391 15.6359C145.616 14.4837 142.594 15.9938 142.594 15.9938L151.743 19.3147C151.282 18.0821 150.478 17.0066 149.427 16.2143Z" fill="#3F3D56"/>
</g>
<defs>
<clipPath id="clip0_357_387">
<rect width="154" height="200" fill="white"/>
</clipPath>
</defs>
</svg>
