<svg width="174" height="197" viewBox="0 0 174 197" fill="none" xmlns="http://www.w3.org/2000/svg">
<g clip-path="url(#clip0_204_474)">
<path d="M117.94 155.117C123.463 149.909 126.311 142.106 123.344 135.505C119.024 142.147 111.912 147.378 103.667 149.978C100.455 150.991 96.7624 151.826 95.0157 154.381C93.9288 155.97 93.8496 157.961 94.3393 159.76C94.829 161.56 95.8373 163.216 96.8356 164.849L96.8413 165.31C104.658 163.319 112.416 160.326 117.94 155.117Z" fill="#F2F2F2"/>
<path d="M123.178 135.54C122.246 141.288 119.199 146.814 114.539 150.98C113.528 151.923 112.38 152.707 111.135 153.306C109.854 153.874 108.457 154.133 107.057 154.06C105.739 154.018 104.396 153.843 103.089 154.08C102.447 154.193 101.836 154.434 101.29 154.789C100.744 155.145 100.275 155.606 99.9115 156.147C99.0448 157.424 98.757 158.896 98.5331 160.343C98.2844 161.951 98.0554 163.624 96.9989 165.006C96.8709 165.174 97.1771 165.337 97.3049 165.17C99.143 162.764 98.528 159.69 99.7683 157.095C100.347 155.885 101.348 154.819 102.845 154.453C104.155 154.134 105.54 154.314 106.874 154.366C108.242 154.454 109.612 154.246 110.893 153.758C112.169 153.217 113.349 152.473 114.388 151.555C116.662 149.608 118.606 147.304 120.142 144.732C121.847 141.915 123 138.797 123.537 135.547C123.569 135.348 123.21 135.343 123.178 135.54Z" fill="white"/>
<path d="M116.136 149.696C117.085 150.285 118.193 150.563 119.307 150.492C120.42 150.421 121.484 150.003 122.35 149.298C122.514 149.157 122.269 148.928 122.105 149.07C121.3 149.728 120.309 150.116 119.272 150.181C118.235 150.245 117.204 149.983 116.324 149.43C116.138 149.31 115.951 149.577 116.136 149.696Z" fill="white"/>
<path d="M107.722 154.159C107.538 153.155 107.568 152.123 107.81 151.131C108.052 150.139 108.502 149.21 109.128 148.405C109.255 148.237 108.949 148.074 108.822 148.242C108.172 149.081 107.707 150.049 107.457 151.081C107.207 152.114 107.179 153.187 107.373 154.232C107.412 154.43 107.761 154.356 107.722 154.159Z" fill="white"/>
<path d="M121.393 141.831C121.001 141.691 120.651 141.454 120.377 141.14C120.103 140.827 119.913 140.449 119.826 140.042C119.791 139.843 119.442 139.917 119.477 140.115C119.576 140.564 119.785 140.981 120.087 141.328C120.389 141.674 120.774 141.939 121.205 142.098C121.246 142.118 121.292 142.124 121.337 142.115C121.382 142.106 121.422 142.081 121.452 142.046C121.464 142.029 121.472 142.009 121.475 141.988C121.479 141.967 121.478 141.945 121.472 141.925C121.466 141.904 121.456 141.885 121.443 141.869C121.429 141.853 121.412 141.84 121.393 141.831Z" fill="white"/>
<path d="M97.1509 128C97.169 128.125 97.1871 128.25 97.2029 128.377C97.4355 130.053 97.5113 131.747 97.4292 133.437C97.4252 133.567 97.4189 133.7 97.4106 133.83C97.1506 137.942 96.0319 141.953 94.1268 145.605C93.3517 147.095 92.4567 148.52 91.4505 149.865C90.0487 151.743 88.3572 153.681 87.7672 155.789C87.703 156.008 87.6543 156.23 87.6213 156.456L96.1936 165.281C96.2247 165.292 96.2535 165.305 96.2847 165.317L96.6084 165.683C96.6664 165.616 96.7249 165.546 96.7828 165.479C96.8167 165.44 96.8485 165.399 96.8824 165.361C96.9043 165.334 96.9262 165.308 96.9477 165.285C96.955 165.276 96.9623 165.267 96.9673 165.26C96.9888 165.237 97.0061 165.214 97.0253 165.193C97.3534 164.8 97.6789 164.404 98.0018 164.006C98.0041 164.004 98.0041 164.004 98.0045 164C100.456 160.957 102.637 157.71 104.182 154.278C104.228 154.174 104.277 154.069 104.32 153.962C105.002 152.423 105.543 150.825 105.934 149.188C106.143 148.299 106.3 147.398 106.405 146.491C106.669 144.149 106.508 141.778 105.931 139.493C104.776 134.915 101.953 130.71 97.4938 128.19C97.3797 128.126 97.2674 128.063 97.1509 128Z" fill="#F2F2F2"/>
<path d="M97.0415 128.115C100.275 133.192 101.665 139.202 100.827 144.969C100.675 146.239 100.299 147.471 99.7174 148.609C99.0695 149.753 98.1248 150.699 96.9835 151.349C95.9017 152.006 94.7077 152.569 93.8284 153.444C93.3959 153.87 93.0701 154.392 92.8778 154.968C92.6855 155.544 92.632 156.158 92.7218 156.759C92.9132 158.232 93.7015 159.558 94.5243 160.831C95.4377 162.245 96.4123 163.701 96.5254 165.358C96.539 165.559 96.8963 165.529 96.8827 165.328C96.686 162.444 94.068 160.312 93.2634 157.591C92.8879 156.321 92.9499 154.945 93.8924 153.869C94.7165 152.928 95.9472 152.346 97.0491 151.689C98.1756 151.066 99.1328 150.176 99.8369 149.097C100.483 147.992 100.912 146.774 101.103 145.507C101.571 142.702 101.529 139.835 100.977 137.045C100.35 133.803 99.1135 130.711 97.3327 127.932C97.221 127.757 96.9306 127.941 97.0415 128.115Z" fill="white"/>
<path d="M101.213 143.107C103.561 143.085 105.564 141.553 105.9 139.533C105.933 139.334 105.579 139.28 105.546 139.48C105.232 141.371 103.373 142.776 101.178 142.796C100.948 142.798 100.983 143.109 101.213 143.107Z" fill="white"/>
<path d="M97.5825 151.078C96.7704 150.43 96.0983 149.623 95.607 148.707C95.1156 147.791 94.8153 146.784 94.7242 145.748C94.7097 145.547 94.3524 145.577 94.3669 145.778C94.4641 146.856 94.779 147.903 95.2925 148.856C95.8061 149.808 96.5075 150.646 97.3542 151.319C97.5222 151.458 97.7496 151.216 97.5825 151.078Z" fill="white"/>
<path d="M99.9686 134.073C99.5347 134.161 99.0868 134.152 98.6566 134.047C98.2265 133.942 97.8248 133.743 97.4801 133.465C97.3142 133.325 97.087 133.567 97.2518 133.706C97.6339 134.012 98.0779 134.231 98.5529 134.348C99.028 134.465 99.5228 134.478 100.003 134.384C100.098 134.365 100.173 134.305 100.164 134.214C100.156 134.169 100.131 134.13 100.094 134.104C100.058 134.078 100.013 134.067 99.9686 134.073Z" fill="white"/>
<path d="M77.2873 165.048C66.618 172.355 56.0099 174.209 47.4174 170.27C36.3907 165.214 29.7112 151.294 29.0916 132.08L29.7448 132.141C30.3557 151.088 36.8772 164.784 47.637 169.718C55.9992 173.552 66.3782 171.709 76.862 164.529L77.2873 165.048Z" fill="#F2F2F2"/>
<path d="M143.222 41.3201C142.171 52.9162 139.178 65.1436 134.483 76.9414C128.678 91.531 120.747 104.381 111.546 114.103L111.036 113.658C120.191 103.982 128.087 91.1885 133.868 76.6593C139.092 63.5295 142.2 49.866 142.858 37.1519L143.511 37.2613C143.442 38.604 143.345 39.957 143.222 41.3201Z" fill="#F2F2F2"/>
<path d="M114.878 24.8394L114.244 24.909C111.416 13.7773 105.934 6.0654 98.3914 2.60683C88.8026 -1.78962 76.9456 1.16268 65.0046 10.92C53.0029 20.7272 42.3783 36.2182 35.0881 54.5403L34.4727 54.2581C41.7949 35.8561 52.4741 20.2902 64.543 10.4285C76.6725 0.516993 88.7714 -2.45696 98.6111 2.05461C106.37 5.61229 111.995 13.4912 114.878 24.8394Z" fill="#F2F2F2"/>
<path d="M150.072 121.753C137.15 142.347 121.472 157.061 105.927 163.185L105.612 162.607C121.05 156.526 136.636 141.887 149.499 121.387L150.072 121.753Z" fill="#F2F2F2"/>
<path d="M170.01 75.6144C169.797 77.9646 169.524 80.3436 169.191 82.7513L168.543 82.594C171.03 64.6262 170.148 48.1518 165.99 34.9485L166.615 34.8438C170.241 46.3613 171.394 60.341 170.01 75.6144Z" fill="#F2F2F2"/>
<path d="M35.0396 57.7632C33.3809 61.2633 31.8033 64.8894 30.3504 68.5407C21.9899 89.5526 17.7531 111.011 18.0993 130.598L17.4459 130.528C17.0993 110.869 21.3483 89.336 29.735 68.2586C31.1921 64.597 32.7742 60.9606 34.4376 57.4507L35.0396 57.7632Z" fill="#F2F2F2"/>
<path d="M76.9738 179.485C66.3045 186.793 55.6964 188.647 47.1039 184.707C36.0773 179.651 29.3977 165.732 28.7781 146.517L29.4313 146.578C30.0422 165.526 36.5637 179.222 47.3236 184.155C55.6857 187.989 66.0647 186.146 76.5485 178.966L76.9738 179.485Z" fill="#F2F2F2"/>
<path d="M142.908 55.7576C141.857 67.3537 138.864 79.5811 134.169 91.3789C128.364 105.969 120.433 118.819 111.232 128.541L110.722 128.095C119.878 118.42 127.773 105.626 133.554 91.0968C138.779 77.967 141.886 64.3035 142.545 51.5894L143.197 51.6988C143.128 53.0415 143.032 54.3945 142.908 55.7576Z" fill="#F2F2F2"/>
<path d="M141.757 40.0782L141.123 40.1478C138.295 29.0161 132.813 21.3042 125.271 17.8456C115.682 13.4491 103.825 16.4014 91.8838 26.1588C79.8821 35.9659 69.2574 51.457 61.9672 69.779L61.3518 69.4969C68.674 51.0948 79.3532 35.5289 91.4221 25.6673C103.552 15.7558 115.651 12.7818 125.49 17.2934C133.249 20.8511 138.874 28.7299 141.757 40.0782Z" fill="#F2F2F2"/>
<path d="M149.225 141.265C136.303 161.858 120.625 176.573 105.08 182.697L104.765 182.119C120.203 176.037 135.789 161.398 148.652 140.899L149.225 141.265Z" fill="#F2F2F2"/>
<path d="M169.696 90.0519C169.483 92.4021 169.21 94.7811 168.877 97.1888L168.229 97.0315C170.716 79.0637 169.834 62.5893 165.677 49.386L166.301 49.2812C169.927 60.7988 171.08 74.7785 169.696 90.0519Z" fill="#F2F2F2"/>
<path d="M34.7259 72.2007C33.0672 75.7008 31.4896 79.3269 30.0367 82.9782C21.6762 103.99 17.4394 125.449 17.7856 145.036L17.1322 144.966C16.7856 125.306 21.0346 103.773 29.4213 82.6961C30.8783 79.0345 32.4605 75.3981 34.1239 71.8882L34.7259 72.2007Z" fill="#F2F2F2"/>
<path d="M159.73 62.0693C160.453 60.9818 160.025 59.425 158.775 58.5921C157.526 57.7593 155.927 57.9657 155.205 59.0533C154.482 60.1408 154.91 61.6976 156.16 62.5305C157.409 63.3633 159.008 63.1568 159.73 62.0693Z" fill="#FD6584"/>
<path d="M76.7063 75.933C78.2188 73.6114 80.6883 71.7869 83.4385 71.6327C86.1888 71.4785 89.494 73.8246 90.8514 76.2386C93.3344 80.6544 92.2569 84.9003 88.8372 87.9714C88.3728 87.8137 86.7512 87.3369 86.2791 87.1846L85.9797 86.6431L85.6103 86.9723C81.3841 87.3947 77.3015 86.9242 74.1206 83.7698C74.5161 81.0247 75.1938 78.2547 76.7063 75.933Z" fill="#2F2E41"/>
<path d="M88.038 106.927L87.5384 111.568L87.8324 117.655L74.3734 116.053L73.1086 106.927L74.7199 106.943L88.038 106.927Z" fill="#FFB6B6"/>
<path d="M82.5119 86.8684C85.5985 86.8684 88.1007 84.362 88.1007 81.2701C88.1007 78.1783 85.5985 75.6719 82.5119 75.6719C79.4253 75.6719 76.9231 78.1783 76.9231 81.2701C76.9231 84.362 79.4253 86.8684 82.5119 86.8684Z" fill="#FFB7B7"/>
<path d="M76.3192 91.6717L79.5173 89.7496L85.9136 89.1089L91.567 91.9926L91.5104 100.802L87.9239 109.939L72.8926 108.017L72.3215 104.794C72.3215 104.794 68.1639 99.2001 72.6413 95.9966L76.3192 91.6717Z" fill="#31BE00"/>
<path d="M80.4224 72.7679C81.6334 72.4278 82.9133 72.4199 84.1284 72.7449C85.3435 73.0699 86.4491 73.716 87.3296 74.6155C88.2101 75.5151 88.8332 76.6351 89.1337 77.8584C89.4342 79.0817 89.401 80.3634 89.0378 81.5695C85.6339 81.8417 82.2694 81.5233 79.6172 79.111L79.3812 77.0417L78.4134 78.7734C77.4374 78.4983 76.4598 78.2215 75.4807 77.9431C75.7802 76.7227 76.3942 75.6024 77.2614 74.6942C78.1286 73.7861 79.2186 73.1218 80.4224 72.7679Z" fill="#2F2E41"/>
<path d="M57.1241 65.5135C56.9725 65.8372 56.8937 66.1902 56.8931 66.5478C56.8925 66.9053 56.9701 67.2586 57.1205 67.5828C57.271 67.907 57.4906 68.1942 57.7638 68.4242C58.0371 68.6542 58.3573 68.8214 58.702 68.914L69.1147 88.5943L73.3176 85.3449L61.7607 67.0216C61.8776 66.4312 61.7743 65.8183 61.4703 65.2991C61.1662 64.78 60.6826 64.3905 60.1111 64.2047C59.5396 64.0188 58.9198 64.0493 58.3693 64.2906C57.8188 64.5318 57.3757 64.9669 57.1241 65.5135Z" fill="#FFB6B6"/>
<path d="M74.2048 95.2445C74.2048 95.2445 73.2399 96.1017 71.8677 93.7347C70.7691 91.8398 65.2906 83.3545 64.5148 80.4131C64.0893 80.4251 63.6719 80.295 63.3283 80.0432C62.9847 79.7914 62.7346 79.4323 62.6172 79.0224L68.5021 76.7344C69.7813 77.3751 69.4263 78.2631 69.1019 78.7225L71.2936 82.0156L78.5838 90.2108L74.9132 94.6372L74.2048 95.2445Z" fill="#31BE00"/>
<path d="M173.683 197H0.317428C0.23324 197 0.152498 196.967 0.0929682 196.907C0.0334386 196.847 0 196.767 0 196.682C0 196.598 0.0334386 196.517 0.0929682 196.457C0.152498 196.398 0.23324 196.364 0.317428 196.364H173.683C173.767 196.364 173.848 196.398 173.907 196.457C173.967 196.517 174 196.598 174 196.682C174 196.767 173.967 196.847 173.907 196.907C173.848 196.967 173.767 197 173.683 197Z" fill="#CCCCCC"/>
<path d="M132.178 19.5425C129.049 16.4531 124.87 14.7481 120.68 13.6572C115.937 12.4224 111.032 11.695 106.186 10.9971C101.136 10.2698 96.066 9.70887 90.9758 9.31422C85.8925 8.92165 80.8001 8.69692 75.6984 8.64003C71.1525 8.58902 66.5762 8.58745 62.0524 9.09266C57.7915 9.5685 53.5409 10.5234 49.6996 12.4837C46.2802 14.1911 43.4075 16.825 41.4078 20.0861C39.5694 23.1216 38.4764 26.7603 38.8564 30.3284C39.0347 32.0854 39.5808 33.785 40.4592 35.3162C41.4888 37.0084 42.8009 38.5108 44.3383 39.758C47.5123 42.4427 51.3072 44.4052 54.0376 47.596C54.7587 48.4318 55.3885 49.3425 55.9164 50.3123C56.3129 51.0479 56.7588 51.6809 57.4963 52.11C58.1546 52.4863 58.9093 52.659 59.6654 52.6062C60.4215 52.5534 61.1451 52.2776 61.7449 51.8134C62.5955 51.1447 63.2063 50.1139 63.8645 49.2654L66.1595 46.3069C66.3255 46.0416 66.5177 45.7938 66.7333 45.5672C66.888 45.4392 66.6328 45.552 66.6834 45.5201C66.7113 45.5025 66.7602 45.5123 66.7906 45.4998C66.9434 45.4559 67.1001 45.4267 67.2585 45.4127C68.9344 45.104 70.6139 44.8153 72.2969 44.5466C78.5112 43.5422 84.7658 42.7137 91.0464 42.2672C94.2837 42.0082 97.5329 41.9306 100.779 42.0346C104.976 42.2067 109.115 43.0415 113.297 43.4016C117.799 43.7894 122.529 43.7358 126.771 41.9968C130.167 40.6049 133.32 38.2632 135.158 35.0288C136.031 33.4991 136.547 31.792 136.67 30.0346C136.895 26.0484 134.96 22.2894 132.178 19.5425Z" fill="#E6E6E6"/>
<path d="M73.1961 11.9072C72.3954 11.9072 71.5952 11.9115 70.7955 11.92C63.1166 12.0016 55.1805 12.6235 49.1582 16.5883C43.8127 20.1076 40.0663 27.9468 43.2368 33.5687C44.6927 36.1501 47.3305 38.0292 50.1231 40.0185C51.2177 40.7983 52.3498 41.6047 53.4346 42.4731C55.8045 44.3701 58.0361 46.916 59.3199 49.7786L64.9588 42.5097L66.0241 42.3054C67.0491 42.1088 91.2738 37.5075 104.175 39.0013C105.362 39.1388 106.561 39.2969 107.721 39.4497C112.962 40.1405 117.913 40.7925 122.665 39.8297C127.627 38.824 133.074 34.9857 133.399 29.8528C133.621 26.3389 131.339 22.4839 127.585 20.032C123.789 17.5528 119.055 16.5292 114.531 15.6932C100.896 13.1766 87.0607 11.9093 73.1961 11.9072Z" fill="white"/>
<path d="M116.957 23.0919H62.5015C62.1872 23.0919 61.8859 22.9669 61.6637 22.7443C61.4415 22.5217 61.3167 22.2199 61.3167 21.9051C61.3167 21.5903 61.4415 21.2885 61.6637 21.0659C61.8859 20.8433 62.1872 20.7183 62.5015 20.7183H116.957C117.271 20.7183 117.572 20.8433 117.795 21.0659C118.017 21.2885 118.142 21.5903 118.142 21.9051C118.142 22.2199 118.017 22.5217 117.795 22.7443C117.572 22.9669 117.271 23.0919 116.957 23.0919Z" fill="#31BE00"/>
<path d="M116.957 30.3766H62.5015C62.1872 30.3766 61.8859 30.2516 61.6637 30.029C61.4415 29.8064 61.3167 29.5045 61.3167 29.1898C61.3167 28.875 61.4415 28.5731 61.6637 28.3505C61.8859 28.128 62.1872 28.0029 62.5015 28.0029H116.957C117.271 28.0029 117.572 28.128 117.795 28.3505C118.017 28.5731 118.142 28.875 118.142 29.1898C118.142 29.5045 118.017 29.8064 117.795 30.029C117.572 30.2516 117.271 30.3766 116.957 30.3766Z" fill="#31BE00"/>
<path d="M68.8474 37.6618H62.5015C62.1872 37.6618 61.8859 37.5367 61.6637 37.3141C61.4415 37.0916 61.3167 36.7897 61.3167 36.4749C61.3167 36.1602 61.4415 35.8583 61.6637 35.6357C61.8859 35.4131 62.1872 35.2881 62.5015 35.2881H68.8474C69.1617 35.2881 69.4631 35.4131 69.6853 35.6357C69.9074 35.8583 70.0323 36.1602 70.0323 36.4749C70.0323 36.7897 69.9074 37.0916 69.6853 37.3141C69.4631 37.5367 69.1617 37.6618 68.8474 37.6618Z" fill="#31BE00"/>
<path d="M59.0086 66.1294C61.7898 66.1294 64.0445 63.871 64.0445 61.085C64.0445 58.299 61.7898 56.0405 59.0086 56.0405C56.2273 56.0405 53.9727 58.299 53.9727 61.085C53.9727 63.871 56.2273 66.1294 59.0086 66.1294Z" fill="#E6E6E6"/>
<path d="M44.3564 123.117C45.0787 122.029 44.6512 120.472 43.4015 119.639C42.1518 118.807 40.5531 119.013 39.8308 120.101C39.1085 121.188 39.536 122.745 40.7858 123.578C42.0355 124.411 43.6341 124.204 44.3564 123.117Z" fill="#F2F2F2"/>
<path d="M152.407 122.773C153.13 121.686 152.702 120.129 151.452 119.296C150.203 118.463 148.604 118.67 147.882 119.757C147.159 120.845 147.587 122.402 148.837 123.235C150.086 124.067 151.685 123.861 152.407 122.773Z" fill="#E6E6E6"/>
<path d="M111.618 83.5176C112.34 82.43 111.913 80.8732 110.663 80.0404C109.414 79.2075 107.815 79.414 107.093 80.5015C106.37 81.5891 106.798 83.1459 108.047 83.9787C109.297 84.8116 110.896 84.6051 111.618 83.5176Z" fill="#E6E6E6"/>
<path d="M95.0191 191.2H92.0764L90.6763 179.831H95.0191V191.2Z" fill="#FFB6B6"/>
<path d="M96.5721 196.307H94.4618L94.0851 194.311L93.1204 196.307H87.5236C87.2553 196.307 86.994 196.221 86.7779 196.062C86.5618 195.902 86.4022 195.678 86.3224 195.422C86.2425 195.165 86.2467 194.89 86.3342 194.636C86.4216 194.382 86.5879 194.162 86.8087 194.01L91.2782 190.917V188.9L95.9793 189.181L96.5721 196.307Z" fill="#2F2E41"/>
<path d="M78.49 191.2H75.5474L74.1472 179.831H78.49V191.2Z" fill="#FFB6B6"/>
<path d="M80.0432 196.307H77.933L77.5563 194.311L76.5916 196.307H70.9948C70.7265 196.307 70.4652 196.221 70.2491 196.062C70.033 195.902 69.8734 195.678 69.7936 195.422C69.7137 195.165 69.7179 194.89 69.8053 194.636C69.8928 194.382 70.0591 194.162 70.2799 194.01L74.7493 190.917V188.9L79.4505 189.181L80.0432 196.307Z" fill="#2F2E41"/>
<path d="M96.2887 181.396H96.2567L95.6908 162.91C96.057 162.202 96.2429 161.415 96.2318 160.618C96.2208 159.821 96.0132 159.039 95.6275 158.342L95.5464 158.195L95.7565 157.219C96.0263 155.966 95.9025 154.66 95.4021 153.48L94.8741 136.236C96.7602 123.992 87.7715 116.006 87.7715 116.006H74.3063L71.4155 125.955C69.5044 144.606 69.8511 162.781 72.8838 180.389L72.8011 180.431C72.5034 180.534 72.3757 180.947 72.5158 181.353C72.656 181.76 73.0109 182.006 73.3086 181.903L80.4198 181.656C80.7175 181.553 80.8452 181.14 80.705 180.733C80.5649 180.326 80.21 180.08 79.9123 180.183L79.4288 180.428L80.4599 162.59L80.3455 159.331L80.5813 155.635L81.6713 139.008L85.7971 159.454L90.0115 181.601C89.8953 181.707 89.8137 181.845 89.7775 181.998C89.7414 182.151 89.7523 182.311 89.809 182.457C89.8656 182.604 89.9652 182.73 90.0947 182.818C90.2242 182.907 90.3775 182.954 90.5343 182.954H96.2887C96.495 182.954 96.6928 182.871 96.8386 182.725C96.9844 182.579 97.0664 182.381 97.0664 182.175C97.0664 181.968 96.9844 181.77 96.8386 181.624C96.6928 181.478 96.4949 181.396 96.2887 181.396Z" fill="#2F2E41"/>
<path d="M90.0089 129.707C90.3128 129.52 90.572 129.268 90.7681 128.969C90.9643 128.67 91.0927 128.332 91.1443 127.979C91.1959 127.625 91.1695 127.264 91.0668 126.922C90.9642 126.579 90.7878 126.264 90.5502 125.997L92.6126 103.819L87.3192 104.229L86.9564 125.9C86.5355 126.329 86.2866 126.899 86.2567 127.5C86.2268 128.101 86.4181 128.692 86.7944 129.162C87.1706 129.631 87.7057 129.946 88.2982 130.046C88.8906 130.147 89.4993 130.026 90.0089 129.707Z" fill="#FFB6B6"/>
<path d="M91.371 92.0808C91.371 92.0808 92.6471 91.8938 92.4993 94.6269C92.3809 96.815 92.9434 110.302 91.9823 113.188C92.3448 113.411 92.6227 113.749 92.7722 114.149C92.9218 114.548 92.9344 114.986 92.8083 115.393L86.6343 114.075C85.9151 112.836 86.0641 111.565 86.5868 111.359L86.5561 107.401L85.1917 94.3557L90.4461 92.1996L91.371 92.0808Z" fill="#31BE00"/>
</g>
<defs>
<clipPath id="clip0_204_474">
<rect width="174" height="197" fill="white"/>
</clipPath>
</defs>
</svg>
