<svg width="264" height="187" viewBox="0 0 264 187" fill="none" xmlns="http://www.w3.org/2000/svg">
<g opacity="0.2" clip-path="url(#clip0_357_261)">
<path d="M29.4562 149.597C23.785 149.597 18.3003 147.565 13.9902 143.867C12.5524 142.632 11.0204 140.485 9.4369 137.486C8.42639 135.555 7.8604 133.42 7.78057 131.24C7.70075 129.06 8.10913 126.89 8.97566 124.889C8.14039 125.742 7.21653 126.502 6.21987 127.157L5.71605 127.494L5.68694 126.888C5.66784 126.493 5.65817 126.1 5.65817 125.72C5.65817 123.476 7.34922 121.2 6.56932 119.126C3.28224 110.387 -7.14355 101.702 7.9666 88.1763C9.36438 86.9251 7.49717 84.4235 7.49717 82.5304C7.49717 63.9783 27.5877 36.1485 41.0369 48.8851C48.8874 56.3195 65.2434 61.6008 72.8799 71.9418L72.981 72.2482L72.683 72.3691C71.1572 73.0125 69.5502 73.4414 67.9074 73.6436C69.6588 74.0019 71.4461 74.1521 73.2324 74.0912L73.5094 74.0814L73.5769 74.3516C74.2414 77.0267 74.5772 79.7734 74.5768 82.5304L74.5756 82.8284C74.5694 84.9225 75.0031 86.9944 75.8485 88.909C76.694 90.8236 77.932 92.538 79.4821 93.9403C81.9305 96.1801 83.8869 98.9071 85.2267 101.948C86.5665 104.988 87.2602 108.275 87.2637 111.6C87.2637 115.533 84.5996 120.695 82.3645 124.334C81.7981 125.261 81.0298 126.047 80.1174 126.633C79.205 127.219 78.172 127.591 77.0961 127.72C76.077 127.849 75.042 127.751 74.0646 127.434C73.0871 127.118 72.191 126.589 71.4397 125.886C72.4976 128.02 73.8761 129.979 75.5271 131.693L75.8321 132.008L75.4535 132.229C71.8149 134.358 67.678 135.479 63.466 135.477L63.2193 135.477C56.8246 135.477 50.7548 137.962 46.5663 142.296C44.3424 144.595 41.6834 146.425 38.7452 147.678C35.8071 148.932 32.649 149.584 29.4562 149.597Z" fill="#E6E6E6"/>
<path d="M21.0641 187C20.9612 187 20.8617 186.962 20.784 186.895C20.7063 186.827 20.6555 186.733 20.641 186.631C20.6228 186.503 18.8418 173.615 20.4413 156.487C21.9185 140.668 26.6623 117.884 40.873 99.1721C40.907 99.1271 40.9495 99.0894 40.9981 99.0609C41.0467 99.0325 41.1004 99.0139 41.1562 99.0063C41.2119 98.9988 41.2686 99.0023 41.323 99.0167C41.3774 99.0311 41.4284 99.0561 41.4732 99.0903C41.5179 99.1245 41.5555 99.1672 41.5838 99.216C41.612 99.2648 41.6305 99.3187 41.6379 99.3747C41.6454 99.4306 41.6419 99.4875 41.6274 99.542C41.613 99.5966 41.588 99.6478 41.5538 99.6926C27.4659 118.243 22.7603 140.86 21.2936 156.567C19.7033 173.595 21.4704 186.383 21.4884 186.51C21.497 186.571 21.4924 186.633 21.4751 186.692C21.4577 186.751 21.4279 186.806 21.3876 186.852C21.3474 186.898 21.2977 186.936 21.2419 186.961C21.1861 186.987 21.1255 187 21.0641 187Z" fill="#3F3D56"/>
<path d="M34.0396 125.093C33.9492 125.093 33.8611 125.065 33.788 125.012C33.7148 124.958 33.6603 124.883 33.6323 124.797C33.6044 124.711 33.6043 124.618 33.6322 124.531C33.6601 124.445 33.7146 124.37 33.7877 124.317C37.8369 121.567 42.2111 119.332 46.8098 117.665C53.9944 115.026 64.9196 112.634 76.1669 116.225C76.2204 116.242 76.2701 116.27 76.3131 116.306C76.356 116.343 76.3914 116.387 76.4172 116.437C76.443 116.487 76.4588 116.542 76.4635 116.598C76.4683 116.654 76.462 116.711 76.4449 116.765C76.4279 116.818 76.4004 116.868 76.3642 116.911C76.328 116.955 76.2836 116.99 76.2337 117.016C76.1838 117.042 76.1293 117.058 76.0733 117.062C76.0173 117.067 75.9609 117.061 75.9073 117.044C64.8905 113.526 54.1633 115.879 47.1042 118.472C42.5794 120.11 38.2753 122.307 34.2909 125.011C34.2179 125.065 34.1299 125.093 34.0396 125.093Z" fill="#3F3D56"/>
<path d="M206.193 149.597C200.521 149.597 195.037 147.565 190.727 143.867C189.289 142.632 187.757 140.485 186.173 137.486C185.163 135.555 184.597 133.42 184.517 131.24C184.437 129.06 184.845 126.89 185.712 124.889C184.877 125.742 183.953 126.502 182.956 127.157L182.452 127.494L182.423 126.887C182.404 126.493 182.395 126.1 182.395 125.72C182.395 123.476 184.086 121.2 183.306 119.126C180.019 110.387 169.593 101.702 184.703 88.1761C186.101 86.9249 184.233 84.4233 184.233 82.5303C184.233 63.9782 210.367 31.8824 217.773 48.885C226.908 69.8535 242.645 67.6106 249.616 71.9416L249.717 72.248L249.419 72.369C247.894 73.0124 246.287 73.4413 244.644 73.6434C246.395 74.0018 248.182 74.152 249.969 74.091L250.246 74.0813L250.313 74.3515C250.978 77.0266 251.314 79.7733 251.313 82.5303L251.312 82.8283C251.306 84.9224 251.739 86.9943 252.585 88.9089C253.43 90.8235 254.668 92.5378 256.218 93.9402C258.667 96.18 260.623 98.907 261.963 101.947C263.303 104.988 263.997 108.275 264 111.6C264 115.532 261.336 120.695 259.101 124.334C258.534 125.26 257.766 126.047 256.854 126.633C255.941 127.219 254.908 127.591 253.832 127.719C252.813 127.848 251.778 127.751 250.801 127.434C249.823 127.117 248.927 126.589 248.176 125.886C249.234 128.02 250.612 129.979 252.263 131.692L252.568 132.008L252.19 132.229C248.551 134.358 244.414 135.479 240.202 135.477L239.956 135.476C233.561 135.476 227.491 137.962 223.303 142.296C221.079 144.595 218.42 146.425 215.482 147.678C212.543 148.932 209.385 149.584 206.193 149.597Z" fill="#E6E6E6"/>
<path d="M197.8 187C197.698 187 197.598 186.962 197.52 186.895C197.443 186.827 197.392 186.733 197.377 186.631C197.359 186.503 195.578 173.615 197.178 156.487C198.655 140.668 203.399 117.884 217.609 99.1721C217.643 99.1271 217.686 99.0894 217.734 99.0609C217.783 99.0325 217.837 99.0139 217.893 99.0063C217.948 98.9988 218.005 99.0023 218.059 99.0167C218.114 99.0311 218.165 99.0561 218.209 99.0903C218.254 99.1245 218.292 99.1672 218.32 99.216C218.348 99.2648 218.367 99.3187 218.374 99.3747C218.382 99.4306 218.378 99.4875 218.364 99.542C218.349 99.5966 218.324 99.6478 218.29 99.6926C204.202 118.243 199.497 140.86 198.03 156.567C196.44 173.595 198.207 186.383 198.225 186.51C198.233 186.571 198.229 186.633 198.211 186.692C198.194 186.751 198.164 186.806 198.124 186.852C198.084 186.898 198.034 186.936 197.978 186.961C197.922 186.987 197.862 187 197.8 187Z" fill="#3F3D56"/>
<path d="M209.602 125.977C209.511 125.977 209.423 125.948 209.35 125.895C209.277 125.842 209.222 125.766 209.194 125.68C209.166 125.594 209.166 125.501 209.194 125.415C209.222 125.328 209.277 125.253 209.35 125.2C213.399 122.45 217.773 120.216 222.372 118.549C229.556 115.91 240.482 113.517 251.729 117.109C251.782 117.126 251.832 117.153 251.875 117.19C251.918 117.226 251.953 117.271 251.979 117.321C252.005 117.371 252.021 117.425 252.026 117.482C252.03 117.538 252.024 117.594 252.007 117.648C251.99 117.702 251.962 117.752 251.926 117.795C251.89 117.838 251.846 117.873 251.796 117.899C251.746 117.925 251.691 117.941 251.635 117.946C251.579 117.95 251.523 117.944 251.469 117.927C240.452 114.409 229.725 116.762 222.666 119.355C218.141 120.994 213.837 123.19 209.853 125.895C209.78 125.948 209.692 125.977 209.602 125.977Z" fill="#3F3D56"/>
<path d="M190.014 77.0276C190.007 76.9371 190.029 76.8469 190.077 76.7698C190.125 76.6927 190.196 76.6328 190.279 76.5986C190.363 76.5644 190.455 76.5577 190.543 76.5794C190.631 76.6011 190.71 76.6501 190.768 76.7195C193.793 80.5736 196.329 84.7902 198.317 89.2723C201.458 96.2721 204.623 107.033 201.863 118.547C201.85 118.602 201.826 118.654 201.793 118.7C201.76 118.745 201.718 118.784 201.671 118.813C201.623 118.843 201.569 118.862 201.514 118.871C201.458 118.88 201.402 118.878 201.347 118.865C201.292 118.851 201.241 118.828 201.195 118.794C201.15 118.761 201.111 118.719 201.082 118.671C201.053 118.623 201.033 118.57 201.024 118.514C201.015 118.458 201.018 118.401 201.031 118.346C203.735 107.068 200.623 96.5025 197.537 89.6249C195.582 85.2148 193.089 81.0657 190.113 77.2731C190.055 77.2039 190.02 77.1179 190.014 77.0276Z" fill="#3F3D56"/>
<path d="M14.1584 74.3767C14.1518 74.2862 14.1739 74.196 14.2216 74.1189C14.2693 74.0419 14.3401 73.9819 14.4238 73.9477C14.5075 73.9135 14.5999 73.9068 14.6877 73.9285C14.7754 73.9502 14.8541 73.9993 14.9124 74.0686C17.9377 77.9227 20.4737 82.1394 22.462 86.6214C25.6028 93.6212 28.768 104.382 26.0076 115.896C25.9945 115.951 25.9708 116.003 25.9377 116.049C25.9047 116.094 25.863 116.133 25.8151 116.162C25.7671 116.192 25.7139 116.212 25.6583 116.22C25.6028 116.229 25.5461 116.227 25.4914 116.214C25.4367 116.201 25.3852 116.177 25.3397 116.144C25.2943 116.11 25.2558 116.069 25.2264 116.02C25.1971 115.972 25.1775 115.919 25.1688 115.863C25.16 115.807 25.1623 115.75 25.1755 115.696C27.8791 104.417 24.7675 93.8516 21.6814 86.974C19.7269 82.5639 17.2333 78.4148 14.258 74.6222C14.1997 74.553 14.1648 74.4671 14.1584 74.3767Z" fill="#3F3D56"/>
<path d="M132.288 30.9668C131.777 30.4415 131.149 30.0459 130.455 29.8129C129.762 29.58 129.023 29.5163 128.3 29.6273C127.577 29.7382 126.891 30.0205 126.298 30.4508C125.706 30.8811 125.224 31.4469 124.894 32.1014C117.93 36.9639 113.515 43.4793 111.85 51.7777L99.4963 40.5318C99.6411 39.5911 99.4854 38.6285 99.0513 37.7821C98.6172 36.9357 97.9271 36.2489 97.0799 35.8204C96.2328 35.3918 95.2721 35.2434 94.3357 35.3965C93.3994 35.5496 92.5354 35.9963 91.8677 36.6726C91.2 37.3488 90.7629 38.2199 90.619 39.1608C90.4752 40.1017 90.6321 41.0641 91.0671 41.91C91.5022 42.7559 92.1931 43.4419 93.0407 43.8695C93.8883 44.2971 94.8491 44.4444 95.7853 44.2902C98.0531 48.1526 108.572 65.2327 115.064 61.3223C120.522 58.0354 130.213 41.7498 133.06 36.3487C133.516 35.4852 133.686 34.4987 133.548 33.5316C133.409 32.5644 132.968 31.6663 132.288 30.9668Z" fill="#FFB6B6"/>
<path d="M132.683 38.4245C133.303 36.7375 133.8 34.8779 133.262 33.1627C132.671 31.2763 130.853 29.9256 128.91 29.597C126.966 29.2685 124.946 29.8565 123.275 30.905C121.604 31.9536 120.245 33.4347 119.037 34.9977L119.361 34.4813C117.789 36.5475 116.217 38.6137 114.645 40.6799C118.635 43.4609 122.624 46.242 126.614 49.023C129.214 45.8561 131.266 42.2734 132.683 38.4245Z" fill="#00AA0A"/>
<path d="M115.477 180.749L109.762 180.749L107.044 158.633L115.478 158.633L115.477 180.749Z" fill="#FFB6B6"/>
<path d="M115.678 186.73L98.105 186.73V186.507C98.1051 184.687 98.8258 182.941 100.108 181.654C101.391 180.367 103.131 179.644 104.945 179.644H104.945L108.155 177.201L114.144 179.644L115.678 179.644L115.678 186.73Z" fill="#2F2E41"/>
<path d="M199.302 99.3237L201.701 104.527L182.837 116.288L179.296 108.607L199.302 99.3237Z" fill="#FFB6B6"/>
<path d="M204.628 96.6294L212.005 112.632L211.804 112.726C210.157 113.49 208.276 113.566 206.573 112.939C204.87 112.311 203.486 111.03 202.724 109.378L202.724 109.378L199.166 107.481L198.862 101.001L198.218 99.6041L204.628 96.6294Z" fill="#2F2E41"/>
<path d="M72.8184 11.1065C73.9919 10.7531 74.7446 9.8026 74.4995 8.98351C74.2545 8.16442 73.1045 7.78692 71.931 8.14034C70.7575 8.49377 70.0048 9.44428 70.2498 10.2634C70.4949 11.0825 71.6449 11.46 72.8184 11.1065Z" fill="#E6E6E6"/>
<path d="M87.3049 10.3814C88.4785 10.028 89.2311 9.0775 88.9861 8.25841C88.741 7.43932 87.5911 7.06182 86.4176 7.41525C85.2441 7.76867 84.4914 8.71918 84.7364 9.53827C84.9814 10.3574 86.1314 10.7348 87.3049 10.3814Z" fill="#3F3D56"/>
<path d="M70.6208 23.2872C71.7944 22.9338 72.547 21.9833 72.302 21.1642C72.057 20.3451 70.907 19.9676 69.7335 20.321C68.56 20.6744 67.8073 21.6249 68.0523 22.444C68.2974 23.2631 69.4473 23.6406 70.6208 23.2872Z" fill="#FF6584"/>
<path d="M66.0515 28.3787C66.5838 28.2954 66.9185 27.6056 66.7992 26.8379C66.6799 26.0703 66.1517 25.5155 65.6195 25.5987C65.0872 25.682 64.7525 26.3718 64.8718 27.1395C64.9911 27.9072 65.5193 28.462 66.0515 28.3787Z" fill="#E6E6E6"/>
<path d="M65.2544 37.5413C65.7866 37.458 66.1214 36.7682 66.0021 36.0005C65.8828 35.2329 65.3546 34.6781 64.8224 34.7613C64.2901 34.8446 63.9554 35.5344 64.0747 36.3021C64.194 37.0698 64.7222 37.6246 65.2544 37.5413Z" fill="#3F3D56"/>
<path d="M79.3174 19.5335C79.8496 19.4502 80.1844 18.7604 80.0651 17.9927C79.9458 17.2251 79.4176 16.6702 78.8854 16.7535C78.3531 16.8368 78.0183 17.5266 78.1377 18.2943C78.257 19.0619 78.7851 19.6168 79.3174 19.5335Z" fill="#E6E6E6"/>
<path d="M71.906 17.1028C72.4383 17.0196 72.773 16.3297 72.6537 15.5621C72.5344 14.7944 72.0062 14.2396 71.474 14.3229C70.9417 14.4061 70.607 15.096 70.7263 15.8636C70.8456 16.6313 71.3738 17.1861 71.906 17.1028Z" fill="#FF6584"/>
<path d="M80.5684 9.28495C81.1006 9.20168 81.4354 8.51186 81.3161 7.74419C81.1968 6.97652 80.6686 6.42172 80.1363 6.50499C79.6041 6.58826 79.2693 7.27808 79.3886 8.04574C79.5079 8.81341 80.0361 9.36822 80.5684 9.28495Z" fill="#3F3D56"/>
<path d="M161.621 155.491C162.833 155.314 163.716 154.484 163.594 153.638C163.471 152.792 162.389 152.249 161.176 152.426C159.964 152.603 159.08 153.433 159.203 154.279C159.326 155.125 160.408 155.668 161.621 155.491Z" fill="#E6E6E6"/>
<path d="M147.185 154.077C148.397 153.9 149.281 153.071 149.158 152.224C149.035 151.378 147.953 150.836 146.74 151.013C145.528 151.19 144.644 152.019 144.767 152.865C144.89 153.712 145.972 154.254 147.185 154.077Z" fill="#3F3D56"/>
<path d="M165.574 143.765C166.786 143.588 167.67 142.758 167.547 141.912C167.424 141.066 166.342 140.523 165.129 140.7C163.917 140.877 163.033 141.707 163.156 142.553C163.279 143.399 164.361 143.942 165.574 143.765Z" fill="#FF6584"/>
<path d="M170.415 139.149C170.953 139.145 171.385 138.512 171.379 137.735C171.373 136.958 170.932 136.331 170.393 136.335C169.855 136.339 169.423 136.973 169.429 137.75C169.434 138.526 169.876 139.153 170.415 139.149Z" fill="#E6E6E6"/>
<path d="M172.542 130.203C173.081 130.198 173.513 129.565 173.507 128.788C173.501 128.012 173.059 127.385 172.521 127.389C171.982 127.393 171.55 128.026 171.556 128.803C171.562 129.58 172.003 130.207 172.542 130.203Z" fill="#3F3D56"/>
<path d="M156 145.948C156.539 145.944 156.971 145.31 156.965 144.534C156.959 143.757 156.517 143.13 155.979 143.134C155.44 143.138 155.008 143.771 155.014 144.548C155.02 145.325 155.461 145.952 156 145.948Z" fill="#E6E6E6"/>
<path d="M162.975 149.442C163.514 149.438 163.946 148.805 163.94 148.028C163.934 147.251 163.493 146.625 162.954 146.629C162.415 146.633 161.984 147.266 161.989 148.043C161.995 148.82 162.437 149.446 162.975 149.442Z" fill="#FF6584"/>
<path d="M153.265 155.901C153.804 155.897 154.236 155.264 154.23 154.487C154.224 153.71 153.783 153.084 153.244 153.088C152.705 153.092 152.273 153.725 152.279 154.502C152.285 155.279 152.726 155.905 153.265 155.901Z" fill="#3F3D56"/>
<path d="M124.464 80.7856L120.991 85.053C121.07 86.2087 120.707 86.8691 119.628 86.7273C119.628 86.7273 119.789 88.8434 118.468 88.1533C117.146 87.4632 117.47 89.3789 117.47 89.3789L116.483 90.5923C116.483 90.5923 116.452 92.6559 115.478 91.8269C114.504 90.998 114.191 93.4075 114.191 93.4075L112.952 94.9303L100.317 110.455L107.4 167.517L115.678 166.995L117.696 116.971C118.211 115.592 118.992 114.869 120.186 115.164C120.721 115.282 121.034 114.959 121.231 114.406L122.183 113.716L134.64 104.677L151.095 132.973L192.009 111.323L188.193 103.959L159.49 113.487L158.737 104.477C157.757 103.904 157.921 103.219 158.571 102.487L158.383 100.239C159.356 99.6397 158.874 98.69 158.17 97.6868C156.7 96.5978 156.844 95.3572 157.865 94.0345C157.865 94.0345 159.154 77.1113 152.904 74.7761C146.654 72.441 124.464 80.7856 124.464 80.7856Z" fill="#2F2E41"/>
<path d="M136.734 25.2363L128.89 25.6049L124.779 31.4961C121.918 37.8125 121.132 44.8782 122.536 51.6721L125.367 65.3709L124.617 75.5292C122.607 77.1556 122.44 79.0677 124.192 81.2773C122.035 88.7445 140.39 85.3838 157.367 82.7502C157.426 79.1924 156.507 75.5699 154.138 71.8513L156.422 42.172L147.972 32.0853L141.505 27.812L136.734 25.2363Z" fill="#00AA0A"/>
<path d="M144.075 33.3767C143.448 33.754 142.919 34.2759 142.533 34.8992C142.147 35.5225 141.915 36.2292 141.855 36.9606C141.796 37.692 141.911 38.427 142.192 39.1048C142.472 39.7825 142.91 40.3833 143.468 40.8574C144.415 47.0184 150.293 52.9535 159.538 58.1336L145.78 67.5974C144.902 67.2388 143.932 67.1686 143.011 67.397C142.09 67.6254 141.265 68.1406 140.654 68.8687C140.042 69.5967 139.677 70.5003 139.609 71.4498C139.541 72.3993 139.775 73.3459 140.277 74.1538C140.778 74.9618 141.522 75.5896 142.401 75.9472C143.281 76.3048 144.25 76.3738 145.171 76.1444C146.092 75.915 146.916 75.3989 147.527 74.6701C148.137 73.9413 148.502 73.0373 148.568 72.0878C152.837 70.7655 171.829 64.4395 169.536 57.1987C167.608 51.1124 154.053 37.8918 149.472 33.8654C148.74 33.2212 147.823 32.8267 146.853 32.7389C145.883 32.6511 144.91 32.8744 144.075 33.3767Z" fill="#FFB6B6"/>
<path d="M129.113 60.9759C128.199 60.9743 127.319 60.6272 126.648 60.0037C125.977 59.3803 125.564 58.5261 125.493 57.6114L125.006 51.3799C124.93 50.4149 125.24 49.4594 125.867 48.7235C126.494 47.9877 127.386 47.5317 128.348 47.456L140.412 46.5068C141.374 46.4312 142.326 46.7419 143.06 47.3707C143.793 47.9996 144.247 48.8949 144.323 49.8599L144.81 56.0914C144.885 57.0564 144.576 58.0119 143.949 58.7478C143.322 59.4836 142.43 59.9396 141.468 60.0153L129.403 60.9645C129.306 60.9722 129.21 60.9759 129.113 60.9759Z" fill="#F2F2F2"/>
<path d="M130.85 23.7425C136.522 23.7425 141.121 19.1287 141.121 13.4374C141.121 7.74606 136.522 3.13232 130.85 3.13232C125.177 3.13232 120.579 7.74606 120.579 13.4374C120.579 19.1287 125.177 23.7425 130.85 23.7425Z" fill="#FFB6B6"/>
<path d="M141.521 6.87915C141.034 6.24525 140.477 5.66305 140.053 4.98514C139.645 4.33246 139.367 3.59983 138.907 2.98292C137.546 1.15835 135.017 0.785243 132.757 0.558008C131.265 0.407978 129.773 0.257942 128.281 0.107898C127.442 -0.0112049 126.592 -0.0266063 125.75 0.0620474C124.949 0.186916 124.187 0.496228 123.525 0.965752C122.863 1.43528 122.318 2.05226 121.933 2.76838C121.496 3.59837 121.204 4.6328 120.351 5.01991C119.95 5.14701 119.541 5.24906 119.126 5.3255C118.724 5.45083 118.319 5.77367 118.334 6.19648C118.362 6.97939 119.738 7.42754 119.403 8.13475C119.106 8.75929 117.918 8.31615 117.749 9.25898C117.727 9.39504 117.732 9.53438 117.766 9.66807C117.8 9.80176 117.862 9.92685 117.947 10.0353C118.33 10.5277 118.959 10.6556 119.548 10.7643L118.501 12.266C121.89 13.6629 125.662 13.8098 129.148 12.6806C129.668 12.5076 130.224 12.4684 130.763 12.5667C131.303 12.665 131.809 12.8977 132.236 13.2433C132.662 13.5888 132.995 14.0364 133.205 14.5448C133.414 15.0532 133.493 15.6062 133.434 16.1531L133.429 16.1958C133.407 16.3607 133.429 16.5286 133.494 16.6818C133.559 16.835 133.664 16.9677 133.798 17.0658C134.329 17.4279 134.868 16.9199 135.109 16.4172C135.354 15.9059 135.517 15.2855 136.109 15.1063C136.351 15.0451 136.606 15.0643 136.836 15.161C137.066 15.2577 137.259 15.4266 137.385 15.6425C137.846 16.3683 137.657 17.2345 137.391 18.0026C136.778 19.7751 135.782 21.3897 134.474 22.7311C136.705 22.583 136.052 22.8074 138.284 22.6594L138.906 22.7565C140.399 21.8219 141.139 20.0436 141.533 18.3225C142.426 14.4183 143.958 10.0523 141.521 6.87915Z" fill="#2F2E41"/>
<path d="M150.229 32.533C148.746 31.5235 147.067 30.5926 145.278 30.7045C143.311 30.8275 141.567 32.2732 140.782 34.0872C139.998 35.9013 140.081 38.0099 140.694 39.8894C141.307 41.7689 142.413 43.4483 143.636 44.9998L143.214 44.5608C144.835 46.5881 146.456 48.6155 148.078 50.6428C151.727 47.4252 155.376 44.2077 159.025 40.9902C156.586 37.6968 153.613 34.8379 150.229 32.533Z" fill="#00AA0A"/>
<path d="M130.565 186.188L130.569 185.983C130.662 182.54 131.501 179.158 133.028 176.074C134.554 172.989 136.732 170.274 139.41 168.119C140.921 166.923 142.577 165.922 144.338 165.14L144.506 165.065L144.535 165.247C144.876 167.421 145.416 169.64 145.667 170.624L147.353 164.022L147.541 163.968C148.4 163.715 149.315 163.726 150.168 163.999C151.021 164.273 151.773 164.796 152.327 165.502C152.905 166.208 153.259 167.072 153.343 167.982C153.428 168.892 153.239 169.806 152.8 170.607C152.407 171.342 152.021 172.109 151.647 172.85C150.363 175.398 149.035 178.033 147.1 180.079C145.621 181.614 143.818 182.798 141.824 183.544C139.83 184.291 137.695 184.581 135.575 184.393L130.565 186.188Z" fill="#F2F2F2"/>
<path d="M154.394 186.784L74.6135 186.875C74.5676 186.875 74.5221 186.865 74.4797 186.848C74.4373 186.83 74.3988 186.804 74.3663 186.772C74.3338 186.739 74.3081 186.701 74.2905 186.658C74.273 186.615 74.2639 186.57 74.2639 186.524C74.2639 186.478 74.273 186.432 74.2905 186.39C74.3081 186.347 74.3338 186.308 74.3663 186.276C74.3988 186.243 74.4373 186.217 74.4797 186.2C74.5221 186.182 74.5676 186.173 74.6135 186.173L154.394 186.083C154.487 186.083 154.576 186.119 154.642 186.185C154.707 186.251 154.744 186.34 154.744 186.433C154.744 186.526 154.707 186.615 154.642 186.681C154.576 186.747 154.487 186.784 154.394 186.784Z" fill="#CACACA"/>
<path d="M228.964 186.784L182.945 186.875C182.899 186.875 182.854 186.865 182.811 186.848C182.769 186.83 182.731 186.804 182.698 186.772C182.666 186.739 182.64 186.701 182.622 186.658C182.605 186.615 182.596 186.57 182.596 186.524C182.596 186.478 182.605 186.432 182.622 186.39C182.64 186.347 182.666 186.308 182.698 186.276C182.731 186.243 182.769 186.217 182.811 186.2C182.854 186.182 182.899 186.173 182.945 186.173L228.964 186.083C229.057 186.083 229.146 186.119 229.211 186.185C229.277 186.251 229.314 186.34 229.314 186.433C229.314 186.526 229.277 186.615 229.211 186.681C229.146 186.747 229.057 186.784 228.964 186.784Z" fill="#CACACA"/>
<path d="M46.0626 186.784L2.97945 186.875C2.93354 186.875 2.88809 186.865 2.84567 186.848C2.80326 186.83 2.76473 186.804 2.73227 186.772C2.69981 186.739 2.67406 186.701 2.65649 186.658C2.63893 186.615 2.62988 186.57 2.62988 186.524C2.62988 186.478 2.63893 186.432 2.65649 186.39C2.67406 186.347 2.69981 186.308 2.73227 186.276C2.76473 186.243 2.80326 186.217 2.84567 186.2C2.88809 186.182 2.93354 186.173 2.97945 186.173L46.0626 186.083C46.1086 186.082 46.1541 186.091 46.1967 186.109C46.2392 186.126 46.2779 186.152 46.3104 186.185C46.343 186.217 46.3688 186.256 46.3865 186.299C46.4041 186.341 46.4132 186.387 46.4132 186.433C46.4132 186.479 46.4041 186.525 46.3865 186.568C46.3688 186.61 46.343 186.649 46.3104 186.682C46.2779 186.714 46.2392 186.74 46.1967 186.758C46.1541 186.775 46.1086 186.784 46.0626 186.784Z" fill="#CACACA"/>
<path d="M92.7272 29.5356C92.5579 29.5356 92.3904 29.5708 92.2353 29.639C92.0802 29.7073 91.9409 29.807 91.8262 29.9319C91.7115 30.0569 91.6238 30.2043 91.5688 30.365C91.5137 30.5256 91.4924 30.696 91.5063 30.8653C92.7574 36.7811 93.3077 42.4224 92.8839 47.6822C92.9107 47.9891 93.0507 48.2749 93.2765 48.4837C93.5023 48.6924 93.7977 48.809 94.1048 48.8106H102.008C102.315 48.809 102.61 48.6924 102.836 48.4837C103.062 48.2749 103.202 47.9891 103.229 47.6822C102.59 42.3768 103.265 36.7121 104.606 30.8653C104.62 30.696 104.599 30.5256 104.544 30.365C104.489 30.2043 104.401 30.0569 104.286 29.9319C104.172 29.807 104.032 29.7072 103.877 29.639C103.722 29.5708 103.555 29.5356 103.385 29.5356H92.7272Z" fill="#00AA0A"/>
<path d="M105.239 31.7767L104.649 28.9666C104.596 28.711 104.456 28.4818 104.254 28.3172C104.052 28.1527 103.8 28.0629 103.539 28.0629H99.8586C99.8442 28.0139 99.8207 27.968 99.7894 27.9276L99.3804 27.4147C99.3419 27.3663 99.293 27.3273 99.2374 27.3005C99.1818 27.2737 99.1209 27.2598 99.0592 27.2598H96.7865C96.7248 27.2598 96.6639 27.2737 96.6083 27.3005C96.5527 27.3273 96.5038 27.3663 96.4652 27.4147L96.0562 27.9276C96.0249 27.968 96.0015 28.0139 95.9871 28.0629H92.5731C92.3128 28.0629 92.0605 28.1527 91.8584 28.3172C91.6563 28.4818 91.5167 28.711 91.4631 28.9666L90.8735 31.7767C90.8387 31.9424 90.8412 32.1138 90.8808 32.2785C90.9205 32.4431 90.9962 32.5968 91.1026 32.7283C91.209 32.8598 91.3432 32.9658 91.4956 33.0387C91.648 33.1115 91.8147 33.1493 91.9835 33.1493C95.8391 34.3752 99.8876 34.3752 104.129 33.1493C104.298 33.1493 104.464 33.1115 104.617 33.0387C104.769 32.9658 104.904 32.8598 105.01 32.7283C105.116 32.5968 105.192 32.4431 105.232 32.2785C105.271 32.1138 105.274 31.9424 105.239 31.7767Z" fill="#3F3D56"/>
</g>
<defs>
<clipPath id="clip0_357_261">
<rect width="264" height="187" fill="white"/>
</clipPath>
</defs>
</svg>
