<svg width="67" height="67" viewBox="0 0 67 67" fill="none" xmlns="http://www.w3.org/2000/svg">
<path d="M54.1018 31.691L50.3997 26.5198C49.5005 25.299 48.3321 24.3023 46.9844 23.6087L39.4228 19.6387C37.6757 18.9265 36.4144 18.3412 34.5874 18.256L32.476 18.1956C31.1676 18.1738 29.8384 18.5851 28.9249 19.5238L21.7288 25.9826L15.4953 27.6924C14.3149 28.0163 13.595 29.2075 13.8565 30.4033L13.8785 30.4962C14.1356 31.6722 15.2568 32.4501 16.4493 32.2794L21.4706 31.5639C22.7233 31.3846 23.9322 30.9775 25.037 30.3638L28.0717 28.3158L28.2271 38.388C28.1963 39.1986 28.1789 39.7522 27.8386 40.344L17.5476 58.2196C16.8125 59.4941 17.2468 61.1219 18.5169 61.8625L18.6055 61.9139C19.8077 62.6152 21.3459 62.2761 22.1422 61.1361L33.8981 44.511L38.4009 54.3654C38.7488 54.8238 39.1699 55.2198 39.6481 55.5405L48.634 61.5573C49.7651 62.3165 51.2923 62.0757 52.1369 61.0048L52.2374 60.8767C52.6696 60.3287 52.8632 59.6297 52.7779 58.9371C52.6914 58.2446 52.3315 57.6144 51.778 57.19L44.0282 51.2355L39.5407 38.5541L39.9412 27.1855L45.3213 28.8024L50.9793 34.3576C51.6904 35.0566 52.8062 35.1342 53.607 34.5392L53.6616 34.4998C54.5503 33.8408 54.7473 32.5904 54.1018 31.691Z" fill="white"/>
<path d="M39.8693 10.9583C39.3289 14.9131 43.0123 15.3441 44.0636 14.2402C42.9675 14.0214 42.6097 11.6891 43.1578 10.1541C43.707 8.61928 44.1818 5.62174 42.7476 4.26309C40.912 2.52154 38.0414 2.69877 36.7986 4.89109C37.1639 5.32983 37.9779 5.79261 38.4067 6.28037C39.5761 5.84175 40.2194 8.39187 39.8693 10.9583Z" fill="white"/>
<path d="M32.3197 16.0238C35.3708 16.4899 38.2239 14.3949 38.6921 11.3428C39.1581 8.29058 37.062 5.43744 34.0099 4.97038C30.9578 4.50331 28.1047 6.59932 27.6386 9.65154C27.1703 12.7035 29.2676 15.5567 32.3197 16.0238Z" fill="white"/>
</svg>
