<svg width="25" height="25" viewBox="0 0 25 25" fill="none" xmlns="http://www.w3.org/2000/svg">
<path fill-rule="evenodd" clip-rule="evenodd" d="M13.2757 14.6788C11.7679 14.6788 10.5448 13.4565 10.5448 11.948C10.5448 11.1837 10.8577 10.4946 11.3637 9.99826C11.5516 9.81396 11.5545 9.51227 11.3702 9.3244C11.1859 9.13654 10.8842 9.13365 10.6963 9.31795C10.0153 9.98598 9.5918 10.9171 9.5918 11.948C9.5918 13.983 11.2417 15.6318 13.2757 15.6318C14.3056 15.6318 15.2376 15.2083 15.9057 14.5273C16.09 14.3395 16.0871 14.0378 15.8992 13.8535C15.7114 13.6692 15.4097 13.6721 15.2254 13.8599C14.729 14.3659 14.0392 14.6788 13.2757 14.6788Z" fill="#677185"/>
<path fill-rule="evenodd" clip-rule="evenodd" d="M5.72022 15.893C7.25172 17.7738 9.68338 19.7056 13.1931 19.7056C15.5733 19.7056 17.4681 18.8146 18.9212 17.652C19.1245 17.4894 19.1565 17.1939 18.9927 16.9921C18.8288 16.7903 18.5312 16.7586 18.3279 16.9212C17.0082 17.9771 15.3168 18.767 13.1931 18.767C10.0747 18.767 7.88669 17.0605 6.45553 15.303C5.741 14.4255 5.22462 13.5457 4.88696 12.8845C4.71842 12.5545 4.59516 12.2804 4.5146 12.0904C4.49456 12.0431 4.47717 12.0011 4.4624 11.9647C4.49847 11.8804 4.54921 11.7656 4.61492 11.6257C4.76579 11.3045 4.99497 10.852 5.3058 10.333C5.9295 9.29161 6.87162 7.99976 8.15444 6.95873C8.35659 6.79469 8.38649 6.49904 8.22124 6.29838C8.05598 6.09772 7.75815 6.06804 7.55601 6.23208C6.15874 7.36598 5.15011 8.75632 4.49307 9.85337C4.16353 10.4036 3.91985 10.8844 3.75796 11.2292C3.67696 11.4016 3.61629 11.5403 3.57545 11.637C3.55503 11.6854 3.53956 11.7232 3.52897 11.7496C3.52368 11.7627 3.51961 11.773 3.51675 11.7803L3.51337 11.789L3.51237 11.7916L3.51203 11.7924L3.51191 11.7928C3.51186 11.7929 3.51181 11.793 3.95371 11.9598C3.50837 12.1173 3.50844 12.1175 3.50853 12.1177L3.50874 12.1183L3.50935 12.12L3.51131 12.1253C3.51293 12.1298 3.51521 12.136 3.51815 12.1438C3.52401 12.1595 3.53251 12.1819 3.54367 12.2106C3.566 12.268 3.59903 12.3505 3.64312 12.4545C3.73126 12.6624 3.8638 12.9568 4.04363 13.3089C4.40271 14.0121 4.95342 14.9514 5.72022 15.893ZM3.95371 11.9598L3.50837 12.1173C3.47067 12.0122 3.47189 11.8973 3.51181 11.793L3.95371 11.9598Z" fill="#677185"/>
<path fill-rule="evenodd" clip-rule="evenodd" d="M19.5295 16.1925C19.7224 16.3634 20.0188 16.3472 20.1915 16.1564C21.0984 15.1543 21.7491 14.1109 22.1728 13.3202C22.3851 12.9241 22.5414 12.5894 22.6453 12.3521C22.6973 12.2334 22.7361 12.139 22.7624 12.0733C22.7755 12.0404 22.7855 12.0147 22.7924 11.9968C22.7958 11.9878 22.7985 11.9807 22.8004 11.9757L22.8026 11.9696L22.8033 11.9677L22.8036 11.9671L22.8037 11.9668C22.8037 11.9667 22.8037 11.9666 22.3629 11.8086C22.8012 11.6439 22.8012 11.6437 22.8011 11.6435L22.8002 11.6413L22.7982 11.636C22.7965 11.6316 22.7941 11.6255 22.791 11.6178C22.7848 11.6022 22.7758 11.58 22.7641 11.5515C22.7405 11.4946 22.7058 11.4127 22.6595 11.3093C22.5672 11.1025 22.4288 10.8096 22.2428 10.4592C21.8713 9.75953 21.3065 8.82472 20.5335 7.88759C18.992 6.01894 16.5759 4.08928 13.1786 4.08928C11.6464 4.08928 10.3086 4.48371 9.1609 5.09012C8.9325 5.2108 8.84623 5.49179 8.96823 5.71773C9.09022 5.94367 9.37427 6.029 9.60267 5.90833C10.6287 5.36621 11.8159 5.01687 13.1786 5.01687C16.1799 5.01687 18.3559 6.71496 19.807 8.47405C20.5302 9.3508 21.0618 10.2299 21.4126 10.8906C21.5877 11.2204 21.717 11.4943 21.8019 11.6844C21.8234 11.7325 21.8421 11.7752 21.8579 11.812C21.8382 11.8597 21.8138 11.9172 21.7848 11.9834C21.6894 12.2014 21.5436 12.5139 21.3443 12.8858C20.945 13.631 20.3353 14.6069 19.4929 15.5376C19.3202 15.7285 19.3366 16.0217 19.5295 16.1925ZM22.3629 11.8086L22.8012 11.6439C22.8411 11.7477 22.842 11.8622 22.8037 11.9666L22.3629 11.8086Z" fill="#677185"/>
<path fill-rule="evenodd" clip-rule="evenodd" d="M16.1557 12.9093C16.3995 12.9534 16.6303 12.7764 16.6714 12.5139C16.7028 12.3126 16.7207 12.1044 16.7207 11.8897C16.7207 9.83217 15.1719 8.1632 13.2604 8.1632C13.061 8.1632 12.8677 8.18246 12.6807 8.21634C12.437 8.26053 12.2726 8.50916 12.3137 8.77168C12.3547 9.0342 12.5856 9.2112 12.8293 9.16701C12.9712 9.1413 13.1147 9.12725 13.2604 9.12725C14.6774 9.12725 15.8255 10.3644 15.8255 11.8897C15.8255 12.0465 15.8125 12.2011 15.7886 12.3539C15.7476 12.6164 15.9119 12.8651 16.1557 12.9093Z" fill="#677185"/>
<path fill-rule="evenodd" clip-rule="evenodd" d="M9.5918 11.948C9.5918 13.9829 11.2407 15.6318 13.2757 15.6318C14.3065 15.6318 15.2376 15.2083 15.9057 14.5273C16.09 14.3395 16.0871 14.0378 15.8992 13.8535C15.7114 13.6692 15.4097 13.6721 15.2254 13.8599C14.729 14.3659 14.04 14.6788 13.2757 14.6788C11.7671 14.6788 10.5448 13.4566 10.5448 11.948C10.5448 11.1845 10.8578 10.4946 11.3637 9.99826C11.5516 9.81396 11.5545 9.51227 11.3702 9.3244C11.1859 9.13654 10.8842 9.13365 10.6963 9.31795C10.0153 9.98603 9.5918 10.9181 9.5918 11.948Z" fill="#677185"/>
<path fill-rule="evenodd" clip-rule="evenodd" d="M21.3379 19.9092C21.5191 19.728 21.5191 19.4342 21.3379 19.253L5.97067 3.88574C5.78944 3.70451 5.49562 3.70451 5.31439 3.88574C5.13316 4.06696 5.13316 4.36079 5.31439 4.54202L20.6816 19.9092C20.8628 20.0905 21.1567 20.0905 21.3379 19.9092Z" fill="#677185"/>
</svg>
