<svg width="25" height="25" viewBox="0 0 25 25" fill="none" xmlns="http://www.w3.org/2000/svg">
<path fill-rule="evenodd" clip-rule="evenodd" d="M12.7537 14.4996C11.2517 14.4996 10.0333 13.282 10.0333 11.7793C10.0333 11.0179 10.345 10.3316 10.8491 9.83711C11.0362 9.65352 11.0391 9.35299 10.8555 9.16585C10.6719 8.97871 10.3714 8.97583 10.1842 9.15942C9.50589 9.82488 9.08398 10.7524 9.08398 11.7793C9.08398 13.8065 10.7275 15.449 12.7537 15.449C13.7796 15.449 14.708 15.0271 15.3735 14.3487C15.5571 14.1616 15.5543 13.8611 15.3671 13.6775C15.18 13.4939 14.8794 13.4968 14.6958 13.6839C14.2014 14.1879 13.5142 14.4996 12.7537 14.4996Z" fill="#677185"/>
<path fill-rule="evenodd" clip-rule="evenodd" d="M5.2277 15.7092C6.7533 17.5827 9.17559 19.5071 12.6717 19.5071C15.0429 19.5071 16.9303 18.6195 18.3778 17.4614C18.5803 17.2994 18.6122 17.0051 18.449 16.8041C18.2858 16.6031 17.9893 16.5714 17.7868 16.7335C16.4721 17.7852 14.7873 18.5721 12.6717 18.5721C9.56541 18.5721 7.38583 16.8722 5.96018 15.1215C5.2484 14.2474 4.73402 13.371 4.39766 12.7123C4.22976 12.3836 4.10698 12.1106 4.02673 11.9213C4.00677 11.8742 3.98945 11.8323 3.97473 11.796C4.01066 11.7121 4.06121 11.5977 4.12666 11.4584C4.27695 11.1384 4.50525 10.6876 4.81488 10.1706C5.43617 9.13326 6.37467 7.84639 7.65255 6.80937C7.85391 6.64596 7.8837 6.35145 7.71908 6.15156C7.55447 5.95168 7.25778 5.9221 7.05642 6.08552C5.66454 7.21504 4.65979 8.60002 4.00528 9.69285C3.67702 10.241 3.43427 10.7199 3.273 11.0633C3.19231 11.2351 3.13188 11.3733 3.0912 11.4696C3.07086 11.5178 3.05544 11.5555 3.0449 11.5817C3.03963 11.5949 3.03557 11.6051 3.03273 11.6124L3.02936 11.621L3.02836 11.6236L3.02803 11.6245L3.0279 11.6248C3.02785 11.6249 3.0278 11.625 3.468 11.7911C3.02438 11.948 3.02445 11.9482 3.02453 11.9484L3.02475 11.949L3.02536 11.9507L3.0273 11.9561C3.02892 11.9605 3.03119 11.9666 3.03412 11.9745C3.03996 11.9901 3.04842 12.0125 3.05955 12.041C3.08179 12.0982 3.11469 12.1803 3.15861 12.2839C3.24641 12.491 3.37843 12.7843 3.55757 13.1351C3.91527 13.8355 4.46386 14.7712 5.2277 15.7092ZM3.468 11.7911L3.02438 11.948C2.98682 11.8434 2.98804 11.7289 3.0278 11.625L3.468 11.7911Z" fill="#677185"/>
<path fill-rule="evenodd" clip-rule="evenodd" d="M18.9835 16.0077C19.1756 16.1779 19.4709 16.1617 19.643 15.9716C20.5463 14.9735 21.1945 13.9341 21.6166 13.1464C21.828 12.7518 21.9838 12.4184 22.0872 12.1821C22.139 12.0638 22.1778 11.9698 22.2039 11.9043C22.217 11.8716 22.2269 11.846 22.2338 11.8281C22.2372 11.8191 22.2398 11.8121 22.2417 11.8071L22.244 11.801L22.2447 11.7992L22.2449 11.7985L22.245 11.7982C22.245 11.7981 22.2451 11.798 21.806 11.6406C22.2426 11.4766 22.2425 11.4764 22.2424 11.4762L22.2416 11.474L22.2395 11.4687C22.2378 11.4644 22.2355 11.4583 22.2324 11.4506C22.2262 11.4351 22.2173 11.4129 22.2056 11.3846C22.1821 11.3279 22.1475 11.2462 22.1014 11.1432C22.0094 10.9373 21.8716 10.6455 21.6863 10.2965C21.3162 9.59947 20.7536 8.66826 19.9836 7.73475C18.448 5.87329 16.0412 3.95107 12.657 3.95107C11.1307 3.95107 9.79812 4.34398 8.65481 4.94806C8.42729 5.06827 8.34136 5.34818 8.46289 5.57325C8.58441 5.79832 8.86737 5.88332 9.09489 5.76311C10.117 5.22308 11.2996 4.87509 12.657 4.87509C15.6467 4.87509 17.8144 6.56664 19.2599 8.31895C19.9803 9.19231 20.5099 10.068 20.8593 10.7261C21.0337 11.0547 21.1625 11.3275 21.2471 11.5169C21.2686 11.5648 21.2871 11.6074 21.3029 11.6441C21.2832 11.6916 21.259 11.7488 21.2301 11.8148C21.135 12.0319 20.9898 12.3432 20.7913 12.7137C20.3935 13.4561 19.7861 14.4281 18.947 15.3553C18.775 15.5454 18.7913 15.8375 18.9835 16.0077ZM21.806 11.6406L22.2426 11.4766C22.2823 11.58 22.2832 11.694 22.2451 11.798L21.806 11.6406Z" fill="#677185"/>
<path fill-rule="evenodd" clip-rule="evenodd" d="M15.623 12.7369C15.8659 12.7809 16.0958 12.6046 16.1367 12.3431C16.1681 12.1426 16.1859 11.9352 16.1859 11.7213C16.1859 9.67169 14.6431 8.00916 12.7389 8.00916C12.5403 8.00916 12.3477 8.02834 12.1615 8.06209C11.9187 8.1061 11.7549 8.35378 11.7958 8.61529C11.8367 8.8768 12.0667 9.05311 12.3095 9.00909C12.4508 8.98348 12.5938 8.96948 12.7389 8.96948C14.1504 8.96948 15.2941 10.2019 15.2941 11.7213C15.2941 11.8775 15.2811 12.0315 15.2574 12.1837C15.2165 12.4452 15.3802 12.6929 15.623 12.7369Z" fill="#677185"/>
<path fill-rule="evenodd" clip-rule="evenodd" d="M9.08398 11.7793C9.08398 13.8064 10.7266 15.449 12.7537 15.449C13.7805 15.449 14.7081 15.0271 15.3735 14.3487C15.5571 14.1616 15.5543 13.8611 15.3671 13.6775C15.18 13.4939 14.8794 13.4968 14.6958 13.6839C14.2014 14.1879 13.515 14.4996 12.7537 14.4996C11.2509 14.4996 10.0333 13.2821 10.0333 11.7793C10.0333 11.0187 10.3451 10.3315 10.8491 9.83711C11.0362 9.65352 11.0391 9.35299 10.8555 9.16585C10.6719 8.97871 10.3714 8.97583 10.1842 9.15942C9.50584 9.82493 9.08398 10.7534 9.08398 11.7793Z" fill="#677185"/>
<path fill-rule="evenodd" clip-rule="evenodd" d="M20.7851 19.7101C20.9657 19.5295 20.9657 19.2368 20.7851 19.0563L5.47714 3.7483C5.29661 3.56777 5.00391 3.56777 4.82339 3.7483C4.64286 3.92883 4.64286 4.22152 4.82339 4.40205L20.1314 19.7101C20.3119 19.8906 20.6046 19.8906 20.7851 19.7101Z" fill="#677185"/>
</svg>
