<svg width="24" height="17" viewBox="0 0 24 17" fill="none" xmlns="http://www.w3.org/2000/svg">
<path d="M12.4475 16.9396L7.57442 16.8485C5.99661 16.8168 4.41487 16.8801 2.868 16.5513C0.514844 16.0601 0.348139 13.6513 0.173699 11.6309C-0.0666617 8.79032 0.026389 5.89823 0.47998 3.08141C0.736047 1.50088 1.74378 0.557766 3.30219 0.455137C8.56299 0.0826821 13.8588 0.126822 19.1079 0.300586C19.6623 0.316515 20.2205 0.403579 20.7671 0.502682C23.4655 0.986034 23.5313 3.71567 23.7062 6.01351C23.8806 8.33506 23.807 10.6685 23.4736 12.9743C23.2061 14.8834 22.6943 16.4843 20.5345 16.6389C17.8284 16.841 15.1844 17.0037 12.4708 16.9519C12.4709 16.9396 12.4553 16.9396 12.4475 16.9396ZM9.58262 12.1063C11.6219 10.9098 13.6222 9.7332 15.6498 8.5447C13.6068 7.34817 11.6102 6.17159 9.58262 4.98309V12.1063Z" fill="#3CDF03"/>
</svg>
